<?xml version="1.0" encoding="UTF-8" standalone="no"?><svg xmlns="http://www.w3.org/2000/svg" xmlns:xlink="http://www.w3.org/1999/xlink" contentScriptType="application/ecmascript" contentStyleType="text/css" height="679px" preserveAspectRatio="none" style="width:1353px;height:679px;" version="1.1" viewBox="0 0 1353 679" width="1353px" zoomAndPan="magnify"><defs/><g><line style="stroke:#A80036;stroke-width:1.0;stroke-dasharray:5.0,5.0;" x1="73" x2="73" y1="52.5938" y2="672.7578"/><line style="stroke:#A80036;stroke-width:1.0;stroke-dasharray:5.0,5.0;" x1="212" x2="212" y1="122.375" y2="672.7578"/><line style="stroke:#A80036;stroke-width:1.0;stroke-dasharray:5.0,5.0;" x1="343" x2="343" y1="163.6719" y2="672.7578"/><line style="stroke:#A80036;stroke-width:1.0;stroke-dasharray:5.0,5.0;" x1="475" x2="475" y1="204.9688" y2="672.7578"/><line style="stroke:#A80036;stroke-width:1.0;stroke-dasharray:5.0,5.0;" x1="606" x2="606" y1="246.2656" y2="672.7578"/><line style="stroke:#A80036;stroke-width:1.0;stroke-dasharray:5.0,5.0;" x1="785" x2="785" y1="295.7109" y2="672.7578"/><line style="stroke:#A80036;stroke-width:1.0;stroke-dasharray:5.0,5.0;" x1="1011" x2="1011" y1="440.7031" y2="672.7578"/><line style="stroke:#A80036;stroke-width:1.0;stroke-dasharray:5.0,5.0;" x1="1238" x2="1238" y1="527.4297" y2="672.7578"/><rect fill="#FEFECE" height="30.2969" style="stroke:#A80036;stroke-width:1.5;" width="136" x="5" y="21.2969"/><text fill="#000000" font-family="sans-serif" font-size="14" lengthAdjust="spacing" textLength="122" x="12" y="41.292">CompositeDemo</text><polygon fill="#A80036" points="61,79.7266,71,83.7266,61,87.7266" style="stroke:#A80036;stroke-width:1.0;"/><line style="stroke:#A80036;stroke-width:1.0;" x1="0" x2="67" y1="83.7266" y2="83.7266"/><text fill="#000000" font-family="sans-serif" font-size="13" lengthAdjust="spacing" textLength="42" x="7" y="78.6606">main()</text><polygon fill="#A80036" points="139,108.8594,149,112.8594,139,116.8594" style="stroke:#A80036;stroke-width:1.0;"/><line style="stroke:#A80036;stroke-width:1.0;stroke-dasharray:2.0,2.0;" x1="73" x2="145" y1="112.8594" y2="112.8594"/><text fill="#000000" font-family="sans-serif" font-size="13" lengthAdjust="spacing" textLength="41" x="80" y="107.7935">create</text><rect fill="#FEFECE" height="30.2969" style="stroke:#A80036;stroke-width:1.5;" width="122" x="151" y="91.7266"/><text fill="#000000" font-family="sans-serif" font-size="14" lengthAdjust="spacing" textLength="108" x="158" y="111.7217">ellipse1:Ellipse</text><polygon fill="#A80036" points="271,150.1563,281,154.1563,271,158.1563" style="stroke:#A80036;stroke-width:1.0;"/><line style="stroke:#A80036;stroke-width:1.0;stroke-dasharray:2.0,2.0;" x1="73" x2="277" y1="154.1563" y2="154.1563"/><text fill="#000000" font-family="sans-serif" font-size="13" lengthAdjust="spacing" textLength="41" x="80" y="149.0903">create</text><rect fill="#FEFECE" height="30.2969" style="stroke:#A80036;stroke-width:1.5;" width="121" x="283" y="133.0234"/><text fill="#000000" font-family="sans-serif" font-size="14" lengthAdjust="spacing" textLength="107" x="290" y="153.0186">ellipse2:Ellipse</text><polygon fill="#A80036" points="402,191.4531,412,195.4531,402,199.4531" style="stroke:#A80036;stroke-width:1.0;"/><line style="stroke:#A80036;stroke-width:1.0;stroke-dasharray:2.0,2.0;" x1="73" x2="408" y1="195.4531" y2="195.4531"/><text fill="#000000" font-family="sans-serif" font-size="13" lengthAdjust="spacing" textLength="41" x="80" y="190.3872">create</text><rect fill="#FEFECE" height="30.2969" style="stroke:#A80036;stroke-width:1.5;" width="122" x="414" y="174.3203"/><text fill="#000000" font-family="sans-serif" font-size="14" lengthAdjust="spacing" textLength="108" x="421" y="194.3154">ellipse3:Ellipse</text><polygon fill="#A80036" points="534,232.75,544,236.75,534,240.75" style="stroke:#A80036;stroke-width:1.0;"/><line style="stroke:#A80036;stroke-width:1.0;stroke-dasharray:2.0,2.0;" x1="73" x2="540" y1="236.75" y2="236.75"/><text fill="#000000" font-family="sans-serif" font-size="13" lengthAdjust="spacing" textLength="41" x="80" y="231.6841">create</text><rect fill="#FEFECE" height="30.2969" style="stroke:#A80036;stroke-width:1.5;" width="121" x="546" y="215.6172"/><text fill="#000000" font-family="sans-serif" font-size="14" lengthAdjust="spacing" textLength="107" x="553" y="235.6123">ellipse4:Ellipse</text><polygon fill="#A80036" points="665,274.0469,675,278.0469,665,282.0469" style="stroke:#A80036;stroke-width:1.0;"/><line style="stroke:#A80036;stroke-width:1.0;stroke-dasharray:2.0,2.0;" x1="73" x2="671" y1="278.0469" y2="278.0469"/><text fill="#000000" font-family="sans-serif" font-size="13" lengthAdjust="spacing" textLength="41" x="80" y="272.981">create</text><rect fill="#FEFECE" height="46.5938" style="stroke:#A80036;stroke-width:1.5;" width="216" x="677" y="256.9141"/><text fill="#000000" font-family="sans-serif" font-size="14" font-style="italic" lengthAdjust="spacing" textLength="74" x="748" y="276.9092">«Graphic»</text><text fill="#000000" font-family="sans-serif" font-size="14" lengthAdjust="spacing" textLength="202" x="684" y="293.2061">graphic2:CompositeGraphic</text><polygon fill="#A80036" points="773,331.6406,783,335.6406,773,339.6406" style="stroke:#A80036;stroke-width:1.0;"/><line style="stroke:#A80036;stroke-width:1.0;" x1="73" x2="779" y1="335.6406" y2="335.6406"/><text fill="#000000" font-family="sans-serif" font-size="13" lengthAdjust="spacing" textLength="82" x="80" y="330.5747">add(ellipse1)</text><polygon fill="#A80036" points="773,360.7734,783,364.7734,773,368.7734" style="stroke:#A80036;stroke-width:1.0;"/><line style="stroke:#A80036;stroke-width:1.0;" x1="73" x2="779" y1="364.7734" y2="364.7734"/><text fill="#000000" font-family="sans-serif" font-size="13" lengthAdjust="spacing" textLength="82" x="80" y="359.7075">add(ellipse2)</text><polygon fill="#A80036" points="773,389.9063,783,393.9063,773,397.9063" style="stroke:#A80036;stroke-width:1.0;"/><line style="stroke:#A80036;stroke-width:1.0;" x1="73" x2="779" y1="393.9063" y2="393.9063"/><text fill="#000000" font-family="sans-serif" font-size="13" lengthAdjust="spacing" textLength="82" x="80" y="388.8403">add(ellipse3)</text><polygon fill="#A80036" points="891,419.0391,901,423.0391,891,427.0391" style="stroke:#A80036;stroke-width:1.0;"/><line style="stroke:#A80036;stroke-width:1.0;stroke-dasharray:2.0,2.0;" x1="73" x2="897" y1="423.0391" y2="423.0391"/><text fill="#000000" font-family="sans-serif" font-size="13" lengthAdjust="spacing" textLength="41" x="80" y="417.9731">create</text><rect fill="#FEFECE" height="46.5938" style="stroke:#A80036;stroke-width:1.5;" width="217" x="903" y="401.9063"/><text fill="#000000" font-family="sans-serif" font-size="14" font-style="italic" lengthAdjust="spacing" textLength="74" x="974.5" y="421.9014">«Graphic»</text><text fill="#000000" font-family="sans-serif" font-size="14" lengthAdjust="spacing" textLength="203" x="910" y="438.1982">graphic3:CompositeGraphic</text><polygon fill="#A80036" points="999.5,476.6328,1009.5,480.6328,999.5,484.6328" style="stroke:#A80036;stroke-width:1.0;"/><line style="stroke:#A80036;stroke-width:1.0;" x1="73" x2="1005.5" y1="480.6328" y2="480.6328"/><text fill="#000000" font-family="sans-serif" font-size="13" lengthAdjust="spacing" textLength="82" x="80" y="475.5669">add(ellipse4)</text><polygon fill="#A80036" points="1118,505.7656,1128,509.7656,1118,513.7656" style="stroke:#A80036;stroke-width:1.0;"/><line style="stroke:#A80036;stroke-width:1.0;stroke-dasharray:2.0,2.0;" x1="73" x2="1124" y1="509.7656" y2="509.7656"/><text fill="#000000" font-family="sans-serif" font-size="13" lengthAdjust="spacing" textLength="41" x="80" y="504.6997">create</text><rect fill="#FEFECE" height="46.5938" style="stroke:#A80036;stroke-width:1.5;" width="217" x="1130" y="488.6328"/><text fill="#000000" font-family="sans-serif" font-size="14" font-style="italic" lengthAdjust="spacing" textLength="74" x="1201.5" y="508.6279">«Graphic»</text><text fill="#000000" font-family="sans-serif" font-size="14" lengthAdjust="spacing" textLength="203" x="1137" y="524.9248">graphic1:CompositeGraphic</text><polygon fill="#A80036" points="1226.5,563.3594,1236.5,567.3594,1226.5,571.3594" style="stroke:#A80036;stroke-width:1.0;"/><line style="stroke:#A80036;stroke-width:1.0;" x1="73" x2="1232.5" y1="567.3594" y2="567.3594"/><text fill="#000000" font-family="sans-serif" font-size="13" lengthAdjust="spacing" textLength="89" x="80" y="562.2935">add(graphic2)</text><polygon fill="#A80036" points="1226.5,592.4922,1236.5,596.4922,1226.5,600.4922" style="stroke:#A80036;stroke-width:1.0;"/><line style="stroke:#A80036;stroke-width:1.0;" x1="73" x2="1232.5" y1="596.4922" y2="596.4922"/><text fill="#000000" font-family="sans-serif" font-size="13" lengthAdjust="spacing" textLength="89" x="80" y="591.4263">add(graphic3)</text><polygon fill="#A80036" points="1226.5,621.625,1236.5,625.625,1226.5,629.625" style="stroke:#A80036;stroke-width:1.0;"/><line style="stroke:#A80036;stroke-width:1.0;" x1="73" x2="1232.5" y1="625.625" y2="625.625"/><text fill="#000000" font-family="sans-serif" font-size="13" lengthAdjust="spacing" textLength="82" x="80" y="620.5591">add(ellipse1)</text><polygon fill="#A80036" points="1226.5,650.7578,1236.5,654.7578,1226.5,658.7578" style="stroke:#A80036;stroke-width:1.0;"/><line style="stroke:#A80036;stroke-width:1.0;" x1="73" x2="1232.5" y1="654.7578" y2="654.7578"/><text fill="#000000" font-family="sans-serif" font-size="13" lengthAdjust="spacing" textLength="39" x="80" y="649.6919">print()</text><!--MD5=[2ff1b458c27a92ea682a73b98c98ab30]
@startuml
skinparam style strictuml
participant CompositeDemo as m
participant "ellipse1:Ellipse" as e1
participant "ellipse2:Ellipse" as e2
participant "ellipse3:Ellipse" as e3
participant "ellipse4:Ellipse" as e4
participant "graphic2:CompositeGraphic"  as g2 <<Graphic>>
participant "graphic3:CompositeGraphic"  as g3 <<Graphic>>
participant "graphic1:CompositeGraphic"  as g1 <<Graphic>>
->m: main()
m- ->e1**: create
m- ->e2**: create
m- ->e3**: create
m- ->e4**: create
m- ->g2**: create
m->g2: add(ellipse1)
m->g2: add(ellipse2)
m->g2: add(ellipse3)
m- ->g3**: create
m->g3: add(ellipse4)

m- ->g1**: create
m->g1: add(graphic2)
m->g1: add(graphic3)
m->g1: add(ellipse1)
m->g1: print()
@enduml

PlantUML version 1.2021.01beta7(Unknown compile time)
(GPL source distribution)
Java Runtime: Java(TM) SE Runtime Environment
JVM: Java HotSpot(TM) 64-Bit Server VM
Default Encoding: UTF-8
Language: en
Country: US
--></g></svg>