<?xml version="1.0" encoding="UTF-8" standalone="no"?><svg xmlns="http://www.w3.org/2000/svg" xmlns:xlink="http://www.w3.org/1999/xlink" contentScriptType="application/ecmascript" contentStyleType="text/css" height="311px" preserveAspectRatio="none" style="width:288px;height:311px;background:#FFFFFF;" version="1.1" viewBox="0 0 288 311" width="288px" zoomAndPan="magnify"><defs><filter height="300%" id="f1esp04ekv5plv" width="300%" x="-1" y="-1"><feGaussianBlur result="blurOut" stdDeviation="2.0"/><feColorMatrix in="blurOut" result="blurOut2" type="matrix" values="0 0 0 0 0 0 0 0 0 0 0 0 0 0 0 0 0 0 .4 0"/><feOffset dx="4.0" dy="4.0" in="blurOut2" result="blurOut3"/><feBlend in="SourceGraphic" in2="blurOut3" mode="normal"/></filter></defs><g><!--MD5=[c5bf0eece0bff9ac62991bb4944ad254]
class IPatate--><rect codeLine="1" fill="#FEFECE" filter="url(#f1esp04ekv5plv)" height="73.6094" id="IPatate" style="stroke:#A80036;stroke-width:1.5;" width="143" x="36.5" y="7"/><ellipse cx="82.75" cy="23" fill="#B4A7E5" rx="11" ry="11" style="stroke:#A80036;stroke-width:1.0;"/><path d="M83.7031,19.7813 L85.4219,19.7813 C85.8125,19.7813 86,19.75 86.125,19.6719 C86.3906,19.5156 86.5313,19.2344 86.5313,18.9375 C86.5313,18.6719 86.4219,18.4063 86.1875,18.2344 C86.0156,18.125 85.875,18.0938 85.4219,18.0938 L80.2813,18.0938 C79.8438,18.0938 79.7188,18.1094 79.5625,18.2031 C79.3125,18.3594 79.1563,18.6563 79.1563,18.9375 C79.1563,19.2188 79.2969,19.4688 79.5156,19.6406 C79.6719,19.75 79.8594,19.7813 80.2813,19.7813 L82,19.7813 L82,26.2969 L80.2813,26.2969 C79.8438,26.2969 79.7188,26.3125 79.5625,26.4219 C79.3125,26.5781 79.1563,26.8594 79.1563,27.1563 C79.1563,27.4063 79.2969,27.6719 79.5156,27.8281 C79.6719,27.9531 79.875,28 80.2813,28 L85.4219,28 C86.1719,28 86.5313,27.7188 86.5313,27.1563 C86.5313,26.875 86.4219,26.625 86.1875,26.4531 C86.0156,26.3281 85.875,26.2969 85.4219,26.2969 L83.7031,26.2969 L83.7031,19.7813 Z " fill="#000000"/><text fill="#000000" font-family="sans-serif" font-size="12" font-style="italic" lengthAdjust="spacing" textLength="42" x="103.25" y="27.1543">IPatate</text><line style="stroke:#A80036;stroke-width:1.5;" x1="37.5" x2="178.5" y1="39" y2="39"/><line style="stroke:#A80036;stroke-width:1.5;" x1="37.5" x2="178.5" y1="47" y2="47"/><text fill="#000000" font-family="sans-serif" font-size="11" lengthAdjust="spacing" textLength="100" x="42.5" y="61.2104">Double getCost();</text><text fill="#000000" font-family="sans-serif" font-size="11" lengthAdjust="spacing" textLength="131" x="42.5" y="74.0151">String getDescription();</text><!--MD5=[2882a024b037d2a07bf7a90caca518f6]
class Patate--><rect codeLine="5" fill="#FEFECE" filter="url(#f1esp04ekv5plv)" height="48" id="Patate" style="stroke:#A80036;stroke-width:1.5;" width="68" x="7" y="141"/><ellipse cx="22" cy="157" fill="#ADD1B2" rx="11" ry="11" style="stroke:#A80036;stroke-width:1.0;"/><path d="M24.3438,152.6719 C23.4063,152.2344 22.8125,152.0938 21.9375,152.0938 C19.3125,152.0938 17.3125,154.1719 17.3125,156.8906 L17.3125,158.0156 C17.3125,160.5938 19.4219,162.4844 22.3125,162.4844 C23.5313,162.4844 24.6875,162.1875 25.4375,161.6406 C26.0156,161.2344 26.3438,160.7813 26.3438,160.3906 C26.3438,159.9375 25.9531,159.5469 25.4844,159.5469 C25.2656,159.5469 25.0625,159.625 24.875,159.8125 C24.4219,160.2969 24.4219,160.2969 24.2344,160.3906 C23.8125,160.6563 23.125,160.7813 22.3594,160.7813 C20.3125,160.7813 19.0156,159.6875 19.0156,157.9844 L19.0156,156.8906 C19.0156,155.1094 20.2656,153.7969 22,153.7969 C22.5781,153.7969 23.1875,153.9531 23.6563,154.2031 C24.1406,154.4844 24.3125,154.7031 24.4063,155.1094 C24.4688,155.5156 24.5,155.6406 24.6406,155.7656 C24.7813,155.9063 25.0156,156.0156 25.2344,156.0156 C25.5,156.0156 25.7656,155.875 25.9375,155.6563 C26.0469,155.5 26.0781,155.3125 26.0781,154.8906 L26.0781,153.4688 C26.0781,153.0313 26.0625,152.9063 25.9688,152.75 C25.8125,152.4844 25.5313,152.3438 25.2344,152.3438 C24.9375,152.3438 24.7344,152.4375 24.5156,152.75 L24.3438,152.6719 Z " fill="#000000"/><text fill="#000000" font-family="sans-serif" font-size="12" lengthAdjust="spacing" textLength="36" x="36" y="161.1543">Patate</text><line style="stroke:#A80036;stroke-width:1.5;" x1="8" x2="74" y1="173" y2="173"/><line style="stroke:#A80036;stroke-width:1.5;" x1="8" x2="74" y1="181" y2="181"/><!--MD5=[1f64920a7964720ecb20dff95963ffea]
class PatateDecorator--><rect codeLine="6" fill="#FEFECE" filter="url(#f1esp04ekv5plv)" height="48" id="PatateDecorator" style="stroke:#A80036;stroke-width:1.5;" width="129" x="110.5" y="141"/><ellipse cx="125.5" cy="157" fill="#A9DCDF" rx="11" ry="11" style="stroke:#A80036;stroke-width:1.0;"/><path d="M127.5781,158.8125 L127.9688,159.7969 L127.5781,159.7969 C127.125,159.7969 127.0156,159.8125 126.8594,159.9219 C126.6094,160.0781 126.4531,160.3594 126.4531,160.6563 C126.4531,160.9219 126.5938,161.1719 126.8125,161.3281 C126.9531,161.4531 127.1563,161.5 127.5781,161.5 L129.9375,161.5 C130.2969,161.5 130.5156,161.4688 130.6563,161.375 C130.9063,161.2344 131.0625,160.9375 131.0625,160.6563 C131.0625,160.375 130.9219,160.125 130.7031,159.9688 C130.5313,159.8281 130.375,159.7969 129.9063,159.7969 L126.5156,151.5938 L122.8438,151.5938 C122.3906,151.5938 122.2656,151.6094 122.1094,151.7031 C121.8594,151.875 121.7031,152.1563 121.7031,152.4375 C121.7031,152.7188 121.8438,152.9688 122.0625,153.1406 C122.2344,153.25 122.4063,153.2813 122.8438,153.2813 L123.9219,153.2813 L121.2813,159.7969 C120.8594,159.7969 120.7031,159.8125 120.5469,159.9219 C120.2969,160.0781 120.1406,160.3594 120.1406,160.6563 C120.1406,161.2188 120.5156,161.5 121.2656,161.5 L123.5313,161.5 C123.8906,161.5 124.1094,161.4688 124.2344,161.375 C124.5,161.2344 124.6406,160.9375 124.6406,160.6563 C124.6406,160.375 124.5156,160.125 124.2969,159.9531 C124.125,159.8281 123.9844,159.7969 123.5313,159.7969 L123.1406,159.7969 L123.5313,158.8125 L127.5781,158.8125 Z M126.875,157.1094 L124.2031,157.1094 L125.5469,153.8438 L126.875,157.1094 Z " fill="#000000"/><text fill="#000000" font-family="sans-serif" font-size="12" font-style="italic" lengthAdjust="spacing" textLength="97" x="139.5" y="161.1543">PatateDecorator</text><line style="stroke:#A80036;stroke-width:1.5;" x1="111.5" x2="238.5" y1="173" y2="173"/><line style="stroke:#A80036;stroke-width:1.5;" x1="111.5" x2="238.5" y1="181" y2="181"/><!--MD5=[3d2d9012ebc99b12a467e2a114f0ed0c]
class Sauce--><rect codeLine="7" fill="#FEFECE" filter="url(#f1esp04ekv5plv)" height="48" id="Sauce" style="stroke:#A80036;stroke-width:1.5;" width="69" x="83.5" y="249"/><ellipse cx="98.5" cy="265" fill="#ADD1B2" rx="11" ry="11" style="stroke:#A80036;stroke-width:1.0;"/><path d="M100.8438,260.6719 C99.9063,260.2344 99.3125,260.0938 98.4375,260.0938 C95.8125,260.0938 93.8125,262.1719 93.8125,264.8906 L93.8125,266.0156 C93.8125,268.5938 95.9219,270.4844 98.8125,270.4844 C100.0313,270.4844 101.1875,270.1875 101.9375,269.6406 C102.5156,269.2344 102.8438,268.7813 102.8438,268.3906 C102.8438,267.9375 102.4531,267.5469 101.9844,267.5469 C101.7656,267.5469 101.5625,267.625 101.375,267.8125 C100.9219,268.2969 100.9219,268.2969 100.7344,268.3906 C100.3125,268.6563 99.625,268.7813 98.8594,268.7813 C96.8125,268.7813 95.5156,267.6875 95.5156,265.9844 L95.5156,264.8906 C95.5156,263.1094 96.7656,261.7969 98.5,261.7969 C99.0781,261.7969 99.6875,261.9531 100.1563,262.2031 C100.6406,262.4844 100.8125,262.7031 100.9063,263.1094 C100.9688,263.5156 101,263.6406 101.1406,263.7656 C101.2813,263.9063 101.5156,264.0156 101.7344,264.0156 C102,264.0156 102.2656,263.875 102.4375,263.6563 C102.5469,263.5 102.5781,263.3125 102.5781,262.8906 L102.5781,261.4688 C102.5781,261.0313 102.5625,260.9063 102.4688,260.75 C102.3125,260.4844 102.0313,260.3438 101.7344,260.3438 C101.4375,260.3438 101.2344,260.4375 101.0156,260.75 L100.8438,260.6719 Z " fill="#000000"/><text fill="#000000" font-family="sans-serif" font-size="12" lengthAdjust="spacing" textLength="37" x="112.5" y="269.1543">Sauce</text><line style="stroke:#A80036;stroke-width:1.5;" x1="84.5" x2="151.5" y1="281" y2="281"/><line style="stroke:#A80036;stroke-width:1.5;" x1="84.5" x2="151.5" y1="289" y2="289"/><!--MD5=[b18c320c86bdf48a7d0066b199483d96]
class Fromage--><rect codeLine="8" fill="#FEFECE" filter="url(#f1esp04ekv5plv)" height="48" id="Fromage" style="stroke:#A80036;stroke-width:1.5;" width="86" x="188" y="249"/><ellipse cx="203" cy="265" fill="#ADD1B2" rx="11" ry="11" style="stroke:#A80036;stroke-width:1.0;"/><path d="M205.3438,260.6719 C204.4063,260.2344 203.8125,260.0938 202.9375,260.0938 C200.3125,260.0938 198.3125,262.1719 198.3125,264.8906 L198.3125,266.0156 C198.3125,268.5938 200.4219,270.4844 203.3125,270.4844 C204.5313,270.4844 205.6875,270.1875 206.4375,269.6406 C207.0156,269.2344 207.3438,268.7813 207.3438,268.3906 C207.3438,267.9375 206.9531,267.5469 206.4844,267.5469 C206.2656,267.5469 206.0625,267.625 205.875,267.8125 C205.4219,268.2969 205.4219,268.2969 205.2344,268.3906 C204.8125,268.6563 204.125,268.7813 203.3594,268.7813 C201.3125,268.7813 200.0156,267.6875 200.0156,265.9844 L200.0156,264.8906 C200.0156,263.1094 201.2656,261.7969 203,261.7969 C203.5781,261.7969 204.1875,261.9531 204.6563,262.2031 C205.1406,262.4844 205.3125,262.7031 205.4063,263.1094 C205.4688,263.5156 205.5,263.6406 205.6406,263.7656 C205.7813,263.9063 206.0156,264.0156 206.2344,264.0156 C206.5,264.0156 206.7656,263.875 206.9375,263.6563 C207.0469,263.5 207.0781,263.3125 207.0781,262.8906 L207.0781,261.4688 C207.0781,261.0313 207.0625,260.9063 206.9688,260.75 C206.8125,260.4844 206.5313,260.3438 206.2344,260.3438 C205.9375,260.3438 205.7344,260.4375 205.5156,260.75 L205.3438,260.6719 Z " fill="#000000"/><text fill="#000000" font-family="sans-serif" font-size="12" lengthAdjust="spacing" textLength="54" x="217" y="269.1543">Fromage</text><line style="stroke:#A80036;stroke-width:1.5;" x1="189" x2="273" y1="281" y2="281"/><line style="stroke:#A80036;stroke-width:1.5;" x1="189" x2="273" y1="289" y2="289"/><!--MD5=[4dbdfe515edb5653dc632e411272686e]
reverse link IPatate to Patate--><path d="M77.8105,98.62 C69.4613,113.449 60.8351,128.77 54.0338,140.85 " fill="none" id="IPatate-backto-Patate" style="stroke:#A80036;stroke-width:1.0;stroke-dasharray:7.0,7.0;"/><polygon fill="none" points="71.8041,95.02,87.716,81.027,84.0034,101.889,71.8041,95.02" style="stroke:#A80036;stroke-width:1.0;"/><!--MD5=[43587ea4f4c163642a0f1f2f2b39f877]
reverse link IPatate to PatateDecorator--><path d="M138.19,98.62 C146.539,113.449 155.165,128.77 161.966,140.85 " fill="none" id="IPatate-backto-PatateDecorator" style="stroke:#A80036;stroke-width:1.0;stroke-dasharray:7.0,7.0;"/><polygon fill="none" points="131.997,101.889,128.284,81.027,144.196,95.02,131.997,101.889" style="stroke:#A80036;stroke-width:1.0;"/><!--MD5=[d7af2379f15f34ed80c5f06a2a82d9fc]
reverse link PatateDecorator to Sauce--><path d="M152.902,207.0936 C145.319,221.1958 137.098,236.4838 130.541,248.6784 " fill="none" id="PatateDecorator-backto-Sauce" style="stroke:#A80036;stroke-width:1.0;"/><polygon fill="none" points="146.995,203.2999,162.632,189,159.325,209.9304,146.995,203.2999" style="stroke:#A80036;stroke-width:1.0;"/><!--MD5=[f0527f462de6ab05c4a449c5dfce6052]
reverse link PatateDecorator to Fromage--><path d="M196.71,207.0936 C204.16,221.1958 212.237,236.4838 218.679,248.6784 " fill="none" id="PatateDecorator-backto-Fromage" style="stroke:#A80036;stroke-width:1.0;"/><polygon fill="none" points="190.304,209.9542,187.151,189,202.683,203.4144,190.304,209.9542" style="stroke:#A80036;stroke-width:1.0;"/><!--MD5=[1140d610dc086ef3f174b0cd29b695b7]
@startuml
interface IPatate {
    Double getCost(); 
    String getDescription(); 
}
class Patate implements IPatate 
abstract class PatateDecorator implements IPatate 
class Sauce extends PatateDecorator 
class Fromage extends PatateDecorator
@enduml

PlantUML version 1.2021.7beta4(Unknown compile time)
(GPL source distribution)
Java Runtime: Java(TM) SE Runtime Environment
JVM: Java HotSpot(TM) 64-Bit Server VM
Default Encoding: UTF-8
Language: en
Country: US
--></g></svg>