<?xml version="1.0" encoding="UTF-8" standalone="no"?><svg xmlns="http://www.w3.org/2000/svg" xmlns:xlink="http://www.w3.org/1999/xlink" contentScriptType="application/ecmascript" contentStyleType="text/css" height="325px" preserveAspectRatio="none" style="width:422px;height:325px;" version="1.1" viewBox="0 0 422 325" width="422px" zoomAndPan="magnify"><defs/><g><!--MD5=[5c5a2dd8ed299478ae091ad6bda6d6bd]
class Pizza--><rect codeLine="2" fill="#FEFECE" height="79.5469" id="Pizza" style="stroke:#A80036;stroke-width:1.5;" width="143" x="142" y="7"/><text fill="#000000" font-family="sans-serif" font-size="12" font-style="italic" lengthAdjust="spacing" textLength="67" x="180" y="23.1387">«interface»</text><text fill="#000000" font-family="sans-serif" font-size="12" font-style="italic" lengthAdjust="spacing" textLength="29" x="199" y="37.1074">Pizza</text><line style="stroke:#A80036;stroke-width:1.5;" x1="143" x2="284" y1="44.9375" y2="44.9375"/><line style="stroke:#A80036;stroke-width:1.5;" x1="143" x2="284" y1="52.9375" y2="52.9375"/><text fill="#000000" font-family="sans-serif" font-size="11" lengthAdjust="spacing" textLength="98" x="148" y="67.1479">getCost(): double</text><text fill="#000000" font-family="sans-serif" font-size="11" lengthAdjust="spacing" textLength="131" x="148" y="79.9526">getDescription(): String</text><!--MD5=[d3bd83d48ca6e8e1ba61f369562ec053]
class ThreeCheesePizza--><rect codeLine="6" fill="#FEFECE" height="39.9688" id="ThreeCheesePizza" style="stroke:#A80036;stroke-width:1.5;" width="117" x="7" y="171"/><text fill="#000000" font-family="sans-serif" font-size="12" lengthAdjust="spacing" textLength="111" x="10" y="187.1387">ThreeCheesePizza</text><line style="stroke:#A80036;stroke-width:1.5;" x1="8" x2="123" y1="194.9688" y2="194.9688"/><line style="stroke:#A80036;stroke-width:1.5;" x1="8" x2="123" y1="202.9688" y2="202.9688"/><!--MD5=[de061450c05fe7c1ebdd0f205fc81a03]
class PlainPizza--><rect codeLine="7" fill="#FEFECE" height="39.9688" id="PlainPizza" style="stroke:#A80036;stroke-width:1.5;" width="62" x="159.5" y="171"/><text fill="#000000" font-family="sans-serif" font-size="12" lengthAdjust="spacing" textLength="56" x="162.5" y="187.1387">PlainPizza</text><line style="stroke:#A80036;stroke-width:1.5;" x1="160.5" x2="220.5" y1="194.9688" y2="194.9688"/><line style="stroke:#A80036;stroke-width:1.5;" x1="160.5" x2="220.5" y1="202.9688" y2="202.9688"/><!--MD5=[56892c6b98c89144d3bd5a37e0c1daeb]
class ToppingDecorator--><rect codeLine="8" fill="#FEFECE" height="53.9375" id="ToppingDecorator" style="stroke:#A80036;stroke-width:1.5;" width="116" x="256.5" y="164"/><text fill="#000000" font-family="sans-serif" font-size="12" font-style="italic" lengthAdjust="spacing" textLength="64" x="282.5" y="180.1387">«abstract»</text><text fill="#000000" font-family="sans-serif" font-size="12" lengthAdjust="spacing" textLength="110" x="259.5" y="194.1074">ToppingDecorator</text><line style="stroke:#A80036;stroke-width:1.5;" x1="257.5" x2="371.5" y1="201.9375" y2="201.9375"/><line style="stroke:#A80036;stroke-width:1.5;" x1="257.5" x2="371.5" y1="209.9375" y2="209.9375"/><!--MD5=[36782469b8da81fecadd2b537eec190f]
class Mozzarella--><rect codeLine="9" fill="#FEFECE" height="39.9688" id="Mozzarella" style="stroke:#A80036;stroke-width:1.5;" width="71" x="221" y="279"/><text fill="#000000" font-family="sans-serif" font-size="12" lengthAdjust="spacing" textLength="65" x="224" y="295.1387">Mozzarella</text><line style="stroke:#A80036;stroke-width:1.5;" x1="222" x2="291" y1="302.9688" y2="302.9688"/><line style="stroke:#A80036;stroke-width:1.5;" x1="222" x2="291" y1="310.9688" y2="310.9688"/><!--MD5=[3809974f04b7b1340eb9246255139bc7]
class TomatoSauce--><rect codeLine="10" fill="#FEFECE" height="39.9688" id="TomatoSauce" style="stroke:#A80036;stroke-width:1.5;" width="88" x="327.5" y="279"/><text fill="#000000" font-family="sans-serif" font-size="12" lengthAdjust="spacing" textLength="82" x="330.5" y="295.1387">TomatoSauce</text><line style="stroke:#A80036;stroke-width:1.5;" x1="328.5" x2="414.5" y1="302.9688" y2="302.9688"/><line style="stroke:#A80036;stroke-width:1.5;" x1="328.5" x2="414.5" y1="310.9688" y2="310.9688"/><!--MD5=[6a28bcfd32d67bbbb986cd7cdac9f5ea]
reverse link Pizza to ThreeCheesePizza--><path d="M158.121,101.134 C132.629,125.592 103.9838,153.076 85.3903,170.916 " fill="none" id="Pizza-backto-ThreeCheesePizza" style="stroke:#A80036;stroke-width:1.0;"/><polygon fill="none" points="153.389,95.974,172.667,87.178,163.081,106.076,153.389,95.974" style="stroke:#A80036;stroke-width:1.0;"/><!--MD5=[202162bb645f8d1c7de1ac319452f92f]
reverse link Pizza to PlainPizza--><path d="M203.941,107.013 C200.235,129.898 196.251,154.494 193.591,170.916 " fill="none" id="Pizza-backto-PlainPizza" style="stroke:#A80036;stroke-width:1.0;stroke-dasharray:7.0,7.0;"/><polygon fill="none" points="197.046,105.801,207.154,87.178,210.866,108.04,197.046,105.801" style="stroke:#A80036;stroke-width:1.0;"/><!--MD5=[f648339110e0417e09204db774dbbc44]
reverse link Pizza to ToppingDecorator--><path d="M244.768,104.321 C250.973,114.426 257.686,124.694 264.5,134 C271.969,144.2 280.957,154.71 289.24,163.831 " fill="none" id="Pizza-backto-ToppingDecorator" style="stroke:#A80036;stroke-width:1.0;stroke-dasharray:7.0,7.0;"/><polygon fill="none" points="238.746,107.889,234.56,87.117,250.786,100.744,238.746,107.889" style="stroke:#A80036;stroke-width:1.0;"/><!--MD5=[c73d5662bce71abcacb1844ed9ebe464]
link ToppingDecorator to Pizza--><path codeLine="11" d="M299.002,163.868 C290.386,149.744 279.257,132.143 268.5,117 C262.477,108.521 255.781,99.687 249.191,91.282 " fill="none" id="ToppingDecorator-to-Pizza" style="stroke:#A80036;stroke-width:1.0;"/><polygon fill="#A80036" points="245.969,87.193,248.3988,96.7374,249.0642,91.1198,254.6818,91.7852,245.969,87.193" style="stroke:#A80036;stroke-width:1.0;"/><text fill="#000000" font-family="sans-serif" font-size="13" lengthAdjust="spacing" textLength="57" x="280.5" y="130.0669">decorate</text><!--MD5=[eb57874a2f83cc1a580c877905baeae9]
reverse link ToppingDecorator to Mozzarella--><path d="M290.341,236.1524 C282.209,251.0154 273.553,266.8338 267.032,278.7524 " fill="none" id="ToppingDecorator-backto-Mozzarella" style="stroke:#A80036;stroke-width:1.0;"/><polygon fill="none" points="284.422,232.3874,300.163,218.202,296.703,239.1076,284.422,232.3874" style="stroke:#A80036;stroke-width:1.0;"/><!--MD5=[74f407a7037567f5864ba156b7beda89]
reverse link ToppingDecorator to TomatoSauce--><path d="M338.242,236.1524 C346.235,251.0154 354.741,266.8338 361.15,278.7524 " fill="none" id="ToppingDecorator-backto-TomatoSauce" style="stroke:#A80036;stroke-width:1.0;"/><polygon fill="none" points="331.897,239.1323,328.59,218.202,344.227,232.5018,331.897,239.1323" style="stroke:#A80036;stroke-width:1.0;"/><!--MD5=[75113bc7adc4865e29ceef5acffce53b]
@startuml
skinparam Style strictuml
Interface Pizza <<interface>>{
    getCost(): double
    getDescription(): String
}
class ThreeCheesePizza extends Pizza
class PlainPizza implements Pizza
class ToppingDecorator <<abstract>> implements Pizza 
class Mozzarella extends ToppingDecorator
class TomatoSauce extends ToppingDecorator
ToppingDecorator - -> Pizza: decorate
@enduml

PlantUML version 1.2021.01beta3(Unknown compile time)
(GPL source distribution)
Java Runtime: Java(TM) SE Runtime Environment
JVM: Java HotSpot(TM) 64-Bit Server VM
Default Encoding: UTF-8
Language: en
Country: US
--></g></svg>