<?xml version="1.0" encoding="UTF-8" standalone="no"?><svg xmlns="http://www.w3.org/2000/svg" xmlns:xlink="http://www.w3.org/1999/xlink" contentScriptType="application/ecmascript" contentStyleType="text/css" height="514px" preserveAspectRatio="none" style="width:834px;height:514px;" version="1.1" viewBox="0 0 834 514" width="834px" zoomAndPan="magnify"><defs/><g><text fill="#000000" font-family="sans-serif" font-size="18" lengthAdjust="spacing" textLength="348" x="242.5" y="28.708">Diagramme de séquence FormLayout</text><line style="stroke:#A80036;stroke-width:1.0;" x1="25" x2="25" y1="119.25" y2="381.8359"/><line style="stroke:#A80036;stroke-width:1.0;stroke-dasharray:1.0,4.0;" x1="25" x2="25" y1="381.8359" y2="409.8359"/><line style="stroke:#A80036;stroke-width:1.0;" x1="25" x2="25" y1="409.8359" y2="507.2344"/><line style="stroke:#A80036;stroke-width:1.0;" x1="419" x2="419" y1="159.8984" y2="381.8359"/><line style="stroke:#A80036;stroke-width:1.0;stroke-dasharray:1.0,4.0;" x1="419" x2="419" y1="381.8359" y2="409.8359"/><line style="stroke:#A80036;stroke-width:1.0;" x1="419" x2="419" y1="409.8359" y2="507.2344"/><line style="stroke:#A80036;stroke-width:1.0;" x1="537" x2="537" y1="201.1953" y2="381.8359"/><line style="stroke:#A80036;stroke-width:1.0;stroke-dasharray:1.0,4.0;" x1="537" x2="537" y1="381.8359" y2="409.8359"/><line style="stroke:#A80036;stroke-width:1.0;" x1="537" x2="537" y1="409.8359" y2="507.2344"/><line style="stroke:#A80036;stroke-width:1.0;" x1="648" x2="648" y1="271.625" y2="381.8359"/><line style="stroke:#A80036;stroke-width:1.0;stroke-dasharray:1.0,4.0;" x1="648" x2="648" y1="381.8359" y2="409.8359"/><line style="stroke:#A80036;stroke-width:1.0;" x1="648" x2="648" y1="409.8359" y2="507.2344"/><line style="stroke:#A80036;stroke-width:1.0;" x1="767" x2="767" y1="342.0547" y2="381.8359"/><line style="stroke:#A80036;stroke-width:1.0;stroke-dasharray:1.0,4.0;" x1="767" x2="767" y1="381.8359" y2="409.8359"/><line style="stroke:#A80036;stroke-width:1.0;" x1="767" x2="767" y1="409.8359" y2="507.2344"/><text fill="#000000" font-family="sans-serif" font-size="14" lengthAdjust="spacing" textLength="35" x="5" y="115.9482">main</text><ellipse cx="25.5" cy="49.9531" fill="#FEFECE" rx="8" ry="8" style="stroke:#A80036;stroke-width:2.0;"/><path d="M25.5,57.9531 L25.5,84.9531 M12.5,65.9531 L38.5,65.9531 M25.5,84.9531 L12.5,99.9531 M25.5,84.9531 L38.5,99.9531 " fill="none" style="stroke:#A80036;stroke-width:2.0;"/><polygon fill="#A80036" points="352,146.3828,362,150.3828,352,154.3828" style="stroke:#A80036;stroke-width:1.0;"/><line style="stroke:#A80036;stroke-width:1.0;stroke-dasharray:2.0,2.0;" x1="25.5" x2="358" y1="150.3828" y2="150.3828"/><text fill="#000000" font-family="sans-serif" font-size="13" lengthAdjust="spacing" textLength="94" x="32.5" y="145.3169">frame = new()</text><rect fill="#FEFECE" height="30.2969" style="stroke:#A80036;stroke-width:1.5;" width="111" x="364" y="129.25"/><text fill="#000000" font-family="sans-serif" font-size="14" lengthAdjust="spacing" textLength="97" x="371" y="149.2451">frame:JFrame</text><polygon fill="#A80036" points="473,187.6797,483,191.6797,473,195.6797" style="stroke:#A80036;stroke-width:1.0;"/><line style="stroke:#A80036;stroke-width:1.0;stroke-dasharray:2.0,2.0;" x1="25.5" x2="479" y1="191.6797" y2="191.6797"/><text fill="#000000" font-family="sans-serif" font-size="13" lengthAdjust="spacing" textLength="95" x="32.5" y="186.6138">layout = new()</text><rect fill="#FEFECE" height="30.2969" style="stroke:#A80036;stroke-width:1.5;" width="104" x="485" y="170.5469"/><text fill="#000000" font-family="sans-serif" font-size="14" lengthAdjust="spacing" textLength="90" x="492" y="190.542">:FormLayout</text><polygon fill="#A80036" points="407.5,228.9766,417.5,232.9766,407.5,236.9766" style="stroke:#A80036;stroke-width:1.0;"/><line style="stroke:#A80036;stroke-width:1.0;" x1="25.5" x2="413.5" y1="232.9766" y2="232.9766"/><text fill="#000000" font-family="sans-serif" font-size="13" lengthAdjust="spacing" textLength="157" x="32.5" y="227.9106">frame.setLayout(layout)</text><polygon fill="#A80036" points="587,258.1094,597,262.1094,587,266.1094" style="stroke:#A80036;stroke-width:1.0;"/><line style="stroke:#A80036;stroke-width:1.0;stroke-dasharray:2.0,2.0;" x1="25.5" x2="593" y1="262.1094" y2="262.1094"/><text fill="#000000" font-family="sans-serif" font-size="13" lengthAdjust="spacing" textLength="99" x="32.5" y="257.0435">create("Name")</text><rect fill="#FEFECE" height="30.2969" style="stroke:#A80036;stroke-width:1.5;" width="98" x="599" y="240.9766"/><text fill="#000000" font-family="sans-serif" font-size="14" lengthAdjust="spacing" textLength="84" x="606" y="260.9717">name:Jlabel</text><polygon fill="#A80036" points="407.5,299.4063,417.5,303.4063,407.5,307.4063" style="stroke:#A80036;stroke-width:1.0;"/><line style="stroke:#A80036;stroke-width:1.0;" x1="25.5" x2="413.5" y1="303.4063" y2="303.4063"/><text fill="#000000" font-family="sans-serif" font-size="13" lengthAdjust="spacing" textLength="114" x="32.5" y="298.3403">frame.add(name)</text><polygon fill="#A80036" points="695,328.5391,705,332.5391,695,336.5391" style="stroke:#A80036;stroke-width:1.0;"/><line style="stroke:#A80036;stroke-width:1.0;stroke-dasharray:2.0,2.0;" x1="25.5" x2="701" y1="332.5391" y2="332.5391"/><text fill="#000000" font-family="sans-serif" font-size="13" lengthAdjust="spacing" textLength="67" x="32.5" y="327.4731">create(15)</text><rect fill="#FEFECE" height="30.2969" style="stroke:#A80036;stroke-width:1.5;" width="121" x="707" y="311.4063"/><text fill="#000000" font-family="sans-serif" font-size="14" lengthAdjust="spacing" textLength="107" x="714" y="331.4014">text:JTextField</text><polygon fill="#A80036" points="407.5,369.8359,417.5,373.8359,407.5,377.8359" style="stroke:#A80036;stroke-width:1.0;"/><line style="stroke:#A80036;stroke-width:1.0;" x1="25.5" x2="413.5" y1="373.8359" y2="373.8359"/><text fill="#000000" font-family="sans-serif" font-size="13" lengthAdjust="spacing" textLength="103" x="32.5" y="368.77">frame.add(text)</text><polygon fill="#A80036" points="407.5,426.9688,417.5,430.9688,407.5,434.9688" style="stroke:#A80036;stroke-width:1.0;"/><line style="stroke:#A80036;stroke-width:1.0;" x1="25.5" x2="413.5" y1="430.9688" y2="430.9688"/><text fill="#000000" font-family="sans-serif" font-size="13" lengthAdjust="spacing" textLength="370" x="32.5" y="425.9028">frame.setDefaultCloseOperation(JFrame.EXIT_ON_CLOSE)</text><polygon fill="#A80036" points="407.5,456.1016,417.5,460.1016,407.5,464.1016" style="stroke:#A80036;stroke-width:1.0;"/><line style="stroke:#A80036;stroke-width:1.0;" x1="25.5" x2="413.5" y1="460.1016" y2="460.1016"/><text fill="#000000" font-family="sans-serif" font-size="13" lengthAdjust="spacing" textLength="83" x="32.5" y="455.0356">frame.pack()</text><polygon fill="#A80036" points="407.5,485.2344,417.5,489.2344,407.5,493.2344" style="stroke:#A80036;stroke-width:1.0;"/><line style="stroke:#A80036;stroke-width:1.0;" x1="25.5" x2="413.5" y1="489.2344" y2="489.2344"/><text fill="#000000" font-family="sans-serif" font-size="13" lengthAdjust="spacing" textLength="140" x="32.5" y="484.1685">frame.setVisible(true)</text><!--MD5=[c819169224092e1ff8c164f486f85483]
@startuml
skinparam Style strictuml
title Diagramme de séquence FormLayout
actor main
participant "frame:JFrame" as Frame
participant ":FormLayout" as FormLayout
participant "name:Jlabel" as name
participant "text:JTextField" as text
main - -> Frame**: frame = new()
main - -> FormLayout**: layout = new()
main -> Frame : frame.setLayout(layout)
main - -> name**: create("Name")
main -> Frame : frame.add(name)
main - -> text**: create(15)
main -> Frame : frame.add(text)
...
main -> Frame : frame.setDefaultCloseOperation(JFrame.EXIT_ON_CLOSE)
main -> Frame : frame.pack()
main -> Frame : frame.setVisible(true)
@enduml

PlantUML version 1.2021.01beta3(Unknown compile time)
(GPL source distribution)
Java Runtime: Java(TM) SE Runtime Environment
JVM: Java HotSpot(TM) 64-Bit Server VM
Default Encoding: UTF-8
Language: en
Country: US
--></g></svg>