<?xml version="1.0" encoding="UTF-8" standalone="no"?><svg xmlns="http://www.w3.org/2000/svg" xmlns:xlink="http://www.w3.org/1999/xlink" contentScriptType="application/ecmascript" contentStyleType="text/css" height="293px" preserveAspectRatio="none" style="width:388px;height:293px;" version="1.1" viewBox="0 0 388 293" width="388px" zoomAndPan="magnify"><defs><filter height="300%" id="f1cmzrc2fse9dc" width="300%" x="-1" y="-1"><feGaussianBlur result="blurOut" stdDeviation="2.0"/><feColorMatrix in="blurOut" result="blurOut2" type="matrix" values="0 0 0 0 0 0 0 0 0 0 0 0 0 0 0 0 0 0 .4 0"/><feOffset dx="4.0" dy="4.0" in="blurOut2" result="blurOut3"/><feBlend in="SourceGraphic" in2="blurOut3" mode="normal"/></filter></defs><g><!--MD5=[678ba86161b65c93147b2a3a8cf02be2]
class Frame--><rect codeLine="3" fill="#FEFECE" filter="url(#f1cmzrc2fse9dc)" height="48" id="Frame" style="stroke:#A80036;stroke-width:1.5;" width="70" x="7" y="7"/><ellipse cx="22" cy="23" fill="#ADD1B2" rx="11" ry="11" style="stroke:#A80036;stroke-width:1.0;"/><path d="M24.3438,18.6719 C23.4063,18.2344 22.8125,18.0938 21.9375,18.0938 C19.3125,18.0938 17.3125,20.1719 17.3125,22.8906 L17.3125,24.0156 C17.3125,26.5938 19.4219,28.4844 22.3125,28.4844 C23.5313,28.4844 24.6875,28.1875 25.4375,27.6406 C26.0156,27.2344 26.3438,26.7813 26.3438,26.3906 C26.3438,25.9375 25.9531,25.5469 25.4844,25.5469 C25.2656,25.5469 25.0625,25.625 24.875,25.8125 C24.4219,26.2969 24.4219,26.2969 24.2344,26.3906 C23.8125,26.6563 23.125,26.7813 22.3594,26.7813 C20.3125,26.7813 19.0156,25.6875 19.0156,23.9844 L19.0156,22.8906 C19.0156,21.1094 20.2656,19.7969 22,19.7969 C22.5781,19.7969 23.1875,19.9531 23.6563,20.2031 C24.1406,20.4844 24.3125,20.7031 24.4063,21.1094 C24.4688,21.5156 24.5,21.6406 24.6406,21.7656 C24.7813,21.9063 25.0156,22.0156 25.2344,22.0156 C25.5,22.0156 25.7656,21.875 25.9375,21.6563 C26.0469,21.5 26.0781,21.3125 26.0781,20.8906 L26.0781,19.4688 C26.0781,19.0313 26.0625,18.9063 25.9688,18.75 C25.8125,18.4844 25.5313,18.3438 25.2344,18.3438 C24.9375,18.3438 24.7344,18.4375 24.5156,18.75 L24.3438,18.6719 Z " fill="#000000"/><text fill="#000000" font-family="sans-serif" font-size="12" lengthAdjust="spacing" textLength="38" x="36" y="27.1543">Frame</text><line style="stroke:#A80036;stroke-width:1.5;" x1="8" x2="76" y1="39" y2="39"/><line style="stroke:#A80036;stroke-width:1.5;" x1="8" x2="76" y1="47" y2="47"/><!--MD5=[9b4dd6cb265c728e071a30999097ca7a]
class FormLayout--><rect codeLine="6" fill="#FEFECE" filter="url(#f1cmzrc2fse9dc)" height="163.2422" id="FormLayout" style="stroke:#A80036;stroke-width:1.5;" width="350" x="24" y="116"/><ellipse cx="159.75" cy="132" fill="#ADD1B2" rx="11" ry="11" style="stroke:#A80036;stroke-width:1.0;"/><path d="M162.0938,127.6719 C161.1563,127.2344 160.5625,127.0938 159.6875,127.0938 C157.0625,127.0938 155.0625,129.1719 155.0625,131.8906 L155.0625,133.0156 C155.0625,135.5938 157.1719,137.4844 160.0625,137.4844 C161.2813,137.4844 162.4375,137.1875 163.1875,136.6406 C163.7656,136.2344 164.0938,135.7813 164.0938,135.3906 C164.0938,134.9375 163.7031,134.5469 163.2344,134.5469 C163.0156,134.5469 162.8125,134.625 162.625,134.8125 C162.1719,135.2969 162.1719,135.2969 161.9844,135.3906 C161.5625,135.6563 160.875,135.7813 160.1094,135.7813 C158.0625,135.7813 156.7656,134.6875 156.7656,132.9844 L156.7656,131.8906 C156.7656,130.1094 158.0156,128.7969 159.75,128.7969 C160.3281,128.7969 160.9375,128.9531 161.4063,129.2031 C161.8906,129.4844 162.0625,129.7031 162.1563,130.1094 C162.2188,130.5156 162.25,130.6406 162.3906,130.7656 C162.5313,130.9063 162.7656,131.0156 162.9844,131.0156 C163.25,131.0156 163.5156,130.875 163.6875,130.6563 C163.7969,130.5 163.8281,130.3125 163.8281,129.8906 L163.8281,128.4688 C163.8281,128.0313 163.8125,127.9063 163.7188,127.75 C163.5625,127.4844 163.2813,127.3438 162.9844,127.3438 C162.6875,127.3438 162.4844,127.4375 162.2656,127.75 L162.0938,127.6719 Z " fill="#000000"/><text fill="#000000" font-family="sans-serif" font-size="12" lengthAdjust="spacing" textLength="70" x="180.25" y="136.1543">FormLayout</text><line style="stroke:#A80036;stroke-width:1.5;" x1="25" x2="373" y1="148" y2="148"/><rect fill="none" height="6" style="stroke:#C82930;stroke-width:1.0;" width="6" x="32" y="156"/><text fill="#000000" font-family="sans-serif" font-size="11" lengthAdjust="spacing" textLength="44" x="44" y="162.2104">left : int</text><rect fill="none" height="6" style="stroke:#C82930;stroke-width:1.0;" width="6" x="32" y="168.8047"/><text fill="#000000" font-family="sans-serif" font-size="11" lengthAdjust="spacing" textLength="50" x="44" y="175.0151">right : int</text><rect fill="none" height="6" style="stroke:#C82930;stroke-width:1.0;" width="6" x="32" y="181.6094"/><text fill="#000000" font-family="sans-serif" font-size="11" lengthAdjust="spacing" textLength="61" x="44" y="187.8198">height : int</text><rect fill="none" height="6" style="stroke:#C82930;stroke-width:1.0;" width="6" x="32" y="194.4141"/><text fill="#000000" font-family="sans-serif" font-size="11" lengthAdjust="spacing" text-decoration="underline" textLength="48" x="44" y="200.6245">GAP : int</text><line style="stroke:#A80036;stroke-width:1.5;" x1="25" x2="373" y1="207.2188" y2="207.2188"/><ellipse cx="35" cy="218.2188" fill="#84BE84" rx="3" ry="3" style="stroke:#038048;stroke-width:1.0;"/><text fill="#000000" font-family="sans-serif" font-size="11" lengthAdjust="spacing" textLength="293" x="44" y="221.4292">preferredLayoutSize(parent: Container): Dimension</text><ellipse cx="35" cy="231.0234" fill="#84BE84" rx="3" ry="3" style="stroke:#038048;stroke-width:1.0;"/><text fill="#000000" font-family="sans-serif" font-size="11" lengthAdjust="spacing" textLength="292" x="44" y="234.2339">minimumLayoutSize(parent: Container): Dimension</text><ellipse cx="35" cy="243.8281" fill="#84BE84" rx="3" ry="3" style="stroke:#038048;stroke-width:1.0;"/><text fill="#000000" font-family="sans-serif" font-size="11" lengthAdjust="spacing" textLength="265" x="44" y="247.0386">layoutContainer(parent: Container): Dimension</text><ellipse cx="35" cy="256.6328" fill="#84BE84" rx="3" ry="3" style="stroke:#038048;stroke-width:1.0;"/><text fill="#000000" font-family="sans-serif" font-size="11" lengthAdjust="spacing" textLength="300" x="44" y="259.8433">addLayoutComponent(parent: Container): Dimension</text><ellipse cx="35" cy="269.4375" fill="#84BE84" rx="3" ry="3" style="stroke:#038048;stroke-width:1.0;"/><text fill="#000000" font-family="sans-serif" font-size="11" lengthAdjust="spacing" textLength="324" x="44" y="272.6479">removeLayoutComponent(parent: Container): Dimension</text><!--MD5=[25fa45672d410a2d97e89be6abe60419]
class LayoutManager--><rect fill="#FEFECE" filter="url(#f1cmzrc2fse9dc)" height="48" id="LayoutManager" style="stroke:#A80036;stroke-width:1.5;" width="125" x="136.5" y="7"/><ellipse cx="151.5" cy="23" fill="#B4A7E5" rx="11" ry="11" style="stroke:#A80036;stroke-width:1.0;"/><path d="M152.4531,19.7813 L154.1719,19.7813 C154.5625,19.7813 154.75,19.75 154.875,19.6719 C155.1406,19.5156 155.2813,19.2344 155.2813,18.9375 C155.2813,18.6719 155.1719,18.4063 154.9375,18.2344 C154.7656,18.125 154.625,18.0938 154.1719,18.0938 L149.0313,18.0938 C148.5938,18.0938 148.4688,18.1094 148.3125,18.2031 C148.0625,18.3594 147.9063,18.6563 147.9063,18.9375 C147.9063,19.2188 148.0469,19.4688 148.2656,19.6406 C148.4219,19.75 148.6094,19.7813 149.0313,19.7813 L150.75,19.7813 L150.75,26.2969 L149.0313,26.2969 C148.5938,26.2969 148.4688,26.3125 148.3125,26.4219 C148.0625,26.5781 147.9063,26.8594 147.9063,27.1563 C147.9063,27.4063 148.0469,27.6719 148.2656,27.8281 C148.4219,27.9531 148.625,28 149.0313,28 L154.1719,28 C154.9219,28 155.2813,27.7188 155.2813,27.1563 C155.2813,26.875 155.1719,26.625 154.9375,26.4531 C154.7656,26.3281 154.625,26.2969 154.1719,26.2969 L152.4531,26.2969 L152.4531,19.7813 Z " fill="#000000"/><text fill="#000000" font-family="sans-serif" font-size="12" font-style="italic" lengthAdjust="spacing" textLength="93" x="165.5" y="27.1543">LayoutManager</text><line style="stroke:#A80036;stroke-width:1.5;" x1="137.5" x2="260.5" y1="39" y2="39"/><line style="stroke:#A80036;stroke-width:1.5;" x1="137.5" x2="260.5" y1="47" y2="47"/><!--MD5=[f2913d3a5710667fb47dbc650fe52467]
reverse link LayoutManager to FormLayout--><path d="M199,75.58 C199,87.993 199,101.928 199,115.804 " fill="none" id="LayoutManager-backto-FormLayout" style="stroke:#A80036;stroke-width:1.0;stroke-dasharray:7.0,7.0;"/><polygon fill="none" points="192,75.22,199,55.22,206,75.22,192,75.22" style="stroke:#A80036;stroke-width:1.0;"/><!--MD5=[09533f9c4c34bf34a507d15a455bcb18]
link Frame to LayoutManager--><path codeLine="18" d="M77.2339,31 C93.1831,31 112.598,31 131.196,31 " fill="none" id="Frame-to-LayoutManager" style="stroke:#A80036;stroke-width:1.0;"/><polygon fill="#A80036" points="136.416,31,127.416,27,131.416,31,127.416,35,136.416,31" style="stroke:#A80036;stroke-width:1.0;"/><text fill="#000000" font-family="sans-serif" font-size="13" lengthAdjust="spacing" textLength="23" x="95.25" y="24.0669">use</text><!--MD5=[002b66aba2c2d9ced280ccd44d9491ec]
@startuml
skinparam style strict

class Frame
class FormLayout implements LayoutManager

class FormLayout {
    -left : int
    -right : int
    -height : int
    -{static} GAP : int
    +preferredLayoutSize(parent: Container): Dimension
    +minimumLayoutSize(parent: Container): Dimension
    +layoutContainer(parent: Container): Dimension
    +addLayoutComponent(parent: Container): Dimension
    +removeLayoutComponent(parent: Container): Dimension
}

Frame -> LayoutManager: use
@enduml

PlantUML version 1.2021.01beta3(Unknown compile time)
(GPL source distribution)
Java Runtime: Java(TM) SE Runtime Environment
JVM: Java HotSpot(TM) 64-Bit Server VM
Default Encoding: UTF-8
Language: en
Country: US
--></g></svg>