<?xml version="1.0" encoding="UTF-8" standalone="no"?><svg xmlns="http://www.w3.org/2000/svg" xmlns:xlink="http://www.w3.org/1999/xlink" contentScriptType="application/ecmascript" contentStyleType="text/css" height="436px" preserveAspectRatio="none" style="width:1602px;height:436px;" version="1.1" viewBox="0 0 1602 436" width="1602px" zoomAndPan="magnify"><defs><filter height="300%" id="f1jeiktjkmzk4t" width="300%" x="-1" y="-1"><feGaussianBlur result="blurOut" stdDeviation="2.0"/><feColorMatrix in="blurOut" result="blurOut2" type="matrix" values="0 0 0 0 0 0 0 0 0 0 0 0 0 0 0 0 0 0 .4 0"/><feOffset dx="4.0" dy="4.0" in="blurOut2" result="blurOut3"/><feBlend in="SourceGraphic" in2="blurOut3" mode="normal"/></filter></defs><g><!--MD5=[3db97b1d1391701a242956b8481511ae]
cluster Framework.Graphed2--><polygon fill="#FFFFFF" filter="url(#f1jeiktjkmzk4t)" points="16,6,194,6,201,28.2969,1150,28.2969,1150,429,16,429,16,6" style="stroke:#000000;stroke-width:1.5;"/><line style="stroke:#000000;stroke-width:1.5;" x1="16" x2="201" y1="28.2969" y2="28.2969"/><text fill="#000000" font-family="sans-serif" font-size="14" font-weight="bold" lengthAdjust="spacing" textLength="172" x="20" y="20.9951">Framework.Graphed2</text><!--MD5=[aa8f7b917213fcc1c2766e2d59b49067]
cluster java.lang--><polygon fill="#FFFFFF" filter="url(#f1jeiktjkmzk4t)" points="1282,330,1362,330,1369,352.2969,1585,352.2969,1585,429,1282,429,1282,330" style="stroke:#000000;stroke-width:1.5;"/><line style="stroke:#000000;stroke-width:1.5;" x1="1282" x2="1369" y1="352.2969" y2="352.2969"/><text fill="#000000" font-family="sans-serif" font-size="14" font-weight="bold" lengthAdjust="spacing" textLength="74" x="1286" y="344.9951">java.lang</text><!--MD5=[7db3c59d38ae5b37b484eb2df9368145]
cluster java.util--><polygon fill="#FFFFFF" filter="url(#f1jeiktjkmzk4t)" points="1174,330,1247,330,1254,352.2969,1258,352.2969,1258,429,1174,429,1174,330" style="stroke:#000000;stroke-width:1.5;"/><line style="stroke:#000000;stroke-width:1.5;" x1="1174" x2="1254" y1="352.2969" y2="352.2969"/><text fill="#000000" font-family="sans-serif" font-size="14" font-weight="bold" lengthAdjust="spacing" textLength="67" x="1178" y="344.9951">java.util</text><!--MD5=[0e1a18f4ae0aecdd42987abadc41017e]
class Framework.Graphed2.AbstractEdge--><rect codeLine="1" fill="#FEFECE" filter="url(#f1jeiktjkmzk4t)" height="48" id="Framework.Graphed2.AbstractEdge" style="stroke:#A80036;stroke-width:1.5;" width="114" x="289" y="149"/><ellipse cx="304" cy="165" fill="#A9DCDF" rx="11" ry="11" style="stroke:#A80036;stroke-width:1.0;"/><path d="M306.0781,166.8125 L306.4688,167.7969 L306.0781,167.7969 C305.625,167.7969 305.5156,167.8125 305.3594,167.9219 C305.1094,168.0781 304.9531,168.3594 304.9531,168.6563 C304.9531,168.9219 305.0938,169.1719 305.3125,169.3281 C305.4531,169.4531 305.6563,169.5 306.0781,169.5 L308.4375,169.5 C308.7969,169.5 309.0156,169.4688 309.1563,169.375 C309.4063,169.2344 309.5625,168.9375 309.5625,168.6563 C309.5625,168.375 309.4219,168.125 309.2031,167.9688 C309.0313,167.8281 308.875,167.7969 308.4063,167.7969 L305.0156,159.5938 L301.3438,159.5938 C300.8906,159.5938 300.7656,159.6094 300.6094,159.7031 C300.3594,159.875 300.2031,160.1563 300.2031,160.4375 C300.2031,160.7188 300.3438,160.9688 300.5625,161.1406 C300.7344,161.25 300.9063,161.2813 301.3438,161.2813 L302.4219,161.2813 L299.7813,167.7969 C299.3594,167.7969 299.2031,167.8125 299.0469,167.9219 C298.7969,168.0781 298.6406,168.3594 298.6406,168.6563 C298.6406,169.2188 299.0156,169.5 299.7656,169.5 L302.0313,169.5 C302.3906,169.5 302.6094,169.4688 302.7344,169.375 C303,169.2344 303.1406,168.9375 303.1406,168.6563 C303.1406,168.375 303.0156,168.125 302.7969,167.9531 C302.625,167.8281 302.4844,167.7969 302.0313,167.7969 L301.6406,167.7969 L302.0313,166.8125 L306.0781,166.8125 Z M305.375,165.1094 L302.7031,165.1094 L304.0469,161.8438 L305.375,165.1094 Z " fill="#000000"/><text fill="#000000" font-family="sans-serif" font-size="12" font-style="italic" lengthAdjust="spacing" textLength="82" x="318" y="169.1543">AbstractEdge</text><line style="stroke:#A80036;stroke-width:1.5;" x1="290" x2="402" y1="181" y2="181"/><line style="stroke:#A80036;stroke-width:1.5;" x1="290" x2="402" y1="189" y2="189"/><!--MD5=[c37ecfb98d1701610c6a131be1474d82]
class Framework.Graphed2.Graph--><rect codeLine="2" fill="#FEFECE" filter="url(#f1jeiktjkmzk4t)" height="48" id="Framework.Graphed2.Graph" style="stroke:#A80036;stroke-width:1.5;" width="69" x="851.5" y="257"/><ellipse cx="866.5" cy="273" fill="#A9DCDF" rx="11" ry="11" style="stroke:#A80036;stroke-width:1.0;"/><path d="M868.5781,274.8125 L868.9688,275.7969 L868.5781,275.7969 C868.125,275.7969 868.0156,275.8125 867.8594,275.9219 C867.6094,276.0781 867.4531,276.3594 867.4531,276.6563 C867.4531,276.9219 867.5938,277.1719 867.8125,277.3281 C867.9531,277.4531 868.1563,277.5 868.5781,277.5 L870.9375,277.5 C871.2969,277.5 871.5156,277.4688 871.6563,277.375 C871.9063,277.2344 872.0625,276.9375 872.0625,276.6563 C872.0625,276.375 871.9219,276.125 871.7031,275.9688 C871.5313,275.8281 871.375,275.7969 870.9063,275.7969 L867.5156,267.5938 L863.8438,267.5938 C863.3906,267.5938 863.2656,267.6094 863.1094,267.7031 C862.8594,267.875 862.7031,268.1563 862.7031,268.4375 C862.7031,268.7188 862.8438,268.9688 863.0625,269.1406 C863.2344,269.25 863.4063,269.2813 863.8438,269.2813 L864.9219,269.2813 L862.2813,275.7969 C861.8594,275.7969 861.7031,275.8125 861.5469,275.9219 C861.2969,276.0781 861.1406,276.3594 861.1406,276.6563 C861.1406,277.2188 861.5156,277.5 862.2656,277.5 L864.5313,277.5 C864.8906,277.5 865.1094,277.4688 865.2344,277.375 C865.5,277.2344 865.6406,276.9375 865.6406,276.6563 C865.6406,276.375 865.5156,276.125 865.2969,275.9531 C865.125,275.8281 864.9844,275.7969 864.5313,275.7969 L864.1406,275.7969 L864.5313,274.8125 L868.5781,274.8125 Z M867.875,273.1094 L865.2031,273.1094 L866.5469,269.8438 L867.875,273.1094 Z " fill="#000000"/><text fill="#000000" font-family="sans-serif" font-size="12" font-style="italic" lengthAdjust="spacing" textLength="37" x="880.5" y="277.1543">Graph</text><line style="stroke:#A80036;stroke-width:1.5;" x1="852.5" x2="919.5" y1="289" y2="289"/><line style="stroke:#A80036;stroke-width:1.5;" x1="852.5" x2="919.5" y1="297" y2="297"/><!--MD5=[4425bec0985c9102c662e79595d362d4]
class Framework.Graphed2.CircleNode--><rect codeLine="4" fill="#FEFECE" filter="url(#f1jeiktjkmzk4t)" height="48" id="Framework.Graphed2.CircleNode" style="stroke:#A80036;stroke-width:1.5;" width="98" x="1036" y="149"/><ellipse cx="1051" cy="165" fill="#ADD1B2" rx="11" ry="11" style="stroke:#A80036;stroke-width:1.0;"/><path d="M1053.3438,160.6719 C1052.4063,160.2344 1051.8125,160.0938 1050.9375,160.0938 C1048.3125,160.0938 1046.3125,162.1719 1046.3125,164.8906 L1046.3125,166.0156 C1046.3125,168.5938 1048.4219,170.4844 1051.3125,170.4844 C1052.5313,170.4844 1053.6875,170.1875 1054.4375,169.6406 C1055.0156,169.2344 1055.3438,168.7813 1055.3438,168.3906 C1055.3438,167.9375 1054.9531,167.5469 1054.4844,167.5469 C1054.2656,167.5469 1054.0625,167.625 1053.875,167.8125 C1053.4219,168.2969 1053.4219,168.2969 1053.2344,168.3906 C1052.8125,168.6563 1052.125,168.7813 1051.3594,168.7813 C1049.3125,168.7813 1048.0156,167.6875 1048.0156,165.9844 L1048.0156,164.8906 C1048.0156,163.1094 1049.2656,161.7969 1051,161.7969 C1051.5781,161.7969 1052.1875,161.9531 1052.6563,162.2031 C1053.1406,162.4844 1053.3125,162.7031 1053.4063,163.1094 C1053.4688,163.5156 1053.5,163.6406 1053.6406,163.7656 C1053.7813,163.9063 1054.0156,164.0156 1054.2344,164.0156 C1054.5,164.0156 1054.7656,163.875 1054.9375,163.6563 C1055.0469,163.5 1055.0781,163.3125 1055.0781,162.8906 L1055.0781,161.4688 C1055.0781,161.0313 1055.0625,160.9063 1054.9688,160.75 C1054.8125,160.4844 1054.5313,160.3438 1054.2344,160.3438 C1053.9375,160.3438 1053.7344,160.4375 1053.5156,160.75 L1053.3438,160.6719 Z " fill="#000000"/><text fill="#000000" font-family="sans-serif" font-size="12" lengthAdjust="spacing" textLength="66" x="1065" y="169.1543">CircleNode</text><line style="stroke:#A80036;stroke-width:1.5;" x1="1037" x2="1133" y1="181" y2="181"/><line style="stroke:#A80036;stroke-width:1.5;" x1="1037" x2="1133" y1="189" y2="189"/><!--MD5=[55714240e14e2e52825f5c5b75b7dbe0]
class Framework.Graphed2.FormLayout--><rect codeLine="5" fill="#FEFECE" filter="url(#f1jeiktjkmzk4t)" height="48" id="Framework.Graphed2.FormLayout" style="stroke:#A80036;stroke-width:1.5;" width="102" x="853" y="41"/><ellipse cx="868" cy="57" fill="#ADD1B2" rx="11" ry="11" style="stroke:#A80036;stroke-width:1.0;"/><path d="M870.3438,52.6719 C869.4063,52.2344 868.8125,52.0938 867.9375,52.0938 C865.3125,52.0938 863.3125,54.1719 863.3125,56.8906 L863.3125,58.0156 C863.3125,60.5938 865.4219,62.4844 868.3125,62.4844 C869.5313,62.4844 870.6875,62.1875 871.4375,61.6406 C872.0156,61.2344 872.3438,60.7813 872.3438,60.3906 C872.3438,59.9375 871.9531,59.5469 871.4844,59.5469 C871.2656,59.5469 871.0625,59.625 870.875,59.8125 C870.4219,60.2969 870.4219,60.2969 870.2344,60.3906 C869.8125,60.6563 869.125,60.7813 868.3594,60.7813 C866.3125,60.7813 865.0156,59.6875 865.0156,57.9844 L865.0156,56.8906 C865.0156,55.1094 866.2656,53.7969 868,53.7969 C868.5781,53.7969 869.1875,53.9531 869.6563,54.2031 C870.1406,54.4844 870.3125,54.7031 870.4063,55.1094 C870.4688,55.5156 870.5,55.6406 870.6406,55.7656 C870.7813,55.9063 871.0156,56.0156 871.2344,56.0156 C871.5,56.0156 871.7656,55.875 871.9375,55.6563 C872.0469,55.5 872.0781,55.3125 872.0781,54.8906 L872.0781,53.4688 C872.0781,53.0313 872.0625,52.9063 871.9688,52.75 C871.8125,52.4844 871.5313,52.3438 871.2344,52.3438 C870.9375,52.3438 870.7344,52.4375 870.5156,52.75 L870.3438,52.6719 Z " fill="#000000"/><text fill="#000000" font-family="sans-serif" font-size="12" lengthAdjust="spacing" textLength="70" x="882" y="61.1543">FormLayout</text><line style="stroke:#A80036;stroke-width:1.5;" x1="854" x2="954" y1="73" y2="73"/><line style="stroke:#A80036;stroke-width:1.5;" x1="854" x2="954" y1="81" y2="81"/><!--MD5=[d590372befb7347a10801ad79dd4f96a]
class Framework.Graphed2.GraphFrame--><rect codeLine="6" fill="#FEFECE" filter="url(#f1jeiktjkmzk4t)" height="48" id="Framework.Graphed2.GraphFrame" style="stroke:#A80036;stroke-width:1.5;" width="106" x="712" y="41"/><ellipse cx="727" cy="57" fill="#ADD1B2" rx="11" ry="11" style="stroke:#A80036;stroke-width:1.0;"/><path d="M729.3438,52.6719 C728.4063,52.2344 727.8125,52.0938 726.9375,52.0938 C724.3125,52.0938 722.3125,54.1719 722.3125,56.8906 L722.3125,58.0156 C722.3125,60.5938 724.4219,62.4844 727.3125,62.4844 C728.5313,62.4844 729.6875,62.1875 730.4375,61.6406 C731.0156,61.2344 731.3438,60.7813 731.3438,60.3906 C731.3438,59.9375 730.9531,59.5469 730.4844,59.5469 C730.2656,59.5469 730.0625,59.625 729.875,59.8125 C729.4219,60.2969 729.4219,60.2969 729.2344,60.3906 C728.8125,60.6563 728.125,60.7813 727.3594,60.7813 C725.3125,60.7813 724.0156,59.6875 724.0156,57.9844 L724.0156,56.8906 C724.0156,55.1094 725.2656,53.7969 727,53.7969 C727.5781,53.7969 728.1875,53.9531 728.6563,54.2031 C729.1406,54.4844 729.3125,54.7031 729.4063,55.1094 C729.4688,55.5156 729.5,55.6406 729.6406,55.7656 C729.7813,55.9063 730.0156,56.0156 730.2344,56.0156 C730.5,56.0156 730.7656,55.875 730.9375,55.6563 C731.0469,55.5 731.0781,55.3125 731.0781,54.8906 L731.0781,53.4688 C731.0781,53.0313 731.0625,52.9063 730.9688,52.75 C730.8125,52.4844 730.5313,52.3438 730.2344,52.3438 C729.9375,52.3438 729.7344,52.4375 729.5156,52.75 L729.3438,52.6719 Z " fill="#000000"/><text fill="#000000" font-family="sans-serif" font-size="12" lengthAdjust="spacing" textLength="74" x="741" y="61.1543">GraphFrame</text><line style="stroke:#A80036;stroke-width:1.5;" x1="713" x2="817" y1="73" y2="73"/><line style="stroke:#A80036;stroke-width:1.5;" x1="713" x2="817" y1="81" y2="81"/><!--MD5=[0f060c9e5e752f995fc2806adc7831d9]
class Framework.Graphed2.GraphPanel--><rect codeLine="7" fill="#FEFECE" filter="url(#f1jeiktjkmzk4t)" height="48" id="Framework.Graphed2.GraphPanel" style="stroke:#A80036;stroke-width:1.5;" width="99" x="145.5" y="41"/><ellipse cx="160.5" cy="57" fill="#ADD1B2" rx="11" ry="11" style="stroke:#A80036;stroke-width:1.0;"/><path d="M162.8438,52.6719 C161.9063,52.2344 161.3125,52.0938 160.4375,52.0938 C157.8125,52.0938 155.8125,54.1719 155.8125,56.8906 L155.8125,58.0156 C155.8125,60.5938 157.9219,62.4844 160.8125,62.4844 C162.0313,62.4844 163.1875,62.1875 163.9375,61.6406 C164.5156,61.2344 164.8438,60.7813 164.8438,60.3906 C164.8438,59.9375 164.4531,59.5469 163.9844,59.5469 C163.7656,59.5469 163.5625,59.625 163.375,59.8125 C162.9219,60.2969 162.9219,60.2969 162.7344,60.3906 C162.3125,60.6563 161.625,60.7813 160.8594,60.7813 C158.8125,60.7813 157.5156,59.6875 157.5156,57.9844 L157.5156,56.8906 C157.5156,55.1094 158.7656,53.7969 160.5,53.7969 C161.0781,53.7969 161.6875,53.9531 162.1563,54.2031 C162.6406,54.4844 162.8125,54.7031 162.9063,55.1094 C162.9688,55.5156 163,55.6406 163.1406,55.7656 C163.2813,55.9063 163.5156,56.0156 163.7344,56.0156 C164,56.0156 164.2656,55.875 164.4375,55.6563 C164.5469,55.5 164.5781,55.3125 164.5781,54.8906 L164.5781,53.4688 C164.5781,53.0313 164.5625,52.9063 164.4688,52.75 C164.3125,52.4844 164.0313,52.3438 163.7344,52.3438 C163.4375,52.3438 163.2344,52.4375 163.0156,52.75 L162.8438,52.6719 Z " fill="#000000"/><text fill="#000000" font-family="sans-serif" font-size="12" lengthAdjust="spacing" textLength="67" x="174.5" y="61.1543">GraphPanel</text><line style="stroke:#A80036;stroke-width:1.5;" x1="146.5" x2="243.5" y1="73" y2="73"/><line style="stroke:#A80036;stroke-width:1.5;" x1="146.5" x2="243.5" y1="81" y2="81"/><!--MD5=[59a184d5a623fb9974fb05d8eb3cc150]
class Framework.Graphed2.JFrame--><rect codeLine="8" fill="#FEFECE" filter="url(#f1jeiktjkmzk4t)" height="48" id="Framework.Graphed2.JFrame" style="stroke:#A80036;stroke-width:1.5;" width="74" x="766" y="149"/><ellipse cx="781" cy="165" fill="#ADD1B2" rx="11" ry="11" style="stroke:#A80036;stroke-width:1.0;"/><path d="M783.3438,160.6719 C782.4063,160.2344 781.8125,160.0938 780.9375,160.0938 C778.3125,160.0938 776.3125,162.1719 776.3125,164.8906 L776.3125,166.0156 C776.3125,168.5938 778.4219,170.4844 781.3125,170.4844 C782.5313,170.4844 783.6875,170.1875 784.4375,169.6406 C785.0156,169.2344 785.3438,168.7813 785.3438,168.3906 C785.3438,167.9375 784.9531,167.5469 784.4844,167.5469 C784.2656,167.5469 784.0625,167.625 783.875,167.8125 C783.4219,168.2969 783.4219,168.2969 783.2344,168.3906 C782.8125,168.6563 782.125,168.7813 781.3594,168.7813 C779.3125,168.7813 778.0156,167.6875 778.0156,165.9844 L778.0156,164.8906 C778.0156,163.1094 779.2656,161.7969 781,161.7969 C781.5781,161.7969 782.1875,161.9531 782.6563,162.2031 C783.1406,162.4844 783.3125,162.7031 783.4063,163.1094 C783.4688,163.5156 783.5,163.6406 783.6406,163.7656 C783.7813,163.9063 784.0156,164.0156 784.2344,164.0156 C784.5,164.0156 784.7656,163.875 784.9375,163.6563 C785.0469,163.5 785.0781,163.3125 785.0781,162.8906 L785.0781,161.4688 C785.0781,161.0313 785.0625,160.9063 784.9688,160.75 C784.8125,160.4844 784.5313,160.3438 784.2344,160.3438 C783.9375,160.3438 783.7344,160.4375 783.5156,160.75 L783.3438,160.6719 Z " fill="#000000"/><text fill="#000000" font-family="sans-serif" font-size="12" lengthAdjust="spacing" textLength="42" x="795" y="169.1543">JFrame</text><line style="stroke:#A80036;stroke-width:1.5;" x1="767" x2="839" y1="181" y2="181"/><line style="stroke:#A80036;stroke-width:1.5;" x1="767" x2="839" y1="189" y2="189"/><!--MD5=[df5a6a9e233190b11c09cb9ffe59a5be]
class Framework.Graphed2.JPanel--><rect codeLine="9" fill="#FEFECE" filter="url(#f1jeiktjkmzk4t)" height="48" id="Framework.Graphed2.JPanel" style="stroke:#A80036;stroke-width:1.5;" width="67" x="42.5" y="149"/><ellipse cx="57.5" cy="165" fill="#ADD1B2" rx="11" ry="11" style="stroke:#A80036;stroke-width:1.0;"/><path d="M59.8438,160.6719 C58.9063,160.2344 58.3125,160.0938 57.4375,160.0938 C54.8125,160.0938 52.8125,162.1719 52.8125,164.8906 L52.8125,166.0156 C52.8125,168.5938 54.9219,170.4844 57.8125,170.4844 C59.0313,170.4844 60.1875,170.1875 60.9375,169.6406 C61.5156,169.2344 61.8438,168.7813 61.8438,168.3906 C61.8438,167.9375 61.4531,167.5469 60.9844,167.5469 C60.7656,167.5469 60.5625,167.625 60.375,167.8125 C59.9219,168.2969 59.9219,168.2969 59.7344,168.3906 C59.3125,168.6563 58.625,168.7813 57.8594,168.7813 C55.8125,168.7813 54.5156,167.6875 54.5156,165.9844 L54.5156,164.8906 C54.5156,163.1094 55.7656,161.7969 57.5,161.7969 C58.0781,161.7969 58.6875,161.9531 59.1563,162.2031 C59.6406,162.4844 59.8125,162.7031 59.9063,163.1094 C59.9688,163.5156 60,163.6406 60.1406,163.7656 C60.2813,163.9063 60.5156,164.0156 60.7344,164.0156 C61,164.0156 61.2656,163.875 61.4375,163.6563 C61.5469,163.5 61.5781,163.3125 61.5781,162.8906 L61.5781,161.4688 C61.5781,161.0313 61.5625,160.9063 61.4688,160.75 C61.3125,160.4844 61.0313,160.3438 60.7344,160.3438 C60.4375,160.3438 60.2344,160.4375 60.0156,160.75 L59.8438,160.6719 Z " fill="#000000"/><text fill="#000000" font-family="sans-serif" font-size="12" lengthAdjust="spacing" textLength="35" x="71.5" y="169.1543">JPanel</text><line style="stroke:#A80036;stroke-width:1.5;" x1="43.5" x2="108.5" y1="181" y2="181"/><line style="stroke:#A80036;stroke-width:1.5;" x1="43.5" x2="108.5" y1="189" y2="189"/><!--MD5=[78081873f64899bf2a3b8c9e7c67da29]
class Framework.Graphed2.LineEdge--><rect codeLine="10" fill="#FEFECE" filter="url(#f1jeiktjkmzk4t)" height="48" id="Framework.Graphed2.LineEdge" style="stroke:#A80036;stroke-width:1.5;" width="87" x="279.5" y="41"/><ellipse cx="294.5" cy="57" fill="#ADD1B2" rx="11" ry="11" style="stroke:#A80036;stroke-width:1.0;"/><path d="M296.8438,52.6719 C295.9063,52.2344 295.3125,52.0938 294.4375,52.0938 C291.8125,52.0938 289.8125,54.1719 289.8125,56.8906 L289.8125,58.0156 C289.8125,60.5938 291.9219,62.4844 294.8125,62.4844 C296.0313,62.4844 297.1875,62.1875 297.9375,61.6406 C298.5156,61.2344 298.8438,60.7813 298.8438,60.3906 C298.8438,59.9375 298.4531,59.5469 297.9844,59.5469 C297.7656,59.5469 297.5625,59.625 297.375,59.8125 C296.9219,60.2969 296.9219,60.2969 296.7344,60.3906 C296.3125,60.6563 295.625,60.7813 294.8594,60.7813 C292.8125,60.7813 291.5156,59.6875 291.5156,57.9844 L291.5156,56.8906 C291.5156,55.1094 292.7656,53.7969 294.5,53.7969 C295.0781,53.7969 295.6875,53.9531 296.1563,54.2031 C296.6406,54.4844 296.8125,54.7031 296.9063,55.1094 C296.9688,55.5156 297,55.6406 297.1406,55.7656 C297.2813,55.9063 297.5156,56.0156 297.7344,56.0156 C298,56.0156 298.2656,55.875 298.4375,55.6563 C298.5469,55.5 298.5781,55.3125 298.5781,54.8906 L298.5781,53.4688 C298.5781,53.0313 298.5625,52.9063 298.4688,52.75 C298.3125,52.4844 298.0313,52.3438 297.7344,52.3438 C297.4375,52.3438 297.2344,52.4375 297.0156,52.75 L296.8438,52.6719 Z " fill="#000000"/><text fill="#000000" font-family="sans-serif" font-size="12" lengthAdjust="spacing" textLength="55" x="308.5" y="61.1543">LineEdge</text><line style="stroke:#A80036;stroke-width:1.5;" x1="280.5" x2="365.5" y1="73" y2="73"/><line style="stroke:#A80036;stroke-width:1.5;" x1="280.5" x2="365.5" y1="81" y2="81"/><!--MD5=[fc6d26a45e631006cc40b60937da548d]
class Framework.Graphed2.LineStyle--><rect codeLine="11" fill="#FEFECE" filter="url(#f1jeiktjkmzk4t)" height="48" id="Framework.Graphed2.LineStyle" style="stroke:#A80036;stroke-width:1.5;" width="86" x="730" y="257"/><ellipse cx="745" cy="273" fill="#ADD1B2" rx="11" ry="11" style="stroke:#A80036;stroke-width:1.0;"/><path d="M747.3438,268.6719 C746.4063,268.2344 745.8125,268.0938 744.9375,268.0938 C742.3125,268.0938 740.3125,270.1719 740.3125,272.8906 L740.3125,274.0156 C740.3125,276.5938 742.4219,278.4844 745.3125,278.4844 C746.5313,278.4844 747.6875,278.1875 748.4375,277.6406 C749.0156,277.2344 749.3438,276.7813 749.3438,276.3906 C749.3438,275.9375 748.9531,275.5469 748.4844,275.5469 C748.2656,275.5469 748.0625,275.625 747.875,275.8125 C747.4219,276.2969 747.4219,276.2969 747.2344,276.3906 C746.8125,276.6563 746.125,276.7813 745.3594,276.7813 C743.3125,276.7813 742.0156,275.6875 742.0156,273.9844 L742.0156,272.8906 C742.0156,271.1094 743.2656,269.7969 745,269.7969 C745.5781,269.7969 746.1875,269.9531 746.6563,270.2031 C747.1406,270.4844 747.3125,270.7031 747.4063,271.1094 C747.4688,271.5156 747.5,271.6406 747.6406,271.7656 C747.7813,271.9063 748.0156,272.0156 748.2344,272.0156 C748.5,272.0156 748.7656,271.875 748.9375,271.6563 C749.0469,271.5 749.0781,271.3125 749.0781,270.8906 L749.0781,269.4688 C749.0781,269.0313 749.0625,268.9063 748.9688,268.75 C748.8125,268.4844 748.5313,268.3438 748.2344,268.3438 C747.9375,268.3438 747.7344,268.4375 747.5156,268.75 L747.3438,268.6719 Z " fill="#000000"/><text fill="#000000" font-family="sans-serif" font-size="12" lengthAdjust="spacing" textLength="54" x="759" y="277.1543">LineStyle</text><line style="stroke:#A80036;stroke-width:1.5;" x1="731" x2="815" y1="289" y2="289"/><line style="stroke:#A80036;stroke-width:1.5;" x1="731" x2="815" y1="297" y2="297"/><!--MD5=[e932841c5a4ef04ebef87eb519737c53]
class Framework.Graphed2.LineStyleEditor--><rect codeLine="12" fill="#FEFECE" filter="url(#f1jeiktjkmzk4t)" height="48" id="Framework.Graphed2.LineStyleEditor" style="stroke:#A80036;stroke-width:1.5;" width="121" x="555.5" y="41"/><ellipse cx="570.5" cy="57" fill="#ADD1B2" rx="11" ry="11" style="stroke:#A80036;stroke-width:1.0;"/><path d="M572.8438,52.6719 C571.9063,52.2344 571.3125,52.0938 570.4375,52.0938 C567.8125,52.0938 565.8125,54.1719 565.8125,56.8906 L565.8125,58.0156 C565.8125,60.5938 567.9219,62.4844 570.8125,62.4844 C572.0313,62.4844 573.1875,62.1875 573.9375,61.6406 C574.5156,61.2344 574.8438,60.7813 574.8438,60.3906 C574.8438,59.9375 574.4531,59.5469 573.9844,59.5469 C573.7656,59.5469 573.5625,59.625 573.375,59.8125 C572.9219,60.2969 572.9219,60.2969 572.7344,60.3906 C572.3125,60.6563 571.625,60.7813 570.8594,60.7813 C568.8125,60.7813 567.5156,59.6875 567.5156,57.9844 L567.5156,56.8906 C567.5156,55.1094 568.7656,53.7969 570.5,53.7969 C571.0781,53.7969 571.6875,53.9531 572.1563,54.2031 C572.6406,54.4844 572.8125,54.7031 572.9063,55.1094 C572.9688,55.5156 573,55.6406 573.1406,55.7656 C573.2813,55.9063 573.5156,56.0156 573.7344,56.0156 C574,56.0156 574.2656,55.875 574.4375,55.6563 C574.5469,55.5 574.5781,55.3125 574.5781,54.8906 L574.5781,53.4688 C574.5781,53.0313 574.5625,52.9063 574.4688,52.75 C574.3125,52.4844 574.0313,52.3438 573.7344,52.3438 C573.4375,52.3438 573.2344,52.4375 573.0156,52.75 L572.8438,52.6719 Z " fill="#000000"/><text fill="#000000" font-family="sans-serif" font-size="12" lengthAdjust="spacing" textLength="89" x="584.5" y="61.1543">LineStyleEditor</text><line style="stroke:#A80036;stroke-width:1.5;" x1="556.5" x2="675.5" y1="73" y2="73"/><line style="stroke:#A80036;stroke-width:1.5;" x1="556.5" x2="675.5" y1="81" y2="81"/><!--MD5=[06ce7edc5dd9ffceaef6265aa5d35787]
class Framework.Graphed2.PointNode--><rect codeLine="13" fill="#FEFECE" filter="url(#f1jeiktjkmzk4t)" height="48" id="Framework.Graphed2.PointNode" style="stroke:#A80036;stroke-width:1.5;" width="92" x="639" y="149"/><ellipse cx="654" cy="165" fill="#ADD1B2" rx="11" ry="11" style="stroke:#A80036;stroke-width:1.0;"/><path d="M656.3438,160.6719 C655.4063,160.2344 654.8125,160.0938 653.9375,160.0938 C651.3125,160.0938 649.3125,162.1719 649.3125,164.8906 L649.3125,166.0156 C649.3125,168.5938 651.4219,170.4844 654.3125,170.4844 C655.5313,170.4844 656.6875,170.1875 657.4375,169.6406 C658.0156,169.2344 658.3438,168.7813 658.3438,168.3906 C658.3438,167.9375 657.9531,167.5469 657.4844,167.5469 C657.2656,167.5469 657.0625,167.625 656.875,167.8125 C656.4219,168.2969 656.4219,168.2969 656.2344,168.3906 C655.8125,168.6563 655.125,168.7813 654.3594,168.7813 C652.3125,168.7813 651.0156,167.6875 651.0156,165.9844 L651.0156,164.8906 C651.0156,163.1094 652.2656,161.7969 654,161.7969 C654.5781,161.7969 655.1875,161.9531 655.6563,162.2031 C656.1406,162.4844 656.3125,162.7031 656.4063,163.1094 C656.4688,163.5156 656.5,163.6406 656.6406,163.7656 C656.7813,163.9063 657.0156,164.0156 657.2344,164.0156 C657.5,164.0156 657.7656,163.875 657.9375,163.6563 C658.0469,163.5 658.0781,163.3125 658.0781,162.8906 L658.0781,161.4688 C658.0781,161.0313 658.0625,160.9063 657.9688,160.75 C657.8125,160.4844 657.5313,160.3438 657.2344,160.3438 C656.9375,160.3438 656.7344,160.4375 656.5156,160.75 L656.3438,160.6719 Z " fill="#000000"/><text fill="#000000" font-family="sans-serif" font-size="12" lengthAdjust="spacing" textLength="60" x="668" y="169.1543">PointNode</text><line style="stroke:#A80036;stroke-width:1.5;" x1="640" x2="730" y1="181" y2="181"/><line style="stroke:#A80036;stroke-width:1.5;" x1="640" x2="730" y1="189" y2="189"/><!--MD5=[2e9c64a86d0b7fa98a604e1b4445d7e7]
class Framework.Graphed2.PropertyEditorSupport--><rect codeLine="14" fill="#FEFECE" filter="url(#f1jeiktjkmzk4t)" height="48" id="Framework.Graphed2.PropertyEditorSupport" style="stroke:#A80036;stroke-width:1.5;" width="166" x="438" y="149"/><ellipse cx="453" cy="165" fill="#ADD1B2" rx="11" ry="11" style="stroke:#A80036;stroke-width:1.0;"/><path d="M455.3438,160.6719 C454.4063,160.2344 453.8125,160.0938 452.9375,160.0938 C450.3125,160.0938 448.3125,162.1719 448.3125,164.8906 L448.3125,166.0156 C448.3125,168.5938 450.4219,170.4844 453.3125,170.4844 C454.5313,170.4844 455.6875,170.1875 456.4375,169.6406 C457.0156,169.2344 457.3438,168.7813 457.3438,168.3906 C457.3438,167.9375 456.9531,167.5469 456.4844,167.5469 C456.2656,167.5469 456.0625,167.625 455.875,167.8125 C455.4219,168.2969 455.4219,168.2969 455.2344,168.3906 C454.8125,168.6563 454.125,168.7813 453.3594,168.7813 C451.3125,168.7813 450.0156,167.6875 450.0156,165.9844 L450.0156,164.8906 C450.0156,163.1094 451.2656,161.7969 453,161.7969 C453.5781,161.7969 454.1875,161.9531 454.6563,162.2031 C455.1406,162.4844 455.3125,162.7031 455.4063,163.1094 C455.4688,163.5156 455.5,163.6406 455.6406,163.7656 C455.7813,163.9063 456.0156,164.0156 456.2344,164.0156 C456.5,164.0156 456.7656,163.875 456.9375,163.6563 C457.0469,163.5 457.0781,163.3125 457.0781,162.8906 L457.0781,161.4688 C457.0781,161.0313 457.0625,160.9063 456.9688,160.75 C456.8125,160.4844 456.5313,160.3438 456.2344,160.3438 C455.9375,160.3438 455.7344,160.4375 455.5156,160.75 L455.3438,160.6719 Z " fill="#000000"/><text fill="#000000" font-family="sans-serif" font-size="12" lengthAdjust="spacing" textLength="134" x="467" y="169.1543">PropertyEditorSupport</text><line style="stroke:#A80036;stroke-width:1.5;" x1="439" x2="603" y1="181" y2="181"/><line style="stroke:#A80036;stroke-width:1.5;" x1="439" x2="603" y1="189" y2="189"/><!--MD5=[bc23074b4bbddb89bdddecb9f5d1385a]
class Framework.Graphed2.PropertySheet--><rect codeLine="15" fill="#FEFECE" filter="url(#f1jeiktjkmzk4t)" height="48" id="Framework.Graphed2.PropertySheet" style="stroke:#A80036;stroke-width:1.5;" width="118" x="402" y="41"/><ellipse cx="417" cy="57" fill="#ADD1B2" rx="11" ry="11" style="stroke:#A80036;stroke-width:1.0;"/><path d="M419.3438,52.6719 C418.4063,52.2344 417.8125,52.0938 416.9375,52.0938 C414.3125,52.0938 412.3125,54.1719 412.3125,56.8906 L412.3125,58.0156 C412.3125,60.5938 414.4219,62.4844 417.3125,62.4844 C418.5313,62.4844 419.6875,62.1875 420.4375,61.6406 C421.0156,61.2344 421.3438,60.7813 421.3438,60.3906 C421.3438,59.9375 420.9531,59.5469 420.4844,59.5469 C420.2656,59.5469 420.0625,59.625 419.875,59.8125 C419.4219,60.2969 419.4219,60.2969 419.2344,60.3906 C418.8125,60.6563 418.125,60.7813 417.3594,60.7813 C415.3125,60.7813 414.0156,59.6875 414.0156,57.9844 L414.0156,56.8906 C414.0156,55.1094 415.2656,53.7969 417,53.7969 C417.5781,53.7969 418.1875,53.9531 418.6563,54.2031 C419.1406,54.4844 419.3125,54.7031 419.4063,55.1094 C419.4688,55.5156 419.5,55.6406 419.6406,55.7656 C419.7813,55.9063 420.0156,56.0156 420.2344,56.0156 C420.5,56.0156 420.7656,55.875 420.9375,55.6563 C421.0469,55.5 421.0781,55.3125 421.0781,54.8906 L421.0781,53.4688 C421.0781,53.0313 421.0625,52.9063 420.9688,52.75 C420.8125,52.4844 420.5313,52.3438 420.2344,52.3438 C419.9375,52.3438 419.7344,52.4375 419.5156,52.75 L419.3438,52.6719 Z " fill="#000000"/><text fill="#000000" font-family="sans-serif" font-size="12" lengthAdjust="spacing" textLength="86" x="431" y="61.1543">PropertySheet</text><line style="stroke:#A80036;stroke-width:1.5;" x1="403" x2="519" y1="73" y2="73"/><line style="stroke:#A80036;stroke-width:1.5;" x1="403" x2="519" y1="81" y2="81"/><!--MD5=[834ba623f7409a3e750c0ccbc449144d]
class Framework.Graphed2.SimpleGraph--><rect codeLine="16" fill="#FEFECE" filter="url(#f1jeiktjkmzk4t)" height="48" id="Framework.Graphed2.SimpleGraph" style="stroke:#A80036;stroke-width:1.5;" width="109" x="144.5" y="149"/><ellipse cx="159.5" cy="165" fill="#ADD1B2" rx="11" ry="11" style="stroke:#A80036;stroke-width:1.0;"/><path d="M161.8438,160.6719 C160.9063,160.2344 160.3125,160.0938 159.4375,160.0938 C156.8125,160.0938 154.8125,162.1719 154.8125,164.8906 L154.8125,166.0156 C154.8125,168.5938 156.9219,170.4844 159.8125,170.4844 C161.0313,170.4844 162.1875,170.1875 162.9375,169.6406 C163.5156,169.2344 163.8438,168.7813 163.8438,168.3906 C163.8438,167.9375 163.4531,167.5469 162.9844,167.5469 C162.7656,167.5469 162.5625,167.625 162.375,167.8125 C161.9219,168.2969 161.9219,168.2969 161.7344,168.3906 C161.3125,168.6563 160.625,168.7813 159.8594,168.7813 C157.8125,168.7813 156.5156,167.6875 156.5156,165.9844 L156.5156,164.8906 C156.5156,163.1094 157.7656,161.7969 159.5,161.7969 C160.0781,161.7969 160.6875,161.9531 161.1563,162.2031 C161.6406,162.4844 161.8125,162.7031 161.9063,163.1094 C161.9688,163.5156 162,163.6406 162.1406,163.7656 C162.2813,163.9063 162.5156,164.0156 162.7344,164.0156 C163,164.0156 163.2656,163.875 163.4375,163.6563 C163.5469,163.5 163.5781,163.3125 163.5781,162.8906 L163.5781,161.4688 C163.5781,161.0313 163.5625,160.9063 163.4688,160.75 C163.3125,160.4844 163.0313,160.3438 162.7344,160.3438 C162.4375,160.3438 162.2344,160.4375 162.0156,160.75 L161.8438,160.6719 Z " fill="#000000"/><text fill="#000000" font-family="sans-serif" font-size="12" lengthAdjust="spacing" textLength="77" x="173.5" y="169.1543">SimpleGraph</text><line style="stroke:#A80036;stroke-width:1.5;" x1="145.5" x2="252.5" y1="181" y2="181"/><line style="stroke:#A80036;stroke-width:1.5;" x1="145.5" x2="252.5" y1="189" y2="189"/><!--MD5=[9372b4edfd750cdb7881b81ae3c55a45]
class Framework.Graphed2.SimpleGraphEditor--><rect codeLine="17" fill="#FEFECE" filter="url(#f1jeiktjkmzk4t)" height="48" id="Framework.Graphed2.SimpleGraphEditor" style="stroke:#A80036;stroke-width:1.5;" width="144" x="990" y="41"/><ellipse cx="1005" cy="57" fill="#ADD1B2" rx="11" ry="11" style="stroke:#A80036;stroke-width:1.0;"/><path d="M1007.3438,52.6719 C1006.4063,52.2344 1005.8125,52.0938 1004.9375,52.0938 C1002.3125,52.0938 1000.3125,54.1719 1000.3125,56.8906 L1000.3125,58.0156 C1000.3125,60.5938 1002.4219,62.4844 1005.3125,62.4844 C1006.5313,62.4844 1007.6875,62.1875 1008.4375,61.6406 C1009.0156,61.2344 1009.3438,60.7813 1009.3438,60.3906 C1009.3438,59.9375 1008.9531,59.5469 1008.4844,59.5469 C1008.2656,59.5469 1008.0625,59.625 1007.875,59.8125 C1007.4219,60.2969 1007.4219,60.2969 1007.2344,60.3906 C1006.8125,60.6563 1006.125,60.7813 1005.3594,60.7813 C1003.3125,60.7813 1002.0156,59.6875 1002.0156,57.9844 L1002.0156,56.8906 C1002.0156,55.1094 1003.2656,53.7969 1005,53.7969 C1005.5781,53.7969 1006.1875,53.9531 1006.6563,54.2031 C1007.1406,54.4844 1007.3125,54.7031 1007.4063,55.1094 C1007.4688,55.5156 1007.5,55.6406 1007.6406,55.7656 C1007.7813,55.9063 1008.0156,56.0156 1008.2344,56.0156 C1008.5,56.0156 1008.7656,55.875 1008.9375,55.6563 C1009.0469,55.5 1009.0781,55.3125 1009.0781,54.8906 L1009.0781,53.4688 C1009.0781,53.0313 1009.0625,52.9063 1008.9688,52.75 C1008.8125,52.4844 1008.5313,52.3438 1008.2344,52.3438 C1007.9375,52.3438 1007.7344,52.4375 1007.5156,52.75 L1007.3438,52.6719 Z " fill="#000000"/><text fill="#000000" font-family="sans-serif" font-size="12" lengthAdjust="spacing" textLength="112" x="1019" y="61.1543">SimpleGraphEditor</text><line style="stroke:#A80036;stroke-width:1.5;" x1="991" x2="1133" y1="73" y2="73"/><line style="stroke:#A80036;stroke-width:1.5;" x1="991" x2="1133" y1="81" y2="81"/><!--MD5=[30dffc0ac34364c94edb24b8ce50c15e]
class Framework.Graphed2.ToolBar--><rect codeLine="18" fill="#FEFECE" filter="url(#f1jeiktjkmzk4t)" height="48" id="Framework.Graphed2.ToolBar" style="stroke:#A80036;stroke-width:1.5;" width="78" x="32" y="41"/><ellipse cx="47" cy="57" fill="#ADD1B2" rx="11" ry="11" style="stroke:#A80036;stroke-width:1.0;"/><path d="M49.3438,52.6719 C48.4063,52.2344 47.8125,52.0938 46.9375,52.0938 C44.3125,52.0938 42.3125,54.1719 42.3125,56.8906 L42.3125,58.0156 C42.3125,60.5938 44.4219,62.4844 47.3125,62.4844 C48.5313,62.4844 49.6875,62.1875 50.4375,61.6406 C51.0156,61.2344 51.3438,60.7813 51.3438,60.3906 C51.3438,59.9375 50.9531,59.5469 50.4844,59.5469 C50.2656,59.5469 50.0625,59.625 49.875,59.8125 C49.4219,60.2969 49.4219,60.2969 49.2344,60.3906 C48.8125,60.6563 48.125,60.7813 47.3594,60.7813 C45.3125,60.7813 44.0156,59.6875 44.0156,57.9844 L44.0156,56.8906 C44.0156,55.1094 45.2656,53.7969 47,53.7969 C47.5781,53.7969 48.1875,53.9531 48.6563,54.2031 C49.1406,54.4844 49.3125,54.7031 49.4063,55.1094 C49.4688,55.5156 49.5,55.6406 49.6406,55.7656 C49.7813,55.9063 50.0156,56.0156 50.2344,56.0156 C50.5,56.0156 50.7656,55.875 50.9375,55.6563 C51.0469,55.5 51.0781,55.3125 51.0781,54.8906 L51.0781,53.4688 C51.0781,53.0313 51.0625,52.9063 50.9688,52.75 C50.8125,52.4844 50.5313,52.3438 50.2344,52.3438 C49.9375,52.3438 49.7344,52.4375 49.5156,52.75 L49.3438,52.6719 Z " fill="#000000"/><text fill="#000000" font-family="sans-serif" font-size="12" lengthAdjust="spacing" textLength="46" x="61" y="61.1543">ToolBar</text><line style="stroke:#A80036;stroke-width:1.5;" x1="33" x2="109" y1="73" y2="73"/><line style="stroke:#A80036;stroke-width:1.5;" x1="33" x2="109" y1="81" y2="81"/><!--MD5=[4267202b886245a78edd0d90a301b319]
class Framework.Graphed2.Edge--><rect codeLine="20" fill="#FEFECE" filter="url(#f1jeiktjkmzk4t)" height="48" id="Framework.Graphed2.Edge" style="stroke:#A80036;stroke-width:1.5;" width="63" x="955.5" y="257"/><ellipse cx="970.5" cy="273" fill="#B4A7E5" rx="11" ry="11" style="stroke:#A80036;stroke-width:1.0;"/><path d="M971.4531,269.7813 L973.1719,269.7813 C973.5625,269.7813 973.75,269.75 973.875,269.6719 C974.1406,269.5156 974.2813,269.2344 974.2813,268.9375 C974.2813,268.6719 974.1719,268.4063 973.9375,268.2344 C973.7656,268.125 973.625,268.0938 973.1719,268.0938 L968.0313,268.0938 C967.5938,268.0938 967.4688,268.1094 967.3125,268.2031 C967.0625,268.3594 966.9063,268.6563 966.9063,268.9375 C966.9063,269.2188 967.0469,269.4688 967.2656,269.6406 C967.4219,269.75 967.6094,269.7813 968.0313,269.7813 L969.75,269.7813 L969.75,276.2969 L968.0313,276.2969 C967.5938,276.2969 967.4688,276.3125 967.3125,276.4219 C967.0625,276.5781 966.9063,276.8594 966.9063,277.1563 C966.9063,277.4063 967.0469,277.6719 967.2656,277.8281 C967.4219,277.9531 967.625,278 968.0313,278 L973.1719,278 C973.9219,278 974.2813,277.7188 974.2813,277.1563 C974.2813,276.875 974.1719,276.625 973.9375,276.4531 C973.7656,276.3281 973.625,276.2969 973.1719,276.2969 L971.4531,276.2969 L971.4531,269.7813 Z " fill="#000000"/><text fill="#000000" font-family="sans-serif" font-size="12" font-style="italic" lengthAdjust="spacing" textLength="31" x="984.5" y="277.1543">Edge</text><line style="stroke:#A80036;stroke-width:1.5;" x1="956.5" x2="1017.5" y1="289" y2="289"/><line style="stroke:#A80036;stroke-width:1.5;" x1="956.5" x2="1017.5" y1="297" y2="297"/><!--MD5=[3580778a50c87b6dcf713b53bba4450d]
class Framework.Graphed2.LayoutManager--><rect codeLine="21" fill="#FEFECE" filter="url(#f1jeiktjkmzk4t)" height="48" id="Framework.Graphed2.LayoutManager" style="stroke:#A80036;stroke-width:1.5;" width="125" x="875.5" y="149"/><ellipse cx="890.5" cy="165" fill="#B4A7E5" rx="11" ry="11" style="stroke:#A80036;stroke-width:1.0;"/><path d="M891.4531,161.7813 L893.1719,161.7813 C893.5625,161.7813 893.75,161.75 893.875,161.6719 C894.1406,161.5156 894.2813,161.2344 894.2813,160.9375 C894.2813,160.6719 894.1719,160.4063 893.9375,160.2344 C893.7656,160.125 893.625,160.0938 893.1719,160.0938 L888.0313,160.0938 C887.5938,160.0938 887.4688,160.1094 887.3125,160.2031 C887.0625,160.3594 886.9063,160.6563 886.9063,160.9375 C886.9063,161.2188 887.0469,161.4688 887.2656,161.6406 C887.4219,161.75 887.6094,161.7813 888.0313,161.7813 L889.75,161.7813 L889.75,168.2969 L888.0313,168.2969 C887.5938,168.2969 887.4688,168.3125 887.3125,168.4219 C887.0625,168.5781 886.9063,168.8594 886.9063,169.1563 C886.9063,169.4063 887.0469,169.6719 887.2656,169.8281 C887.4219,169.9531 887.625,170 888.0313,170 L893.1719,170 C893.9219,170 894.2813,169.7188 894.2813,169.1563 C894.2813,168.875 894.1719,168.625 893.9375,168.4531 C893.7656,168.3281 893.625,168.2969 893.1719,168.2969 L891.4531,168.2969 L891.4531,161.7813 Z " fill="#000000"/><text fill="#000000" font-family="sans-serif" font-size="12" font-style="italic" lengthAdjust="spacing" textLength="93" x="904.5" y="169.1543">LayoutManager</text><line style="stroke:#A80036;stroke-width:1.5;" x1="876.5" x2="999.5" y1="181" y2="181"/><line style="stroke:#A80036;stroke-width:1.5;" x1="876.5" x2="999.5" y1="189" y2="189"/><!--MD5=[574595ca25faa80843a018fa270a7937]
class Framework.Graphed2.Node--><rect codeLine="22" fill="#FEFECE" filter="url(#f1jeiktjkmzk4t)" height="48" id="Framework.Graphed2.Node" style="stroke:#A80036;stroke-width:1.5;" width="63" x="1053.5" y="257"/><ellipse cx="1068.5" cy="273" fill="#B4A7E5" rx="11" ry="11" style="stroke:#A80036;stroke-width:1.0;"/><path d="M1069.4531,269.7813 L1071.1719,269.7813 C1071.5625,269.7813 1071.75,269.75 1071.875,269.6719 C1072.1406,269.5156 1072.2813,269.2344 1072.2813,268.9375 C1072.2813,268.6719 1072.1719,268.4063 1071.9375,268.2344 C1071.7656,268.125 1071.625,268.0938 1071.1719,268.0938 L1066.0313,268.0938 C1065.5938,268.0938 1065.4688,268.1094 1065.3125,268.2031 C1065.0625,268.3594 1064.9063,268.6563 1064.9063,268.9375 C1064.9063,269.2188 1065.0469,269.4688 1065.2656,269.6406 C1065.4219,269.75 1065.6094,269.7813 1066.0313,269.7813 L1067.75,269.7813 L1067.75,276.2969 L1066.0313,276.2969 C1065.5938,276.2969 1065.4688,276.3125 1065.3125,276.4219 C1065.0625,276.5781 1064.9063,276.8594 1064.9063,277.1563 C1064.9063,277.4063 1065.0469,277.6719 1065.2656,277.8281 C1065.4219,277.9531 1065.625,278 1066.0313,278 L1071.1719,278 C1071.9219,278 1072.2813,277.7188 1072.2813,277.1563 C1072.2813,276.875 1072.1719,276.625 1071.9375,276.4531 C1071.7656,276.3281 1071.625,276.2969 1071.1719,276.2969 L1069.4531,276.2969 L1069.4531,269.7813 Z " fill="#000000"/><text fill="#000000" font-family="sans-serif" font-size="12" font-style="italic" lengthAdjust="spacing" textLength="31" x="1082.5" y="277.1543">Node</text><line style="stroke:#A80036;stroke-width:1.5;" x1="1054.5" x2="1115.5" y1="289" y2="289"/><line style="stroke:#A80036;stroke-width:1.5;" x1="1054.5" x2="1115.5" y1="297" y2="297"/><!--MD5=[cf2dfa0b9f3e9104b8b0bddc18a6a9a0]
class Framework.Graphed2.Serializable--><rect codeLine="23" fill="#FEFECE" filter="url(#f1jeiktjkmzk4t)" height="48" id="Framework.Graphed2.Serializable" style="stroke:#A80036;stroke-width:1.5;" width="99" x="886.5" y="365"/><ellipse cx="901.5" cy="381" fill="#B4A7E5" rx="11" ry="11" style="stroke:#A80036;stroke-width:1.0;"/><path d="M902.4531,377.7813 L904.1719,377.7813 C904.5625,377.7813 904.75,377.75 904.875,377.6719 C905.1406,377.5156 905.2813,377.2344 905.2813,376.9375 C905.2813,376.6719 905.1719,376.4063 904.9375,376.2344 C904.7656,376.125 904.625,376.0938 904.1719,376.0938 L899.0313,376.0938 C898.5938,376.0938 898.4688,376.1094 898.3125,376.2031 C898.0625,376.3594 897.9063,376.6563 897.9063,376.9375 C897.9063,377.2188 898.0469,377.4688 898.2656,377.6406 C898.4219,377.75 898.6094,377.7813 899.0313,377.7813 L900.75,377.7813 L900.75,384.2969 L899.0313,384.2969 C898.5938,384.2969 898.4688,384.3125 898.3125,384.4219 C898.0625,384.5781 897.9063,384.8594 897.9063,385.1563 C897.9063,385.4063 898.0469,385.6719 898.2656,385.8281 C898.4219,385.9531 898.625,386 899.0313,386 L904.1719,386 C904.9219,386 905.2813,385.7188 905.2813,385.1563 C905.2813,384.875 905.1719,384.625 904.9375,384.4531 C904.7656,384.3281 904.625,384.2969 904.1719,384.2969 L902.4531,384.2969 L902.4531,377.7813 Z " fill="#000000"/><text fill="#000000" font-family="sans-serif" font-size="12" font-style="italic" lengthAdjust="spacing" textLength="67" x="915.5" y="385.1543">Serializable</text><line style="stroke:#A80036;stroke-width:1.5;" x1="887.5" x2="984.5" y1="397" y2="397"/><line style="stroke:#A80036;stroke-width:1.5;" x1="887.5" x2="984.5" y1="405" y2="405"/><!--MD5=[b18be92e7780123633f46dfcafa3dde4]
class java.lang.SuppressWarnings--><rect codeLine="3" fill="#FEFECE" filter="url(#f1jeiktjkmzk4t)" height="48" id="java.lang.SuppressWarnings" style="stroke:#A80036;stroke-width:1.5;" width="146" x="1423" y="365"/><ellipse cx="1438" cy="381" fill="#E3664A" rx="11" ry="11" style="stroke:#A80036;stroke-width:1.0;"/><path d="M1438.9219,378.25 C1437.0156,378.3906 1435.7031,379.5781 1435.7031,381.1563 C1435.7031,382.5625 1436.9063,383.7813 1438.3594,383.7813 C1438.5156,383.7813 1438.6563,383.7656 1438.9219,383.7188 L1438.9219,383.7813 L1439.7188,383.7813 C1440.3438,383.7813 1440.6563,383.5625 1440.6563,383.0781 C1440.6563,382.7969 1440.5313,382.6094 1440.2656,382.4844 L1440.2656,377.7031 C1440.2656,375.8125 1438.9531,374.4531 1437.1094,374.4531 C1434.9063,374.4531 1433.2969,376.5781 1433.2969,379.5156 L1433.2969,382.375 C1433.2969,383.625 1433.5781,384.8438 1434.0938,385.7656 C1434.8125,387.0156 1435.7344,387.5781 1437.1406,387.5781 C1438.75,387.5781 1440.1406,386.9219 1440.1406,386.125 C1440.1406,385.7344 1439.8438,385.4219 1439.4688,385.4219 C1439.2656,385.4219 1439.1719,385.4688 1438.9375,385.7188 C1438.6094,386.0469 1437.9375,386.2656 1437.1875,386.2656 C1436.4375,386.2656 1435.9063,386 1435.5,385.4063 C1434.9219,384.6094 1434.6406,383.5625 1434.6406,382.2656 L1434.6406,379.6094 C1434.6406,377.4375 1435.7031,375.7969 1437.1406,375.7969 C1438.1875,375.7969 1438.9219,376.5781 1438.9219,377.7031 L1438.9219,378.25 Z M1438.9219,382.3594 C1438.6875,382.4063 1438.5938,382.4063 1438.4844,382.4063 C1437.6563,382.4063 1437.0469,381.875 1437.0469,381.1719 C1437.0469,380.3438 1437.7969,379.7344 1438.9219,379.625 L1438.9219,382.3594 Z " fill="#000000"/><text fill="#000000" font-family="sans-serif" font-size="12" lengthAdjust="spacing" textLength="114" x="1452" y="385.1543">SuppressWarnings</text><line style="stroke:#A80036;stroke-width:1.5;" x1="1424" x2="1568" y1="397" y2="397"/><line style="stroke:#A80036;stroke-width:1.5;" x1="1424" x2="1568" y1="405" y2="405"/><!--MD5=[e928e726d300d3bec07862808e5ce117]
class java.lang.Cloneable--><rect codeLine="24" fill="#FEFECE" filter="url(#f1jeiktjkmzk4t)" height="48" id="java.lang.Cloneable" style="stroke:#A80036;stroke-width:1.5;" width="90" x="1298" y="365"/><ellipse cx="1313" cy="381" fill="#B4A7E5" rx="11" ry="11" style="stroke:#A80036;stroke-width:1.0;"/><path d="M1313.9531,377.7813 L1315.6719,377.7813 C1316.0625,377.7813 1316.25,377.75 1316.375,377.6719 C1316.6406,377.5156 1316.7813,377.2344 1316.7813,376.9375 C1316.7813,376.6719 1316.6719,376.4063 1316.4375,376.2344 C1316.2656,376.125 1316.125,376.0938 1315.6719,376.0938 L1310.5313,376.0938 C1310.0938,376.0938 1309.9688,376.1094 1309.8125,376.2031 C1309.5625,376.3594 1309.4063,376.6563 1309.4063,376.9375 C1309.4063,377.2188 1309.5469,377.4688 1309.7656,377.6406 C1309.9219,377.75 1310.1094,377.7813 1310.5313,377.7813 L1312.25,377.7813 L1312.25,384.2969 L1310.5313,384.2969 C1310.0938,384.2969 1309.9688,384.3125 1309.8125,384.4219 C1309.5625,384.5781 1309.4063,384.8594 1309.4063,385.1563 C1309.4063,385.4063 1309.5469,385.6719 1309.7656,385.8281 C1309.9219,385.9531 1310.125,386 1310.5313,386 L1315.6719,386 C1316.4219,386 1316.7813,385.7188 1316.7813,385.1563 C1316.7813,384.875 1316.6719,384.625 1316.4375,384.4531 C1316.2656,384.3281 1316.125,384.2969 1315.6719,384.2969 L1313.9531,384.2969 L1313.9531,377.7813 Z " fill="#000000"/><text fill="#000000" font-family="sans-serif" font-size="12" font-style="italic" lengthAdjust="spacing" textLength="58" x="1327" y="385.1543">Cloneable</text><line style="stroke:#A80036;stroke-width:1.5;" x1="1299" x2="1387" y1="397" y2="397"/><line style="stroke:#A80036;stroke-width:1.5;" x1="1299" x2="1387" y1="405" y2="405"/><!--MD5=[6b7a9fc05e2cf62df8c1411c2048df3f]
class java.util.List--><rect codeLine="19" fill="#FEFECE" filter="url(#f1jeiktjkmzk4t)" height="48" id="java.util.List" style="stroke:#A80036;stroke-width:1.5;" width="52" x="1190" y="365"/><ellipse cx="1205" cy="381" fill="#ADD1B2" rx="11" ry="11" style="stroke:#A80036;stroke-width:1.0;"/><path d="M1207.3438,376.6719 C1206.4063,376.2344 1205.8125,376.0938 1204.9375,376.0938 C1202.3125,376.0938 1200.3125,378.1719 1200.3125,380.8906 L1200.3125,382.0156 C1200.3125,384.5938 1202.4219,386.4844 1205.3125,386.4844 C1206.5313,386.4844 1207.6875,386.1875 1208.4375,385.6406 C1209.0156,385.2344 1209.3438,384.7813 1209.3438,384.3906 C1209.3438,383.9375 1208.9531,383.5469 1208.4844,383.5469 C1208.2656,383.5469 1208.0625,383.625 1207.875,383.8125 C1207.4219,384.2969 1207.4219,384.2969 1207.2344,384.3906 C1206.8125,384.6563 1206.125,384.7813 1205.3594,384.7813 C1203.3125,384.7813 1202.0156,383.6875 1202.0156,381.9844 L1202.0156,380.8906 C1202.0156,379.1094 1203.2656,377.7969 1205,377.7969 C1205.5781,377.7969 1206.1875,377.9531 1206.6563,378.2031 C1207.1406,378.4844 1207.3125,378.7031 1207.4063,379.1094 C1207.4688,379.5156 1207.5,379.6406 1207.6406,379.7656 C1207.7813,379.9063 1208.0156,380.0156 1208.2344,380.0156 C1208.5,380.0156 1208.7656,379.875 1208.9375,379.6563 C1209.0469,379.5 1209.0781,379.3125 1209.0781,378.8906 L1209.0781,377.4688 C1209.0781,377.0313 1209.0625,376.9063 1208.9688,376.75 C1208.8125,376.4844 1208.5313,376.3438 1208.2344,376.3438 C1207.9375,376.3438 1207.7344,376.4375 1207.5156,376.75 L1207.3438,376.6719 Z " fill="#000000"/><text fill="#000000" font-family="sans-serif" font-size="12" lengthAdjust="spacing" textLength="20" x="1219" y="385.1543">List</text><line style="stroke:#A80036;stroke-width:1.5;" x1="1191" x2="1241" y1="397" y2="397"/><line style="stroke:#A80036;stroke-width:1.5;" x1="1191" x2="1241" y1="405" y2="405"/><!--MD5=[cfc84c54964d2a7835f2e4fb789e8e31]
link Framework.Graphed2.AbstractEdge to Framework.Graphed2.Edge--><path codeLine="25" d="M403.089,192.896 C408.766,194.427 414.472,195.831 420,197 C640.55,243.624 711.224,196.333 936.082,257.914 " fill="none" id="Framework.Graphed2.AbstractEdge-to-Framework.Graphed2.Edge" style="stroke:#A80036;stroke-width:1.0;"/><polygon fill="none" points="938.071,251.202,955.418,263.37,934.269,264.676,938.071,251.202" style="stroke:#A80036;stroke-width:1.0;"/><!--MD5=[573176aa5d6b24ed06a21988a5170c6f]
link Framework.Graphed2.Graph to java.util.List--><path codeLine="26" d="M920.673,299.243 C926.352,301.508 932.259,303.545 938,305 C1029.63,328.223 1064.19,282.363 1150,322 C1168.56,330.571 1184.85,346.7199 1196.61,360.8976 " fill="none" id="Framework.Graphed2.Graph-to-java.util.List" style="stroke:#A80036;stroke-width:1.0;stroke-dasharray:7.0,7.0;"/><polygon fill="#A80036" points="1199.8,364.8362,1197.2411,355.3256,1196.6519,360.9516,1191.0259,360.3625,1199.8,364.8362" style="stroke:#A80036;stroke-width:1.0;"/><!--MD5=[9e60b3d91d7fec8fb35f045113087740]
link Framework.Graphed2.Graph to Framework.Graphed2.Serializable--><path codeLine="27" d="M896.849,305 C902.576,317.14 909.779,332.411 916.441,346.5339 " fill="none" id="Framework.Graphed2.Graph-to-Framework.Graphed2.Serializable" style="stroke:#A80036;stroke-width:1.0;"/><polygon fill="none" points="922.798,343.603,924.999,364.6784,910.136,349.5761,922.798,343.603" style="stroke:#A80036;stroke-width:1.0;"/><!--MD5=[5fe25508062e7b33c97a953282d0c4a4]
link Framework.Graphed2.CircleNode to Framework.Graphed2.Node--><path codeLine="28" d="M1085,197 C1085,208.588 1085,223.029 1085,236.601 " fill="none" id="Framework.Graphed2.CircleNode-to-Framework.Graphed2.Node" style="stroke:#A80036;stroke-width:1.0;"/><polygon fill="none" points="1092,236.678,1085,256.678,1078,236.678,1092,236.678" style="stroke:#A80036;stroke-width:1.0;"/><!--MD5=[4a4cb6a8ade85696cba50a118e35b9df]
link Framework.Graphed2.FormLayout to Framework.Graphed2.LayoutManager--><path codeLine="29" d="M911.377,89 C915.183,100.864 919.948,115.719 924.39,129.569 " fill="none" id="Framework.Graphed2.FormLayout-to-Framework.Graphed2.LayoutManager" style="stroke:#A80036;stroke-width:1.0;"/><polygon fill="none" points="931.076,127.496,930.519,148.678,917.745,131.772,931.076,127.496" style="stroke:#A80036;stroke-width:1.0;"/><!--MD5=[2087c79c641bc3f33ea17e27063f8cc5]
link Framework.Graphed2.GraphFrame to Framework.Graphed2.JFrame--><path codeLine="30" d="M773.245,89 C777.499,100.864 782.824,115.719 787.789,129.569 " fill="none" id="Framework.Graphed2.GraphFrame-to-Framework.Graphed2.JFrame" style="stroke:#A80036;stroke-width:1.0;"/><polygon fill="none" points="794.48,127.489,794.639,148.678,781.301,132.214,794.48,127.489" style="stroke:#A80036;stroke-width:1.0;"/><!--MD5=[fdf243455bebbb3e0053d688867015ba]
link Framework.Graphed2.GraphPanel to Framework.Graphed2.JPanel--><path codeLine="31" d="M169.179,89 C154.001,102.52 134.465,119.922 117.204,135.298 " fill="none" id="Framework.Graphed2.GraphPanel-to-Framework.Graphed2.JPanel" style="stroke:#A80036;stroke-width:1.0;"/><polygon fill="none" points="121.772,140.603,102.182,148.678,112.46,130.149,121.772,140.603" style="stroke:#A80036;stroke-width:1.0;"/><!--MD5=[ee08367d11880b3547d60aeb5075991e]
link Framework.Graphed2.LineEdge to Framework.Graphed2.AbstractEdge--><path codeLine="32" d="M327.991,89 C330.535,100.726 333.713,115.374 336.688,129.086 " fill="none" id="Framework.Graphed2.LineEdge-to-Framework.Graphed2.AbstractEdge" style="stroke:#A80036;stroke-width:1.0;"/><polygon fill="none" points="343.539,127.649,340.94,148.678,329.858,130.618,343.539,127.649" style="stroke:#A80036;stroke-width:1.0;"/><!--MD5=[8588ef6725c90d71a5607ef3a9ebcba6]
link Framework.Graphed2.LineStyle to Framework.Graphed2.Serializable--><path codeLine="33" d="M808.369,305 C830.294,319.259 858.861,337.836 883.408,353.7991 " fill="none" id="Framework.Graphed2.LineStyle-to-Framework.Graphed2.Serializable" style="stroke:#A80036;stroke-width:1.0;"/><polygon fill="none" points="887.469,348.09,900.419,364.8617,879.837,359.8265,887.469,348.09" style="stroke:#A80036;stroke-width:1.0;"/><!--MD5=[abf69e6a6faedf84fa37817c76b2fc50]
link Framework.Graphed2.LineStyleEditor to Framework.Graphed2.PropertyEditorSupport--><path codeLine="34" d="M595.386,89 C583.765,101.968 568.941,118.508 555.59,133.405 " fill="none" id="Framework.Graphed2.LineStyleEditor-to-Framework.Graphed2.PropertyEditorSupport" style="stroke:#A80036;stroke-width:1.0;"/><polygon fill="none" points="560.463,138.456,541.901,148.678,550.037,129.113,560.463,138.456" style="stroke:#A80036;stroke-width:1.0;"/><!--MD5=[bbb568d3f1a5fd71a09bdd97872c807e]
link Framework.Graphed2.PointNode to Framework.Graphed2.Node--><path codeLine="35" d="M731.197,191.727 C736.819,193.628 742.513,195.436 748,197 C867.844,231.166 908.2,217.107 1034.07,257.448 " fill="none" id="Framework.Graphed2.PointNode-to-Framework.Graphed2.Node" style="stroke:#A80036;stroke-width:1.0;"/><polygon fill="none" points="1036.5,250.877,1053.28,263.807,1032.1,264.168,1036.5,250.877" style="stroke:#A80036;stroke-width:1.0;"/><!--MD5=[32fb000a0d6b91ad8ebbce192b6ac5ac]
link Framework.Graphed2.PropertySheet to java.lang.SuppressWarnings--><path codeLine="36" d="M520.408,84.98 C526.314,86.494 532.25,87.871 538,89 C807.054,141.816 894.216,55.582 1152,149 C1284.53,197.029 1413.6,309.359 1468.45,361.071 " fill="none" id="Framework.Graphed2.PropertySheet-to-java.lang.SuppressWarnings" style="stroke:#A80036;stroke-width:1.0;stroke-dasharray:7.0,7.0;"/><polygon fill="#A80036" points="1472.27,364.6878,1468.4724,355.6005,1468.6346,361.2551,1462.9801,361.4172,1472.27,364.6878" style="stroke:#A80036;stroke-width:1.0;"/><!--MD5=[ba2ab1bf5e550c570dfebe6d6acf5d3f]
link Framework.Graphed2.PropertySheet to Framework.Graphed2.JPanel--><path codeLine="37" d="M401.829,84.07 C395.82,85.786 389.798,87.459 384,89 C276.51,117.573 241.682,112.08 128.846,149.242 " fill="none" id="Framework.Graphed2.PropertySheet-to-Framework.Graphed2.JPanel" style="stroke:#A80036;stroke-width:1.0;"/><polygon fill="none" points="130.836,155.959,109.648,155.721,126.36,142.694,130.836,155.959" style="stroke:#A80036;stroke-width:1.0;"/><!--MD5=[bbe3653a95c43c4144b1fc4afff71b93]
link Framework.Graphed2.SimpleGraph to Framework.Graphed2.Graph--><path codeLine="38" d="M253.727,192.745 C259.516,194.348 265.35,195.809 271,197 C510.553,247.503 586.276,195.701 831.918,258.126 " fill="none" id="Framework.Graphed2.SimpleGraph-to-Framework.Graphed2.Graph" style="stroke:#A80036;stroke-width:1.0;"/><polygon fill="none" points="833.891,251.407,851.468,263.241,830.348,264.951,833.891,251.407" style="stroke:#A80036;stroke-width:1.0;"/><!--MD5=[5990fb16955b42f5fc7661ce86065b7f]
link Framework.Graphed2.SimpleGraphEditor to java.lang.SuppressWarnings--><path codeLine="39" d="M1134.1,74.851 C1192.14,84.921 1273.42,105.944 1332,149 C1409.19,205.731 1462.26,310.243 1484.41,360.108 " fill="none" id="Framework.Graphed2.SimpleGraphEditor-to-java.lang.SuppressWarnings" style="stroke:#A80036;stroke-width:1.0;stroke-dasharray:7.0,7.0;"/><polygon fill="#A80036" points="1486.45,364.7596,1486.4833,354.9108,1484.4347,360.1837,1479.1618,358.1352,1486.45,364.7596" style="stroke:#A80036;stroke-width:1.0;"/><!--MD5=[b7794dd0580b6d428a344f7bb257a6f9]
link Framework.Graphed2.ToolBar to Framework.Graphed2.JPanel--><path codeLine="40" d="M72.0849,89 C72.6315,100.588 73.3127,115.029 73.9529,128.601 " fill="none" id="Framework.Graphed2.ToolBar-to-Framework.Graphed2.JPanel" style="stroke:#A80036;stroke-width:1.0;"/><polygon fill="none" points="80.9497,128.371,74.8999,148.678,66.9653,129.03,80.9497,128.371" style="stroke:#A80036;stroke-width:1.0;"/><!--MD5=[dbb167a9bfa7216f5af1106bdb3ee1ae]
link Framework.Graphed2.Edge to Framework.Graphed2.Serializable--><path codeLine="41" d="M975.934,305 C970.093,317.14 962.746,332.411 955.951,346.5339 " fill="none" id="Framework.Graphed2.Edge-to-Framework.Graphed2.Serializable" style="stroke:#A80036;stroke-width:1.0;"/><polygon fill="none" points="962.2,349.6909,947.221,364.6784,949.584,343.621,962.2,349.6909" style="stroke:#A80036;stroke-width:1.0;"/><!--MD5=[567b0c588218611039b303fde6a806f5]
link Framework.Graphed2.Edge to java.lang.Cloneable--><path codeLine="42" d="M1018.53,298.82 C1024.21,301.264 1030.18,303.468 1036,305 C1131.69,330.214 1165.68,286.37 1258,322 C1275.1,328.6 1291.58,339.835 1305.4,351.1824 " fill="none" id="Framework.Graphed2.Edge-to-java.lang.Cloneable" style="stroke:#A80036;stroke-width:1.0;"/><polygon fill="none" points="1310.44,346.294,1320.8,364.7764,1301.17,356.7908,1310.44,346.294" style="stroke:#A80036;stroke-width:1.0;"/><!--MD5=[fa1fa0662b1cd38ce58560557aa5ebb2]
link Framework.Graphed2.Node to Framework.Graphed2.Serializable--><path codeLine="43" d="M1053.4,304.48 C1033.52,318.621 1007.47,337.159 984.95,353.1767 " fill="none" id="Framework.Graphed2.Node-to-Framework.Graphed2.Serializable" style="stroke:#A80036;stroke-width:1.0;"/><polygon fill="none" points="988.938,358.9299,968.584,364.8197,980.823,347.5221,988.938,358.9299" style="stroke:#A80036;stroke-width:1.0;"/><!--MD5=[abf55376e3f354224dbe6ab08a026c85]
link Framework.Graphed2.Node to java.lang.Cloneable--><path codeLine="44" d="M1116.65,285.169 C1152.41,289.672 1211.64,299.965 1258,322 C1274.19,329.698 1290.19,340.901 1303.87,351.8982 " fill="none" id="Framework.Graphed2.Node-to-java.lang.Cloneable" style="stroke:#A80036;stroke-width:1.0;"/><polygon fill="none" points="1308.54,346.6796,1319.25,364.9614,1299.47,357.3508,1308.54,346.6796" style="stroke:#A80036;stroke-width:1.0;"/><!--MD5=[08ef77456300b448e0d5a6d1de7c02f0]
@startuml
abstract class Framework.Graphed2.AbstractEdge
abstract class Framework.Graphed2.Graph
annotation java.lang.SuppressWarnings
class Framework.Graphed2.CircleNode
class Framework.Graphed2.FormLayout
class Framework.Graphed2.GraphFrame
class Framework.Graphed2.GraphPanel
class Framework.Graphed2.JFrame
class Framework.Graphed2.JPanel
class Framework.Graphed2.LineEdge
class Framework.Graphed2.LineStyle
class Framework.Graphed2.LineStyleEditor
class Framework.Graphed2.PointNode
class Framework.Graphed2.PropertyEditorSupport
class Framework.Graphed2.PropertySheet
class Framework.Graphed2.SimpleGraph
class Framework.Graphed2.SimpleGraphEditor
class Framework.Graphed2.ToolBar
class java.util.List
interface Framework.Graphed2.Edge
interface Framework.Graphed2.LayoutManager
interface Framework.Graphed2.Node
interface Framework.Graphed2.Serializable
interface java.lang.Cloneable
Framework.Graphed2.AbstractEdge - -|> Framework.Graphed2.Edge
Framework.Graphed2.Graph ..> java.util.List
Framework.Graphed2.Graph - -|> Framework.Graphed2.Serializable
Framework.Graphed2.CircleNode - -|> Framework.Graphed2.Node
Framework.Graphed2.FormLayout - -|> Framework.Graphed2.LayoutManager
Framework.Graphed2.GraphFrame - -|> Framework.Graphed2.JFrame
Framework.Graphed2.GraphPanel - -|> Framework.Graphed2.JPanel
Framework.Graphed2.LineEdge - -|> Framework.Graphed2.AbstractEdge
Framework.Graphed2.LineStyle - -|> Framework.Graphed2.Serializable
Framework.Graphed2.LineStyleEditor - -|> Framework.Graphed2.PropertyEditorSupport
Framework.Graphed2.PointNode - -|> Framework.Graphed2.Node
Framework.Graphed2.PropertySheet ..> java.lang.SuppressWarnings
Framework.Graphed2.PropertySheet - -|> Framework.Graphed2.JPanel
Framework.Graphed2.SimpleGraph - -|> Framework.Graphed2.Graph
Framework.Graphed2.SimpleGraphEditor ..> java.lang.SuppressWarnings
Framework.Graphed2.ToolBar - -|> Framework.Graphed2.JPanel
Framework.Graphed2.Edge - -|> Framework.Graphed2.Serializable
Framework.Graphed2.Edge - -|> java.lang.Cloneable
Framework.Graphed2.Node - -|> Framework.Graphed2.Serializable
Framework.Graphed2.Node - -|> java.lang.Cloneable
@enduml

PlantUML version 1.2021.01beta3(Unknown compile time)
(GPL source distribution)
Java Runtime: Java(TM) SE Runtime Environment
JVM: Java HotSpot(TM) 64-Bit Server VM
Default Encoding: UTF-8
Language: en
Country: US
--></g></svg>