<?xml version="1.0" encoding="UTF-8" standalone="no"?><svg xmlns="http://www.w3.org/2000/svg" xmlns:xlink="http://www.w3.org/1999/xlink" contentScriptType="application/ecmascript" contentStyleType="text/css" height="259px" preserveAspectRatio="none" style="width:376px;height:259px;" version="1.1" viewBox="0 0 376 259" width="376px" zoomAndPan="magnify"><defs><filter height="300%" id="f21p4k0ipjzkg" width="300%" x="-1" y="-1"><feGaussianBlur result="blurOut" stdDeviation="2.0"/><feColorMatrix in="blurOut" result="blurOut2" type="matrix" values="0 0 0 0 0 0 0 0 0 0 0 0 0 0 0 0 0 0 .4 0"/><feOffset dx="4.0" dy="4.0" in="blurOut2" result="blurOut3"/><feBlend in="SourceGraphic" in2="blurOut3" mode="normal"/></filter></defs><g><!--MD5=[e692b9129d14a6056b5081d9360eda51]
class Boisson--><rect codeLine="1" fill="#FEFECE" filter="url(#f21p4k0ipjzkg)" height="105.1563" id="Boisson" style="stroke:#A80036;stroke-width:1.5;" width="163" x="101" y="7"/><ellipse cx="147.75" cy="25.9688" fill="#ADD1B2" rx="11" ry="11" style="stroke:#A80036;stroke-width:1.0;"/><path d="M150.0938,21.6406 C149.1563,21.2031 148.5625,21.0625 147.6875,21.0625 C145.0625,21.0625 143.0625,23.1406 143.0625,25.8594 L143.0625,26.9844 C143.0625,29.5625 145.1719,31.4531 148.0625,31.4531 C149.2813,31.4531 150.4375,31.1563 151.1875,30.6094 C151.7656,30.2031 152.0938,29.75 152.0938,29.3594 C152.0938,28.9063 151.7031,28.5156 151.2344,28.5156 C151.0156,28.5156 150.8125,28.5938 150.625,28.7813 C150.1719,29.2656 150.1719,29.2656 149.9844,29.3594 C149.5625,29.625 148.875,29.75 148.1094,29.75 C146.0625,29.75 144.7656,28.6563 144.7656,26.9531 L144.7656,25.8594 C144.7656,24.0781 146.0156,22.7656 147.75,22.7656 C148.3281,22.7656 148.9375,22.9219 149.4063,23.1719 C149.8906,23.4531 150.0625,23.6719 150.1563,24.0781 C150.2188,24.4844 150.25,24.6094 150.3906,24.7344 C150.5313,24.875 150.7656,24.9844 150.9844,24.9844 C151.25,24.9844 151.5156,24.8438 151.6875,24.625 C151.7969,24.4688 151.8281,24.2813 151.8281,23.8594 L151.8281,22.4375 C151.8281,22 151.8125,21.875 151.7188,21.7188 C151.5625,21.4531 151.2813,21.3125 150.9844,21.3125 C150.6875,21.3125 150.4844,21.4063 150.2656,21.7188 L150.0938,21.6406 Z " fill="#000000"/><text fill="#000000" font-family="sans-serif" font-size="12" font-style="italic" lengthAdjust="spacing" textLength="65" x="166.25" y="23.1387">«Abstract»</text><text fill="#000000" font-family="sans-serif" font-size="12" lengthAdjust="spacing" textLength="48" x="174.75" y="37.1074">Boisson</text><line style="stroke:#A80036;stroke-width:1.5;" x1="102" x2="263" y1="44.9375" y2="44.9375"/><line style="stroke:#A80036;stroke-width:1.5;" x1="102" x2="263" y1="52.9375" y2="52.9375"/><text fill="#000000" font-family="sans-serif" font-size="11" lengthAdjust="spacing" textLength="104" x="107" y="67.1479">bouillir_eau(): void</text><text fill="#000000" font-family="sans-serif" font-size="11" lengthAdjust="spacing" textLength="84" x="107" y="79.9526">infusser(): void</text><text fill="#000000" font-family="sans-serif" font-size="11" lengthAdjust="spacing" textLength="113" x="107" y="92.7573">verser_tasse(): void</text><text fill="#000000" font-family="sans-serif" font-size="11" lengthAdjust="spacing" textLength="151" x="107" y="105.562">ajouter_condiments(): void</text><!--MD5=[f22c2414bf43270c849f162ec5488afc]
class The--><rect codeLine="7" fill="#FEFECE" filter="url(#f21p4k0ipjzkg)" height="73.6094" id="The" style="stroke:#A80036;stroke-width:1.5;" width="157" x="7" y="172"/><ellipse cx="70.25" cy="188" fill="#ADD1B2" rx="11" ry="11" style="stroke:#A80036;stroke-width:1.0;"/><path d="M72.5938,183.6719 C71.6563,183.2344 71.0625,183.0938 70.1875,183.0938 C67.5625,183.0938 65.5625,185.1719 65.5625,187.8906 L65.5625,189.0156 C65.5625,191.5938 67.6719,193.4844 70.5625,193.4844 C71.7813,193.4844 72.9375,193.1875 73.6875,192.6406 C74.2656,192.2344 74.5938,191.7813 74.5938,191.3906 C74.5938,190.9375 74.2031,190.5469 73.7344,190.5469 C73.5156,190.5469 73.3125,190.625 73.125,190.8125 C72.6719,191.2969 72.6719,191.2969 72.4844,191.3906 C72.0625,191.6563 71.375,191.7813 70.6094,191.7813 C68.5625,191.7813 67.2656,190.6875 67.2656,188.9844 L67.2656,187.8906 C67.2656,186.1094 68.5156,184.7969 70.25,184.7969 C70.8281,184.7969 71.4375,184.9531 71.9063,185.2031 C72.3906,185.4844 72.5625,185.7031 72.6563,186.1094 C72.7188,186.5156 72.75,186.6406 72.8906,186.7656 C73.0313,186.9063 73.2656,187.0156 73.4844,187.0156 C73.75,187.0156 74.0156,186.875 74.1875,186.6563 C74.2969,186.5 74.3281,186.3125 74.3281,185.8906 L74.3281,184.4688 C74.3281,184.0313 74.3125,183.9063 74.2188,183.75 C74.0625,183.4844 73.7813,183.3438 73.4844,183.3438 C73.1875,183.3438 72.9844,183.4375 72.7656,183.75 L72.5938,183.6719 Z " fill="#000000"/><text fill="#000000" font-family="sans-serif" font-size="12" lengthAdjust="spacing" textLength="22" x="90.75" y="192.1543">The</text><line style="stroke:#A80036;stroke-width:1.5;" x1="8" x2="163" y1="204" y2="204"/><line style="stroke:#A80036;stroke-width:1.5;" x1="8" x2="163" y1="212" y2="212"/><text fill="#000000" font-family="sans-serif" font-size="11" lengthAdjust="spacing" textLength="78" x="13" y="226.2104">infuser(): void</text><text fill="#000000" font-family="sans-serif" font-size="11" lengthAdjust="spacing" textLength="145" x="13" y="239.0151">ajouter_condiment(): void</text><!--MD5=[ec66d974db57302924a9b211237ab387]
class Cafe--><rect codeLine="11" fill="#FEFECE" filter="url(#f21p4k0ipjzkg)" height="73.6094" id="Cafe" style="stroke:#A80036;stroke-width:1.5;" width="163" x="199" y="172"/><ellipse cx="262.75" cy="188" fill="#ADD1B2" rx="11" ry="11" style="stroke:#A80036;stroke-width:1.0;"/><path d="M265.0938,183.6719 C264.1563,183.2344 263.5625,183.0938 262.6875,183.0938 C260.0625,183.0938 258.0625,185.1719 258.0625,187.8906 L258.0625,189.0156 C258.0625,191.5938 260.1719,193.4844 263.0625,193.4844 C264.2813,193.4844 265.4375,193.1875 266.1875,192.6406 C266.7656,192.2344 267.0938,191.7813 267.0938,191.3906 C267.0938,190.9375 266.7031,190.5469 266.2344,190.5469 C266.0156,190.5469 265.8125,190.625 265.625,190.8125 C265.1719,191.2969 265.1719,191.2969 264.9844,191.3906 C264.5625,191.6563 263.875,191.7813 263.1094,191.7813 C261.0625,191.7813 259.7656,190.6875 259.7656,188.9844 L259.7656,187.8906 C259.7656,186.1094 261.0156,184.7969 262.75,184.7969 C263.3281,184.7969 263.9375,184.9531 264.4063,185.2031 C264.8906,185.4844 265.0625,185.7031 265.1563,186.1094 C265.2188,186.5156 265.25,186.6406 265.3906,186.7656 C265.5313,186.9063 265.7656,187.0156 265.9844,187.0156 C266.25,187.0156 266.5156,186.875 266.6875,186.6563 C266.7969,186.5 266.8281,186.3125 266.8281,185.8906 L266.8281,184.4688 C266.8281,184.0313 266.8125,183.9063 266.7188,183.75 C266.5625,183.4844 266.2813,183.3438 265.9844,183.3438 C265.6875,183.3438 265.4844,183.4375 265.2656,183.75 L265.0938,183.6719 Z " fill="#000000"/><text fill="#000000" font-family="sans-serif" font-size="12" lengthAdjust="spacing" textLength="27" x="283.25" y="192.1543">Cafe</text><line style="stroke:#A80036;stroke-width:1.5;" x1="200" x2="361" y1="204" y2="204"/><line style="stroke:#A80036;stroke-width:1.5;" x1="200" x2="361" y1="212" y2="212"/><text fill="#000000" font-family="sans-serif" font-size="11" lengthAdjust="spacing" textLength="78" x="205" y="226.2104">infuser(): void</text><text fill="#000000" font-family="sans-serif" font-size="11" lengthAdjust="spacing" textLength="151" x="205" y="239.0151">ajouter_condiments(): void</text><!--MD5=[edae16389899a6f9e2f95ad82c325152]
reverse link Boisson to The--><path d="M137.332,129.183 C127.605,143.975 117.698,159.0396 109.186,171.9823 " fill="none" id="Boisson-backto-The" style="stroke:#A80036;stroke-width:1.0;"/><polygon fill="none" points="131.736,124.953,148.574,112.088,143.433,132.645,131.736,124.953" style="stroke:#A80036;stroke-width:1.0;"/><!--MD5=[a03a2be445aa2dc17dad2b19a98734cf]
reverse link Boisson to Cafe--><path d="M228.134,129.183 C237.961,143.975 247.97,159.0396 256.57,171.9823 " fill="none" id="Boisson-backto-Cafe" style="stroke:#A80036;stroke-width:1.0;"/><polygon fill="none" points="222.013,132.621,216.776,112.088,233.674,124.873,222.013,132.621" style="stroke:#A80036;stroke-width:1.0;"/><!--MD5=[30b72c79c2555a34eac3e2ef6166976a]
@startuml
class Boisson <<Abstract>>{
    bouillir_eau(): void 
    infusser(): void 
    verser_tasse(): void 
    ajouter_condiments(): void 
}
class The extends Boisson{
    infuser(): void 
    ajouter_condiment(): void 
}
class Cafe extends Boisson{
    infuser(): void 
    ajouter_condiments(): void 
}
@enduml

PlantUML version 1.2021.01beta3(Unknown compile time)
(GPL source distribution)
Java Runtime: Java(TM) SE Runtime Environment
JVM: Java HotSpot(TM) 64-Bit Server VM
Default Encoding: UTF-8
Language: en
Country: US
--></g></svg>