<?xml version="1.0" encoding="UTF-8" standalone="no"?><svg xmlns="http://www.w3.org/2000/svg" xmlns:xlink="http://www.w3.org/1999/xlink" contentScriptType="application/ecmascript" contentStyleType="text/css" height="468px" preserveAspectRatio="none" style="width:550px;height:468px;" version="1.1" viewBox="0 0 550 468" width="550px" zoomAndPan="magnify"><defs/><g><rect fill="#FFFFFF" height="288.1953" style="stroke:#A80036;stroke-width:1.0;" width="10" x="202.5" y="154.8281"/><rect fill="#FFFFFF" height="29.1328" style="stroke:#A80036;stroke-width:1.0;" width="10" x="207.5" y="284.3594"/><rect fill="#FFFFFF" height="29.1328" style="stroke:#A80036;stroke-width:1.0;" width="10" x="207.5" y="413.8906"/><rect fill="#FFFFFF" height="259.0625" style="stroke:#A80036;stroke-width:1.0;" width="10" x="373.5" y="183.9609"/><rect fill="#FFFFFF" height="34.1328" style="stroke:#A80036;stroke-width:1.0;" width="10" x="378.5" y="221.0938"/><rect fill="#FFFFFF" height="34.1328" style="stroke:#A80036;stroke-width:1.0;" width="10" x="378.5" y="350.625"/><line style="stroke:#A80036;stroke-width:1.0;stroke-dasharray:5.0,5.0;" x1="116.5" x2="116.5" y1="36.2969" y2="461.0234"/><line style="stroke:#A80036;stroke-width:1.0;stroke-dasharray:5.0,5.0;" x1="207.5" x2="207.5" y1="36.2969" y2="461.0234"/><line style="stroke:#A80036;stroke-width:1.0;stroke-dasharray:5.0,5.0;" x1="378.5" x2="378.5" y1="36.2969" y2="461.0234"/><line style="stroke:#A80036;stroke-width:1.0;stroke-dasharray:5.0,5.0;" x1="495" x2="495" y1="36.2969" y2="461.0234"/><rect fill="#FEFECE" height="30.2969" style="stroke:#A80036;stroke-width:1.5;" width="115" x="59.5" y="5"/><text fill="#000000" font-family="sans-serif" font-size="14" lengthAdjust="spacing" textLength="101" x="66.5" y="24.9951">:StarbuzzTest</text><rect fill="#FEFECE" height="30.2969" style="stroke:#A80036;stroke-width:1.5;" width="46" x="184.5" y="5"/><text fill="#000000" font-family="sans-serif" font-size="14" lengthAdjust="spacing" textLength="32" x="191.5" y="24.9951">:The</text><rect fill="#FEFECE" height="30.2969" style="stroke:#A80036;stroke-width:1.5;" width="74" x="341.5" y="5"/><text fill="#000000" font-family="sans-serif" font-size="14" lengthAdjust="spacing" textLength="60" x="348.5" y="24.9951">:Boisson</text><rect fill="#FEFECE" height="30.2969" style="stroke:#A80036;stroke-width:1.5;" width="97" x="447" y="5"/><text fill="#000000" font-family="sans-serif" font-size="14" lengthAdjust="spacing" textLength="83" x="454" y="24.9951">System.out</text><rect fill="#FFFFFF" height="288.1953" style="stroke:#A80036;stroke-width:1.0;" width="10" x="202.5" y="154.8281"/><rect fill="#FFFFFF" height="29.1328" style="stroke:#A80036;stroke-width:1.0;" width="10" x="207.5" y="284.3594"/><rect fill="#FFFFFF" height="29.1328" style="stroke:#A80036;stroke-width:1.0;" width="10" x="207.5" y="413.8906"/><rect fill="#FFFFFF" height="259.0625" style="stroke:#A80036;stroke-width:1.0;" width="10" x="373.5" y="183.9609"/><rect fill="#FFFFFF" height="34.1328" style="stroke:#A80036;stroke-width:1.0;" width="10" x="378.5" y="221.0938"/><rect fill="#FFFFFF" height="34.1328" style="stroke:#A80036;stroke-width:1.0;" width="10" x="378.5" y="350.625"/><polygon fill="#A80036" points="105,63.4297,115,67.4297,105,71.4297" style="stroke:#A80036;stroke-width:1.0;"/><line style="stroke:#A80036;stroke-width:1.0;" x1="0" x2="111" y1="67.4297" y2="67.4297"/><text fill="#000000" font-family="sans-serif" font-size="13" lengthAdjust="spacing" textLength="93" x="7" y="62.3638">preparer_the()</text><polygon fill="#A80036" points="195.5,92.5625,205.5,96.5625,195.5,100.5625" style="stroke:#A80036;stroke-width:1.0;"/><line style="stroke:#A80036;stroke-width:1.0;stroke-dasharray:2.0,2.0;" x1="117" x2="201.5" y1="96.5625" y2="96.5625"/><text fill="#000000" font-family="sans-serif" font-size="13" lengthAdjust="spacing" textLength="51" x="124" y="91.4966">create()</text><polygon fill="#A80036" points="366.5,121.6953,376.5,125.6953,366.5,129.6953" style="stroke:#A80036;stroke-width:1.0;"/><line style="stroke:#A80036;stroke-width:1.0;stroke-dasharray:2.0,2.0;" x1="207.5" x2="372.5" y1="125.6953" y2="125.6953"/><text fill="#000000" font-family="sans-serif" font-size="13" lengthAdjust="spacing" textLength="51" x="214.5" y="120.6294">create()</text><polygon fill="#A80036" points="190.5,150.8281,200.5,154.8281,190.5,158.8281" style="stroke:#A80036;stroke-width:1.0;"/><line style="stroke:#A80036;stroke-width:1.0;" x1="117" x2="196.5" y1="154.8281" y2="154.8281"/><text fill="#000000" font-family="sans-serif" font-size="13" lengthAdjust="spacing" textLength="60" x="124" y="149.7622">prepare()</text><polygon fill="#A80036" points="361.5,179.9609,371.5,183.9609,361.5,187.9609" style="stroke:#A80036;stroke-width:1.0;"/><line style="stroke:#A80036;stroke-width:1.0;" x1="212.5" x2="367.5" y1="183.9609" y2="183.9609"/><text fill="#000000" font-family="sans-serif" font-size="13" lengthAdjust="spacing" textLength="60" x="219.5" y="178.895">prepare()</text><line style="stroke:#A80036;stroke-width:1.0;" x1="383.5" x2="430.5" y1="208.0938" y2="208.0938"/><line style="stroke:#A80036;stroke-width:1.0;" x1="430.5" x2="430.5" y1="208.0938" y2="221.0938"/><line style="stroke:#A80036;stroke-width:1.0;" x1="389.5" x2="430.5" y1="221.0938" y2="221.0938"/><polygon fill="#A80036" points="399.5,217.0938,389.5,221.0938,399.5,225.0938" style="stroke:#A80036;stroke-width:1.0;"/><text fill="#000000" font-family="sans-serif" font-size="13" lengthAdjust="spacing" textLength="82" x="395.5" y="203.0278">bouillir_eau()</text><polygon fill="#A80036" points="483.5,251.2266,493.5,255.2266,483.5,259.2266" style="stroke:#A80036;stroke-width:1.0;"/><line style="stroke:#A80036;stroke-width:1.0;" x1="383.5" x2="489.5" y1="255.2266" y2="255.2266"/><text fill="#000000" font-family="sans-serif" font-size="13" lengthAdjust="spacing" textLength="62" x="390.5" y="250.1606">println(...)</text><polygon fill="#A80036" points="228.5,280.3594,218.5,284.3594,228.5,288.3594" style="stroke:#A80036;stroke-width:1.0;"/><line style="stroke:#A80036;stroke-width:1.0;" x1="222.5" x2="372.5" y1="284.3594" y2="284.3594"/><text fill="#000000" font-family="sans-serif" font-size="13" lengthAdjust="spacing" textLength="54" x="234.5" y="279.2935">infuser()</text><polygon fill="#A80036" points="483.5,309.4922,493.5,313.4922,483.5,317.4922" style="stroke:#A80036;stroke-width:1.0;"/><line style="stroke:#A80036;stroke-width:1.0;" x1="212.5" x2="489.5" y1="313.4922" y2="313.4922"/><text fill="#000000" font-family="sans-serif" font-size="13" lengthAdjust="spacing" textLength="62" x="219.5" y="308.4263">println(...)</text><line style="stroke:#A80036;stroke-width:1.0;" x1="383.5" x2="430.5" y1="337.625" y2="337.625"/><line style="stroke:#A80036;stroke-width:1.0;" x1="430.5" x2="430.5" y1="337.625" y2="350.625"/><line style="stroke:#A80036;stroke-width:1.0;" x1="389.5" x2="430.5" y1="350.625" y2="350.625"/><polygon fill="#A80036" points="399.5,346.625,389.5,350.625,399.5,354.625" style="stroke:#A80036;stroke-width:1.0;"/><text fill="#000000" font-family="sans-serif" font-size="13" lengthAdjust="spacing" textLength="93" x="395.5" y="332.5591">verser_tasse()</text><polygon fill="#A80036" points="483.5,380.7578,493.5,384.7578,483.5,388.7578" style="stroke:#A80036;stroke-width:1.0;"/><line style="stroke:#A80036;stroke-width:1.0;" x1="383.5" x2="489.5" y1="384.7578" y2="384.7578"/><text fill="#000000" font-family="sans-serif" font-size="13" lengthAdjust="spacing" textLength="62" x="390.5" y="379.6919">println(...)</text><polygon fill="#A80036" points="228.5,409.8906,218.5,413.8906,228.5,417.8906" style="stroke:#A80036;stroke-width:1.0;"/><line style="stroke:#A80036;stroke-width:1.0;" x1="222.5" x2="372.5" y1="413.8906" y2="413.8906"/><text fill="#000000" font-family="sans-serif" font-size="13" lengthAdjust="spacing" textLength="137" x="234.5" y="408.8247">ajouter_condiments()</text><polygon fill="#A80036" points="483.5,439.0234,493.5,443.0234,483.5,447.0234" style="stroke:#A80036;stroke-width:1.0;"/><line style="stroke:#A80036;stroke-width:1.0;" x1="207.5" x2="489.5" y1="443.0234" y2="443.0234"/><text fill="#000000" font-family="sans-serif" font-size="13" lengthAdjust="spacing" textLength="62" x="214.5" y="437.9575">println(...)</text><!--MD5=[2463ff50acf3ac733e32b4026a80c138]
@startuml
skinparam style strictuml

participant ":StarbuzzTest" as S
participant ":The" as T
participant ":Boisson" as B
participant "System.out" as P

-> S: preparer_the()
S - -> T: create()
T - -> B: create()
S -> T: prepare()
activate T
    T -> B: prepare()
    activate B

        B -> B: bouillir_eau()
            activate B
                B -> P: println(...)
            deactivate B
        B -> T: infuser()
            activate T
               T -> P: println(...)
            deactivate T
        B -> B: verser_tasse()
            activate B
                B -> P: println(...)
            deactivate B
        B -> T: ajouter_condiments()
            activate T
               T -> P: println(...)
            deactivate T
    deactivate B
deactivate T
@enduml

PlantUML version 1.2021.01beta3(Unknown compile time)
(GPL source distribution)
Java Runtime: Java(TM) SE Runtime Environment
JVM: Java HotSpot(TM) 64-Bit Server VM
Default Encoding: UTF-8
Language: en
Country: US
--></g></svg>