<?xml version="1.0" encoding="UTF-8" standalone="no"?><svg xmlns="http://www.w3.org/2000/svg" xmlns:xlink="http://www.w3.org/1999/xlink" contentScriptType="application/ecmascript" contentStyleType="text/css" height="546px" preserveAspectRatio="none" style="width:398px;height:546px;" version="1.1" viewBox="0 0 398 546" width="398px" zoomAndPan="magnify"><defs><filter height="300%" id="fzvs9neqvms5q" width="300%" x="-1" y="-1"><feGaussianBlur result="blurOut" stdDeviation="2.0"/><feColorMatrix in="blurOut" result="blurOut2" type="matrix" values="0 0 0 0 0 0 0 0 0 0 0 0 0 0 0 0 0 0 .4 0"/><feOffset dx="4.0" dy="4.0" in="blurOut2" result="blurOut3"/><feBlend in="SourceGraphic" in2="blurOut3" mode="normal"/></filter></defs><g><!--MD5=[7fd4401f5c5cb0e3d029c879cad30c04]
class Animal--><rect codeLine="1" fill="#FEFECE" filter="url(#fzvs9neqvms5q)" height="163.2422" id="Animal" style="stroke:#A80036;stroke-width:1.5;" width="148" x="141.5" y="128"/><ellipse cx="191.75" cy="144" fill="#ADD1B2" rx="11" ry="11" style="stroke:#A80036;stroke-width:1.0;"/><path d="M194.0938,139.6719 C193.1563,139.2344 192.5625,139.0938 191.6875,139.0938 C189.0625,139.0938 187.0625,141.1719 187.0625,143.8906 L187.0625,145.0156 C187.0625,147.5938 189.1719,149.4844 192.0625,149.4844 C193.2813,149.4844 194.4375,149.1875 195.1875,148.6406 C195.7656,148.2344 196.0938,147.7813 196.0938,147.3906 C196.0938,146.9375 195.7031,146.5469 195.2344,146.5469 C195.0156,146.5469 194.8125,146.625 194.625,146.8125 C194.1719,147.2969 194.1719,147.2969 193.9844,147.3906 C193.5625,147.6563 192.875,147.7813 192.1094,147.7813 C190.0625,147.7813 188.7656,146.6875 188.7656,144.9844 L188.7656,143.8906 C188.7656,142.1094 190.0156,140.7969 191.75,140.7969 C192.3281,140.7969 192.9375,140.9531 193.4063,141.2031 C193.8906,141.4844 194.0625,141.7031 194.1563,142.1094 C194.2188,142.5156 194.25,142.6406 194.3906,142.7656 C194.5313,142.9063 194.7656,143.0156 194.9844,143.0156 C195.25,143.0156 195.5156,142.875 195.6875,142.6563 C195.7969,142.5 195.8281,142.3125 195.8281,141.8906 L195.8281,140.4688 C195.8281,140.0313 195.8125,139.9063 195.7188,139.75 C195.5625,139.4844 195.2813,139.3438 194.9844,139.3438 C194.6875,139.3438 194.4844,139.4375 194.2656,139.75 L194.0938,139.6719 Z " fill="#000000"/><text fill="#000000" font-family="sans-serif" font-size="12" lengthAdjust="spacing" textLength="39" x="212.25" y="148.1543">Animal</text><line style="stroke:#A80036;stroke-width:1.5;" x1="142.5" x2="288.5" y1="160" y2="160"/><rect fill="none" height="6" style="stroke:#C82930;stroke-width:1.0;" width="6" x="149.5" y="168"/><text fill="#000000" font-family="sans-serif" font-size="11" lengthAdjust="spacing" textLength="80" x="161.5" y="174.2104">String : name;</text><rect fill="none" height="6" style="stroke:#C82930;stroke-width:1.0;" width="6" x="149.5" y="180.8047"/><text fill="#000000" font-family="sans-serif" font-size="11" lengthAdjust="spacing" textLength="89" x="161.5" y="187.0151">double : height;</text><rect fill="none" height="6" style="stroke:#C82930;stroke-width:1.0;" width="6" x="149.5" y="193.6094"/><text fill="#000000" font-family="sans-serif" font-size="11" lengthAdjust="spacing" textLength="66" x="161.5" y="199.8198">int : weight;</text><rect fill="none" height="6" style="stroke:#C82930;stroke-width:1.0;" width="6" x="149.5" y="206.4141"/><text fill="#000000" font-family="sans-serif" font-size="11" lengthAdjust="spacing" textLength="92" x="161.5" y="212.6245">String : favFood;</text><rect fill="none" height="6" style="stroke:#C82930;stroke-width:1.0;" width="6" x="149.5" y="219.2188"/><text fill="#000000" font-family="sans-serif" font-size="11" lengthAdjust="spacing" textLength="89" x="161.5" y="225.4292">double : speed;</text><rect fill="none" height="6" style="stroke:#C82930;stroke-width:1.0;" width="6" x="149.5" y="232.0234"/><text fill="#000000" font-family="sans-serif" font-size="11" lengthAdjust="spacing" textLength="81" x="161.5" y="238.2339">String : sound;</text><ellipse cx="152.5" cy="247.8281" fill="none" rx="3" ry="3" style="stroke:#038048;stroke-width:1.0;"/><text fill="#000000" font-family="sans-serif" font-size="11" lengthAdjust="spacing" textLength="96" x="161.5" y="251.0386">Flys : flyingType;</text><line style="stroke:#A80036;stroke-width:1.5;" x1="142.5" x2="288.5" y1="257.6328" y2="257.6328"/><ellipse cx="152.5" cy="268.6328" fill="#84BE84" rx="3" ry="3" style="stroke:#038048;stroke-width:1.0;"/><text fill="#000000" font-family="sans-serif" font-size="11" lengthAdjust="spacing" textLength="90" x="161.5" y="271.8433">String tryToFly()</text><ellipse cx="152.5" cy="281.4375" fill="#84BE84" rx="3" ry="3" style="stroke:#038048;stroke-width:1.0;"/><text fill="#000000" font-family="sans-serif" font-size="11" lengthAdjust="spacing" textLength="122" x="161.5" y="284.6479">void setFlyingAbility()</text><!--MD5=[936a929f01bfcbe0e3aa67f431a27dc0]
class AnimalExample--><rect codeLine="14" fill="#FEFECE" filter="url(#fzvs9neqvms5q)" height="60.8047" id="AnimalExample" style="stroke:#A80036;stroke-width:1.5;" width="122" x="154.5" y="7"/><ellipse cx="169.5" cy="23" fill="#ADD1B2" rx="11" ry="11" style="stroke:#A80036;stroke-width:1.0;"/><path d="M171.8438,18.6719 C170.9063,18.2344 170.3125,18.0938 169.4375,18.0938 C166.8125,18.0938 164.8125,20.1719 164.8125,22.8906 L164.8125,24.0156 C164.8125,26.5938 166.9219,28.4844 169.8125,28.4844 C171.0313,28.4844 172.1875,28.1875 172.9375,27.6406 C173.5156,27.2344 173.8438,26.7813 173.8438,26.3906 C173.8438,25.9375 173.4531,25.5469 172.9844,25.5469 C172.7656,25.5469 172.5625,25.625 172.375,25.8125 C171.9219,26.2969 171.9219,26.2969 171.7344,26.3906 C171.3125,26.6563 170.625,26.7813 169.8594,26.7813 C167.8125,26.7813 166.5156,25.6875 166.5156,23.9844 L166.5156,22.8906 C166.5156,21.1094 167.7656,19.7969 169.5,19.7969 C170.0781,19.7969 170.6875,19.9531 171.1563,20.2031 C171.6406,20.4844 171.8125,20.7031 171.9063,21.1094 C171.9688,21.5156 172,21.6406 172.1406,21.7656 C172.2813,21.9063 172.5156,22.0156 172.7344,22.0156 C173,22.0156 173.2656,21.875 173.4375,21.6563 C173.5469,21.5 173.5781,21.3125 173.5781,20.8906 L173.5781,19.4688 C173.5781,19.0313 173.5625,18.9063 173.4688,18.75 C173.3125,18.4844 173.0313,18.3438 172.7344,18.3438 C172.4375,18.3438 172.2344,18.4375 172.0156,18.75 L171.8438,18.6719 Z " fill="#000000"/><text fill="#000000" font-family="sans-serif" font-size="12" lengthAdjust="spacing" textLength="90" x="183.5" y="27.1543">AnimalExample</text><line style="stroke:#A80036;stroke-width:1.5;" x1="155.5" x2="275.5" y1="39" y2="39"/><line style="stroke:#A80036;stroke-width:1.5;" x1="155.5" x2="275.5" y1="47" y2="47"/><ellipse cx="165.5" cy="58" fill="#84BE84" rx="3" ry="3" style="stroke:#038048;stroke-width:1.0;"/><text fill="#000000" font-family="sans-serif" font-size="11" lengthAdjust="spacing" text-decoration="underline" textLength="64" x="174.5" y="61.2104">void main()</text><!--MD5=[90f66edba3ee2ef2943b92b287a7e5d6]
class Bird--><rect codeLine="18" fill="#FEFECE" filter="url(#fzvs9neqvms5q)" height="48" id="Bird" style="stroke:#A80036;stroke-width:1.5;" width="56" x="187.5" y="357.5"/><ellipse cx="202.5" cy="373.5" fill="#ADD1B2" rx="11" ry="11" style="stroke:#A80036;stroke-width:1.0;"/><path d="M204.8438,369.1719 C203.9063,368.7344 203.3125,368.5938 202.4375,368.5938 C199.8125,368.5938 197.8125,370.6719 197.8125,373.3906 L197.8125,374.5156 C197.8125,377.0938 199.9219,378.9844 202.8125,378.9844 C204.0313,378.9844 205.1875,378.6875 205.9375,378.1406 C206.5156,377.7344 206.8438,377.2813 206.8438,376.8906 C206.8438,376.4375 206.4531,376.0469 205.9844,376.0469 C205.7656,376.0469 205.5625,376.125 205.375,376.3125 C204.9219,376.7969 204.9219,376.7969 204.7344,376.8906 C204.3125,377.1563 203.625,377.2813 202.8594,377.2813 C200.8125,377.2813 199.5156,376.1875 199.5156,374.4844 L199.5156,373.3906 C199.5156,371.6094 200.7656,370.2969 202.5,370.2969 C203.0781,370.2969 203.6875,370.4531 204.1563,370.7031 C204.6406,370.9844 204.8125,371.2031 204.9063,371.6094 C204.9688,372.0156 205,372.1406 205.1406,372.2656 C205.2813,372.4063 205.5156,372.5156 205.7344,372.5156 C206,372.5156 206.2656,372.375 206.4375,372.1563 C206.5469,372 206.5781,371.8125 206.5781,371.3906 L206.5781,369.9688 C206.5781,369.5313 206.5625,369.4063 206.4688,369.25 C206.3125,368.9844 206.0313,368.8438 205.7344,368.8438 C205.4375,368.8438 205.2344,368.9375 205.0156,369.25 L204.8438,369.1719 Z " fill="#000000"/><text fill="#000000" font-family="sans-serif" font-size="12" lengthAdjust="spacing" textLength="24" x="216.5" y="377.6543">Bird</text><line style="stroke:#A80036;stroke-width:1.5;" x1="188.5" x2="242.5" y1="389.5" y2="389.5"/><line style="stroke:#A80036;stroke-width:1.5;" x1="188.5" x2="242.5" y1="397.5" y2="397.5"/><!--MD5=[454ed48f055567edc734f170f61b4daf]
class Dog--><rect codeLine="20" fill="#FEFECE" filter="url(#fzvs9neqvms5q)" height="60.8047" id="Dog" style="stroke:#A80036;stroke-width:1.5;" width="105" x="279" y="351"/><ellipse cx="315.6" cy="367" fill="#ADD1B2" rx="11" ry="11" style="stroke:#A80036;stroke-width:1.0;"/><path d="M317.9438,362.6719 C317.0063,362.2344 316.4125,362.0938 315.5375,362.0938 C312.9125,362.0938 310.9125,364.1719 310.9125,366.8906 L310.9125,368.0156 C310.9125,370.5938 313.0219,372.4844 315.9125,372.4844 C317.1313,372.4844 318.2875,372.1875 319.0375,371.6406 C319.6156,371.2344 319.9438,370.7813 319.9438,370.3906 C319.9438,369.9375 319.5531,369.5469 319.0844,369.5469 C318.8656,369.5469 318.6625,369.625 318.475,369.8125 C318.0219,370.2969 318.0219,370.2969 317.8344,370.3906 C317.4125,370.6563 316.725,370.7813 315.9594,370.7813 C313.9125,370.7813 312.6156,369.6875 312.6156,367.9844 L312.6156,366.8906 C312.6156,365.1094 313.8656,363.7969 315.6,363.7969 C316.1781,363.7969 316.7875,363.9531 317.2563,364.2031 C317.7406,364.4844 317.9125,364.7031 318.0063,365.1094 C318.0688,365.5156 318.1,365.6406 318.2406,365.7656 C318.3813,365.9063 318.6156,366.0156 318.8344,366.0156 C319.1,366.0156 319.3656,365.875 319.5375,365.6563 C319.6469,365.5 319.6781,365.3125 319.6781,364.8906 L319.6781,363.4688 C319.6781,363.0313 319.6625,362.9063 319.5688,362.75 C319.4125,362.4844 319.1313,362.3438 318.8344,362.3438 C318.5375,362.3438 318.3344,362.4375 318.1156,362.75 L317.9438,362.6719 Z " fill="#000000"/><text fill="#000000" font-family="sans-serif" font-size="12" lengthAdjust="spacing" textLength="25" x="334.4" y="371.1543">Dog</text><line style="stroke:#A80036;stroke-width:1.5;" x1="280" x2="383" y1="383" y2="383"/><line style="stroke:#A80036;stroke-width:1.5;" x1="280" x2="383" y1="391" y2="391"/><ellipse cx="290" cy="402" fill="#84BE84" rx="3" ry="3" style="stroke:#038048;stroke-width:1.0;"/><text fill="#000000" font-family="sans-serif" font-size="11" lengthAdjust="spacing" textLength="79" x="299" y="405.2104">void digHole()</text><!--MD5=[d2c5f46bbc2fe26a3c4c6869a7ec42e6]
class Flys--><rect codeLine="24" fill="#FEFECE" filter="url(#fzvs9neqvms5q)" height="60.8047" id="Flys" style="stroke:#A80036;stroke-width:1.5;" width="85" x="67" y="351"/><ellipse cx="95.5" cy="367" fill="#B4A7E5" rx="11" ry="11" style="stroke:#A80036;stroke-width:1.0;"/><path d="M96.4531,363.7813 L98.1719,363.7813 C98.5625,363.7813 98.75,363.75 98.875,363.6719 C99.1406,363.5156 99.2813,363.2344 99.2813,362.9375 C99.2813,362.6719 99.1719,362.4063 98.9375,362.2344 C98.7656,362.125 98.625,362.0938 98.1719,362.0938 L93.0313,362.0938 C92.5938,362.0938 92.4688,362.1094 92.3125,362.2031 C92.0625,362.3594 91.9063,362.6563 91.9063,362.9375 C91.9063,363.2188 92.0469,363.4688 92.2656,363.6406 C92.4219,363.75 92.6094,363.7813 93.0313,363.7813 L94.75,363.7813 L94.75,370.2969 L93.0313,370.2969 C92.5938,370.2969 92.4688,370.3125 92.3125,370.4219 C92.0625,370.5781 91.9063,370.8594 91.9063,371.1563 C91.9063,371.4063 92.0469,371.6719 92.2656,371.8281 C92.4219,371.9531 92.625,372 93.0313,372 L98.1719,372 C98.9219,372 99.2813,371.7188 99.2813,371.1563 C99.2813,370.875 99.1719,370.625 98.9375,370.4531 C98.7656,370.3281 98.625,370.2969 98.1719,370.2969 L96.4531,370.2969 L96.4531,363.7813 Z " fill="#000000"/><text fill="#000000" font-family="sans-serif" font-size="12" font-style="italic" lengthAdjust="spacing" textLength="23" x="112.5" y="371.1543">Flys</text><line style="stroke:#A80036;stroke-width:1.5;" x1="68" x2="151" y1="383" y2="383"/><line style="stroke:#A80036;stroke-width:1.5;" x1="68" x2="151" y1="391" y2="391"/><ellipse cx="78" cy="402" fill="#84BE84" rx="3" ry="3" style="stroke:#038048;stroke-width:1.0;"/><text fill="#000000" font-family="sans-serif" font-size="11" lengthAdjust="spacing" textLength="59" x="87" y="405.2104">String fly()</text><!--MD5=[a6eb161c16bc5853abcc151978448e3e]
class ItFlys--><rect codeLine="27" fill="#FEFECE" filter="url(#fzvs9neqvms5q)" height="60.8047" id="ItFlys" style="stroke:#A80036;stroke-width:1.5;" width="85" x="7" y="472"/><ellipse cx="31.9" cy="488" fill="#ADD1B2" rx="11" ry="11" style="stroke:#A80036;stroke-width:1.0;"/><path d="M34.2438,483.6719 C33.3063,483.2344 32.7125,483.0938 31.8375,483.0938 C29.2125,483.0938 27.2125,485.1719 27.2125,487.8906 L27.2125,489.0156 C27.2125,491.5938 29.3219,493.4844 32.2125,493.4844 C33.4313,493.4844 34.5875,493.1875 35.3375,492.6406 C35.9156,492.2344 36.2438,491.7813 36.2438,491.3906 C36.2438,490.9375 35.8531,490.5469 35.3844,490.5469 C35.1656,490.5469 34.9625,490.625 34.775,490.8125 C34.3219,491.2969 34.3219,491.2969 34.1344,491.3906 C33.7125,491.6563 33.025,491.7813 32.2594,491.7813 C30.2125,491.7813 28.9156,490.6875 28.9156,488.9844 L28.9156,487.8906 C28.9156,486.1094 30.1656,484.7969 31.9,484.7969 C32.4781,484.7969 33.0875,484.9531 33.5563,485.2031 C34.0406,485.4844 34.2125,485.7031 34.3063,486.1094 C34.3688,486.5156 34.4,486.6406 34.5406,486.7656 C34.6813,486.9063 34.9156,487.0156 35.1344,487.0156 C35.4,487.0156 35.6656,486.875 35.8375,486.6563 C35.9469,486.5 35.9781,486.3125 35.9781,485.8906 L35.9781,484.4688 C35.9781,484.0313 35.9625,483.9063 35.8688,483.75 C35.7125,483.4844 35.4313,483.3438 35.1344,483.3438 C34.8375,483.3438 34.6344,483.4375 34.4156,483.75 L34.2438,483.6719 Z " fill="#000000"/><text fill="#000000" font-family="sans-serif" font-size="12" lengthAdjust="spacing" textLength="31" x="48.1" y="492.1543">ItFlys</text><line style="stroke:#A80036;stroke-width:1.5;" x1="8" x2="91" y1="504" y2="504"/><line style="stroke:#A80036;stroke-width:1.5;" x1="8" x2="91" y1="512" y2="512"/><ellipse cx="18" cy="523" fill="#84BE84" rx="3" ry="3" style="stroke:#038048;stroke-width:1.0;"/><text fill="#000000" font-family="sans-serif" font-size="11" lengthAdjust="spacing" textLength="59" x="27" y="526.2104">String fly()</text><!--MD5=[17c023fb252b7b4374a5364d45d9d893]
class CantFly--><rect codeLine="30" fill="#FEFECE" filter="url(#fzvs9neqvms5q)" height="60.8047" id="CantFly" style="stroke:#A80036;stroke-width:1.5;" width="85" x="127" y="472"/><ellipse cx="146.5" cy="488" fill="#ADD1B2" rx="11" ry="11" style="stroke:#A80036;stroke-width:1.0;"/><path d="M148.8438,483.6719 C147.9063,483.2344 147.3125,483.0938 146.4375,483.0938 C143.8125,483.0938 141.8125,485.1719 141.8125,487.8906 L141.8125,489.0156 C141.8125,491.5938 143.9219,493.4844 146.8125,493.4844 C148.0313,493.4844 149.1875,493.1875 149.9375,492.6406 C150.5156,492.2344 150.8438,491.7813 150.8438,491.3906 C150.8438,490.9375 150.4531,490.5469 149.9844,490.5469 C149.7656,490.5469 149.5625,490.625 149.375,490.8125 C148.9219,491.2969 148.9219,491.2969 148.7344,491.3906 C148.3125,491.6563 147.625,491.7813 146.8594,491.7813 C144.8125,491.7813 143.5156,490.6875 143.5156,488.9844 L143.5156,487.8906 C143.5156,486.1094 144.7656,484.7969 146.5,484.7969 C147.0781,484.7969 147.6875,484.9531 148.1563,485.2031 C148.6406,485.4844 148.8125,485.7031 148.9063,486.1094 C148.9688,486.5156 149,486.6406 149.1406,486.7656 C149.2813,486.9063 149.5156,487.0156 149.7344,487.0156 C150,487.0156 150.2656,486.875 150.4375,486.6563 C150.5469,486.5 150.5781,486.3125 150.5781,485.8906 L150.5781,484.4688 C150.5781,484.0313 150.5625,483.9063 150.4688,483.75 C150.3125,483.4844 150.0313,483.3438 149.7344,483.3438 C149.4375,483.3438 149.2344,483.4375 149.0156,483.75 L148.8438,483.6719 Z " fill="#000000"/><text fill="#000000" font-family="sans-serif" font-size="12" lengthAdjust="spacing" textLength="43" x="161.5" y="492.1543">CantFly</text><line style="stroke:#A80036;stroke-width:1.5;" x1="128" x2="211" y1="504" y2="504"/><line style="stroke:#A80036;stroke-width:1.5;" x1="128" x2="211" y1="512" y2="512"/><ellipse cx="138" cy="523" fill="#84BE84" rx="3" ry="3" style="stroke:#038048;stroke-width:1.0;"/><text fill="#000000" font-family="sans-serif" font-size="11" lengthAdjust="spacing" textLength="59" x="147" y="526.2104">String fly()</text><!--MD5=[fdc3ebc206f20978ff2c40e3579e01ae]
reverse link Flys to ItFlys--><path codeLine="34" d="M85.3394,430.419 C78.2954,444.3891 70.8047,459.2457 64.5027,471.7447 " fill="none" id="Flys-backto-ItFlys" style="stroke:#A80036;stroke-width:1.0;"/><polygon fill="none" points="79.2595,426.929,94.5142,412.222,91.7604,433.2317,79.2595,426.929" style="stroke:#A80036;stroke-width:1.0;"/><!--MD5=[100d1999ff73a3ee4b1cb6aa0c189655]
reverse link Flys to CantFly--><path codeLine="35" d="M133.661,430.419 C140.705,444.3891 148.195,459.2457 154.497,471.7447 " fill="none" id="Flys-backto-CantFly" style="stroke:#A80036;stroke-width:1.0;"/><polygon fill="none" points="127.24,433.2317,124.486,412.222,139.741,426.929,127.24,433.2317" style="stroke:#A80036;stroke-width:1.0;"/><!--MD5=[ee85a6df186acdac5482e23d407ea588]
link Animal to Flys--><path codeLine="37" d="M165.294,291.019 C153.163,310.474 140.837,330.242 130.867,346.232 " fill="none" id="Animal-to-Flys" style="stroke:#A80036;stroke-width:1.0;"/><polygon fill="#A80036" points="128.119,350.639,136.2753,345.1186,130.7646,346.3963,129.487,340.8856,128.119,350.639" style="stroke:#A80036;stroke-width:1.0;"/><!--MD5=[a84a51317509fe0330c0e17948498a29]
reverse link Animal to Bird--><path codeLine="38" d="M215.5,311.1 C215.5,328.346 215.5,344.704 215.5,357.203 " fill="none" id="Animal-backto-Bird" style="stroke:#A80036;stroke-width:1.0;"/><polygon fill="none" points="208.5,311.019,215.5,291.019,222.5,311.019,208.5,311.019" style="stroke:#A80036;stroke-width:1.0;"/><!--MD5=[5037e5108ae860e34ac250b7d2b84c09]
reverse link Animal to Dog--><path codeLine="39" d="M282.001,307.959 C292.577,323.458 302.767,338.392 311.124,350.639 " fill="none" id="Animal-backto-Dog" style="stroke:#A80036;stroke-width:1.0;"/><polygon fill="none" points="275.933,311.485,270.443,291.019,287.498,303.594,275.933,311.485" style="stroke:#A80036;stroke-width:1.0;"/><!--MD5=[4f5cf3c3e8ae83376287afabca5e5cbc]
link AnimalExample to Animal--><path codeLine="41" d="M215.5,68.112 C215.5,84.759 215.5,106.428 215.5,127.74 " fill="none" id="AnimalExample-Animal" style="stroke:#A80036;stroke-width:1.0;stroke-dasharray:7.0,7.0;"/><!--MD5=[e4c7d2c1b5b871345718fe9d3c3761df]
@startuml
class Animal{
    - String : name;
	- double : height;
	- int : weight;
	- String : favFood;
	- double : speed;
	- String : sound;
    + Flys : flyingType;

    + String tryToFly()
    + void setFlyingAbility()
}

class AnimalExample{
    {static} + void main()
}

class Bird{}

class Dog{
    + void digHole()
}

interface Flys{
    + String fly()
}
class ItFlys{
    + String fly()
}
class CantFly{
    + String fly()
}

ItFlys -up-|> Flys
CantFly -up-|> Flys

Flys <-up- Animal
Bird -up-|> Animal
Dog -up-|> Animal

AnimalExample .. Animal
@enduml

PlantUML version 1.2021.01beta3(Unknown compile time)
(GPL source distribution)
Java Runtime: Java(TM) SE Runtime Environment
JVM: Java HotSpot(TM) 64-Bit Server VM
Default Encoding: UTF-8
Language: en
Country: US
--></g></svg>