<?xml version="1.0" encoding="UTF-8" standalone="no"?><svg xmlns="http://www.w3.org/2000/svg" xmlns:xlink="http://www.w3.org/1999/xlink" contentScriptType="application/ecmascript" contentStyleType="text/css" height="700px" preserveAspectRatio="none" style="width:1124px;height:700px;" version="1.1" viewBox="0 0 1124 700" width="1124px" zoomAndPan="magnify"><defs/><g><text fill="#000000" font-family="sans-serif" font-size="18" lengthAdjust="spacing" textLength="230" x="443.5" y="28.708">Diagramme de séquence</text><line style="stroke:#A80036;stroke-width:1.0;stroke-dasharray:5.0,5.0;" x1="64" x2="64" y1="119.25" y2="693.0625"/><line style="stroke:#A80036;stroke-width:1.0;stroke-dasharray:5.0,5.0;" x1="312" x2="312" y1="159.8984" y2="693.0625"/><line style="stroke:#A80036;stroke-width:1.0;stroke-dasharray:5.0,5.0;" x1="419" x2="419" y1="357.8906" y2="693.0625"/><line style="stroke:#A80036;stroke-width:1.0;stroke-dasharray:5.0,5.0;" x1="613" x2="613" y1="201.1953" y2="693.0625"/><line style="stroke:#A80036;stroke-width:1.0;stroke-dasharray:5.0,5.0;" x1="764" x2="764" y1="399.1875" y2="693.0625"/><line style="stroke:#A80036;stroke-width:1.0;stroke-dasharray:5.0,5.0;" x1="923" x2="923" y1="555.8828" y2="693.0625"/><line style="stroke:#A80036;stroke-width:1.0;stroke-dasharray:5.0,5.0;" x1="1063" x2="1063" y1="119.25" y2="693.0625"/><text fill="#000000" font-family="sans-serif" font-size="14" lengthAdjust="spacing" textLength="112" x="5" y="115.9482">AnimalExemple</text><ellipse cx="64" cy="49.9531" fill="#FEFECE" rx="8" ry="8" style="stroke:#A80036;stroke-width:2.0;"/><path d="M64,57.9531 L64,84.9531 M51,65.9531 L77,65.9531 M64,84.9531 L51,99.9531 M64,84.9531 L77,99.9531 " fill="none" style="stroke:#A80036;stroke-width:2.0;"/><rect fill="#FEFECE" height="30.2969" style="stroke:#A80036;stroke-width:1.5;" width="97" x="1015" y="87.9531"/><text fill="#000000" font-family="sans-serif" font-size="14" lengthAdjust="spacing" textLength="83" x="1022" y="107.9482">System.out</text><polygon fill="#A80036" points="252,146.3828,262,150.3828,252,154.3828" style="stroke:#A80036;stroke-width:1.0;"/><line style="stroke:#A80036;stroke-width:1.0;" x1="64" x2="258" y1="150.3828" y2="150.3828"/><text fill="#000000" font-family="sans-serif" font-size="13" lengthAdjust="spacing" textLength="176" x="71" y="145.3169">Animal sparky = new Dog()</text><rect fill="#FEFECE" height="30.2969" style="stroke:#A80036;stroke-width:1.5;" width="96" x="264" y="129.25"/><text fill="#000000" font-family="sans-serif" font-size="14" lengthAdjust="spacing" textLength="82" x="271" y="149.2451">sparky:Dog</text><polygon fill="#A80036" points="527,187.6797,537,191.6797,527,195.6797" style="stroke:#A80036;stroke-width:1.0;"/><line style="stroke:#A80036;stroke-width:1.0;" x1="312" x2="533" y1="191.6797" y2="191.6797"/><text fill="#000000" font-family="sans-serif" font-size="13" lengthAdjust="spacing" textLength="203" x="319" y="186.6138">Flys flyingType = new CantFly()</text><rect fill="#FEFECE" height="30.2969" style="stroke:#A80036;stroke-width:1.5;" width="149" x="539" y="170.5469"/><text fill="#000000" font-family="sans-serif" font-size="14" lengthAdjust="spacing" textLength="135" x="546" y="190.542">flyingType:CantFly</text><polygon fill="#A80036" points="300,228.9766,310,232.9766,300,236.9766" style="stroke:#A80036;stroke-width:1.0;"/><line style="stroke:#A80036;stroke-width:1.0;" x1="64" x2="306" y1="232.9766" y2="232.9766"/><text fill="#000000" font-family="sans-serif" font-size="13" lengthAdjust="spacing" textLength="166" x="71" y="227.9106">String flyText = tryToFly()</text><polygon fill="#A80036" points="601.5,258.1094,611.5,262.1094,601.5,266.1094" style="stroke:#A80036;stroke-width:1.0;"/><line style="stroke:#A80036;stroke-width:1.0;" x1="312" x2="607.5" y1="262.1094" y2="262.1094"/><text fill="#000000" font-family="sans-serif" font-size="13" lengthAdjust="spacing" textLength="130" x="319" y="257.0435">String flyText = fly()</text><polygon fill="#A80036" points="1051.5,287.2422,1061.5,291.2422,1051.5,295.2422" style="stroke:#A80036;stroke-width:1.0;"/><line style="stroke:#A80036;stroke-width:1.0;" x1="64" x2="1057.5" y1="291.2422" y2="291.2422"/><text fill="#000000" font-family="sans-serif" font-size="13" lengthAdjust="spacing" textLength="95" x="71" y="286.1763">println(flyText)</text><rect fill="#EEEEEE" height="3" style="stroke:#EEEEEE;stroke-width:1.0;" width="1117" x="0" y="312.2422"/><line style="stroke:#000000;stroke-width:1.0;" x1="0" x2="1117" y1="312.2422" y2="312.2422"/><line style="stroke:#000000;stroke-width:1.0;" x1="0" x2="1117" y1="315.2422" y2="315.2422"/><polygon fill="#A80036" points="358,344.375,368,348.375,358,352.375" style="stroke:#A80036;stroke-width:1.0;"/><line style="stroke:#A80036;stroke-width:1.0;" x1="64" x2="364" y1="348.375" y2="348.375"/><text fill="#000000" font-family="sans-serif" font-size="13" lengthAdjust="spacing" textLength="176" x="71" y="343.3091">Animal tweety = new Bird()</text><rect fill="#FEFECE" height="30.2969" style="stroke:#A80036;stroke-width:1.5;" width="99" x="370" y="327.2422"/><text fill="#000000" font-family="sans-serif" font-size="14" lengthAdjust="spacing" textLength="85" x="377" y="347.2373">tweety:Bird</text><polygon fill="#A80036" points="686,385.6719,696,389.6719,686,393.6719" style="stroke:#A80036;stroke-width:1.0;"/><line style="stroke:#A80036;stroke-width:1.0;" x1="419.5" x2="692" y1="389.6719" y2="389.6719"/><text fill="#000000" font-family="sans-serif" font-size="13" lengthAdjust="spacing" textLength="188" x="426.5" y="384.606">Flys flyingType = new ItFlys()</text><rect fill="#FEFECE" height="30.2969" style="stroke:#A80036;stroke-width:1.5;" width="133" x="698" y="368.5391"/><text fill="#000000" font-family="sans-serif" font-size="14" lengthAdjust="spacing" textLength="119" x="705" y="388.5342">flyingType:ItFlys</text><polygon fill="#A80036" points="407.5,426.9688,417.5,430.9688,407.5,434.9688" style="stroke:#A80036;stroke-width:1.0;"/><line style="stroke:#A80036;stroke-width:1.0;" x1="64" x2="413.5" y1="430.9688" y2="430.9688"/><text fill="#000000" font-family="sans-serif" font-size="13" lengthAdjust="spacing" textLength="166" x="71" y="425.9028">String flyText = tryToFly()</text><polygon fill="#A80036" points="752.5,456.1016,762.5,460.1016,752.5,464.1016" style="stroke:#A80036;stroke-width:1.0;"/><line style="stroke:#A80036;stroke-width:1.0;" x1="419.5" x2="758.5" y1="460.1016" y2="460.1016"/><text fill="#000000" font-family="sans-serif" font-size="13" lengthAdjust="spacing" textLength="130" x="426.5" y="455.0356">String flyText = fly()</text><polygon fill="#A80036" points="1051.5,485.2344,1061.5,489.2344,1051.5,493.2344" style="stroke:#A80036;stroke-width:1.0;"/><line style="stroke:#A80036;stroke-width:1.0;" x1="64" x2="1057.5" y1="489.2344" y2="489.2344"/><text fill="#000000" font-family="sans-serif" font-size="13" lengthAdjust="spacing" textLength="95" x="71" y="484.1685">println(flyText)</text><rect fill="#EEEEEE" height="3" style="stroke:#EEEEEE;stroke-width:1.0;" width="1117" x="0" y="510.2344"/><line style="stroke:#000000;stroke-width:1.0;" x1="0" x2="1117" y1="510.2344" y2="510.2344"/><line style="stroke:#000000;stroke-width:1.0;" x1="0" x2="1117" y1="513.2344" y2="513.2344"/><polygon fill="#A80036" points="829,542.3672,839,546.3672,829,550.3672" style="stroke:#A80036;stroke-width:1.0;"/><line style="stroke:#A80036;stroke-width:1.0;" x1="64" x2="835" y1="546.3672" y2="546.3672"/><text fill="#000000" font-family="sans-serif" font-size="13" lengthAdjust="spacing" textLength="217" x="71" y="541.3013">Flys newFlyingType = new ItFlys()</text><rect fill="#FEFECE" height="30.2969" style="stroke:#A80036;stroke-width:1.5;" width="164" x="841" y="525.2344"/><text fill="#000000" font-family="sans-serif" font-size="14" lengthAdjust="spacing" textLength="150" x="848" y="545.2295">newFlyingType:ItFlys</text><polygon fill="#A80036" points="300,583.6641,310,587.6641,300,591.6641" style="stroke:#A80036;stroke-width:1.0;"/><line style="stroke:#A80036;stroke-width:1.0;" x1="64" x2="306" y1="587.6641" y2="587.6641"/><text fill="#000000" font-family="sans-serif" font-size="13" lengthAdjust="spacing" textLength="202" x="71" y="582.5981">setFlyingAbility(newFlyingType)</text><polygon fill="#A80036" points="300,612.7969,310,616.7969,300,620.7969" style="stroke:#A80036;stroke-width:1.0;"/><line style="stroke:#A80036;stroke-width:1.0;" x1="64" x2="306" y1="616.7969" y2="616.7969"/><text fill="#000000" font-family="sans-serif" font-size="13" lengthAdjust="spacing" textLength="166" x="71" y="611.731">String flyText = tryToFly()</text><polygon fill="#A80036" points="911,641.9297,921,645.9297,911,649.9297" style="stroke:#A80036;stroke-width:1.0;"/><line style="stroke:#A80036;stroke-width:1.0;" x1="312" x2="917" y1="645.9297" y2="645.9297"/><text fill="#000000" font-family="sans-serif" font-size="13" lengthAdjust="spacing" textLength="130" x="319" y="640.8638">String flyText = fly()</text><polygon fill="#A80036" points="1051.5,671.0625,1061.5,675.0625,1051.5,679.0625" style="stroke:#A80036;stroke-width:1.0;"/><line style="stroke:#A80036;stroke-width:1.0;" x1="64" x2="1057.5" y1="675.0625" y2="675.0625"/><text fill="#000000" font-family="sans-serif" font-size="13" lengthAdjust="spacing" textLength="95" x="71" y="669.9966">println(flyText)</text><!--MD5=[0ca91035f42f419797a46d20a0b8ddcb]
@startuml
skinparam Style strictuml
title Diagramme de séquence
actor AnimalExemple
participant "sparky:Dog" as Dog
participant "tweety:Bird" as Bird
participant "flyingType:CantFly" as CantFly
participant "flyingType:ItFlys" as CanFly
participant "newFlyingType:ItFlys" as CanFly2
participant "System.out" as sysout

AnimalExemple -> Dog ** : Animal sparky = new Dog()
Dog -> CantFly ** : Flys flyingType = new CantFly()
AnimalExemple -> Dog : String flyText = tryToFly()
Dog -> CantFly : String flyText = fly()
AnimalExemple -> sysout: println(flyText)
== ==

AnimalExemple -> Bird ** : Animal tweety = new Bird()
Bird -> CanFly ** : Flys flyingType = new ItFlys()
AnimalExemple -> Bird : String flyText = tryToFly()
Bird -> CanFly : String flyText = fly()
AnimalExemple -> sysout: println(flyText)

== ==

AnimalExemple -> CanFly2 ** : Flys newFlyingType = new ItFlys()
AnimalExemple -> Dog : setFlyingAbility(newFlyingType)
AnimalExemple -> Dog : String flyText = tryToFly()
Dog -> CanFly2 : String flyText = fly()
AnimalExemple -> sysout: println(flyText)
@enduml

PlantUML version 1.2021.01beta3(Unknown compile time)
(GPL source distribution)
Java Runtime: Java(TM) SE Runtime Environment
JVM: Java HotSpot(TM) 64-Bit Server VM
Default Encoding: UTF-8
Language: en
Country: US
--></g></svg>