<?xml version="1.0" encoding="UTF-8" standalone="no"?><svg xmlns="http://www.w3.org/2000/svg" xmlns:xlink="http://www.w3.org/1999/xlink" contentScriptType="application/ecmascript" contentStyleType="text/css" height="220px" preserveAspectRatio="none" style="width:807px;height:220px;" version="1.1" viewBox="0 0 807 220" width="807px" zoomAndPan="magnify"><defs><filter height="300%" id="f1oj04cdrdywuv" width="300%" x="-1" y="-1"><feGaussianBlur result="blurOut" stdDeviation="2.0"/><feColorMatrix in="blurOut" result="blurOut2" type="matrix" values="0 0 0 0 0 0 0 0 0 0 0 0 0 0 0 0 0 0 .4 0"/><feOffset dx="4.0" dy="4.0" in="blurOut2" result="blurOut3"/><feBlend in="SourceGraphic" in2="blurOut3" mode="normal"/></filter></defs><g><!--MD5=[fc3f44f0f817fd74f05c2af45db2c89a]
cluster org.junit--><polygon fill="#FFFFFF" filter="url(#f1oj04cdrdywuv)" points="593,114,669,114,676,136.2969,790,136.2969,790,213,593,213,593,114" style="stroke:#000000;stroke-width:1.5;"/><line style="stroke:#000000;stroke-width:1.5;" x1="593" x2="676" y1="136.2969" y2="136.2969"/><text fill="#000000" font-family="sans-serif" font-size="14" font-weight="bold" lengthAdjust="spacing" textLength="70" x="597" y="128.9951">org.junit</text><!--MD5=[a86780642c9cbdf8a76c3151ad4f653f]
cluster Framework.Queue--><polygon fill="#FFFFFF" filter="url(#f1oj04cdrdywuv)" points="16,6,166,6,173,28.2969,569,28.2969,569,213,16,213,16,6" style="stroke:#000000;stroke-width:1.5;"/><line style="stroke:#000000;stroke-width:1.5;" x1="16" x2="173" y1="28.2969" y2="28.2969"/><text fill="#000000" font-family="sans-serif" font-size="14" font-weight="bold" lengthAdjust="spacing" textLength="144" x="20" y="20.9951">Framework.Queue</text><!--MD5=[f7b7ab9bce2472806173d1fe3d1935cb]
class org.junit.Test--><rect codeLine="1" fill="#FEFECE" filter="url(#f1oj04cdrdywuv)" height="48" id="org.junit.Test" style="stroke:#A80036;stroke-width:1.5;" width="58" x="716" y="149"/><ellipse cx="731" cy="165" fill="#E3664A" rx="11" ry="11" style="stroke:#A80036;stroke-width:1.0;"/><path d="M731.9219,162.25 C730.0156,162.3906 728.7031,163.5781 728.7031,165.1563 C728.7031,166.5625 729.9063,167.7813 731.3594,167.7813 C731.5156,167.7813 731.6563,167.7656 731.9219,167.7188 L731.9219,167.7813 L732.7188,167.7813 C733.3438,167.7813 733.6563,167.5625 733.6563,167.0781 C733.6563,166.7969 733.5313,166.6094 733.2656,166.4844 L733.2656,161.7031 C733.2656,159.8125 731.9531,158.4531 730.1094,158.4531 C727.9063,158.4531 726.2969,160.5781 726.2969,163.5156 L726.2969,166.375 C726.2969,167.625 726.5781,168.8438 727.0938,169.7656 C727.8125,171.0156 728.7344,171.5781 730.1406,171.5781 C731.75,171.5781 733.1406,170.9219 733.1406,170.125 C733.1406,169.7344 732.8438,169.4219 732.4688,169.4219 C732.2656,169.4219 732.1719,169.4688 731.9375,169.7188 C731.6094,170.0469 730.9375,170.2656 730.1875,170.2656 C729.4375,170.2656 728.9063,170 728.5,169.4063 C727.9219,168.6094 727.6406,167.5625 727.6406,166.2656 L727.6406,163.6094 C727.6406,161.4375 728.7031,159.7969 730.1406,159.7969 C731.1875,159.7969 731.9219,160.5781 731.9219,161.7031 L731.9219,162.25 Z M731.9219,166.3594 C731.6875,166.4063 731.5938,166.4063 731.4844,166.4063 C730.6563,166.4063 730.0469,165.875 730.0469,165.1719 C730.0469,164.3438 730.7969,163.7344 731.9219,163.625 L731.9219,166.3594 Z " fill="#000000"/><text fill="#000000" font-family="sans-serif" font-size="12" lengthAdjust="spacing" textLength="26" x="745" y="169.1543">Test</text><line style="stroke:#A80036;stroke-width:1.5;" x1="717" x2="773" y1="181" y2="181"/><line style="stroke:#A80036;stroke-width:1.5;" x1="717" x2="773" y1="189" y2="189"/><!--MD5=[085aed1db21dd35e4bb295f6a8ab3dbf]
class org.junit.Assert--><rect codeLine="7" fill="#FEFECE" filter="url(#f1oj04cdrdywuv)" height="48" id="org.junit.Assert" style="stroke:#A80036;stroke-width:1.5;" width="71" x="609.5" y="149"/><ellipse cx="624.5" cy="165" fill="#ADD1B2" rx="11" ry="11" style="stroke:#A80036;stroke-width:1.0;"/><path d="M626.8438,160.6719 C625.9063,160.2344 625.3125,160.0938 624.4375,160.0938 C621.8125,160.0938 619.8125,162.1719 619.8125,164.8906 L619.8125,166.0156 C619.8125,168.5938 621.9219,170.4844 624.8125,170.4844 C626.0313,170.4844 627.1875,170.1875 627.9375,169.6406 C628.5156,169.2344 628.8438,168.7813 628.8438,168.3906 C628.8438,167.9375 628.4531,167.5469 627.9844,167.5469 C627.7656,167.5469 627.5625,167.625 627.375,167.8125 C626.9219,168.2969 626.9219,168.2969 626.7344,168.3906 C626.3125,168.6563 625.625,168.7813 624.8594,168.7813 C622.8125,168.7813 621.5156,167.6875 621.5156,165.9844 L621.5156,164.8906 C621.5156,163.1094 622.7656,161.7969 624.5,161.7969 C625.0781,161.7969 625.6875,161.9531 626.1563,162.2031 C626.6406,162.4844 626.8125,162.7031 626.9063,163.1094 C626.9688,163.5156 627,163.6406 627.1406,163.7656 C627.2813,163.9063 627.5156,164.0156 627.7344,164.0156 C628,164.0156 628.2656,163.875 628.4375,163.6563 C628.5469,163.5 628.5781,163.3125 628.5781,162.8906 L628.5781,161.4688 C628.5781,161.0313 628.5625,160.9063 628.4688,160.75 C628.3125,160.4844 628.0313,160.3438 627.7344,160.3438 C627.4375,160.3438 627.2344,160.4375 627.0156,160.75 L626.8438,160.6719 Z " fill="#000000"/><text fill="#000000" font-family="sans-serif" font-size="12" lengthAdjust="spacing" textLength="39" x="638.5" y="169.1543">Assert</text><line style="stroke:#A80036;stroke-width:1.5;" x1="610.5" x2="679.5" y1="181" y2="181"/><line style="stroke:#A80036;stroke-width:1.5;" x1="610.5" x2="679.5" y1="189" y2="189"/><!--MD5=[273e92da281ea1702452c67b681882d1]
class Framework.Queue.AbstractCollection--><rect codeLine="2" fill="#FEFECE" filter="url(#f1oj04cdrdywuv)" height="48" id="Framework.Queue.AbstractCollection" style="stroke:#A80036;stroke-width:1.5;" width="141" x="32.5" y="149"/><ellipse cx="47.5" cy="165" fill="#ADD1B2" rx="11" ry="11" style="stroke:#A80036;stroke-width:1.0;"/><path d="M49.8438,160.6719 C48.9063,160.2344 48.3125,160.0938 47.4375,160.0938 C44.8125,160.0938 42.8125,162.1719 42.8125,164.8906 L42.8125,166.0156 C42.8125,168.5938 44.9219,170.4844 47.8125,170.4844 C49.0313,170.4844 50.1875,170.1875 50.9375,169.6406 C51.5156,169.2344 51.8438,168.7813 51.8438,168.3906 C51.8438,167.9375 51.4531,167.5469 50.9844,167.5469 C50.7656,167.5469 50.5625,167.625 50.375,167.8125 C49.9219,168.2969 49.9219,168.2969 49.7344,168.3906 C49.3125,168.6563 48.625,168.7813 47.8594,168.7813 C45.8125,168.7813 44.5156,167.6875 44.5156,165.9844 L44.5156,164.8906 C44.5156,163.1094 45.7656,161.7969 47.5,161.7969 C48.0781,161.7969 48.6875,161.9531 49.1563,162.2031 C49.6406,162.4844 49.8125,162.7031 49.9063,163.1094 C49.9688,163.5156 50,163.6406 50.1406,163.7656 C50.2813,163.9063 50.5156,164.0156 50.7344,164.0156 C51,164.0156 51.2656,163.875 51.4375,163.6563 C51.5469,163.5 51.5781,163.3125 51.5781,162.8906 L51.5781,161.4688 C51.5781,161.0313 51.5625,160.9063 51.4688,160.75 C51.3125,160.4844 51.0313,160.3438 50.7344,160.3438 C50.4375,160.3438 50.2344,160.4375 50.0156,160.75 L49.8438,160.6719 Z " fill="#000000"/><text fill="#000000" font-family="sans-serif" font-size="12" lengthAdjust="spacing" textLength="109" x="61.5" y="169.1543">AbstractCollection</text><line style="stroke:#A80036;stroke-width:1.5;" x1="33.5" x2="172.5" y1="181" y2="181"/><line style="stroke:#A80036;stroke-width:1.5;" x1="33.5" x2="172.5" y1="189" y2="189"/><!--MD5=[5266c978c33ec7ad406b185d6d11ea42]
class Framework.Queue.NameComparator--><rect codeLine="3" fill="#FEFECE" filter="url(#f1oj04cdrdywuv)" height="48" id="Framework.Queue.NameComparator" style="stroke:#A80036;stroke-width:1.5;" width="137" x="282.5" y="41"/><ellipse cx="297.5" cy="57" fill="#ADD1B2" rx="11" ry="11" style="stroke:#A80036;stroke-width:1.0;"/><path d="M299.8438,52.6719 C298.9063,52.2344 298.3125,52.0938 297.4375,52.0938 C294.8125,52.0938 292.8125,54.1719 292.8125,56.8906 L292.8125,58.0156 C292.8125,60.5938 294.9219,62.4844 297.8125,62.4844 C299.0313,62.4844 300.1875,62.1875 300.9375,61.6406 C301.5156,61.2344 301.8438,60.7813 301.8438,60.3906 C301.8438,59.9375 301.4531,59.5469 300.9844,59.5469 C300.7656,59.5469 300.5625,59.625 300.375,59.8125 C299.9219,60.2969 299.9219,60.2969 299.7344,60.3906 C299.3125,60.6563 298.625,60.7813 297.8594,60.7813 C295.8125,60.7813 294.5156,59.6875 294.5156,57.9844 L294.5156,56.8906 C294.5156,55.1094 295.7656,53.7969 297.5,53.7969 C298.0781,53.7969 298.6875,53.9531 299.1563,54.2031 C299.6406,54.4844 299.8125,54.7031 299.9063,55.1094 C299.9688,55.5156 300,55.6406 300.1406,55.7656 C300.2813,55.9063 300.5156,56.0156 300.7344,56.0156 C301,56.0156 301.2656,55.875 301.4375,55.6563 C301.5469,55.5 301.5781,55.3125 301.5781,54.8906 L301.5781,53.4688 C301.5781,53.0313 301.5625,52.9063 301.4688,52.75 C301.3125,52.4844 301.0313,52.3438 300.7344,52.3438 C300.4375,52.3438 300.2344,52.4375 300.0156,52.75 L299.8438,52.6719 Z " fill="#000000"/><text fill="#000000" font-family="sans-serif" font-size="12" lengthAdjust="spacing" textLength="105" x="311.5" y="61.1543">NameComparator</text><line style="stroke:#A80036;stroke-width:1.5;" x1="283.5" x2="418.5" y1="73" y2="73"/><line style="stroke:#A80036;stroke-width:1.5;" x1="283.5" x2="418.5" y1="81" y2="81"/><!--MD5=[95d003877b47668d720dc22057dfb216]
class Framework.Queue.Queue--><rect codeLine="4" fill="#FEFECE" filter="url(#f1oj04cdrdywuv)" height="48" id="Framework.Queue.Queue" style="stroke:#A80036;stroke-width:1.5;" width="72" x="32" y="41"/><ellipse cx="47" cy="57" fill="#ADD1B2" rx="11" ry="11" style="stroke:#A80036;stroke-width:1.0;"/><path d="M49.3438,52.6719 C48.4063,52.2344 47.8125,52.0938 46.9375,52.0938 C44.3125,52.0938 42.3125,54.1719 42.3125,56.8906 L42.3125,58.0156 C42.3125,60.5938 44.4219,62.4844 47.3125,62.4844 C48.5313,62.4844 49.6875,62.1875 50.4375,61.6406 C51.0156,61.2344 51.3438,60.7813 51.3438,60.3906 C51.3438,59.9375 50.9531,59.5469 50.4844,59.5469 C50.2656,59.5469 50.0625,59.625 49.875,59.8125 C49.4219,60.2969 49.4219,60.2969 49.2344,60.3906 C48.8125,60.6563 48.125,60.7813 47.3594,60.7813 C45.3125,60.7813 44.0156,59.6875 44.0156,57.9844 L44.0156,56.8906 C44.0156,55.1094 45.2656,53.7969 47,53.7969 C47.5781,53.7969 48.1875,53.9531 48.6563,54.2031 C49.1406,54.4844 49.3125,54.7031 49.4063,55.1094 C49.4688,55.5156 49.5,55.6406 49.6406,55.7656 C49.7813,55.9063 50.0156,56.0156 50.2344,56.0156 C50.5,56.0156 50.7656,55.875 50.9375,55.6563 C51.0469,55.5 51.0781,55.3125 51.0781,54.8906 L51.0781,53.4688 C51.0781,53.0313 51.0625,52.9063 50.9688,52.75 C50.8125,52.4844 50.5313,52.3438 50.2344,52.3438 C49.9375,52.3438 49.7344,52.4375 49.5156,52.75 L49.3438,52.6719 Z " fill="#000000"/><text fill="#000000" font-family="sans-serif" font-size="12" lengthAdjust="spacing" textLength="40" x="61" y="61.1543">Queue</text><line style="stroke:#A80036;stroke-width:1.5;" x1="33" x2="103" y1="73" y2="73"/><line style="stroke:#A80036;stroke-width:1.5;" x1="33" x2="103" y1="81" y2="81"/><!--MD5=[6c01a03fe4ea3f81ee57d45c7eb7bed2]
class Framework.Queue.QueueDemo--><rect codeLine="5" fill="#FEFECE" filter="url(#f1oj04cdrdywuv)" height="48" id="Framework.Queue.QueueDemo" style="stroke:#A80036;stroke-width:1.5;" width="108" x="139" y="41"/><ellipse cx="154" cy="57" fill="#ADD1B2" rx="11" ry="11" style="stroke:#A80036;stroke-width:1.0;"/><path d="M156.3438,52.6719 C155.4063,52.2344 154.8125,52.0938 153.9375,52.0938 C151.3125,52.0938 149.3125,54.1719 149.3125,56.8906 L149.3125,58.0156 C149.3125,60.5938 151.4219,62.4844 154.3125,62.4844 C155.5313,62.4844 156.6875,62.1875 157.4375,61.6406 C158.0156,61.2344 158.3438,60.7813 158.3438,60.3906 C158.3438,59.9375 157.9531,59.5469 157.4844,59.5469 C157.2656,59.5469 157.0625,59.625 156.875,59.8125 C156.4219,60.2969 156.4219,60.2969 156.2344,60.3906 C155.8125,60.6563 155.125,60.7813 154.3594,60.7813 C152.3125,60.7813 151.0156,59.6875 151.0156,57.9844 L151.0156,56.8906 C151.0156,55.1094 152.2656,53.7969 154,53.7969 C154.5781,53.7969 155.1875,53.9531 155.6563,54.2031 C156.1406,54.4844 156.3125,54.7031 156.4063,55.1094 C156.4688,55.5156 156.5,55.6406 156.6406,55.7656 C156.7813,55.9063 157.0156,56.0156 157.2344,56.0156 C157.5,56.0156 157.7656,55.875 157.9375,55.6563 C158.0469,55.5 158.0781,55.3125 158.0781,54.8906 L158.0781,53.4688 C158.0781,53.0313 158.0625,52.9063 157.9688,52.75 C157.8125,52.4844 157.5313,52.3438 157.2344,52.3438 C156.9375,52.3438 156.7344,52.4375 156.5156,52.75 L156.3438,52.6719 Z " fill="#000000"/><text fill="#000000" font-family="sans-serif" font-size="12" lengthAdjust="spacing" textLength="76" x="168" y="61.1543">QueueDemo</text><line style="stroke:#A80036;stroke-width:1.5;" x1="140" x2="246" y1="73" y2="73"/><line style="stroke:#A80036;stroke-width:1.5;" x1="140" x2="246" y1="81" y2="81"/><!--MD5=[3657ed02f8c93016e7aeca244e340a94]
class Framework.Queue.QueueTest--><rect codeLine="6" fill="#FEFECE" filter="url(#f1oj04cdrdywuv)" height="48" id="Framework.Queue.QueueTest" style="stroke:#A80036;stroke-width:1.5;" width="98" x="455" y="41"/><ellipse cx="470" cy="57" fill="#ADD1B2" rx="11" ry="11" style="stroke:#A80036;stroke-width:1.0;"/><path d="M472.3438,52.6719 C471.4063,52.2344 470.8125,52.0938 469.9375,52.0938 C467.3125,52.0938 465.3125,54.1719 465.3125,56.8906 L465.3125,58.0156 C465.3125,60.5938 467.4219,62.4844 470.3125,62.4844 C471.5313,62.4844 472.6875,62.1875 473.4375,61.6406 C474.0156,61.2344 474.3438,60.7813 474.3438,60.3906 C474.3438,59.9375 473.9531,59.5469 473.4844,59.5469 C473.2656,59.5469 473.0625,59.625 472.875,59.8125 C472.4219,60.2969 472.4219,60.2969 472.2344,60.3906 C471.8125,60.6563 471.125,60.7813 470.3594,60.7813 C468.3125,60.7813 467.0156,59.6875 467.0156,57.9844 L467.0156,56.8906 C467.0156,55.1094 468.2656,53.7969 470,53.7969 C470.5781,53.7969 471.1875,53.9531 471.6563,54.2031 C472.1406,54.4844 472.3125,54.7031 472.4063,55.1094 C472.4688,55.5156 472.5,55.6406 472.6406,55.7656 C472.7813,55.9063 473.0156,56.0156 473.2344,56.0156 C473.5,56.0156 473.7656,55.875 473.9375,55.6563 C474.0469,55.5 474.0781,55.3125 474.0781,54.8906 L474.0781,53.4688 C474.0781,53.0313 474.0625,52.9063 473.9688,52.75 C473.8125,52.4844 473.5313,52.3438 473.2344,52.3438 C472.9375,52.3438 472.7344,52.4375 472.5156,52.75 L472.3438,52.6719 Z " fill="#000000"/><text fill="#000000" font-family="sans-serif" font-size="12" lengthAdjust="spacing" textLength="66" x="484" y="61.1543">QueueTest</text><line style="stroke:#A80036;stroke-width:1.5;" x1="456" x2="552" y1="73" y2="73"/><line style="stroke:#A80036;stroke-width:1.5;" x1="456" x2="552" y1="81" y2="81"/><!--MD5=[92bca8d9a5a67d73b01935cf7655cdb1]
class Framework.Queue.Comparator--><rect codeLine="8" fill="#FEFECE" filter="url(#f1oj04cdrdywuv)" height="48" id="Framework.Queue.Comparator" style="stroke:#A80036;stroke-width:1.5;" width="103" x="299.5" y="149"/><ellipse cx="314.5" cy="165" fill="#B4A7E5" rx="11" ry="11" style="stroke:#A80036;stroke-width:1.0;"/><path d="M315.4531,161.7813 L317.1719,161.7813 C317.5625,161.7813 317.75,161.75 317.875,161.6719 C318.1406,161.5156 318.2813,161.2344 318.2813,160.9375 C318.2813,160.6719 318.1719,160.4063 317.9375,160.2344 C317.7656,160.125 317.625,160.0938 317.1719,160.0938 L312.0313,160.0938 C311.5938,160.0938 311.4688,160.1094 311.3125,160.2031 C311.0625,160.3594 310.9063,160.6563 310.9063,160.9375 C310.9063,161.2188 311.0469,161.4688 311.2656,161.6406 C311.4219,161.75 311.6094,161.7813 312.0313,161.7813 L313.75,161.7813 L313.75,168.2969 L312.0313,168.2969 C311.5938,168.2969 311.4688,168.3125 311.3125,168.4219 C311.0625,168.5781 310.9063,168.8594 310.9063,169.1563 C310.9063,169.4063 311.0469,169.6719 311.2656,169.8281 C311.4219,169.9531 311.625,170 312.0313,170 L317.1719,170 C317.9219,170 318.2813,169.7188 318.2813,169.1563 C318.2813,168.875 318.1719,168.625 317.9375,168.4531 C317.7656,168.3281 317.625,168.2969 317.1719,168.2969 L315.4531,168.2969 L315.4531,161.7813 Z " fill="#000000"/><text fill="#000000" font-family="sans-serif" font-size="12" font-style="italic" lengthAdjust="spacing" textLength="71" x="328.5" y="169.1543">Comparator</text><line style="stroke:#A80036;stroke-width:1.5;" x1="300.5" x2="401.5" y1="181" y2="181"/><line style="stroke:#A80036;stroke-width:1.5;" x1="300.5" x2="401.5" y1="189" y2="189"/><!--MD5=[09aac84bc0d9ccc0e566b4cd5dd540a6]
link Framework.Queue.NameComparator to Framework.Queue.Comparator--><path codeLine="9" d="M351,89 C351,100.588 351,115.029 351,128.601 " fill="none" id="Framework.Queue.NameComparator-to-Framework.Queue.Comparator" style="stroke:#A80036;stroke-width:1.0;"/><polygon fill="none" points="358,128.678,351,148.6784,344,128.678,358,128.678" style="stroke:#A80036;stroke-width:1.0;"/><!--MD5=[4376f950b2084958290a3b30965c748a]
link Framework.Queue.Queue to Framework.Queue.AbstractCollection--><path codeLine="10" d="M75.5945,89 C79.5118,100.864 84.4165,115.719 88.9898,129.5692 " fill="none" id="Framework.Queue.Queue-to-Framework.Queue.AbstractCollection" style="stroke:#A80036;stroke-width:1.0;"/><polygon fill="none" points="95.6757,127.492,95.2995,148.6784,82.3816,131.8817,95.6757,127.492" style="stroke:#A80036;stroke-width:1.0;"/><!--MD5=[226c209b53b311986b7b667f3cf10b66]
link Framework.Queue.QueueTest to org.junit.Test--><path codeLine="11" d="M553.182,66.357 C594.819,68.823 654.498,77.644 698,106 C712.399,115.386 723.76,130.8474 731.703,144.4468 " fill="none" id="Framework.Queue.QueueTest-to-org.junit.Test" style="stroke:#A80036;stroke-width:1.0;stroke-dasharray:7.0,7.0;"/><polygon fill="#A80036" points="734.265,148.9759,733.3147,139.173,731.8029,144.6241,726.3518,143.1123,734.265,148.9759" style="stroke:#A80036;stroke-width:1.0;"/><!--MD5=[70d43864d6b20ae71c54fc9fa4944205]
link Framework.Queue.QueueTest to org.junit.Assert--><path codeLine="12" d="M543.862,89.106 C552.331,94.406 561.097,100.197 569,106 C585.48,118.101 602.771,132.9273 616.69,145.4596 " fill="none" id="Framework.Queue.QueueTest-to-org.junit.Assert" style="stroke:#A80036;stroke-width:1.0;stroke-dasharray:7.0,7.0;"/><polygon fill="#A80036" points="620.522,148.9293,616.5345,139.9237,616.8153,145.5736,611.1654,145.8544,620.522,148.9293" style="stroke:#A80036;stroke-width:1.0;"/><!--MD5=[fd83db24bbe54af99177abe140030ec0]
@startuml
annotation org.junit.Test
class Framework.Queue.AbstractCollection
class Framework.Queue.NameComparator
class Framework.Queue.Queue
class Framework.Queue.QueueDemo
class Framework.Queue.QueueTest
class org.junit.Assert
interface Framework.Queue.Comparator
Framework.Queue.NameComparator - -|> Framework.Queue.Comparator
Framework.Queue.Queue - -|> Framework.Queue.AbstractCollection
Framework.Queue.QueueTest ..> org.junit.Test
Framework.Queue.QueueTest ..> org.junit.Assert
@enduml

PlantUML version 1.2021.01beta3(Unknown compile time)
(GPL source distribution)
Java Runtime: Java(TM) SE Runtime Environment
JVM: Java HotSpot(TM) 64-Bit Server VM
Default Encoding: UTF-8
Language: en
Country: US
--></g></svg>