<?xml version="1.0" encoding="UTF-8" standalone="no"?><svg xmlns="http://www.w3.org/2000/svg" xmlns:xlink="http://www.w3.org/1999/xlink" contentScriptType="application/ecmascript" contentStyleType="text/css" height="462px" preserveAspectRatio="none" style="width:398px;height:462px;" version="1.1" viewBox="0 0 398 462" width="398px" zoomAndPan="magnify"><defs/><g><!--MD5=[9536a87e044ce6588050cb9af3778782]
class Coffee--><rect codeLine="3" fill="#FEFECE" height="79.5469" id="Coffee" style="stroke:#A80036;stroke-width:1.5;" width="143" x="149" y="7"/><text fill="#000000" font-family="sans-serif" font-size="12" font-style="italic" lengthAdjust="spacing" textLength="68" x="186.5" y="23.1387">«Interface»</text><text fill="#000000" font-family="sans-serif" font-size="12" font-style="italic" lengthAdjust="spacing" textLength="37" x="202" y="37.1074">Coffee</text><line style="stroke:#A80036;stroke-width:1.5;" x1="150" x2="291" y1="44.9375" y2="44.9375"/><line style="stroke:#A80036;stroke-width:1.5;" x1="150" x2="291" y1="52.9375" y2="52.9375"/><text fill="#000000" font-family="sans-serif" font-size="11" lengthAdjust="spacing" textLength="98" x="155" y="67.1479">getCost(): double</text><text fill="#000000" font-family="sans-serif" font-size="11" lengthAdjust="spacing" textLength="131" x="155" y="79.9526">getIngredients(): String</text><!--MD5=[2c8cddf3de27187ca597a35c31034a8c]
class SimpleCoffe--><rect codeLine="7" fill="#FEFECE" height="65.5781" id="SimpleCoffe" style="stroke:#A80036;stroke-width:1.5;" width="143" x="7" y="148"/><text fill="#000000" font-family="sans-serif" font-size="12" lengthAdjust="spacing" textLength="73" x="42" y="164.1387">SimpleCoffe</text><line style="stroke:#A80036;stroke-width:1.5;" x1="8" x2="149" y1="171.9688" y2="171.9688"/><line style="stroke:#A80036;stroke-width:1.5;" x1="8" x2="149" y1="179.9688" y2="179.9688"/><text fill="#000000" font-family="sans-serif" font-size="11" lengthAdjust="spacing" textLength="98" x="13" y="194.1792">getCost(): double</text><text fill="#000000" font-family="sans-serif" font-size="11" lengthAdjust="spacing" textLength="131" x="13" y="206.9839">getIngredients(): String</text><!--MD5=[708b6a1e6e6589257fabd6ae05edaef6]
class CoffeeDecorator--><rect codeLine="12" fill="#FEFECE" height="79.5469" id="CoffeeDecorator" style="stroke:#A80036;stroke-width:1.5;" width="137" x="222" y="275"/><text fill="#000000" font-family="sans-serif" font-size="12" font-style="italic" lengthAdjust="spacing" textLength="65" x="258" y="291.1387">«Abstract»</text><text fill="#000000" font-family="sans-serif" font-size="12" lengthAdjust="spacing" textLength="101" x="240" y="305.1074">CoffeeDecorator</text><line style="stroke:#A80036;stroke-width:1.5;" x1="223" x2="358" y1="312.9375" y2="312.9375"/><line style="stroke:#A80036;stroke-width:1.5;" x1="223" x2="358" y1="320.9375" y2="320.9375"/><text fill="#000000" font-family="sans-serif" font-size="11" lengthAdjust="spacing" textLength="98" x="228" y="335.1479">getCost(): double</text><text fill="#000000" font-family="sans-serif" font-size="11" lengthAdjust="spacing" textLength="125" x="228" y="347.9526">getIngredient(): String</text><!--MD5=[49086326609f40a736e7cb3ad204911e]
class WithMilk--><rect codeLine="19" fill="#FEFECE" height="39.9688" id="WithMilk" style="stroke:#A80036;stroke-width:1.5;" width="55" x="210" y="416"/><text fill="#000000" font-family="sans-serif" font-size="12" lengthAdjust="spacing" textLength="49" x="213" y="432.1387">WithMilk</text><line style="stroke:#A80036;stroke-width:1.5;" x1="211" x2="264" y1="439.9688" y2="439.9688"/><line style="stroke:#A80036;stroke-width:1.5;" x1="211" x2="264" y1="447.9688" y2="447.9688"/><!--MD5=[f89fd6ed91926110f5e93a845d676691]
class WithSprinkles--><rect codeLine="20" fill="#FEFECE" height="39.9688" id="WithSprinkles" style="stroke:#A80036;stroke-width:1.5;" width="88" x="300.5" y="416"/><text fill="#000000" font-family="sans-serif" font-size="12" lengthAdjust="spacing" textLength="82" x="303.5" y="432.1387">WithSprinkles</text><line style="stroke:#A80036;stroke-width:1.5;" x1="301.5" x2="387.5" y1="439.9688" y2="439.9688"/><line style="stroke:#A80036;stroke-width:1.5;" x1="301.5" x2="387.5" y1="447.9688" y2="447.9688"/><!--MD5=[a34fc4af43e99d72b65f99f34b15ab3f]
reverse link Coffee to SimpleCoffe--><path d="M163.403,101.076 C146.39,116.891 128.269,133.736 113.156,147.784 " fill="none" id="Coffee-backto-SimpleCoffe" style="stroke:#A80036;stroke-width:1.0;stroke-dasharray:7.0,7.0;"/><polygon fill="none" points="158.865,95.737,178.28,87.247,168.397,105.991,158.865,95.737" style="stroke:#A80036;stroke-width:1.0;"/><!--MD5=[f31f3c4e279448c3b418924a773edbe3]
reverse link Coffee to CoffeeDecorator--><path codeLine="16" d="M226.582,107.409 C230.749,139.411 237.392,179.329 247.5,214 C253.53,234.683 262.716,256.775 271.052,274.921 " fill="none" id="Coffee-backto-CoffeeDecorator" style="stroke:#A80036;stroke-width:1.0;stroke-dasharray:7.0,7.0;"/><polygon fill="none" points="219.586,107.866,224.135,87.17,233.485,106.186,219.586,107.866" style="stroke:#A80036;stroke-width:1.0;"/><text fill="#000000" font-family="sans-serif" font-size="13" lengthAdjust="spacing" textLength="69" x="248.5" y="185.5669">implement</text><!--MD5=[574cf09e552fed6ea517bc7e288a4253]
link CoffeeDecorator to Coffee--><path codeLine="17" d="M310.462,274.775 C325.16,240.275 339.833,189.266 322.5,148 C313.304,126.106 296.716,106.599 279.553,90.757 " fill="none" id="CoffeeDecorator-to-Coffee" style="stroke:#A80036;stroke-width:1.0;"/><polygon fill="#A80036" points="275.652,87.226,279.64,96.2313,279.3589,90.5815,285.0087,90.3003,275.652,87.226" style="stroke:#A80036;stroke-width:1.0;"/><text fill="#000000" font-family="sans-serif" font-size="13" lengthAdjust="spacing" textLength="59" x="331.5" y="185.5669">Decorate</text><text fill="#000000" font-family="sans-serif" font-size="13" lengthAdjust="spacing" textLength="8" x="275.4847" y="106.6458">1</text><!--MD5=[a9b64ed8bd3dafd390dd48b8ce301fa4]
reverse link CoffeeDecorator to WithMilk--><path d="M264.765,373.7826 C258.013,388.9422 251.195,404.2505 246.066,415.767 " fill="none" id="CoffeeDecorator-backto-WithMilk" style="stroke:#A80036;stroke-width:1.0;"/><polygon fill="none" points="258.467,370.7168,272.999,355.295,271.256,376.4127,258.467,370.7168" style="stroke:#A80036;stroke-width:1.0;"/><!--MD5=[9af6e02d22f6d618dbfd908c2c5c026b]
reverse link CoffeeDecorator to WithSprinkles--><path d="M316.607,373.5314 C323.523,388.7729 330.518,404.1869 335.772,415.767 " fill="none" id="CoffeeDecorator-backto-WithSprinkles" style="stroke:#A80036;stroke-width:1.0;"/><polygon fill="none" points="310.221,376.4,308.331,355.295,322.97,370.6148,310.221,376.4" style="stroke:#A80036;stroke-width:1.0;"/><!--MD5=[0dd10dbf904ac46003207f99d1ae4af4]
@startuml
skinparam Style strictuml

Interface Coffee <<Interface>>{
    getCost(): double
    getIngredients(): String
}
class SimpleCoffe implements Coffee{
    getCost(): double
    getIngredients(): String
}

class CoffeeDecorator <<Abstract>>{
    getCost(): double
    getIngredient(): String
}
CoffeeDecorator .-up-|> Coffee: implement
CoffeeDecorator - ->  "1" Coffee: Decorate

class WithMilk extends CoffeeDecorator
class WithSprinkles extends CoffeeDecorator
@enduml

PlantUML version 1.2021.01beta3(Unknown compile time)
(GPL source distribution)
Java Runtime: Java(TM) SE Runtime Environment
JVM: Java HotSpot(TM) 64-Bit Server VM
Default Encoding: UTF-8
Language: en
Country: US
--></g></svg>