<?xml version="1.0" encoding="UTF-8" standalone="no"?><svg xmlns="http://www.w3.org/2000/svg" xmlns:xlink="http://www.w3.org/1999/xlink" contentScriptType="application/ecmascript" contentStyleType="text/css" height="399px" preserveAspectRatio="none" style="width:912px;height:399px;" version="1.1" viewBox="0 0 912 399" width="912px" zoomAndPan="magnify"><defs/><g><rect fill="#FFFFFF" height="104.5313" style="stroke:#000000;stroke-width:2.0;" width="896" x="10" y="271.2891"/><line style="stroke:#A80036;stroke-width:1.0;stroke-dasharray:5.0,5.0;" x1="100" x2="100" y1="84.2969" y2="392.8203"/><line style="stroke:#A80036;stroke-width:1.0;stroke-dasharray:5.0,5.0;" x1="414" x2="414" y1="124.9453" y2="392.8203"/><line style="stroke:#A80036;stroke-width:1.0;stroke-dasharray:5.0,5.0;" x1="683" x2="683" y1="195.375" y2="392.8203"/><line style="stroke:#A80036;stroke-width:1.0;stroke-dasharray:5.0,5.0;" x1="847" x2="847" y1="84.2969" y2="392.8203"/><text fill="#000000" font-family="sans-serif" font-size="14" lengthAdjust="spacing" textLength="154" x="20" y="80.9951">IteratorPatternDemo</text><ellipse cx="100" cy="15" fill="#FEFECE" rx="8" ry="8" style="stroke:#A80036;stroke-width:2.0;"/><path d="M100,23 L100,50 M87,31 L113,31 M100,50 L87,65 M100,50 L113,65 " fill="none" style="stroke:#A80036;stroke-width:2.0;"/><rect fill="#FEFECE" height="30.2969" style="stroke:#A80036;stroke-width:1.5;" width="97" x="799" y="53"/><text fill="#000000" font-family="sans-serif" font-size="14" lengthAdjust="spacing" textLength="83" x="806" y="72.9951">System.out</text><polygon fill="#A80036" points="273,111.4297,283,115.4297,273,119.4297" style="stroke:#A80036;stroke-width:1.0;"/><line style="stroke:#A80036;stroke-width:1.0;stroke-dasharray:2.0,2.0;" x1="100" x2="279" y1="115.4297" y2="115.4297"/><text fill="#000000" font-family="sans-serif" font-size="13" lengthAdjust="spacing" textLength="161" x="107" y="110.3638">nameRepository = new()</text><rect fill="#FEFECE" height="30.2969" style="stroke:#A80036;stroke-width:1.5;" width="258" x="285" y="94.2969"/><text fill="#000000" font-family="sans-serif" font-size="14" lengthAdjust="spacing" textLength="244" x="292" y="114.292">nameRepository:NameRepository</text><polygon fill="#A80036" points="402,152.7266,412,156.7266,402,160.7266" style="stroke:#A80036;stroke-width:1.0;"/><line style="stroke:#A80036;stroke-width:1.0;" x1="100" x2="408" y1="156.7266" y2="156.7266"/><text fill="#000000" font-family="sans-serif" font-size="13" lengthAdjust="spacing" textLength="78" x="107" y="151.6606">getIterator()</text><polygon fill="#A80036" points="565,181.8594,575,185.8594,565,189.8594" style="stroke:#A80036;stroke-width:1.0;"/><line style="stroke:#A80036;stroke-width:1.0;stroke-dasharray:2.0,2.0;" x1="414" x2="571" y1="185.8594" y2="185.8594"/><text fill="#000000" font-family="sans-serif" font-size="13" lengthAdjust="spacing" textLength="139" x="421" y="180.7935">nameIterator = new()</text><rect fill="#FEFECE" height="30.2969" style="stroke:#A80036;stroke-width:1.5;" width="212" x="577" y="164.7266"/><text fill="#000000" font-family="sans-serif" font-size="14" lengthAdjust="spacing" textLength="198" x="584" y="184.7217">nameIterator:NameIterator</text><polygon fill="#A80036" points="111,223.1563,101,227.1563,111,231.1563" style="stroke:#A80036;stroke-width:1.0;"/><line style="stroke:#A80036;stroke-width:1.0;stroke-dasharray:2.0,2.0;" x1="105" x2="413" y1="227.1563" y2="227.1563"/><text fill="#000000" font-family="sans-serif" font-size="13" lengthAdjust="spacing" textLength="84" x="117" y="222.0903">nameIterator</text><polygon fill="#A80036" points="671,252.2891,681,256.2891,671,260.2891" style="stroke:#A80036;stroke-width:1.0;"/><line style="stroke:#A80036;stroke-width:1.0;" x1="100" x2="677" y1="256.2891" y2="256.2891"/><text fill="#000000" font-family="sans-serif" font-size="13" lengthAdjust="spacing" textLength="134" x="107" y="251.2231">hasNext = hasNext()</text><path d="M10,271.2891 L88,271.2891 L88,278.2891 L78,288.2891 L10,288.2891 L10,271.2891 " fill="#EEEEEE" style="stroke:#000000;stroke-width:1.0;"/><rect fill="none" height="104.5313" style="stroke:#000000;stroke-width:2.0;" width="896" x="10" y="271.2891"/><text fill="#000000" font-family="sans-serif" font-size="13" font-weight="bold" lengthAdjust="spacing" textLength="33" x="25" y="284.356">loop</text><text fill="#000000" font-family="sans-serif" font-size="11" font-weight="bold" lengthAdjust="spacing" textLength="64" x="103" y="283.4995">[hasNext]</text><polygon fill="#A80036" points="671,305.5547,681,309.5547,671,313.5547" style="stroke:#A80036;stroke-width:1.0;"/><line style="stroke:#A80036;stroke-width:1.0;" x1="100" x2="677" y1="309.5547" y2="309.5547"/><text fill="#000000" font-family="sans-serif" font-size="13" lengthAdjust="spacing" textLength="132" x="107" y="304.4888">currentItem = next()</text><polygon fill="#A80036" points="835.5,334.6875,845.5,338.6875,835.5,342.6875" style="stroke:#A80036;stroke-width:1.0;"/><line style="stroke:#A80036;stroke-width:1.0;" x1="100" x2="841.5" y1="338.6875" y2="338.6875"/><text fill="#000000" font-family="sans-serif" font-size="13" lengthAdjust="spacing" textLength="125" x="107" y="333.6216">println(currentItem)</text><polygon fill="#A80036" points="671,363.8203,681,367.8203,671,371.8203" style="stroke:#A80036;stroke-width:1.0;"/><line style="stroke:#A80036;stroke-width:1.0;" x1="100" x2="677" y1="367.8203" y2="367.8203"/><text fill="#000000" font-family="sans-serif" font-size="13" lengthAdjust="spacing" textLength="134" x="107" y="362.7544">hasNext = hasNext()</text><!--MD5=[37f4fc3e974430a3d09248718e9eb424]
@startuml
skinparam style strictuml

actor IteratorPatternDemo

participant "nameRepository:NameRepository" as NameRepository
participant "nameIterator:NameIterator" as NameIterator
participant "System.out" as System

IteratorPatternDemo - -> NameRepository ** : nameRepository = new()
IteratorPatternDemo -> NameRepository : getIterator()
NameRepository - -> NameIterator ** : nameIterator = new()
NameRepository - -> IteratorPatternDemo : nameIterator
IteratorPatternDemo -> NameIterator : hasNext = hasNext()
    loop hasNext
        IteratorPatternDemo -> NameIterator : currentItem = next()
        IteratorPatternDemo -> System : println(currentItem)
        IteratorPatternDemo -> NameIterator : hasNext = hasNext()
    end
@enduml

PlantUML version 1.2021.01beta3(Unknown compile time)
(GPL source distribution)
Java Runtime: Java(TM) SE Runtime Environment
JVM: Java HotSpot(TM) 64-Bit Server VM
Default Encoding: UTF-8
Language: en
Country: US
--></g></svg>