<?xml version="1.0" encoding="UTF-8" standalone="no"?><svg xmlns="http://www.w3.org/2000/svg" xmlns:xlink="http://www.w3.org/1999/xlink" contentScriptType="application/ecmascript" contentStyleType="text/css" height="220px" preserveAspectRatio="none" style="width:519px;height:220px;background:#FFFFFF;" version="1.1" viewBox="0 0 519 220" width="519px" zoomAndPan="magnify"><defs/><g><!--MD5=[e9a58730c562b34349daa605d1ed6662]
class Container--><rect codeLine="2" fill="#FEFECE" height="66.7422" id="Container" style="stroke:#A80036;stroke-width:1.5;" width="128" x="384.5" y="13.5"/><text fill="#000000" font-family="sans-serif" font-size="12" font-style="italic" lengthAdjust="spacing" textLength="68" x="414.5" y="29.6387">«Interface»</text><text fill="#000000" font-family="sans-serif" font-size="12" font-style="italic" lengthAdjust="spacing" textLength="58" x="419.5" y="43.6074">Container</text><line style="stroke:#A80036;stroke-width:1.5;" x1="385.5" x2="511.5" y1="51.4375" y2="51.4375"/><line style="stroke:#A80036;stroke-width:1.5;" x1="385.5" x2="511.5" y1="59.4375" y2="59.4375"/><text fill="#000000" font-family="sans-serif" font-size="11" lengthAdjust="spacing" textLength="116" x="390.5" y="73.6479">getIterator(): Iterator</text><!--MD5=[023ecf6702e3ca2ce47ae747eafb20f1]
class Iterator--><rect codeLine="5" fill="#FEFECE" height="79.5469" id="Iterator" style="stroke:#A80036;stroke-width:1.5;" width="113" x="7" y="7"/><text fill="#000000" font-family="sans-serif" font-size="12" font-style="italic" lengthAdjust="spacing" textLength="68" x="29.5" y="23.1387">«Interface»</text><text fill="#000000" font-family="sans-serif" font-size="12" font-style="italic" lengthAdjust="spacing" textLength="45" x="41" y="37.1074">Iterator</text><line style="stroke:#A80036;stroke-width:1.5;" x1="8" x2="119" y1="44.9375" y2="44.9375"/><line style="stroke:#A80036;stroke-width:1.5;" x1="8" x2="119" y1="52.9375" y2="52.9375"/><text fill="#000000" font-family="sans-serif" font-size="11" lengthAdjust="spacing" textLength="101" x="13" y="67.1479">hasNext(): boolen</text><text fill="#000000" font-family="sans-serif" font-size="11" lengthAdjust="spacing" textLength="78" x="13" y="79.9526">next(): Object</text><!--MD5=[33c791a20d5bf5fb45a9638694790210]
class NameRepository--><rect codeLine="19" fill="#FEFECE" height="65.5781" id="NameRepository" style="stroke:#A80036;stroke-width:1.5;" width="128" x="325.5" y="148"/><text fill="#000000" font-family="sans-serif" font-size="12" lengthAdjust="spacing" textLength="99" x="340" y="164.1387">NameRepository</text><line style="stroke:#A80036;stroke-width:1.5;" x1="326.5" x2="452.5" y1="171.9688" y2="171.9688"/><text fill="#000000" font-family="sans-serif" font-size="11" lengthAdjust="spacing" textLength="81" x="331.5" y="186.1792">name: String[]</text><line style="stroke:#A80036;stroke-width:1.5;" x1="326.5" x2="452.5" y1="192.7734" y2="192.7734"/><text fill="#000000" font-family="sans-serif" font-size="11" lengthAdjust="spacing" textLength="116" x="331.5" y="206.9839">getIterator(): Iterator</text><!--MD5=[45f3a386b4779c72620b82d5ff8fc702]
class NameIterator--><rect codeLine="20" fill="#FEFECE" height="65.5781" id="NameIterator" style="stroke:#A80036;stroke-width:1.5;" width="120" x="100.5" y="148"/><text fill="#000000" font-family="sans-serif" font-size="12" lengthAdjust="spacing" textLength="78" x="121.5" y="164.1387">NameIterator</text><line style="stroke:#A80036;stroke-width:1.5;" x1="101.5" x2="219.5" y1="171.9688" y2="171.9688"/><line style="stroke:#A80036;stroke-width:1.5;" x1="101.5" x2="219.5" y1="179.9688" y2="179.9688"/><text fill="#000000" font-family="sans-serif" font-size="11" lengthAdjust="spacing" textLength="108" x="106.5" y="194.1792">hasNext(): boolean</text><text fill="#000000" font-family="sans-serif" font-size="11" lengthAdjust="spacing" textLength="78" x="106.5" y="206.9839">next(): Object</text><!--MD5=[4ba6af25f82631830bd3d242f6f3c22c]
class NameRepositoryTest--><rect codeLine="17" fill="#FEFECE" height="39.9688" id="NameRepositoryTest" style="stroke:#A80036;stroke-width:1.5;" width="131" x="187" y="27"/><text fill="#000000" font-family="sans-serif" font-size="12" lengthAdjust="spacing" textLength="125" x="190" y="43.1387">NameRepositoryTest</text><line style="stroke:#A80036;stroke-width:1.5;" x1="188" x2="317" y1="50.9688" y2="50.9688"/><line style="stroke:#A80036;stroke-width:1.5;" x1="188" x2="317" y1="58.9688" y2="58.9688"/><!--MD5=[4ee24f95a474c7f6e6e8a2a02489b86b]
reverse link Container to NameRepository--><path d="M425.7,99.011 C418.374,115.4002 410.467,133.0915 403.917,147.7461 " fill="none" id="Container-backto-NameRepository" style="stroke:#A80036;stroke-width:1.0;stroke-dasharray:7.0,7.0;"/><polygon fill="none" points="419.364,96.032,433.916,80.629,432.145,101.745,419.364,96.032" style="stroke:#A80036;stroke-width:1.0;"/><!--MD5=[760336e7b55096e98dac4ddaf5f0b4bd]
reverse link Iterator to NameIterator--><path d="M104.4561,103.734 C115.5,118.7631 127.079,134.5201 136.826,147.7844 " fill="none" id="Iterator-backto-NameIterator" style="stroke:#A80036;stroke-width:1.0;stroke-dasharray:7.0,7.0;"/><polygon fill="none" points="98.543,107.509,92.3406,87.247,109.825,99.218,98.543,107.509" style="stroke:#A80036;stroke-width:1.0;"/><!--MD5=[d8e2238be885d478e83e1508b22dc483]
reverse link NameIterator to NameRepository--><path codeLine="22" d="M226.015,181 C257.187,181 294.328,181 325.325,181 " fill="none" id="NameIterator-backto-NameRepository" style="stroke:#A80036;stroke-width:1.0;stroke-dasharray:7.0,7.0;"/><polygon fill="#A80036" points="220.667,181,229.667,185,225.667,181,229.667,177,220.667,181" style="stroke:#A80036;stroke-width:1.0;"/><text fill="#000000" font-family="sans-serif" font-size="13" lengthAdjust="spacing" textLength="68" x="239" y="174.0669">depend on</text><!--MD5=[05cdfd72490ae84a80e810136f79ad3a]
link NameIterator to NameRepository--><path codeLine="23" d="M220.918,196.6617 C229.94,198.4602 239.174,200.0041 248,201 C270.082,203.4915 275.906,203.3864 298,201 C305.224,200.2197 312.715,199.1023 320.158,197.7894 " fill="none" id="NameIterator-to-NameRepository" style="stroke:#A80036;stroke-width:1.0;"/><polygon fill="#A80036" points="325.3,196.851,315.7283,194.5308,320.3811,197.7482,317.1638,202.401,325.3,196.851" style="stroke:#A80036;stroke-width:1.0;"/><text fill="#000000" font-family="sans-serif" font-size="13" lengthAdjust="spacing" textLength="48" x="249" y="197.0669">internal</text><!--MD5=[ffb3fa21fa2f6c3d735cbd18316444ec]
reverse link Iterator to NameRepositoryTest--><path codeLine="24" d="M125.428,47 C145.108,47 166.935,47 186.867,47 " fill="none" id="Iterator-backto-NameRepositoryTest" style="stroke:#A80036;stroke-width:1.0;"/><polygon fill="#A80036" points="120.206,47,129.206,51,125.206,47,129.206,43,120.206,47" style="stroke:#A80036;stroke-width:1.0;"/><text fill="#000000" font-family="sans-serif" font-size="13" lengthAdjust="spacing" textLength="30" x="138.5" y="40.0669">uses</text><!--MD5=[3b3f086c2294ea67ca2205c2b2553aa9]
link NameRepositoryTest to Container--><path codeLine="25" d="M318.038,47 C337.735,47 359.406,47 379.33,47 " fill="none" id="NameRepositoryTest-to-Container" style="stroke:#A80036;stroke-width:1.0;"/><polygon fill="#A80036" points="384.356,47,375.356,43,379.356,47,375.356,51,384.356,47" style="stroke:#A80036;stroke-width:1.0;"/><text fill="#000000" font-family="sans-serif" font-size="13" lengthAdjust="spacing" textLength="30" x="336.25" y="40.0669">uses</text><!--MD5=[992784b2ae2126b4deb9a334bf08edc2]
@startuml
skinparam style strictuml
interface Container <<Interface>> {
  getIterator(): Iterator
}
interface Iterator <<Interface>> {
  hasNext(): boolen
  next(): Object
}
class NameRepository{
  name: String[]
  getIterator(): Iterator
}
class NameIterator{
  hasNext(): boolean
  next(): Object
}
class NameRepositoryTest{
}
class NameRepository implements Container 
class NameIterator implements Iterator  

NameRepository .left-> NameIterator : depend on
NameRepository <-left- NameIterator : internal
NameRepositoryTest -left-> Iterator : uses
Container <-left- NameRepositoryTest : uses
@enduml

PlantUML version 1.2021.7beta4(Unknown compile time)
(GPL source distribution)
Java Runtime: Java(TM) SE Runtime Environment
JVM: Java HotSpot(TM) 64-Bit Server VM
Default Encoding: UTF-8
Language: en
Country: US
--></g></svg>