<?xml version="1.0" encoding="UTF-8" standalone="no"?><svg xmlns="http://www.w3.org/2000/svg" xmlns:xlink="http://www.w3.org/1999/xlink" contentScriptType="application/ecmascript" contentStyleType="text/css" height="513px" preserveAspectRatio="none" style="width:923px;height:513px;background:#FFFFFF;" version="1.1" viewBox="0 0 923 513" width="923px" zoomAndPan="magnify"><defs/><g><!--MD5=[e9a58730c562b34349daa605d1ed6662]
class Container--><rect codeLine="2" fill="#FEFECE" height="66.7422" id="Container" style="stroke:#A80036;stroke-width:1.5;" width="128" x="508" y="13.5"/><text fill="#000000" font-family="sans-serif" font-size="12" font-style="italic" lengthAdjust="spacing" textLength="68" x="538" y="29.6387">«Interface»</text><text fill="#000000" font-family="sans-serif" font-size="12" font-style="italic" lengthAdjust="spacing" textLength="58" x="543" y="43.6074">Container</text><line style="stroke:#A80036;stroke-width:1.5;" x1="509" x2="635" y1="51.4375" y2="51.4375"/><line style="stroke:#A80036;stroke-width:1.5;" x1="509" x2="635" y1="59.4375" y2="59.4375"/><text fill="#000000" font-family="sans-serif" font-size="11" lengthAdjust="spacing" textLength="116" x="514" y="73.6479">getIterator(): Iterator</text><!--MD5=[023ecf6702e3ca2ce47ae747eafb20f1]
class Iterator--><rect codeLine="5" fill="#FEFECE" height="79.5469" id="Iterator" style="stroke:#A80036;stroke-width:1.5;" width="113" x="130.5" y="7"/><text fill="#000000" font-family="sans-serif" font-size="12" font-style="italic" lengthAdjust="spacing" textLength="68" x="153" y="23.1387">«Interface»</text><text fill="#000000" font-family="sans-serif" font-size="12" font-style="italic" lengthAdjust="spacing" textLength="45" x="164.5" y="37.1074">Iterator</text><line style="stroke:#A80036;stroke-width:1.5;" x1="131.5" x2="242.5" y1="44.9375" y2="44.9375"/><line style="stroke:#A80036;stroke-width:1.5;" x1="131.5" x2="242.5" y1="52.9375" y2="52.9375"/><text fill="#000000" font-family="sans-serif" font-size="11" lengthAdjust="spacing" textLength="101" x="136.5" y="67.1479">hasNext(): boolen</text><text fill="#000000" font-family="sans-serif" font-size="11" lengthAdjust="spacing" textLength="78" x="136.5" y="79.9526">next(): Object</text><!--MD5=[33c791a20d5bf5fb45a9638694790210]
class NameRepository--><rect codeLine="42" fill="#FEFECE" height="105.1563" id="NameRepository" style="stroke:#A80036;stroke-width:1.5;" width="240" x="414" y="148"/><text fill="#000000" font-family="sans-serif" font-size="12" font-style="italic" lengthAdjust="spacing" textLength="114" x="477" y="164.1387">«ConcreteSubject»</text><text fill="#000000" font-family="sans-serif" font-size="12" lengthAdjust="spacing" textLength="99" x="484.5" y="178.1074">NameRepository</text><line style="stroke:#A80036;stroke-width:1.5;" x1="415" x2="653" y1="185.9375" y2="185.9375"/><text fill="#000000" font-family="sans-serif" font-size="11" lengthAdjust="spacing" textLength="81" x="420" y="200.1479">name: String[]</text><line style="stroke:#A80036;stroke-width:1.5;" x1="415" x2="653" y1="206.7422" y2="206.7422"/><text fill="#000000" font-family="sans-serif" font-size="11" lengthAdjust="spacing" textLength="116" x="434" y="220.9526">getIterator(): Iterator</text><text fill="#000000" font-family="sans-serif" font-size="11" lengthAdjust="spacing" textLength="214" x="434" y="233.7573">setSortStrategy(strategy:Comparator)</text><rect fill="#F24D5C" height="6" style="stroke:#C82930;stroke-width:1.0;" width="6" x="422" y="240.3516"/><text fill="#000000" font-family="sans-serif" font-size="11" lengthAdjust="spacing" textLength="159" x="434" y="246.562">getNames() : Array&lt;String&gt;</text><!--MD5=[4a297d7cc079299fc3e58f4cc0874618]
class IObservable--><rect codeLine="16" fill="#008000" height="92.3516" id="IObservable" style="stroke:#A80036;stroke-width:1.5;" width="148" x="175" y="314"/><text fill="#000000" font-family="sans-serif" font-size="12" font-style="italic" lengthAdjust="spacing" textLength="43" x="227.5" y="330.1387">«sujet»</text><text fill="#000000" font-family="sans-serif" font-size="12" lengthAdjust="spacing" textLength="74" x="212" y="344.1074">IObservable</text><line style="stroke:#A80036;stroke-width:1.5;" x1="176" x2="322" y1="351.9375" y2="351.9375"/><line style="stroke:#A80036;stroke-width:1.5;" x1="176" x2="322" y1="359.9375" y2="359.9375"/><text fill="#000000" font-family="sans-serif" font-size="11" lengthAdjust="spacing" textLength="136" x="181" y="374.1479">add(observer:Observer)</text><text fill="#000000" font-family="sans-serif" font-size="11" lengthAdjust="spacing" textLength="57" x="181" y="386.9526">notifyAll();</text><text fill="#000000" font-family="sans-serif" font-size="11" lengthAdjust="spacing" textLength="126" x="181" y="399.7573">notifyAll(name:String);</text><!--MD5=[1dcf94be89f1d1c6c4f8f797da90f5fa]
class IObserver--><rect codeLine="21" fill="#008000" height="65.5781" id="IObserver" style="stroke:#A80036;stroke-width:1.5;" width="129" x="396.5" y="327"/><text fill="#000000" font-family="sans-serif" font-size="12" lengthAdjust="spacing" textLength="61" x="430.5" y="343.1387">IObserver</text><line style="stroke:#A80036;stroke-width:1.5;" x1="397.5" x2="524.5" y1="350.9688" y2="350.9688"/><line style="stroke:#A80036;stroke-width:1.5;" x1="397.5" x2="524.5" y1="358.9688" y2="358.9688"/><text fill="#000000" font-family="sans-serif" font-size="11" lengthAdjust="spacing" textLength="48" x="402.5" y="373.1792">update()</text><text fill="#000000" font-family="sans-serif" font-size="11" lengthAdjust="spacing" textLength="117" x="402.5" y="385.9839">update(name:String)</text><!--MD5=[bfbc09f118ac649fa938666fcb82962a]
class Comparator--><rect codeLine="27" fill="#008000" height="52.7734" id="Comparator" style="stroke:#A80036;stroke-width:1.5;" width="198" x="714" y="174"/><text fill="#000000" font-family="sans-serif" font-size="12" font-style="italic" lengthAdjust="spacing" textLength="71" x="757" y="190.1387">Comparator</text><rect fill="#008000" height="15.9688" style="stroke:#000000;stroke-width:1.0;stroke-dasharray:2.0,2.0;" width="39" x="876" y="171"/><text fill="#000000" font-family="sans-serif" font-size="12" font-style="italic" lengthAdjust="spacing" textLength="37" x="877" y="183.1387">String</text><line style="stroke:#A80036;stroke-width:1.5;" x1="715" x2="911" y1="197.9688" y2="197.9688"/><line style="stroke:#A80036;stroke-width:1.5;" x1="715" x2="911" y1="205.9688" y2="205.9688"/><text fill="#000000" font-family="sans-serif" font-size="11" lengthAdjust="spacing" textLength="186" x="720" y="220.1792">compare(o1:String, o2:String): int</text><!--MD5=[8cf6dfa1c471dfe9028813eb29a1495f]
class NameComparateur--><rect codeLine="31" fill="#008000" height="52.7734" id="NameComparateur" style="stroke:#A80036;stroke-width:1.5;" width="198" x="714" y="333.5"/><text fill="#000000" font-family="sans-serif" font-size="12" lengthAdjust="spacing" textLength="112" x="757" y="349.6387">NameComparateur</text><line style="stroke:#A80036;stroke-width:1.5;" x1="715" x2="911" y1="357.4688" y2="357.4688"/><line style="stroke:#A80036;stroke-width:1.5;" x1="715" x2="911" y1="365.4688" y2="365.4688"/><text fill="#000000" font-family="sans-serif" font-size="11" lengthAdjust="spacing" textLength="186" x="720" y="379.6792">compare(o1:String, o2:String): int</text><!--MD5=[45f3a386b4779c72620b82d5ff8fc702]
class NameIterator--><rect codeLine="43" fill="#FEFECE" height="65.5781" id="NameIterator" style="stroke:#A80036;stroke-width:1.5;" width="120" x="189" y="167.5"/><text fill="#000000" font-family="sans-serif" font-size="12" lengthAdjust="spacing" textLength="78" x="210" y="183.6387">NameIterator</text><line style="stroke:#A80036;stroke-width:1.5;" x1="190" x2="308" y1="191.4688" y2="191.4688"/><line style="stroke:#A80036;stroke-width:1.5;" x1="190" x2="308" y1="199.4688" y2="199.4688"/><text fill="#000000" font-family="sans-serif" font-size="11" lengthAdjust="spacing" textLength="108" x="195" y="213.6792">hasNext(): boolean</text><text fill="#000000" font-family="sans-serif" font-size="11" lengthAdjust="spacing" textLength="78" x="195" y="226.4839">next(): Object</text><path d="M6,157.5 L6,243.1641 L154,243.1641 L154,167.5 L144,157.5 L6,157.5 " fill="#FBFB77" style="stroke:#A80036;stroke-width:1.0;"/><path d="M144,157.5 L144,167.5 L154,167.5 L144,157.5 " fill="#FBFB77" style="stroke:#A80036;stroke-width:1.0;"/><text fill="#000000" font-family="sans-serif" font-size="13" lengthAdjust="spacing" textLength="127" x="12" y="174.5669">while(it.hasNext()){</text><text fill="#000000" font-family="sans-serif" font-size="13" lengthAdjust="spacing" textLength="106" x="24" y="189.6997">name = it.next()</text><text fill="#000000" font-family="sans-serif" font-size="13" lengthAdjust="spacing" textLength="104" x="24" y="204.8325">notifyAll(name);</text><text fill="#000000" font-family="sans-serif" font-size="13" lengthAdjust="spacing" textLength="67" x="24" y="219.9653">notifyAll();</text><text fill="#000000" font-family="sans-serif" font-size="13" lengthAdjust="spacing" textLength="9" x="12" y="235.0981">}</text><!--MD5=[4ba6af25f82631830bd3d242f6f3c22c]
class NameRepositoryTest--><rect codeLine="40" fill="#FEFECE" height="39.9688" id="NameRepositoryTest" style="stroke:#A80036;stroke-width:1.5;" width="131" x="310.5" y="27"/><text fill="#000000" font-family="sans-serif" font-size="12" lengthAdjust="spacing" textLength="125" x="313.5" y="43.1387">NameRepositoryTest</text><line style="stroke:#A80036;stroke-width:1.5;" x1="311.5" x2="440.5" y1="50.9688" y2="50.9688"/><line style="stroke:#A80036;stroke-width:1.5;" x1="311.5" x2="440.5" y1="58.9688" y2="58.9688"/><!--MD5=[43969487ea1dfc5ce17836c3b9f27942]
class ExternalObserver1--><rect codeLine="44" fill="#FEFECE" height="39.9688" id="ExternalObserver1" style="stroke:#A80036;stroke-width:1.5;" width="119" x="324.5" y="467"/><text fill="#000000" font-family="sans-serif" font-size="12" lengthAdjust="spacing" textLength="113" x="327.5" y="483.1387">ExternalObserver1</text><line style="stroke:#A80036;stroke-width:1.5;" x1="325.5" x2="442.5" y1="490.9688" y2="490.9688"/><line style="stroke:#A80036;stroke-width:1.5;" x1="325.5" x2="442.5" y1="498.9688" y2="498.9688"/><!--MD5=[802a9d2e8ecb9e295879a0e7c5d57721]
class ExternalObserver2--><rect codeLine="45" fill="#FEFECE" height="39.9688" id="ExternalObserver2" style="stroke:#A80036;stroke-width:1.5;" width="120" x="479" y="467"/><text fill="#000000" font-family="sans-serif" font-size="12" lengthAdjust="spacing" textLength="114" x="482" y="483.1387">ExternalObserver2</text><line style="stroke:#A80036;stroke-width:1.5;" x1="480" x2="598" y1="490.9688" y2="490.9688"/><line style="stroke:#A80036;stroke-width:1.5;" x1="480" x2="598" y1="498.9688" y2="498.9688"/><!--MD5=[51a9e67dd1908b2d5d5fb039c0c1ef50]
reverse link Comparator to NameComparateur--><path d="M813,247.379 C813,275.378 813,310.134 813,333.355 " fill="none" id="Comparator-backto-NameComparateur" style="stroke:#A80036;stroke-width:1.0;stroke-dasharray:7.0,7.0;"/><polygon fill="none" points="806,247.156,813,227.156,820,247.156,806,247.156" style="stroke:#A80036;stroke-width:1.0;"/><!--MD5=[f1618f06c4a87e7230e62b746753b594]
link GMN214563 to NameIterator--><path d="M154.268,200.5 C165.739,200.5 177.211,200.5 188.682,200.5 " fill="none" id="GMN214563-NameIterator" style="stroke:#A80036;stroke-width:1.0;stroke-dasharray:7.0,7.0;"/><!--MD5=[4ee24f95a474c7f6e6e8a2a02489b86b]
reverse link Container to NameRepository--><path d="M558.933,100.096 C555.049,115.582 550.797,132.534 546.922,147.983 " fill="none" id="Container-backto-NameRepository" style="stroke:#A80036;stroke-width:1.0;stroke-dasharray:7.0,7.0;"/><polygon fill="none" points="552.193,98.197,563.848,80.501,565.772,101.603,552.193,98.197" style="stroke:#A80036;stroke-width:1.0;"/><!--MD5=[760336e7b55096e98dac4ddaf5f0b4bd]
reverse link Iterator to NameIterator--><path d="M210.652,105.796 C219.179,126.631 228.493,149.39 235.806,167.261 " fill="none" id="Iterator-backto-NameIterator" style="stroke:#A80036;stroke-width:1.0;stroke-dasharray:7.0,7.0;"/><polygon fill="none" points="204.063,108.176,202.967,87.015,217.02,102.874,204.063,108.176" style="stroke:#A80036;stroke-width:1.0;"/><!--MD5=[d03a680a0c6e67fc8a0575853ae5d426]
reverse link IObserver to ExternalObserver1--><path d="M430.662,410.2492 C418.469,430.0446 405.13,451.6989 395.848,466.7662 " fill="none" id="IObserver-backto-ExternalObserver1" style="stroke:#A80036;stroke-width:1.0;stroke-dasharray:7.0,7.0;"/><polygon fill="none" points="424.721,406.548,441.171,393.191,436.641,413.8905,424.721,406.548" style="stroke:#A80036;stroke-width:1.0;"/><!--MD5=[9a9d3a63305879152d8156d1a6eaa849]
reverse link IObserver to ExternalObserver2--><path d="M491.732,410.2492 C504.084,430.0446 517.596,451.6989 526.998,466.7662 " fill="none" id="IObserver-backto-ExternalObserver2" style="stroke:#A80036;stroke-width:1.0;stroke-dasharray:7.0,7.0;"/><polygon fill="none" points="485.736,413.8639,481.087,393.191,497.613,406.452,485.736,413.8639" style="stroke:#A80036;stroke-width:1.0;"/><!--MD5=[66f88a64933925cb75c699ab3ff12294]
link NameIterator to IObservable--><path codeLine="48" d="M249,233.753 C249,251.1 249,273.136 249,293.873 " fill="none" id="NameIterator-to-IObservable" style="stroke:#A80036;stroke-width:1.0;stroke-dasharray:7.0,7.0;"/><polygon fill="none" points="256,293.955,249,313.955,242,293.955,256,293.955" style="stroke:#A80036;stroke-width:1.0;"/><!--MD5=[b3b01454d70ec83493d4614b93aa068e]
reverse link IObserver to IObservable--><path codeLine="49" d="M391.221,360 C369.402,360 345.256,360 323.147,360 " fill="none" id="IObserver-backto-IObservable" style="stroke:#A80036;stroke-width:1.0;"/><polygon fill="#A80036" points="396.421,360,387.421,356,391.421,360,387.421,364,396.421,360" style="stroke:#A80036;stroke-width:1.0;"/><text fill="#000000" font-family="sans-serif" font-size="13" lengthAdjust="spacing" textLength="37" x="341.25" y="353.0669">notify</text><text fill="#000000" font-family="sans-serif" font-size="13" lengthAdjust="spacing" textLength="7" x="381.5494" y="356.2318">*</text><text fill="#000000" font-family="sans-serif" font-size="13" lengthAdjust="spacing" textLength="8" x="331.2059" y="356.2822">1</text><!--MD5=[47e270cc9cf76673a966b4687df25c72]
link NameRepository to Comparator--><path codeLine="50" d="M654.345,200.5 C672.255,200.5 690.595,200.5 708.152,200.5 " fill="none" id="NameRepository-to-Comparator" style="stroke:#A80036;stroke-width:1.0;"/><polygon fill="#A80036" points="713.575,200.5,704.575,196.5,708.575,200.5,704.575,204.5,713.575,200.5" style="stroke:#A80036;stroke-width:1.0;"/><text fill="#000000" font-family="sans-serif" font-size="13" lengthAdjust="spacing" textLength="23" x="672.5" y="193.5669">use</text><!--MD5=[d8e2238be885d478e83e1508b22dc483]
reverse link NameIterator to NameRepository--><path codeLine="51" d="M314.157,200.5 C343.713,200.5 379.638,200.5 413.808,200.5 " fill="none" id="NameIterator-backto-NameRepository" style="stroke:#A80036;stroke-width:1.0;stroke-dasharray:7.0,7.0;"/><polygon fill="#A80036" points="309.093,200.5,318.093,204.5,314.093,200.5,318.093,196.5,309.093,200.5" style="stroke:#A80036;stroke-width:1.0;"/><text fill="#000000" font-family="sans-serif" font-size="13" lengthAdjust="spacing" textLength="68" x="327.5" y="193.5669">depend on</text><!--MD5=[05cdfd72490ae84a80e810136f79ad3a]
link NameIterator to NameRepository--><path codeLine="52" d="M309.418,216.162 C318.44,217.96 327.674,219.504 336.5,220.5 C359.84,223.133 384.75,222.947 408.74,221.256 " fill="none" id="NameIterator-to-NameRepository" style="stroke:#A80036;stroke-width:1.0;"/><polygon fill="#A80036" points="413.844,220.873,404.5698,217.558,408.858,221.2473,405.1687,225.5355,413.844,220.873" style="stroke:#A80036;stroke-width:1.0;"/><text fill="#000000" font-family="sans-serif" font-size="13" lengthAdjust="spacing" textLength="48" x="337.5" y="216.5669">internal</text><!--MD5=[ffb3fa21fa2f6c3d735cbd18316444ec]
reverse link Iterator to NameRepositoryTest--><path codeLine="53" d="M248.928,47 C268.608,47 290.435,47 310.367,47 " fill="none" id="Iterator-backto-NameRepositoryTest" style="stroke:#A80036;stroke-width:1.0;"/><polygon fill="#A80036" points="243.706,47,252.706,51,248.706,47,252.706,43,243.706,47" style="stroke:#A80036;stroke-width:1.0;"/><text fill="#000000" font-family="sans-serif" font-size="13" lengthAdjust="spacing" textLength="30" x="262" y="40.0669">uses</text><!--MD5=[3b3f086c2294ea67ca2205c2b2553aa9]
link NameRepositoryTest to Container--><path codeLine="54" d="M441.538,47 C461.235,47 482.906,47 502.83,47 " fill="none" id="NameRepositoryTest-to-Container" style="stroke:#A80036;stroke-width:1.0;"/><polygon fill="#A80036" points="507.856,47,498.856,43,502.856,47,498.856,51,507.856,47" style="stroke:#A80036;stroke-width:1.0;"/><text fill="#000000" font-family="sans-serif" font-size="13" lengthAdjust="spacing" textLength="30" x="459.75" y="40.0669">uses</text><!--MD5=[4139bce3631b8907251888a1089e53cf]
@startuml
skinparam style strictuml
interface Container <<Interface>> {
  getIterator(): Iterator
}
interface Iterator <<Interface>> {
  hasNext(): boolen
  next(): Object
}
class NameRepository <<ConcreteSubject>>{
  name: String[]
  getIterator(): Iterator
  setSortStrategy(strategy:Comparator)
  - getNames() : Array<String>
}

class IObservable <<sujet>> #Green{
  add(observer:Observer)
  notifyAll();
  notifyAll(name:String);
}
class IObserver #Green{
  update()
  update(name:String)
}


Interface Comparator<String> #Green{
    compare(o1:String, o2:String): int
}

Class NameComparateur #Green implements Comparator {
     compare(o1:String, o2:String): int
}
note left of NameIterator: while(it.hasNext()){\n   name = it.next()\n   notifyAll(name);\n   notifyAll();\n}

class NameIterator{
  hasNext(): boolean
  next(): Object
}
class NameRepositoryTest{
}
class NameRepository implements Container 
class NameIterator implements Iterator  
class ExternalObserver1 implements IObserver
class ExternalObserver2 implements IObserver


NameIterator ..|> IObservable
IObservable "1"-l->"*" IObserver: notify
NameRepository -r-> Comparator: use
NameRepository .left-> NameIterator : depend on
NameRepository <-left- NameIterator : internal
NameRepositoryTest -left-> Iterator : uses
Container <-left- NameRepositoryTest : uses
@enduml

PlantUML version 1.2021.7beta4(Unknown compile time)
(GPL source distribution)
Java Runtime: Java(TM) SE Runtime Environment
JVM: Java HotSpot(TM) 64-Bit Server VM
Default Encoding: UTF-8
Language: en
Country: US
--></g></svg>