<?xml version="1.0" encoding="UTF-8" standalone="no"?><svg xmlns="http://www.w3.org/2000/svg" xmlns:xlink="http://www.w3.org/1999/xlink" contentScriptType="application/ecmascript" contentStyleType="text/css" height="869px" preserveAspectRatio="none" style="width:1160px;height:869px;background:#FFFFFF;" version="1.1" viewBox="0 0 1160 869" width="1160px" zoomAndPan="magnify"><defs/><g><text fill="#000000" font-family="sans-serif" font-size="18" lengthAdjust="spacing" textLength="230" x="467" y="28.708">Diagramme de séquence</text><rect fill="#FFFFFF" height="90.2031" style="stroke:#000000;stroke-width:2.0;" width="997.5" x="20" y="390.6719"/><rect fill="#FFFFFF" height="43.9375" style="stroke:none;stroke-width:1.0;" width="997.5" x="20" y="436.9375"/><rect fill="#FFFFFF" height="350.4297" style="stroke:#000000;stroke-width:2.0;" width="1144" x="10" y="494.875"/><rect fill="#FFFFFF" height="119.3359" style="stroke:#000000;stroke-width:2.0;" width="997.5" x="20" y="590.2734"/><rect fill="#FFFFFF" height="43.9375" style="stroke:none;stroke-width:1.0;" width="997.5" x="20" y="665.6719"/><line style="stroke:#A80036;stroke-width:1.0;stroke-dasharray:5.0,5.0;" x1="50" x2="50" y1="119.25" y2="862.3047"/><line style="stroke:#A80036;stroke-width:1.0;stroke-dasharray:5.0,5.0;" x1="485.5" x2="485.5" y1="159.8984" y2="862.3047"/><line style="stroke:#A80036;stroke-width:1.0;stroke-dasharray:5.0,5.0;" x1="685.5" x2="685.5" y1="201.1953" y2="862.3047"/><line style="stroke:#A80036;stroke-width:1.0;stroke-dasharray:5.0,5.0;" x1="803.5" x2="803.5" y1="747.2578" y2="862.3047"/><line style="stroke:#A80036;stroke-width:1.0;stroke-dasharray:5.0,5.0;" x1="936.5" x2="936.5" y1="271.625" y2="862.3047"/><line style="stroke:#A80036;stroke-width:1.0;stroke-dasharray:5.0,5.0;" x1="1095" x2="1095" y1="119.25" y2="862.3047"/><text fill="#000000" font-family="sans-serif" font-size="14" lengthAdjust="spacing" textLength="35" x="30" y="115.9482">main</text><ellipse cx="50.5" cy="49.9531" fill="#FEFECE" rx="8" ry="8" style="stroke:#A80036;stroke-width:2.0;"/><path d="M50.5,57.9531 L50.5,84.9531 M37.5,65.9531 L63.5,65.9531 M50.5,84.9531 L37.5,99.9531 M50.5,84.9531 L63.5,99.9531 " fill="none" style="stroke:#A80036;stroke-width:2.0;"/><rect fill="#FEFECE" height="30.2969" style="stroke:#A80036;stroke-width:1.5;" width="97" x="1047" y="87.9531"/><text fill="#000000" font-family="sans-serif" font-size="14" lengthAdjust="spacing" textLength="83" x="1054" y="107.9482">System.out</text><polygon fill="#A80036" points="341.5,146.3828,351.5,150.3828,341.5,154.3828" style="stroke:#A80036;stroke-width:1.0;"/><line style="stroke:#A80036;stroke-width:1.0;" x1="50.5" x2="347.5" y1="150.3828" y2="150.3828"/><text fill="#000000" font-family="sans-serif" font-size="13" lengthAdjust="spacing" textLength="279" x="57.5" y="145.3169">namesRepository = new NameRepository()</text><rect fill="#FEFECE" height="30.2969" style="stroke:#A80036;stroke-width:1.5;" width="265" x="353.5" y="129.25"/><text fill="#000000" font-family="sans-serif" font-size="14" lengthAdjust="spacing" textLength="251" x="360.5" y="149.2451">namesRepository:NameRepository</text><polygon fill="#A80036" points="616.5,172.5469,626.5,176.5469,616.5,180.5469" style="stroke:#A80036;stroke-width:1.0;"/><line style="stroke:#A80036;stroke-width:1.0;" x1="50.5" x2="622.5" y1="176.5469" y2="176.5469"/><rect fill="#FEFECE" height="30.2969" style="stroke:#A80036;stroke-width:1.5;" width="114" x="628.5" y="170.5469"/><text fill="#000000" font-family="sans-serif" font-size="14" lengthAdjust="spacing" textLength="100" x="635.5" y="190.542">names: String</text><polygon fill="#A80036" points="474,228.9766,484,232.9766,474,236.9766" style="stroke:#A80036;stroke-width:1.0;"/><line style="stroke:#A80036;stroke-width:1.0;" x1="50.5" x2="480" y1="232.9766" y2="232.9766"/><text fill="#000000" font-family="sans-serif" font-size="13" lengthAdjust="spacing" textLength="117" x="57.5" y="227.9106">iter = getIterator()</text><polygon fill="#A80036" points="853.5,258.1094,863.5,262.1094,853.5,266.1094" style="stroke:#A80036;stroke-width:1.0;"/><line style="stroke:#A80036;stroke-width:1.0;" x1="486" x2="859.5" y1="262.1094" y2="262.1094"/><text fill="#000000" font-family="sans-serif" font-size="13" lengthAdjust="spacing" textLength="199" x="493" y="257.0435">iterateur = new NameIterator()</text><rect fill="#FEFECE" height="30.2969" style="stroke:#A80036;stroke-width:1.5;" width="142" x="865.5" y="240.9766"/><text fill="#000000" font-family="sans-serif" font-size="14" lengthAdjust="spacing" textLength="128" x="872.5" y="260.9717">iter:NameIterator</text><polygon fill="#A80036" points="497,284.2734,487,288.2734,497,292.2734" style="stroke:#A80036;stroke-width:1.0;"/><line style="stroke:#A80036;stroke-width:1.0;stroke-dasharray:2.0,2.0;" x1="491" x2="935.5" y1="288.2734" y2="288.2734"/><polygon fill="#A80036" points="61.5,313.4063,51.5,317.4063,61.5,321.4063" style="stroke:#A80036;stroke-width:1.0;"/><line style="stroke:#A80036;stroke-width:1.0;stroke-dasharray:2.0,2.0;" x1="55.5" x2="485" y1="317.4063" y2="317.4063"/><text fill="#000000" font-family="sans-serif" font-size="13" lengthAdjust="spacing" textLength="98" x="67.5" y="312.3403">return iterateur</text><polygon fill="#A80036" points="924.5,342.5391,934.5,346.5391,924.5,350.5391" style="stroke:#A80036;stroke-width:1.0;"/><line style="stroke:#A80036;stroke-width:1.0;" x1="50.5" x2="930.5" y1="346.5391" y2="346.5391"/><text fill="#000000" font-family="sans-serif" font-size="13" lengthAdjust="spacing" textLength="137" x="57.5" y="341.4731">aSuivant = hasNext()</text><polygon fill="#A80036" points="696.5,371.6719,686.5,375.6719,696.5,379.6719" style="stroke:#A80036;stroke-width:1.0;"/><line style="stroke:#A80036;stroke-width:1.0;" x1="690.5" x2="935.5" y1="375.6719" y2="375.6719"/><text fill="#000000" font-family="sans-serif" font-size="13" lengthAdjust="spacing" textLength="88" x="702.5" y="370.606">taille = length</text><path d="M20,390.6719 L86,390.6719 L86,397.6719 L76,407.6719 L20,407.6719 L20,390.6719 " fill="#EEEEEE" style="stroke:#000000;stroke-width:1.0;"/><rect fill="none" height="90.2031" style="stroke:#000000;stroke-width:2.0;" width="997.5" x="20" y="390.6719"/><text fill="#000000" font-family="sans-serif" font-size="13" font-weight="bold" lengthAdjust="spacing" textLength="21" x="35" y="403.7388">alt</text><text fill="#000000" font-family="sans-serif" font-size="11" font-weight="bold" lengthAdjust="spacing" textLength="107" x="101" y="402.8823">[(index &lt; taille)]</text><polygon fill="#A80036" points="61.5,424.9375,51.5,428.9375,61.5,432.9375" style="stroke:#A80036;stroke-width:1.0;"/><line style="stroke:#A80036;stroke-width:1.0;stroke-dasharray:2.0,2.0;" x1="55.5" x2="935.5" y1="428.9375" y2="428.9375"/><text fill="#000000" font-family="sans-serif" font-size="13" lengthAdjust="spacing" textLength="26" x="67.5" y="423.8716">true</text><line style="stroke:#000000;stroke-width:1.0;stroke-dasharray:2.0,2.0;" x1="20" x2="1017.5" y1="437.9375" y2="437.9375"/><text fill="#000000" font-family="sans-serif" font-size="11" font-weight="bold" lengthAdjust="spacing" textLength="47" x="25" y="448.1479">[(else)]</text><polygon fill="#A80036" points="61.5,468.875,51.5,472.875,61.5,476.875" style="stroke:#A80036;stroke-width:1.0;"/><line style="stroke:#A80036;stroke-width:1.0;stroke-dasharray:2.0,2.0;" x1="55.5" x2="935.5" y1="472.875" y2="472.875"/><text fill="#000000" font-family="sans-serif" font-size="13" lengthAdjust="spacing" textLength="31" x="67.5" y="467.8091">false</text><path d="M10,494.875 L88,494.875 L88,501.875 L78,511.875 L10,511.875 L10,494.875 " fill="#EEEEEE" style="stroke:#000000;stroke-width:1.0;"/><rect fill="none" height="350.4297" style="stroke:#000000;stroke-width:2.0;" width="1144" x="10" y="494.875"/><text fill="#000000" font-family="sans-serif" font-size="13" font-weight="bold" lengthAdjust="spacing" textLength="33" x="25" y="507.9419">loop</text><text fill="#000000" font-family="sans-serif" font-size="11" font-weight="bold" lengthAdjust="spacing" textLength="78" x="103" y="507.0854">[(aSuivant)]</text><polygon fill="#A80036" points="924.5,529.1406,934.5,533.1406,924.5,537.1406" style="stroke:#A80036;stroke-width:1.0;"/><line style="stroke:#A80036;stroke-width:1.0;" x1="50.5" x2="930.5" y1="533.1406" y2="533.1406"/><text fill="#000000" font-family="sans-serif" font-size="13" lengthAdjust="spacing" textLength="104" x="57.5" y="528.0747">suivant = next()</text><line style="stroke:#A80036;stroke-width:1.0;" x1="936.5" x2="978.5" y1="562.2734" y2="562.2734"/><line style="stroke:#A80036;stroke-width:1.0;" x1="978.5" x2="978.5" y1="562.2734" y2="575.2734"/><line style="stroke:#A80036;stroke-width:1.0;" x1="937.5" x2="978.5" y1="575.2734" y2="575.2734"/><polygon fill="#A80036" points="947.5,571.2734,937.5,575.2734,947.5,579.2734" style="stroke:#A80036;stroke-width:1.0;"/><text fill="#000000" font-family="sans-serif" font-size="13" lengthAdjust="spacing" textLength="145" x="943.5" y="557.2075">aSuivant2 = hasNext()</text><path d="M20,590.2734 L86,590.2734 L86,597.2734 L76,607.2734 L20,607.2734 L20,590.2734 " fill="#EEEEEE" style="stroke:#000000;stroke-width:1.0;"/><rect fill="none" height="119.3359" style="stroke:#000000;stroke-width:2.0;" width="997.5" x="20" y="590.2734"/><text fill="#000000" font-family="sans-serif" font-size="13" font-weight="bold" lengthAdjust="spacing" textLength="21" x="35" y="603.3403">alt</text><text fill="#000000" font-family="sans-serif" font-size="11" font-weight="bold" lengthAdjust="spacing" textLength="86" x="101" y="602.4839">[(aSuivant2)]</text><polygon fill="#A80036" points="696.5,624.5391,686.5,628.5391,696.5,632.5391" style="stroke:#A80036;stroke-width:1.0;"/><line style="stroke:#A80036;stroke-width:1.0;" x1="690.5" x2="935.5" y1="628.5391" y2="628.5391"/><text fill="#000000" font-family="sans-serif" font-size="13" lengthAdjust="spacing" textLength="136" x="702.5" y="623.4731">item = names[index]</text><polygon fill="#A80036" points="61.5,653.6719,51.5,657.6719,61.5,661.6719" style="stroke:#A80036;stroke-width:1.0;"/><line style="stroke:#A80036;stroke-width:1.0;stroke-dasharray:2.0,2.0;" x1="55.5" x2="935.5" y1="657.6719" y2="657.6719"/><text fill="#000000" font-family="sans-serif" font-size="13" lengthAdjust="spacing" textLength="72" x="67.5" y="652.606">return item</text><line style="stroke:#000000;stroke-width:1.0;stroke-dasharray:2.0,2.0;" x1="20" x2="1017.5" y1="666.6719" y2="666.6719"/><text fill="#000000" font-family="sans-serif" font-size="11" font-weight="bold" lengthAdjust="spacing" textLength="47" x="25" y="676.8823">[(else)]</text><polygon fill="#A80036" points="61.5,697.6094,51.5,701.6094,61.5,705.6094" style="stroke:#A80036;stroke-width:1.0;"/><line style="stroke:#A80036;stroke-width:1.0;stroke-dasharray:2.0,2.0;" x1="55.5" x2="935.5" y1="701.6094" y2="701.6094"/><text fill="#000000" font-family="sans-serif" font-size="13" lengthAdjust="spacing" textLength="65" x="67.5" y="696.5435">return null</text><polygon fill="#A80036" points="740.5,733.7422,750.5,737.7422,740.5,741.7422" style="stroke:#A80036;stroke-width:1.0;"/><line style="stroke:#A80036;stroke-width:1.0;" x1="50.5" x2="746.5" y1="737.7422" y2="737.7422"/><text fill="#000000" font-family="sans-serif" font-size="13" lengthAdjust="spacing" textLength="102" x="57.5" y="732.6763">suivant = name</text><rect fill="#FEFECE" height="30.2969" style="stroke:#A80036;stroke-width:1.5;" width="103" x="752.5" y="716.6094"/><text fill="#000000" font-family="sans-serif" font-size="14" lengthAdjust="spacing" textLength="89" x="759.5" y="736.6045">name:String</text><polygon fill="#A80036" points="1083.5,775.0391,1093.5,779.0391,1083.5,783.0391" style="stroke:#A80036;stroke-width:1.0;"/><line style="stroke:#A80036;stroke-width:1.0;" x1="50.5" x2="1089.5" y1="779.0391" y2="779.0391"/><text fill="#000000" font-family="sans-serif" font-size="13" lengthAdjust="spacing" textLength="86" x="57.5" y="773.9731">print(suivant)</text><polygon fill="#A80036" points="673.5,804.1719,683.5,808.1719,673.5,812.1719" style="stroke:#A80036;stroke-width:1.0;"/><line style="stroke:#A80036;stroke-width:1.0;" x1="50.5" x2="679.5" y1="808.1719" y2="808.1719"/><text fill="#000000" font-family="sans-serif" font-size="13" lengthAdjust="spacing" textLength="109" x="57.5" y="803.106">names += name</text><polygon fill="#A80036" points="474,833.3047,484,837.3047,474,841.3047" style="stroke:#A80036;stroke-width:1.0;"/><line style="stroke:#A80036;stroke-width:1.0;" x1="50.5" x2="480" y1="837.3047" y2="837.3047"/><text fill="#000000" font-family="sans-serif" font-size="13" lengthAdjust="spacing" textLength="137" x="57.5" y="832.2388">aSuivant = hasNext()</text><!--MD5=[57b7f9e8ff418e1ba0625179ef557746]
@startuml
skinparam Style strictuml
title Diagramme de séquence
actor main
participant "namesRepository:NameRepository" as namesRepository
participant "names: String" as names
participant "name:String" as name 
participant "iter:NameIterator" as iter

main -> namesRepository ** : namesRepository = new NameRepository()
main -> names **
main -> namesRepository : iter = getIterator()
namesRepository -> iter ** : iterateur = new NameIterator()
iter - -> namesRepository
namesRepository - -> main : return iterateur


main -> iter : aSuivant = hasNext()
iter -> names : taille = length
alt (index < taille)
  iter - -> main : true
else (else)
  iter - -> main : false
end
loop (aSuivant)
  main -> iter : suivant = next()
  iter -> iter : aSuivant2 = hasNext()
  alt (aSuivant2)
    iter -> names : item = names[index]
    iter - -> main : return item
  else (else)
  iter - -> main : return null
  end
  main -> name ** : suivant = name
  main -> System.out : print(suivant)
  main -> names : names += name
  main ->namesRepository : aSuivant = hasNext()
end
@enduml

PlantUML version 1.2021.7beta1(Unknown compile time)
(GPL source distribution)
Java Runtime: Java(TM) SE Runtime Environment
JVM: Java HotSpot(TM) 64-Bit Server VM
Default Encoding: UTF-8
Language: en
Country: US
--></g></svg>