<?xml version="1.0" encoding="UTF-8" standalone="no"?><svg xmlns="http://www.w3.org/2000/svg" xmlns:xlink="http://www.w3.org/1999/xlink" contentScriptType="application/ecmascript" contentStyleType="text/css" height="560px" preserveAspectRatio="none" style="width:736px;height:560px;" version="1.1" viewBox="0 0 736 560" width="736px" zoomAndPan="magnify"><defs><filter height="300%" id="f1q2omxzrpfuog" width="300%" x="-1" y="-1"><feGaussianBlur result="blurOut" stdDeviation="2.0"/><feColorMatrix in="blurOut" result="blurOut2" type="matrix" values="0 0 0 0 0 0 0 0 0 0 0 0 0 0 0 0 0 0 .4 0"/><feOffset dx="4.0" dy="4.0" in="blurOut2" result="blurOut3"/><feBlend in="SourceGraphic" in2="blurOut3" mode="normal"/></filter></defs><g><!--MD5=[af53e6ae56d9b641bcddee68c29becb4]
class TestExemple--><rect codeLine="3" fill="#FEFECE" filter="url(#f1q2omxzrpfuog)" height="48" id="TestExemple" style="stroke:#A80036;stroke-width:1.5;" width="110" x="232" y="389"/><ellipse cx="247" cy="405" fill="#ADD1B2" rx="11" ry="11" style="stroke:#A80036;stroke-width:1.0;"/><path d="M249.3438,400.6719 C248.4063,400.2344 247.8125,400.0938 246.9375,400.0938 C244.3125,400.0938 242.3125,402.1719 242.3125,404.8906 L242.3125,406.0156 C242.3125,408.5938 244.4219,410.4844 247.3125,410.4844 C248.5313,410.4844 249.6875,410.1875 250.4375,409.6406 C251.0156,409.2344 251.3438,408.7813 251.3438,408.3906 C251.3438,407.9375 250.9531,407.5469 250.4844,407.5469 C250.2656,407.5469 250.0625,407.625 249.875,407.8125 C249.4219,408.2969 249.4219,408.2969 249.2344,408.3906 C248.8125,408.6563 248.125,408.7813 247.3594,408.7813 C245.3125,408.7813 244.0156,407.6875 244.0156,405.9844 L244.0156,404.8906 C244.0156,403.1094 245.2656,401.7969 247,401.7969 C247.5781,401.7969 248.1875,401.9531 248.6563,402.2031 C249.1406,402.4844 249.3125,402.7031 249.4063,403.1094 C249.4688,403.5156 249.5,403.6406 249.6406,403.7656 C249.7813,403.9063 250.0156,404.0156 250.2344,404.0156 C250.5,404.0156 250.7656,403.875 250.9375,403.6563 C251.0469,403.5 251.0781,403.3125 251.0781,402.8906 L251.0781,401.4688 C251.0781,401.0313 251.0625,400.9063 250.9688,400.75 C250.8125,400.4844 250.5313,400.3438 250.2344,400.3438 C249.9375,400.3438 249.7344,400.4375 249.5156,400.75 L249.3438,400.6719 Z " fill="#000000"/><text fill="#000000" font-family="sans-serif" font-size="12" lengthAdjust="spacing" textLength="78" x="261" y="409.1543">TestExemple</text><line style="stroke:#A80036;stroke-width:1.5;" x1="233" x2="341" y1="421" y2="421"/><line style="stroke:#A80036;stroke-width:1.5;" x1="233" x2="341" y1="429" y2="429"/><!--MD5=[7e960d1bc4be16a1b8fde1257ab68921]
class WindowAdapter--><rect fill="#FEFECE" filter="url(#f1q2omxzrpfuog)" height="48" id="WindowAdapter" style="stroke:#A80036;stroke-width:1.5;" width="128" x="155" y="264"/><ellipse cx="170" cy="280" fill="#ADD1B2" rx="11" ry="11" style="stroke:#A80036;stroke-width:1.0;"/><path d="M172.3438,275.6719 C171.4063,275.2344 170.8125,275.0938 169.9375,275.0938 C167.3125,275.0938 165.3125,277.1719 165.3125,279.8906 L165.3125,281.0156 C165.3125,283.5938 167.4219,285.4844 170.3125,285.4844 C171.5313,285.4844 172.6875,285.1875 173.4375,284.6406 C174.0156,284.2344 174.3438,283.7813 174.3438,283.3906 C174.3438,282.9375 173.9531,282.5469 173.4844,282.5469 C173.2656,282.5469 173.0625,282.625 172.875,282.8125 C172.4219,283.2969 172.4219,283.2969 172.2344,283.3906 C171.8125,283.6563 171.125,283.7813 170.3594,283.7813 C168.3125,283.7813 167.0156,282.6875 167.0156,280.9844 L167.0156,279.8906 C167.0156,278.1094 168.2656,276.7969 170,276.7969 C170.5781,276.7969 171.1875,276.9531 171.6563,277.2031 C172.1406,277.4844 172.3125,277.7031 172.4063,278.1094 C172.4688,278.5156 172.5,278.6406 172.6406,278.7656 C172.7813,278.9063 173.0156,279.0156 173.2344,279.0156 C173.5,279.0156 173.7656,278.875 173.9375,278.6563 C174.0469,278.5 174.0781,278.3125 174.0781,277.8906 L174.0781,276.4688 C174.0781,276.0313 174.0625,275.9063 173.9688,275.75 C173.8125,275.4844 173.5313,275.3438 173.2344,275.3438 C172.9375,275.3438 172.7344,275.4375 172.5156,275.75 L172.3438,275.6719 Z " fill="#000000"/><text fill="#000000" font-family="sans-serif" font-size="12" lengthAdjust="spacing" textLength="96" x="184" y="284.1543">WindowAdapter</text><line style="stroke:#A80036;stroke-width:1.5;" x1="156" x2="282" y1="296" y2="296"/><line style="stroke:#A80036;stroke-width:1.5;" x1="156" x2="282" y1="304" y2="304"/><!--MD5=[7c91042c063391b750a975502cb87763]
class TextModel--><rect codeLine="13" fill="#FEFECE" filter="url(#f1q2omxzrpfuog)" height="48" id="TextModel" style="stroke:#A80036;stroke-width:1.5;" width="95" x="393.5" y="389"/><ellipse cx="408.5" cy="405" fill="#ADD1B2" rx="11" ry="11" style="stroke:#A80036;stroke-width:1.0;"/><path d="M410.8438,400.6719 C409.9063,400.2344 409.3125,400.0938 408.4375,400.0938 C405.8125,400.0938 403.8125,402.1719 403.8125,404.8906 L403.8125,406.0156 C403.8125,408.5938 405.9219,410.4844 408.8125,410.4844 C410.0313,410.4844 411.1875,410.1875 411.9375,409.6406 C412.5156,409.2344 412.8438,408.7813 412.8438,408.3906 C412.8438,407.9375 412.4531,407.5469 411.9844,407.5469 C411.7656,407.5469 411.5625,407.625 411.375,407.8125 C410.9219,408.2969 410.9219,408.2969 410.7344,408.3906 C410.3125,408.6563 409.625,408.7813 408.8594,408.7813 C406.8125,408.7813 405.5156,407.6875 405.5156,405.9844 L405.5156,404.8906 C405.5156,403.1094 406.7656,401.7969 408.5,401.7969 C409.0781,401.7969 409.6875,401.9531 410.1563,402.2031 C410.6406,402.4844 410.8125,402.7031 410.9063,403.1094 C410.9688,403.5156 411,403.6406 411.1406,403.7656 C411.2813,403.9063 411.5156,404.0156 411.7344,404.0156 C412,404.0156 412.2656,403.875 412.4375,403.6563 C412.5469,403.5 412.5781,403.3125 412.5781,402.8906 L412.5781,401.4688 C412.5781,401.0313 412.5625,400.9063 412.4688,400.75 C412.3125,400.4844 412.0313,400.3438 411.7344,400.3438 C411.4375,400.3438 411.2344,400.4375 411.0156,400.75 L410.8438,400.6719 Z " fill="#000000"/><text fill="#000000" font-family="sans-serif" font-size="12" lengthAdjust="spacing" textLength="63" x="422.5" y="409.1543">TextModel</text><line style="stroke:#A80036;stroke-width:1.5;" x1="394.5" x2="487.5" y1="421" y2="421"/><line style="stroke:#A80036;stroke-width:1.5;" x1="394.5" x2="487.5" y1="429" y2="429"/><!--MD5=[c0bd9f44073f1a51428d87d6a9cf071b]
class Observable--><rect codeLine="19" fill="#FEFECE" filter="url(#f1q2omxzrpfuog)" height="73.6094" id="Observable" style="stroke:#A80036;stroke-width:1.5;" width="178" x="427" y="7"/><ellipse cx="476.25" cy="23" fill="#ADD1B2" rx="11" ry="11" style="stroke:#A80036;stroke-width:1.0;"/><path d="M478.5938,18.6719 C477.6563,18.2344 477.0625,18.0938 476.1875,18.0938 C473.5625,18.0938 471.5625,20.1719 471.5625,22.8906 L471.5625,24.0156 C471.5625,26.5938 473.6719,28.4844 476.5625,28.4844 C477.7813,28.4844 478.9375,28.1875 479.6875,27.6406 C480.2656,27.2344 480.5938,26.7813 480.5938,26.3906 C480.5938,25.9375 480.2031,25.5469 479.7344,25.5469 C479.5156,25.5469 479.3125,25.625 479.125,25.8125 C478.6719,26.2969 478.6719,26.2969 478.4844,26.3906 C478.0625,26.6563 477.375,26.7813 476.6094,26.7813 C474.5625,26.7813 473.2656,25.6875 473.2656,23.9844 L473.2656,22.8906 C473.2656,21.1094 474.5156,19.7969 476.25,19.7969 C476.8281,19.7969 477.4375,19.9531 477.9063,20.2031 C478.3906,20.4844 478.5625,20.7031 478.6563,21.1094 C478.7188,21.5156 478.75,21.6406 478.8906,21.7656 C479.0313,21.9063 479.2656,22.0156 479.4844,22.0156 C479.75,22.0156 480.0156,21.875 480.1875,21.6563 C480.2969,21.5 480.3281,21.3125 480.3281,20.8906 L480.3281,19.4688 C480.3281,19.0313 480.3125,18.9063 480.2188,18.75 C480.0625,18.4844 479.7813,18.3438 479.4844,18.3438 C479.1875,18.3438 478.9844,18.4375 478.7656,18.75 L478.5938,18.6719 Z " fill="#000000"/><text fill="#000000" font-family="sans-serif" font-size="12" lengthAdjust="spacing" textLength="71" x="496.75" y="27.1543">Observable</text><line style="stroke:#A80036;stroke-width:1.5;" x1="428" x2="604" y1="39" y2="39"/><line style="stroke:#A80036;stroke-width:1.5;" x1="428" x2="604" y1="47" y2="47"/><text fill="#000000" font-family="sans-serif" font-size="11" lengthAdjust="spacing" textLength="130" x="433" y="61.2104">notifyObservers(): void</text><text fill="#000000" font-family="sans-serif" font-size="11" lengthAdjust="spacing" textLength="166" x="433" y="74.0151">addObserver(Observer): void</text><!--MD5=[04935357b5c5a2aec56a7c93da5b843d]
class ActionListener--><rect codeLine="8" fill="#FEFECE" filter="url(#f1q2omxzrpfuog)" height="60.8047" id="ActionListener" style="stroke:#A80036;stroke-width:1.5;" width="224" x="7" y="142"/><ellipse cx="71.75" cy="158" fill="#B4A7E5" rx="11" ry="11" style="stroke:#A80036;stroke-width:1.0;"/><path d="M72.7031,154.7813 L74.4219,154.7813 C74.8125,154.7813 75,154.75 75.125,154.6719 C75.3906,154.5156 75.5313,154.2344 75.5313,153.9375 C75.5313,153.6719 75.4219,153.4063 75.1875,153.2344 C75.0156,153.125 74.875,153.0938 74.4219,153.0938 L69.2813,153.0938 C68.8438,153.0938 68.7188,153.1094 68.5625,153.2031 C68.3125,153.3594 68.1563,153.6563 68.1563,153.9375 C68.1563,154.2188 68.2969,154.4688 68.5156,154.6406 C68.6719,154.75 68.8594,154.7813 69.2813,154.7813 L71,154.7813 L71,161.2969 L69.2813,161.2969 C68.8438,161.2969 68.7188,161.3125 68.5625,161.4219 C68.3125,161.5781 68.1563,161.8594 68.1563,162.1563 C68.1563,162.4063 68.2969,162.6719 68.5156,162.8281 C68.6719,162.9531 68.875,163 69.2813,163 L74.4219,163 C75.1719,163 75.5313,162.7188 75.5313,162.1563 C75.5313,161.875 75.4219,161.625 75.1875,161.4531 C75.0156,161.3281 74.875,161.2969 74.4219,161.2969 L72.7031,161.2969 L72.7031,154.7813 Z " fill="#000000"/><text fill="#000000" font-family="sans-serif" font-size="12" font-style="italic" lengthAdjust="spacing" textLength="86" x="92.25" y="162.1543">ActionListener</text><line style="stroke:#A80036;stroke-width:1.5;" x1="8" x2="230" y1="174" y2="174"/><line style="stroke:#A80036;stroke-width:1.5;" x1="8" x2="230" y1="182" y2="182"/><text fill="#000000" font-family="sans-serif" font-size="11" lengthAdjust="spacing" textLength="212" x="13" y="196.2104">actionPerformed(ActionEvent e): void</text><!--MD5=[4486359005dd940015fbb304bf308cc5]
class TextViewA--><rect codeLine="11" fill="#FEFECE" filter="url(#f1q2omxzrpfuog)" height="48" id="TextViewA" style="stroke:#A80036;stroke-width:1.5;" width="95" x="342.5" y="264"/><ellipse cx="357.5" cy="280" fill="#ADD1B2" rx="11" ry="11" style="stroke:#A80036;stroke-width:1.0;"/><path d="M359.8438,275.6719 C358.9063,275.2344 358.3125,275.0938 357.4375,275.0938 C354.8125,275.0938 352.8125,277.1719 352.8125,279.8906 L352.8125,281.0156 C352.8125,283.5938 354.9219,285.4844 357.8125,285.4844 C359.0313,285.4844 360.1875,285.1875 360.9375,284.6406 C361.5156,284.2344 361.8438,283.7813 361.8438,283.3906 C361.8438,282.9375 361.4531,282.5469 360.9844,282.5469 C360.7656,282.5469 360.5625,282.625 360.375,282.8125 C359.9219,283.2969 359.9219,283.2969 359.7344,283.3906 C359.3125,283.6563 358.625,283.7813 357.8594,283.7813 C355.8125,283.7813 354.5156,282.6875 354.5156,280.9844 L354.5156,279.8906 C354.5156,278.1094 355.7656,276.7969 357.5,276.7969 C358.0781,276.7969 358.6875,276.9531 359.1563,277.2031 C359.6406,277.4844 359.8125,277.7031 359.9063,278.1094 C359.9688,278.5156 360,278.6406 360.1406,278.7656 C360.2813,278.9063 360.5156,279.0156 360.7344,279.0156 C361,279.0156 361.2656,278.875 361.4375,278.6563 C361.5469,278.5 361.5781,278.3125 361.5781,277.8906 L361.5781,276.4688 C361.5781,276.0313 361.5625,275.9063 361.4688,275.75 C361.3125,275.4844 361.0313,275.3438 360.7344,275.3438 C360.4375,275.3438 360.2344,275.4375 360.0156,275.75 L359.8438,275.6719 Z " fill="#000000"/><text fill="#000000" font-family="sans-serif" font-size="12" lengthAdjust="spacing" textLength="63" x="371.5" y="284.1543">TextViewA</text><line style="stroke:#A80036;stroke-width:1.5;" x1="343.5" x2="436.5" y1="296" y2="296"/><line style="stroke:#A80036;stroke-width:1.5;" x1="343.5" x2="436.5" y1="304" y2="304"/><!--MD5=[a520837ef4416b7ac44f8bb1541877a6]
class JFrame--><rect fill="#FEFECE" filter="url(#f1q2omxzrpfuog)" height="48" id="JFrame" style="stroke:#A80036;stroke-width:1.5;" width="74" x="648" y="148.5"/><ellipse cx="663" cy="164.5" fill="#ADD1B2" rx="11" ry="11" style="stroke:#A80036;stroke-width:1.0;"/><path d="M665.3438,160.1719 C664.4063,159.7344 663.8125,159.5938 662.9375,159.5938 C660.3125,159.5938 658.3125,161.6719 658.3125,164.3906 L658.3125,165.5156 C658.3125,168.0938 660.4219,169.9844 663.3125,169.9844 C664.5313,169.9844 665.6875,169.6875 666.4375,169.1406 C667.0156,168.7344 667.3438,168.2813 667.3438,167.8906 C667.3438,167.4375 666.9531,167.0469 666.4844,167.0469 C666.2656,167.0469 666.0625,167.125 665.875,167.3125 C665.4219,167.7969 665.4219,167.7969 665.2344,167.8906 C664.8125,168.1563 664.125,168.2813 663.3594,168.2813 C661.3125,168.2813 660.0156,167.1875 660.0156,165.4844 L660.0156,164.3906 C660.0156,162.6094 661.2656,161.2969 663,161.2969 C663.5781,161.2969 664.1875,161.4531 664.6563,161.7031 C665.1406,161.9844 665.3125,162.2031 665.4063,162.6094 C665.4688,163.0156 665.5,163.1406 665.6406,163.2656 C665.7813,163.4063 666.0156,163.5156 666.2344,163.5156 C666.5,163.5156 666.7656,163.375 666.9375,163.1563 C667.0469,163 667.0781,162.8125 667.0781,162.3906 L667.0781,160.9688 C667.0781,160.5313 667.0625,160.4063 666.9688,160.25 C666.8125,159.9844 666.5313,159.8438 666.2344,159.8438 C665.9375,159.8438 665.7344,159.9375 665.5156,160.25 L665.3438,160.1719 Z " fill="#000000"/><text fill="#000000" font-family="sans-serif" font-size="12" lengthAdjust="spacing" textLength="42" x="677" y="168.6543">JFrame</text><line style="stroke:#A80036;stroke-width:1.5;" x1="649" x2="721" y1="180.5" y2="180.5"/><line style="stroke:#A80036;stroke-width:1.5;" x1="649" x2="721" y1="188.5" y2="188.5"/><!--MD5=[d40932010816485ec57b44b6eea2392a]
class Observer--><rect codeLine="24" fill="#FEFECE" filter="url(#f1q2omxzrpfuog)" height="60.8047" id="Observer" style="stroke:#A80036;stroke-width:1.5;" width="234" x="282" y="142"/><ellipse cx="365.75" cy="158" fill="#ADD1B2" rx="11" ry="11" style="stroke:#A80036;stroke-width:1.0;"/><path d="M368.0938,153.6719 C367.1563,153.2344 366.5625,153.0938 365.6875,153.0938 C363.0625,153.0938 361.0625,155.1719 361.0625,157.8906 L361.0625,159.0156 C361.0625,161.5938 363.1719,163.4844 366.0625,163.4844 C367.2813,163.4844 368.4375,163.1875 369.1875,162.6406 C369.7656,162.2344 370.0938,161.7813 370.0938,161.3906 C370.0938,160.9375 369.7031,160.5469 369.2344,160.5469 C369.0156,160.5469 368.8125,160.625 368.625,160.8125 C368.1719,161.2969 368.1719,161.2969 367.9844,161.3906 C367.5625,161.6563 366.875,161.7813 366.1094,161.7813 C364.0625,161.7813 362.7656,160.6875 362.7656,158.9844 L362.7656,157.8906 C362.7656,156.1094 364.0156,154.7969 365.75,154.7969 C366.3281,154.7969 366.9375,154.9531 367.4063,155.2031 C367.8906,155.4844 368.0625,155.7031 368.1563,156.1094 C368.2188,156.5156 368.25,156.6406 368.3906,156.7656 C368.5313,156.9063 368.7656,157.0156 368.9844,157.0156 C369.25,157.0156 369.5156,156.875 369.6875,156.6563 C369.7969,156.5 369.8281,156.3125 369.8281,155.8906 L369.8281,154.4688 C369.8281,154.0313 369.8125,153.9063 369.7188,153.75 C369.5625,153.4844 369.2813,153.3438 368.9844,153.3438 C368.6875,153.3438 368.4844,153.4375 368.2656,153.75 L368.0938,153.6719 Z " fill="#000000"/><text fill="#000000" font-family="sans-serif" font-size="12" lengthAdjust="spacing" textLength="58" x="386.25" y="162.1543">Observer</text><line style="stroke:#A80036;stroke-width:1.5;" x1="283" x2="515" y1="174" y2="174"/><line style="stroke:#A80036;stroke-width:1.5;" x1="283" x2="515" y1="182" y2="182"/><text fill="#000000" font-family="sans-serif" font-size="11" lengthAdjust="spacing" textLength="222" x="288" y="196.2104">update(Observable o, Object arg): void</text><!--MD5=[57073e209dddafe6d1c299e5c4636cd8]
class TextViewB--><rect codeLine="12" fill="#FEFECE" filter="url(#f1q2omxzrpfuog)" height="48" id="TextViewB" style="stroke:#A80036;stroke-width:1.5;" width="95" x="502.5" y="498"/><ellipse cx="517.5" cy="514" fill="#ADD1B2" rx="11" ry="11" style="stroke:#A80036;stroke-width:1.0;"/><path d="M519.8438,509.6719 C518.9063,509.2344 518.3125,509.0938 517.4375,509.0938 C514.8125,509.0938 512.8125,511.1719 512.8125,513.8906 L512.8125,515.0156 C512.8125,517.5938 514.9219,519.4844 517.8125,519.4844 C519.0313,519.4844 520.1875,519.1875 520.9375,518.6406 C521.5156,518.2344 521.8438,517.7813 521.8438,517.3906 C521.8438,516.9375 521.4531,516.5469 520.9844,516.5469 C520.7656,516.5469 520.5625,516.625 520.375,516.8125 C519.9219,517.2969 519.9219,517.2969 519.7344,517.3906 C519.3125,517.6563 518.625,517.7813 517.8594,517.7813 C515.8125,517.7813 514.5156,516.6875 514.5156,514.9844 L514.5156,513.8906 C514.5156,512.1094 515.7656,510.7969 517.5,510.7969 C518.0781,510.7969 518.6875,510.9531 519.1563,511.2031 C519.6406,511.4844 519.8125,511.7031 519.9063,512.1094 C519.9688,512.5156 520,512.6406 520.1406,512.7656 C520.2813,512.9063 520.5156,513.0156 520.7344,513.0156 C521,513.0156 521.2656,512.875 521.4375,512.6563 C521.5469,512.5 521.5781,512.3125 521.5781,511.8906 L521.5781,510.4688 C521.5781,510.0313 521.5625,509.9063 521.4688,509.75 C521.3125,509.4844 521.0313,509.3438 520.7344,509.3438 C520.4375,509.3438 520.2344,509.4375 520.0156,509.75 L519.8438,509.6719 Z " fill="#000000"/><text fill="#000000" font-family="sans-serif" font-size="12" lengthAdjust="spacing" textLength="63" x="531.5" y="518.1543">TextViewB</text><line style="stroke:#A80036;stroke-width:1.5;" x1="503.5" x2="596.5" y1="530" y2="530"/><line style="stroke:#A80036;stroke-width:1.5;" x1="503.5" x2="596.5" y1="538" y2="538"/><!--MD5=[7edc17dcd575275c8ef89719f1640d02]
reverse link WindowAdapter to TestExemple--><path d="M226.426,332.034 C229.003,341.268 232.438,350.728 237,359 C242.987,369.855 251.717,380.167 260.213,388.759 " fill="none" id="WindowAdapter-backto-TestExemple" style="stroke:#A80036;stroke-width:1.0;"/><polygon fill="none" points="219.513,333.2,221.948,312.151,233.171,330.125,219.513,333.2" style="stroke:#A80036;stroke-width:1.0;"/><!--MD5=[58e0ca507b441f645e91b3953ac36992]
reverse link Observable to TextModel--><path d="M536.548,100.419 C557.419,166.712 580.617,278.778 534,359 C524.009,376.193 506.123,388.272 488.687,396.51 " fill="none" id="Observable-backto-TextModel" style="stroke:#A80036;stroke-width:1.0;"/><polygon fill="none" points="529.892,102.587,530.225,81.4,543.177,98.171,529.892,102.587" style="stroke:#A80036;stroke-width:1.0;"/><!--MD5=[0a4695c5c383876a85cdc57c61275e03]
reverse link JFrame to TextViewA--><path d="M628.939,195.069 C573.588,216.365 489.866,248.577 437.639,268.671 " fill="none" id="JFrame-backto-TextViewA" style="stroke:#A80036;stroke-width:1.0;"/><polygon fill="none" points="626.757,188.409,647.937,187.76,631.784,201.475,626.757,188.409" style="stroke:#A80036;stroke-width:1.0;"/><!--MD5=[f81b053692284779cba6bde0bb92bd7b]
reverse link Observer to TextViewA--><path d="M395.041,223.427 C393.929,237.454 392.772,252.046 391.847,263.706 " fill="none" id="Observer-backto-TextViewA" style="stroke:#A80036;stroke-width:1.0;stroke-dasharray:7.0,7.0;"/><polygon fill="none" points="388.1,222.409,396.659,203.024,402.056,223.515,388.1,222.409" style="stroke:#A80036;stroke-width:1.0;"/><!--MD5=[a02cbd7a32b76af66021f2d7f4a76d03]
reverse link ActionListener to TextViewA--><path d="M208.155,210.84 C252.95,229.601 305.428,251.58 342.465,267.091 " fill="none" id="ActionListener-backto-TextViewA" style="stroke:#A80036;stroke-width:1.0;stroke-dasharray:7.0,7.0;"/><polygon fill="none" points="205.238,217.207,189.495,203.024,210.646,204.294,205.238,217.207" style="stroke:#A80036;stroke-width:1.0;"/><!--MD5=[34375827035806686f771999abe35a9c]
reverse link JFrame to TextViewB--><path d="M694.921,216.484 C706.539,278.068 718.154,392.309 666,468 C650.297,490.7905 622.272,503.9608 597.703,511.472 " fill="none" id="JFrame-backto-TextViewB" style="stroke:#A80036;stroke-width:1.0;"/><polygon fill="none" points="688.024,217.699,690.837,196.697,701.735,214.869,688.024,217.699" style="stroke:#A80036;stroke-width:1.0;"/><!--MD5=[cba6d4b8c6c4945eb6421bff2a6cfe4f]
reverse link Observer to TextViewB--><path d="M459.738,215.378 C497.871,245.586 543.722,290.083 565,342 C586.524,394.518 569.862,462.8341 558.431,497.9414 " fill="none" id="Observer-backto-TextViewB" style="stroke:#A80036;stroke-width:1.0;stroke-dasharray:7.0,7.0;"/><polygon fill="none" points="455.341,220.827,443.692,203.127,463.837,209.7,455.341,220.827" style="stroke:#A80036;stroke-width:1.0;"/><!--MD5=[9439882f0d46e7bfd754e42ef490a4f6]
reverse link ActionListener to TextViewB--><path d="M120.426,223.612 C122.442,250.463 126.982,283.738 137,312 C158.801,373.5 161.347,398.461 214,437 C301.579,501.1021 432.696,516.5696 502.416,520.1175 " fill="none" id="ActionListener-backto-TextViewB" style="stroke:#A80036;stroke-width:1.0;stroke-dasharray:7.0,7.0;"/><polygon fill="none" points="113.414,223.61,119.277,203.247,127.392,222.821,113.414,223.61" style="stroke:#A80036;stroke-width:1.0;"/><!--MD5=[09cd2eb8fa7052fb5b62ddcf7f8b9caf]
link TestExemple to TextModel--><path codeLine="15" d="M342.043,413 C357.44,413 372.836,413 388.233,413 " fill="none" id="TestExemple-to-TextModel" style="stroke:#A80036;stroke-width:1.0;"/><polygon fill="#A80036" points="393.454,413,384.454,409,388.454,413,384.454,417,393.454,413" style="stroke:#A80036;stroke-width:1.0;"/><!--MD5=[1c7f69207ca2e69d3d10f0710f1879fe]
reverse link TextViewA to TestExemple--><path codeLine="16" d="M337.739,307.095 C321.527,315.267 305.244,326.629 295,342 C285.91,355.639 284.144,374.179 284.526,388.752 " fill="none" id="TextViewA-backto-TestExemple" style="stroke:#A80036;stroke-width:1.0;"/><polygon fill="#A80036" points="342.305,304.873,332.462,305.2133,337.8088,307.0604,335.9618,312.4072,342.305,304.873" style="stroke:#A80036;stroke-width:1.0;"/><text fill="#000000" font-family="sans-serif" font-size="13" lengthAdjust="spacing" textLength="8" x="326.3892" y="303.3853">1</text><!--MD5=[85fd9ac0baf63f1f536d5ad3e7e8ec63]
link TestExemple to TextViewB--><path codeLine="17" d="M342.133,436.431 C387.912,455.0556 452.587,481.3682 497.594,499.6789 " fill="none" id="TestExemple-to-TextViewB" style="stroke:#A80036;stroke-width:1.0;"/><polygon fill="#A80036" points="502.433,501.6478,495.6039,494.551,497.8016,499.7635,492.5891,501.9612,502.433,501.6478" style="stroke:#A80036;stroke-width:1.0;"/><text fill="#000000" font-family="sans-serif" font-size="13" lengthAdjust="spacing" textLength="8" x="486.5368" y="494.46">2</text><!--MD5=[8947cff1aa8acee7f293eb2917bd72c3]
link TextViewA to TextModel--><path codeLine="27" d="M402.685,312.145 C407.468,321.306 412.77,332.016 417,342 C422.752,355.576 428.17,371.048 432.397,383.988 " fill="none" id="TextViewA-to-TextModel" style="stroke:#A80036;stroke-width:1.0;stroke-dasharray:7.0,7.0;"/><polygon fill="#A80036" points="434.016,388.996,435.0532,379.2019,432.4778,384.2385,427.4412,381.6631,434.016,388.996" style="stroke:#A80036;stroke-width:1.0;"/><text fill="#000000" font-family="sans-serif" font-size="13" lengthAdjust="spacing" textLength="100" x="425" y="355.0669">setState(string)</text><!--MD5=[8947cff1aa8acee7f293eb2917bd72c3]
link TextViewA to TextModel--><path codeLine="28" d="M342.312,307.027 C316.557,319.64 292.693,337.955 307,359 C316.753,373.346 355.263,387.702 388.511,397.848 " fill="none" id="TextViewA-to-TextModel-1" style="stroke:#A80036;stroke-width:1.0;stroke-dasharray:7.0,7.0;"/><polygon fill="#A80036" points="393.374,399.313,385.9112,392.886,388.5867,397.8701,383.6026,400.5456,393.374,399.313" style="stroke:#A80036;stroke-width:1.0;"/><text fill="#000000" font-family="sans-serif" font-size="13" lengthAdjust="spacing" textLength="100" x="308" y="355.0669">setState(string)</text><!--MD5=[8e2a9fffec268e9f5174791eb82aa096]
link Observable to Observer--><path codeLine="31" d="M474.3242,90.0598 C474.3242,90.0598 447.545,119.013 435.5,132.036 " fill="none" id="Observable-Observer" style="stroke:#A80036;stroke-width:1.0;"/><polygon fill="#A80036" points="426.615,141.643,435.6628,137.7523,430.0102,137.9725,429.79,132.3199,426.615,141.643" style="stroke:#A80036;stroke-width:1.0;"/><line style="stroke:#A80036;stroke-width:1.0;" x1="430.0102" x2="435.442" y1="137.9725" y2="132.0985"/><polygon fill="#A80036" points="482.472,81.25,475.4615,82.939,474.3242,90.0598,481.3347,88.3708,482.472,81.25" style="stroke:#A80036;stroke-width:1.0;"/><!--MD5=[dde89a471bf5a30c9e4f01c4f4d6afa5]
@startuml
skinparam style strict

class TestExemple extends WindowAdapter

class TextModel extends Observable {
 
}
Interface ActionListener{
  actionPerformed(ActionEvent e): void
}
class TextViewA extends JFrame implements  Observer, ActionListener
class TextViewB extends JFrame implements  Observer, ActionListener
class TextModel

TestExemple -right-> TextModel
TestExemple -up-> "1" TextViewA
TestExemple -down-> "2" TextViewB

class Observable {
  notifyObservers(): void
  addObserver(Observer): void
}

class Observer {
  update(Observable o, Object arg): void
}
TextViewA ..> TextModel: setState(string)
TextViewA ..> TextModel: setState(string)


 Observable *- -> Observer
@enduml

PlantUML version 1.2021.01beta3(Unknown compile time)
(GPL source distribution)
Java Runtime: Java(TM) SE Runtime Environment
JVM: Java HotSpot(TM) 64-Bit Server VM
Default Encoding: UTF-8
Language: en
Country: US
--></g></svg>