<?xml version="1.0" encoding="UTF-8" standalone="no"?><svg xmlns="http://www.w3.org/2000/svg" xmlns:xlink="http://www.w3.org/1999/xlink" contentScriptType="application/ecmascript" contentStyleType="text/css" height="762px" preserveAspectRatio="none" style="width:1152px;height:762px;" version="1.1" viewBox="0 0 1152 762" width="1152px" zoomAndPan="magnify"><defs/><g><polygon fill="#FFFFFF" points="392,691.9688,392,692.1789,402.1406,691.5544,412.2813,692.162,422.4219,692.3684,432.5625,691.2554,442.7031,691.891,452.8438,691.5423,462.9844,691.5853,473.125,691.9006,483.2656,691.2774,493.4063,692.5224,503.5469,691.3385,513.6875,691.771,523.8281,692.4007,533.9688,691.883,544.1094,692.037,554.25,691.9368,564.3906,692.1473,574.5313,692.2079,584.6719,692.5544,594.8125,692.6398,604.9531,692.648,615.0938,692.2234,625.2344,692.4323,635.375,692.671,645.5156,691.2476,655.6563,692.6473,665.7969,691.6722,675.9375,692.5026,686.0781,691.4737,696.2188,691.9003,706.3594,692.7104,716.5,691.9688,716.4513,691.9688,716.6053,701.2219,716.8386,710.475,716.9162,719.7281,716.4961,728.9813,716.5,738.2344,716.5,738.5216,706.3594,737.662,696.2188,738.5188,686.0781,738.7826,675.9375,738.6789,665.7969,738.8474,655.6563,737.7513,645.5156,737.5822,635.375,737.613,625.2344,738.1755,615.0938,738.0378,604.9531,738.9158,594.8125,738.0597,584.6719,737.8913,574.5313,738.4626,564.3906,737.5675,554.25,737.7152,544.1094,738.8833,533.9688,738.67,523.8281,738.9689,513.6875,737.9126,503.5469,738.5536,493.4063,738.8248,483.2656,737.762,473.125,738.1385,462.9844,738.3604,452.8438,738.8861,442.7031,738.2302,432.5625,738.6969,422.4219,737.6806,412.2813,737.5571,402.1406,738.738,392,738.2344,391.2831,738.2344,392.509,728.9813,392.2066,719.7281,391.7321,710.475,391.6462,701.2219,392,691.9688" style="stroke:#000000;stroke-width:2.0;"/><path d="M28,36.2969 L28.2802,36.2969 L27.4476,46.2821 L28.2577,56.2674 L28.5329,66.2526 L27.0488,76.2378 L27.8964,86.2231 L27.4313,96.2083 L27.4887,106.1936 L27.9091,116.1788 L27.0782,126.1641 L28.7382,136.1493 L27.1596,146.1345 L27.7363,156.1198 L28.5759,166.105 L27.8856,176.0903 L28.091,186.0755 L27.9574,196.0608 L28.238,206.046 L28.3188,216.0313 L28.7809,226.0165 L28.8947,236.0017 L28.9057,245.987 L28.3395,255.9722 L28.6181,265.9575 L28.9363,275.9427 L27.0384,285.928 L28.9047,295.9132 L27.6047,305.8984 L28.7117,315.8837 L27.34,325.8689 L27.9087,335.8542 L28.9888,345.8394 L27.935,355.8247 L28.1404,365.8099 L28.4515,375.7951 L28.555,385.7804 L27.9948,395.7656 L28.383,405.7509 L27.2368,415.7361 L28.3792,425.7214 L28.7309,435.7066 L28.5927,445.6918 L28.8174,455.6771 L27.3559,465.6623 L27.1304,475.6476 L27.1715,485.6328 L27.9215,495.6181 L27.738,505.6033 L28.9085,515.5885 L27.7671,525.5738 L27.5426,535.559 L28.3044,545.5443 L27.1109,555.5295 L27.3078,565.5148 L28.8653,575.5 L28.5809,585.4852 L28.9793,595.4705 L27.5709,605.4557 L28.4256,615.441 L28.7872,625.4262 L27.3701,635.4115 L27.8722,645.3967 L28.168,655.3819 L28.869,665.3672 L27.9944,675.3524 L28.6168,685.3377 L27.2616,695.3229 L27.097,705.3082 L28.6715,715.2934 L27.0441,725.2786 L28.6786,735.2639 L28.2755,745.2491 L28,755.2344 " fill="none" style="stroke:#A80036;stroke-width:1.0;stroke-dasharray:5.0,5.0;"/><path d="M160.5,76.9453 L160.7802,76.9453 L159.9476,86.9202 L160.7577,96.895 L161.0329,106.8698 L159.5488,116.8447 L160.3964,126.8195 L159.9313,136.7943 L159.9887,146.7692 L160.4091,156.744 L159.5782,166.7189 L161.2382,176.6937 L159.6596,186.6685 L160.2363,196.6434 L161.0759,206.6182 L160.3856,216.5931 L160.591,226.5679 L160.4574,236.5427 L160.738,246.5176 L160.8188,256.4924 L161.2809,266.4673 L161.3947,276.4421 L161.4057,286.4169 L160.8395,296.3918 L161.1181,306.3666 L161.4363,316.3415 L159.5384,326.3163 L161.4047,336.2911 L160.1047,346.266 L161.2117,356.2408 L159.84,366.2156 L160.4087,376.1905 L161.4888,386.1653 L160.435,396.1402 L160.6404,406.115 L160.9515,416.0898 L161.055,426.0647 L160.4948,436.0395 L160.883,446.0144 L159.7368,455.9892 L160.8792,465.964 L161.2309,475.9389 L161.0927,485.9137 L161.3174,495.8886 L159.8559,505.8634 L159.6304,515.8382 L159.6715,525.8131 L160.4215,535.7879 L160.238,545.7628 L161.4085,555.7376 L160.2671,565.7124 L160.0426,575.6873 L160.8044,585.6621 L159.6109,595.6369 L159.8078,605.6118 L161.3653,615.5866 L161.0809,625.5615 L161.4793,635.5363 L160.0709,645.5111 L160.9256,655.486 L161.2872,665.4608 L159.8701,675.4357 L160.3722,685.4105 L160.668,695.3853 L161.369,705.3602 L160.4944,715.335 L161.1168,725.3099 L159.7616,735.2847 L159.597,745.2595 L160.5,755.2344 " fill="none" style="stroke:#A80036;stroke-width:1.0;stroke-dasharray:5.0,5.0;"/><path d="M297.5,118.2422 L297.7802,118.2422 L296.9476,128.1952 L297.7577,138.1482 L298.0329,148.1012 L296.5488,158.0542 L297.3964,168.0072 L296.9313,177.9602 L296.9887,187.9132 L297.4091,197.8662 L296.5782,207.8192 L298.2382,217.7722 L296.6596,227.7252 L297.2363,237.6782 L298.0759,247.6312 L297.3856,257.5842 L297.591,267.5372 L297.4574,277.4902 L297.738,287.4432 L297.8188,297.3962 L298.2809,307.3492 L298.3947,317.3022 L298.4057,327.2552 L297.8395,337.2083 L298.1181,347.1613 L298.4363,357.1143 L296.5384,367.0673 L298.4047,377.0203 L297.1047,386.9733 L298.2117,396.9263 L296.84,406.8793 L297.4087,416.8323 L298.4888,426.7853 L297.435,436.7383 L297.6404,446.6913 L297.9515,456.6443 L298.055,466.5973 L297.4948,476.5503 L297.883,486.5033 L296.7368,496.4563 L297.8792,506.4093 L298.2309,516.3623 L298.0927,526.3153 L298.3174,536.2683 L296.8559,546.2213 L296.6304,556.1743 L296.6715,566.1273 L297.4215,576.0803 L297.238,586.0333 L298.4085,595.9863 L297.2671,605.9393 L297.0426,615.8923 L297.8044,625.8453 L296.6109,635.7983 L296.8078,645.7513 L298.3653,655.7043 L298.0809,665.6573 L298.4793,675.6104 L297.0709,685.5634 L297.9256,695.5164 L298.2872,705.4694 L296.8701,715.4224 L297.3722,725.3754 L297.668,735.3284 L298.369,745.2814 L297.5,755.2344 " fill="none" style="stroke:#A80036;stroke-width:1.0;stroke-dasharray:5.0,5.0;"/><path d="M452,159.5391 L452.2802,159.5391 L451.4476,169.4673 L452.2577,179.3956 L452.5329,189.3238 L451.0488,199.2521 L451.8964,209.1803 L451.4313,219.1086 L451.4887,229.0368 L451.9091,238.9651 L451.0782,248.8934 L452.7382,258.8216 L451.1596,268.7499 L451.7363,278.6781 L452.5759,288.6064 L451.8856,298.5346 L452.091,308.4629 L451.9574,318.3911 L452.238,328.3194 L452.3188,338.2477 L452.7809,348.1759 L452.8947,358.1042 L452.9057,368.0324 L452.3395,377.9607 L452.6181,387.8889 L452.9363,397.8172 L451.0384,407.7454 L452.9047,417.6737 L451.6047,427.602 L452.7117,437.5302 L451.34,447.4585 L451.9087,457.3867 L452.9888,467.315 L451.935,477.2432 L452.1404,487.1715 L452.4515,497.0997 L452.555,507.028 L451.9948,516.9563 L452.383,526.8845 L451.2368,536.8128 L452.3792,546.741 L452.7309,556.6693 L452.5927,566.5975 L452.8174,576.5258 L451.3559,586.454 L451.1304,596.3823 L451.1715,606.3105 L451.9215,616.2388 L451.738,626.1671 L452.9085,636.0953 L451.7671,646.0236 L451.5426,655.9518 L452.3044,665.8801 L451.1109,675.8083 L451.3078,685.7366 L452.8653,695.6648 L452.5809,705.5931 L452.9793,715.5214 L451.5709,725.4496 L452.4256,735.3779 L452.7872,745.3061 L452,755.2344 " fill="none" style="stroke:#A80036;stroke-width:1.0;stroke-dasharray:5.0,5.0;"/><path d="M616.5,200.8359 L616.7802,200.8359 L615.9476,210.9159 L616.7577,220.9959 L617.0329,231.0759 L615.5488,241.1558 L616.3964,251.2358 L615.9313,261.3158 L615.9887,271.3957 L616.4091,281.4757 L615.5782,291.5557 L617.2382,301.6357 L615.6596,311.7156 L616.2363,321.7956 L617.0759,331.8756 L616.3856,341.9555 L616.591,352.0355 L616.4574,362.1155 L616.738,372.1955 L616.8188,382.2754 L617.2809,392.3554 L617.3947,402.4354 L617.4057,412.5153 L616.8395,422.5953 L617.1181,432.6753 L617.4363,442.7553 L615.5384,452.8352 L617.4047,462.9152 L616.1047,472.9952 L617.2117,483.0751 L615.84,493.1551 L616.4087,503.2351 L617.4888,513.3151 L616.435,523.395 L616.6404,533.475 L616.9515,543.555 L617.055,553.6349 L616.4948,563.7149 L616.883,573.7949 L615.7368,583.8749 L616.8792,593.9548 L617.2309,604.0348 L617.0927,614.1148 L617.3174,624.1947 L615.8559,634.2747 L615.6304,644.3547 L615.6715,654.4347 L616.4215,664.5146 L616.238,674.5946 L617.4085,684.6746 L616.2671,694.7545 L616.0426,704.8345 L616.8044,714.9145 L615.6109,724.9945 L615.8078,735.0744 L617.3653,745.1544 L616.5,755.2344 " fill="none" style="stroke:#A80036;stroke-width:1.0;stroke-dasharray:5.0,5.0;"/><path d="M784.5,242.1328 L784.7802,242.1328 L783.9476,252.1936 L784.7577,262.2544 L785.0329,272.3153 L783.5488,282.3761 L784.3964,292.4369 L783.9313,302.4977 L783.9887,312.5585 L784.4091,322.6193 L783.5782,332.6801 L785.2382,342.741 L783.6596,352.8018 L784.2363,362.8626 L785.0759,372.9234 L784.3856,382.9842 L784.591,393.045 L784.4574,403.1059 L784.738,413.1667 L784.8188,423.2275 L785.2809,433.2883 L785.3947,443.3491 L785.4057,453.4099 L784.8395,463.4707 L785.1181,473.5316 L785.4363,483.5924 L783.5384,493.6532 L785.4047,503.714 L784.1047,513.7748 L785.2117,523.8356 L783.84,533.8964 L784.4087,543.9573 L785.4888,554.0181 L784.435,564.0789 L784.6404,574.1397 L784.9515,584.2005 L785.055,594.2613 L784.4948,604.3222 L784.883,614.383 L783.7368,624.4438 L784.8792,634.5046 L785.2309,644.5654 L785.0927,654.6262 L785.3174,664.687 L783.8559,674.7479 L783.6304,684.8087 L783.6715,694.8695 L784.4215,704.9303 L784.238,714.9911 L785.4085,725.0519 L784.2671,735.1127 L784.0426,745.1736 L784.5,755.2344 " fill="none" style="stroke:#A80036;stroke-width:1.0;stroke-dasharray:5.0,5.0;"/><path d="M931.5,370.8281 L931.7802,370.8281 L930.9476,380.9441 L931.7577,391.06 L932.0329,401.176 L930.5488,411.2919 L931.3964,421.4079 L930.9313,431.5238 L930.9887,441.6398 L931.4091,451.7558 L930.5782,461.8717 L932.2382,471.9877 L930.6596,482.1036 L931.2363,492.2196 L932.0759,502.3355 L931.3856,512.4515 L931.591,522.5674 L931.4574,532.6834 L931.738,542.7993 L931.8188,552.9153 L932.2809,563.0313 L932.3947,573.1472 L932.4057,583.2632 L931.8395,593.3791 L932.1181,603.4951 L932.4363,613.611 L930.5384,623.727 L932.4047,633.8429 L931.1047,643.9589 L932.2117,654.0748 L930.84,664.1908 L931.4087,674.3067 L932.4888,684.4227 L931.435,694.5387 L931.6404,704.6546 L931.9515,714.7706 L932.055,724.8865 L931.4948,735.0025 L931.883,745.1184 L931.5,755.2344 " fill="none" style="stroke:#A80036;stroke-width:1.0;stroke-dasharray:5.0,5.0;"/><path d="M1077.5,499.5234 L1077.7802,499.5234 L1076.9476,509.3585 L1077.7577,519.1935 L1078.0329,529.0285 L1076.5488,538.8636 L1077.3964,548.6986 L1076.9313,558.5337 L1076.9887,568.3687 L1077.4091,578.2037 L1076.5782,588.0388 L1078.2382,597.8738 L1076.6596,607.7088 L1077.2363,617.5439 L1078.0759,627.3789 L1077.3856,637.2139 L1077.591,647.049 L1077.4574,656.884 L1077.738,666.7191 L1077.8188,676.5541 L1078.2809,686.3891 L1078.3947,696.2242 L1078.4057,706.0592 L1077.8395,715.8942 L1078.1181,725.7293 L1078.4363,735.5643 L1076.5384,745.3993 L1077.5,755.2344 " fill="none" style="stroke:#A80036;stroke-width:1.0;stroke-dasharray:5.0,5.0;"/><polygon fill="#FEFECE" points="5,5,5,5.2102,14.4,4.5857,23.8,5.1933,33.2,5.3997,42.6,4.2866,52,5,51.9741,5,51.8578,11.0594,51.8722,17.1188,51.9773,23.1781,51.7695,29.2375,52,35.2969,52,35.8505,42.6,34.6666,33.2,35.0991,23.8,35.7288,14.4,35.2111,5,35.2969,5.0227,35.2969,4.9894,29.2375,5.0595,23.1781,5.0797,17.1188,5.1952,11.0594,5,5" style="stroke:#A80036;stroke-width:1.5;"/><text fill="#000000" font-family="sans-serif" font-size="14" lengthAdjust="spacing" textLength="33" x="12" y="24.9951">Main</text><polygon fill="#A80036" points="91.5,63.4297,91.526,63.4947,93.4487,64.1015,95.5239,65.0895,97.5495,65.9534,99.4117,66.4089,101.5,67.4297,101.4904,67.4056,99.4472,68.0977,97.4525,68.911,95.4916,69.8086,93.4144,70.4157,91.5,71.4297,91.6845,71.4297,91.2899,69.8297,91.4341,68.2297,91.644,66.6297,91.4714,65.0297,91.5,63.4297" style="stroke:#A80036;stroke-width:1.0;"/><path d="M28.5,67.4297 L28.5,67.7099 L38.3571,66.8773 L48.2143,67.6874 L58.0714,67.9626 L67.9286,66.4785 L77.7857,67.3261 L87.6429,66.861 L97.5,67.4297 " fill="none" style="stroke:#A80036;stroke-width:1.0;stroke-dasharray:2.0,2.0;"/><text fill="#000000" font-family="sans-serif" font-size="13" lengthAdjust="spacing" textLength="51" x="35.5" y="62.3638">create()</text><polygon fill="#FEFECE" points="103.5,46.2969,103.5,46.5071,113.8636,45.8826,124.2273,46.4902,134.5909,46.6966,144.9545,45.5835,155.3182,46.2192,165.6818,45.8704,176.0455,45.9134,186.4091,46.2287,196.7727,45.6055,207.1364,46.8505,217.5,46.2969,217.2899,46.2969,217.4341,52.3563,217.644,58.4156,217.4714,64.475,217.5227,70.5344,217.5,76.5938,217.5,76.5618,207.1364,76.7723,196.7727,76.8329,186.4091,77.1794,176.0455,77.2648,165.6818,77.273,155.3182,76.8484,144.9545,77.0573,134.5909,77.296,124.2273,75.8726,113.8636,77.2723,103.5,76.5938,103.4012,76.5938,103.6779,70.5344,103.335,64.475,103.4772,58.4156,103.7472,52.3563,103.5,46.2969" style="stroke:#A80036;stroke-width:1.5;"/><text fill="#000000" font-family="sans-serif" font-size="14" lengthAdjust="spacing" textLength="100" x="110.5" y="66.292">:TestExemple</text><polygon fill="#A80036" points="215.5,104.7266,215.526,104.7916,217.4487,105.3983,219.5239,106.3864,221.5495,107.2503,223.4117,107.7058,225.5,108.7266,225.4904,108.7025,223.4472,109.3946,221.4525,110.2079,219.4916,111.1055,217.4144,111.7126,215.5,112.7266,215.6845,112.7266,215.2899,111.1266,215.4341,109.5266,215.644,107.9266,215.4714,106.3266,215.5,104.7266" style="stroke:#A80036;stroke-width:1.0;"/><path d="M160.5,108.7266 L160.5,109.0068 L170.6667,108.1741 L180.8333,108.9843 L191,109.2595 L201.1667,107.7754 L211.3333,108.6229 L221.5,108.7266 " fill="none" style="stroke:#A80036;stroke-width:1.0;stroke-dasharray:2.0,2.0;"/><text fill="#000000" font-family="sans-serif" font-size="13" lengthAdjust="spacing" textLength="41" x="167.5" y="103.6606">create</text><polygon fill="#FEFECE" points="227.5,87.5938,227.5,87.8039,237.5,87.1794,247.5,87.787,257.5,87.9934,267.5,86.8804,277.5,87.516,287.5,87.1673,297.5,87.2103,307.5,87.5256,317.5,86.9024,327.5,88.1474,337.5,86.9635,347.5,87.396,357.5,88.0257,367.5,87.5938,367.4714,87.5938,367.5227,93.6531,367.4894,99.7125,367.5595,105.7719,367.5797,111.8313,367.5,117.8906,367.5,118.4763,357.5,118.5617,347.5,118.5699,337.5,118.1453,327.5,118.3542,317.5,118.5929,307.5,117.1694,297.5,118.5691,287.5,117.5941,277.5,118.4244,267.5,117.3956,257.5,117.8221,247.5,118.6322,237.5,117.8419,227.5,117.8906,227.5351,117.8906,227.6129,111.8313,227.6387,105.7719,227.4987,99.7125,227.5957,93.6531,227.5,87.5938" style="stroke:#A80036;stroke-width:1.5;"/><text fill="#000000" font-family="sans-serif" font-size="14" lengthAdjust="spacing" textLength="126" x="234.5" y="107.5889">model:TextModel</text><polygon fill="#A80036" points="390,146.0234,390.026,146.0885,391.9487,146.6952,394.0239,147.6833,396.0495,148.5471,397.9117,149.0026,400,150.0234,399.9904,149.9994,397.9472,150.6914,395.9525,151.5047,393.9916,152.4023,391.9144,153.0095,390,154.0234,390.1845,154.0234,389.7899,152.4234,389.9341,150.8234,390.144,149.2234,389.9714,147.6234,390,146.0234" style="stroke:#A80036;stroke-width:1.0;"/><path d="M297.5,150.0234 L297.5,150.3037 L307.35,149.471 L317.2,150.2812 L327.05,150.5563 L336.9,149.0722 L346.75,149.9198 L356.6,149.4548 L366.45,149.5121 L376.3,149.9326 L386.15,149.1016 L396,150.0234 " fill="none" style="stroke:#A80036;stroke-width:1.0;stroke-dasharray:2.0,2.0;"/><text fill="#000000" font-family="sans-serif" font-size="13" lengthAdjust="spacing" textLength="52" x="304.5" y="144.9575">extends</text><polygon fill="#FEFECE" points="402,128.8906,402,129.1008,412.1,128.4763,422.2,129.0839,432.3,129.2903,442.4,128.1772,452.5,128.8129,462.6,128.4641,472.7,128.5071,482.8,128.8225,492.9,128.1993,503,128.8906,503.1845,128.8906,502.7899,134.95,502.9341,141.0094,503.144,147.0688,502.9714,153.1281,503,159.1875,503,159.2557,492.9,159.1556,482.8,159.366,472.7,159.4266,462.6,159.7732,452.5,159.8586,442.4,159.8668,432.3,159.4421,422.2,159.6511,412.1,159.8897,402,159.1875,401.7596,159.1875,402.2262,153.1281,401.9012,147.0688,402.1779,141.0094,401.835,134.95,402,128.8906" style="stroke:#A80036;stroke-width:1.5;"/><text fill="#000000" font-family="sans-serif" font-size="14" lengthAdjust="spacing" textLength="87" x="409" y="148.8857">:Observable</text><polygon fill="#A80036" points="515.5,187.3203,515.526,187.3854,517.4487,187.9921,519.5239,188.9801,521.5495,189.844,523.4117,190.2995,525.5,191.3203,525.4904,191.2963,523.4472,191.9883,521.4525,192.8016,519.4916,193.6992,517.4144,194.3063,515.5,195.3203,515.6845,195.3203,515.2899,193.7203,515.4341,192.1203,515.644,190.5203,515.4714,188.9203,515.5,187.3203" style="stroke:#A80036;stroke-width:1.0;"/><path d="M452.5,191.3203 L452.5,191.6006 L462.3571,190.7679 L472.2143,191.578 L482.0714,191.8532 L491.9286,190.3691 L501.7857,191.2167 L511.6429,190.7517 L521.5,191.3203 " fill="none" style="stroke:#A80036;stroke-width:1.0;stroke-dasharray:2.0,2.0;"/><text fill="#000000" font-family="sans-serif" font-size="13" lengthAdjust="spacing" textLength="51" x="459.5" y="186.2544">create()</text><polygon fill="#FEFECE" points="527.5,170.1875,527.5,170.3977,537.4444,169.7732,547.3889,170.3808,557.3333,170.5872,567.2778,169.4741,577.2222,170.1098,587.1667,169.761,597.1111,169.804,607.0556,170.1193,617,169.4961,626.9444,170.7411,636.8889,169.5572,646.8333,169.9897,656.7778,170.6194,666.7222,170.1017,676.6667,170.2557,686.6111,170.1556,696.5556,170.366,706.5,170.1875,706.5797,170.1875,706.6952,176.2469,706.7237,182.3063,706.7264,188.3656,706.5849,194.425,706.5,200.4844,706.5,200.948,696.5556,201.1866,686.6111,199.7632,676.6667,201.1629,666.7222,200.1879,656.7778,201.0182,646.8333,199.9894,636.8889,200.4159,626.9444,201.226,617,200.4356,607.0556,200.5897,597.1111,200.823,587.1667,200.9006,577.2222,200.4805,567.2778,200.7716,557.3333,199.912,547.3889,200.7688,537.4444,201.0326,527.5,200.4844,527.6482,200.4844,527.7043,194.425,527.339,188.3656,527.2826,182.3063,527.2929,176.2469,527.5,170.1875" style="stroke:#A80036;stroke-width:1.5;"/><text fill="#000000" font-family="sans-serif" font-size="14" lengthAdjust="spacing" textLength="165" x="534.5" y="190.1826">view[i]:List&lt;Observer&gt;</text><polygon fill="#A80036" points="704.5,228.6172,704.526,228.6822,706.4487,229.289,708.5239,230.277,710.5495,231.1409,712.4117,231.5964,714.5,232.6172,714.4904,232.5931,712.4472,233.2852,710.4525,234.0985,708.4916,234.9961,706.4144,235.6032,704.5,236.6172,704.6845,236.6172,704.2899,235.0172,704.4341,233.4172,704.644,231.8172,704.4714,230.2172,704.5,228.6172" style="stroke:#A80036;stroke-width:1.0;"/><path d="M160.5,232.6172 L160.5,232.8974 L170.5,232.0648 L180.5,232.8749 L190.5,233.1501 L200.5,231.666 L210.5,232.5136 L220.5,232.0485 L230.5,232.1059 L240.5,232.5263 L250.5,231.6954 L260.5,233.3554 L270.5,231.7768 L280.5,232.3535 L290.5,233.1931 L300.5,232.5028 L310.5,232.7082 L320.5,232.5746 L330.5,232.8552 L340.5,232.936 L350.5,233.3981 L360.5,233.5119 L370.5,233.5229 L380.5,232.9567 L390.5,233.2353 L400.5,233.5535 L410.5,231.6556 L420.5,233.5219 L430.5,232.2218 L440.5,233.3289 L450.5,231.9572 L460.5,232.5259 L470.5,233.606 L480.5,232.5522 L490.5,232.7576 L500.5,233.0687 L510.5,233.1722 L520.5,232.612 L530.5,233.0001 L540.5,231.854 L550.5,232.9964 L560.5,233.3481 L570.5,233.2099 L580.5,233.4346 L590.5,231.9731 L600.5,231.7476 L610.5,231.7887 L620.5,232.5387 L630.5,232.3551 L640.5,233.5257 L650.5,232.3843 L660.5,232.1598 L670.5,232.9215 L680.5,231.7281 L690.5,231.925 L700.5,233.4825 L710.5,232.6172 " fill="none" style="stroke:#A80036;stroke-width:1.0;stroke-dasharray:2.0,2.0;"/><text fill="#000000" font-family="sans-serif" font-size="13" lengthAdjust="spacing" textLength="253" x="167.5" y="227.5513">create(model: TextModel:,name:string)</text><polygon fill="#FEFECE" points="716.5,211.4844,716.5,211.6946,726.2857,211.0701,736.0714,211.6777,745.8571,211.8841,755.6429,210.771,765.4286,211.4067,775.2143,211.0579,785,211.1009,794.7857,211.4162,804.5714,210.793,814.3571,212.038,824.1429,210.8541,833.9286,211.2866,843.7143,211.9163,853.5,211.4844,853.4714,211.4844,853.5227,217.5438,853.4894,223.6031,853.5595,229.6625,853.5797,235.7219,853.5,241.7813,853.5,242.3669,843.7143,242.4523,833.9286,242.4605,824.1429,242.0359,814.3571,242.2448,804.5714,242.4835,794.7857,241.0601,785,242.4598,775.2143,241.4847,765.4286,242.3151,755.6429,241.2862,745.8571,241.7128,736.0714,242.5229,726.2857,241.7325,716.5,241.7813,716.5351,241.7813,716.6129,235.7219,716.6387,229.6625,716.4987,223.6031,716.5957,217.5438,716.5,211.4844" style="stroke:#A80036;stroke-width:1.5;"/><text fill="#000000" font-family="sans-serif" font-size="14" lengthAdjust="spacing" textLength="123" x="723.5" y="231.4795">view1:TextViewA</text><polygon fill="#A80036" points="308.5,269.9141,308.526,269.9791,306.4487,270.5858,304.5239,271.5739,302.5495,272.4378,300.4117,272.8933,298.5,273.9141,298.4904,273.89,300.4472,274.5821,302.4525,275.3954,304.4916,276.293,306.4144,276.9001,308.5,277.9141,308.6845,277.9141,308.2899,276.3141,308.4341,274.7141,308.644,273.1141,308.4714,271.5141,308.5,269.9141" style="stroke:#A80036;stroke-width:1.0;"/><path d="M302.5,273.9141 L302.5,274.1943 L312.5313,273.3616 L322.5625,274.1718 L332.5938,274.447 L342.625,272.9629 L352.6563,273.8104 L362.6875,273.3454 L372.7188,273.4027 L382.75,273.8232 L392.7813,272.9922 L402.8125,274.6523 L412.8438,273.0737 L422.875,273.6504 L432.9063,274.49 L442.9375,273.7997 L452.9688,274.005 L463,273.8715 L473.0313,274.1521 L483.0625,274.2329 L493.0938,274.695 L503.125,274.8088 L513.1563,274.8197 L523.1875,274.2536 L533.2188,274.5322 L543.25,274.8504 L553.2813,272.9525 L563.3125,274.8187 L573.3438,273.5187 L583.375,274.6258 L593.4063,273.254 L603.4375,273.8227 L613.4688,274.9029 L623.5,273.8491 L633.5313,274.0545 L643.5625,274.3656 L653.5938,274.469 L663.625,273.9089 L673.6563,274.297 L683.6875,273.1508 L693.7188,274.2932 L703.75,274.645 L713.7813,274.5068 L723.8125,274.7314 L733.8438,273.27 L743.875,273.0445 L753.9063,273.0855 L763.9375,273.8356 L773.9688,273.652 L784,273.9141 " fill="none" style="stroke:#A80036;stroke-width:1.0;"/><text fill="#000000" font-family="sans-serif" font-size="13" lengthAdjust="spacing" textLength="131" x="314.5" y="268.8481">addObserver(view1)</text><polygon fill="#A80036" points="440.5,299.0469,440.526,299.1119,442.4487,299.7186,444.5239,300.7067,446.5495,301.5706,448.4117,302.0261,450.5,303.0469,450.4904,303.0228,448.4472,303.7149,446.4525,304.5282,444.4916,305.4258,442.4144,306.0329,440.5,307.0469,440.6845,307.0469,440.2899,305.4469,440.4341,303.8469,440.644,302.2469,440.4714,300.6469,440.5,299.0469" style="stroke:#A80036;stroke-width:1.0;"/><path d="M297.5,303.0469 L297.5,303.3271 L307.4333,302.4944 L317.3667,303.3046 L327.3,303.5798 L337.2333,302.0957 L347.1667,302.9433 L357.1,302.4782 L367.0333,302.5355 L376.9667,302.956 L386.9,302.125 L396.8333,303.7851 L406.7667,302.2065 L416.7,302.7832 L426.6333,303.6228 L436.5667,302.9325 L446.5,303.0469 " fill="none" style="stroke:#A80036;stroke-width:1.0;"/><text fill="#000000" font-family="sans-serif" font-size="13" lengthAdjust="spacing" textLength="131" x="304.5" y="297.981">addObserver(view1)</text><polygon fill="#A80036" points="605,328.1797,605.026,328.2447,606.9487,328.8515,609.0239,329.8395,611.0495,330.7034,612.9117,331.1589,615,332.1797,614.9904,332.1556,612.9472,332.8477,610.9525,333.661,608.9916,334.5586,606.9144,335.1657,605,336.1797,605.1845,336.1797,604.7899,334.5797,604.9341,332.9797,605.144,331.3797,604.9714,329.7797,605,328.1797" style="stroke:#A80036;stroke-width:1.0;"/><path d="M452.5,332.1797 L452.5,332.4599 L462.4063,331.6273 L472.3125,332.4374 L482.2188,332.7126 L492.125,331.2285 L502.0313,332.0761 L511.9375,331.611 L521.8438,331.6684 L531.75,332.0888 L541.6563,331.2579 L551.5625,332.9179 L561.4688,331.3393 L571.375,331.916 L581.2813,332.7556 L591.1875,332.0653 L601.0938,332.2707 L611,332.1797 " fill="none" style="stroke:#A80036;stroke-width:1.0;"/><text fill="#000000" font-family="sans-serif" font-size="13" lengthAdjust="spacing" textLength="72" x="459.5" y="327.1138">add(view1)</text><polygon fill="#A80036" points="851.5,357.3125,851.526,357.3775,853.4487,357.9843,855.5239,358.9723,857.5495,359.8362,859.4117,360.2917,861.5,361.3125,861.4904,361.2884,859.4472,361.9805,857.4525,362.7938,855.4916,363.6914,853.4144,364.2985,851.5,365.3125,851.6845,365.3125,851.2899,363.7125,851.4341,362.1125,851.644,360.5125,851.4714,358.9125,851.5,357.3125" style="stroke:#A80036;stroke-width:1.0;"/><path d="M160.5,361.3125 L160.5,361.5927 L170.4571,360.7601 L180.4143,361.5702 L190.3714,361.8454 L200.3286,360.3613 L210.2857,361.2089 L220.2429,360.7438 L230.2,360.8012 L240.1571,361.2216 L250.1143,360.3907 L260.0714,362.0507 L270.0286,360.4721 L279.9857,361.0488 L289.9429,361.8884 L299.9,361.1981 L309.8571,361.4035 L319.8143,361.2699 L329.7714,361.5505 L339.7286,361.6313 L349.6857,362.0934 L359.6429,362.2072 L369.6,362.2182 L379.5571,361.652 L389.5143,361.9306 L399.4714,362.2488 L409.4286,360.3509 L419.3857,362.2172 L429.3429,360.9172 L439.3,362.0242 L449.2571,360.6525 L459.2143,361.2212 L469.1714,362.3013 L479.1286,361.2475 L489.0857,361.4529 L499.0429,361.764 L509,361.8675 L518.9571,361.3073 L528.9143,361.6955 L538.8714,360.5493 L548.8286,361.6917 L558.7857,362.0434 L568.7429,361.9052 L578.7,362.1299 L588.6571,360.6684 L598.6143,360.4429 L608.5714,360.484 L618.5286,361.234 L628.4857,361.0505 L638.4429,362.221 L648.4,361.0796 L658.3571,360.8551 L668.3143,361.6169 L678.2714,360.4234 L688.2286,360.6203 L698.1857,362.1778 L708.1429,361.8934 L718.1,362.2918 L728.0571,360.8834 L738.0143,361.7381 L747.9714,362.0997 L757.9286,360.6826 L767.8857,361.1847 L777.8429,361.4805 L787.8,362.1815 L797.7571,361.3069 L807.7143,361.9293 L817.6714,360.5741 L827.6286,360.4095 L837.5857,361.984 L847.5429,360.3566 L857.5,361.3125 " fill="none" style="stroke:#A80036;stroke-width:1.0;stroke-dasharray:2.0,2.0;"/><text fill="#000000" font-family="sans-serif" font-size="13" lengthAdjust="spacing" textLength="253" x="167.5" y="356.2466">create(model: TextModel:,name:string)</text><polygon fill="#FEFECE" points="863.5,340.1797,863.5,340.3899,873.2143,339.7654,882.9286,340.373,892.6429,340.5794,902.3571,339.4663,912.0714,340.102,921.7857,339.7532,931.5,339.7962,941.2143,340.1115,950.9286,339.4883,960.6429,340.7333,970.3571,339.5494,980.0714,339.9819,989.7857,340.6116,999.5,340.1797,999.4714,340.1797,999.5227,346.2391,999.4894,352.2984,999.5595,358.3578,999.5797,364.4172,999.5,370.4766,999.5,371.0623,989.7857,371.1476,980.0714,371.1558,970.3571,370.7312,960.6429,370.9401,950.9286,371.1788,941.2143,369.7554,931.5,371.1551,921.7857,370.1801,912.0714,371.0104,902.3571,369.9815,892.6429,370.4081,882.9286,371.2182,873.2143,370.4278,863.5,370.4766,863.5351,370.4766,863.6129,364.4172,863.6387,358.3578,863.4987,352.2984,863.5957,346.2391,863.5,340.1797" style="stroke:#A80036;stroke-width:1.5;"/><text fill="#000000" font-family="sans-serif" font-size="14" lengthAdjust="spacing" textLength="122" x="870.5" y="360.1748">view2:TextViewA</text><polygon fill="#A80036" points="308.5,398.6094,308.526,398.6744,306.4487,399.2811,304.5239,400.2692,302.5495,401.1331,300.4117,401.5886,298.5,402.6094,298.4904,402.5853,300.4472,403.2774,302.4525,404.0907,304.4916,404.9883,306.4144,405.5954,308.5,406.6094,308.6845,406.6094,308.2899,405.0094,308.4341,403.4094,308.644,401.8094,308.4714,400.2094,308.5,398.6094" style="stroke:#A80036;stroke-width:1.0;"/><path d="M302.5,402.6094 L302.5,402.8896 L312.4683,402.0569 L322.4365,402.8671 L332.4048,403.1423 L342.373,401.6582 L352.3413,402.5058 L362.3095,402.0407 L372.2778,402.098 L382.246,402.5185 L392.2143,401.6875 L402.1825,403.3476 L412.1508,401.769 L422.119,402.3457 L432.0873,403.1853 L442.0556,402.495 L452.0238,402.7004 L461.9921,402.5668 L471.9603,402.8474 L481.9286,402.9282 L491.8968,403.3903 L501.8651,403.5041 L511.8333,403.5151 L521.8016,402.9489 L531.7698,403.2275 L541.7381,403.5457 L551.7063,401.6478 L561.6746,403.5141 L571.6429,402.214 L581.6111,403.3211 L591.5794,401.9493 L601.5476,402.518 L611.5159,403.5982 L621.4841,402.5444 L631.4524,402.7498 L641.4206,403.0609 L651.3889,403.1644 L661.3571,402.6042 L671.3254,402.9923 L681.2937,401.8462 L691.2619,402.9886 L701.2302,403.3403 L711.1984,403.2021 L721.1667,403.4267 L731.1349,401.9653 L741.1032,401.7398 L751.0714,401.7808 L761.0397,402.5309 L771.0079,402.3473 L780.9762,403.5179 L790.9444,402.3765 L800.9127,402.152 L810.881,402.9137 L820.8492,401.7203 L830.8175,401.9172 L840.7857,403.4746 L850.754,403.1903 L860.7222,403.5887 L870.6905,402.1803 L880.6587,403.035 L890.627,403.3966 L900.5952,401.9795 L910.5635,402.4816 L920.5317,402.7774 L930.5,402.6094 " fill="none" style="stroke:#A80036;stroke-width:1.0;"/><text fill="#000000" font-family="sans-serif" font-size="13" lengthAdjust="spacing" textLength="131" x="314.5" y="397.5435">addObserver(view2)</text><polygon fill="#A80036" points="440.5,427.7422,440.526,427.8072,442.4487,428.414,444.5239,429.402,446.5495,430.2659,448.4117,430.7214,450.5,431.7422,450.4904,431.7181,448.4472,432.4102,446.4525,433.2235,444.4916,434.1211,442.4144,434.7282,440.5,435.7422,440.6845,435.7422,440.2899,434.1422,440.4341,432.5422,440.644,430.9422,440.4714,429.3422,440.5,427.7422" style="stroke:#A80036;stroke-width:1.0;"/><path d="M297.5,431.7422 L297.5,432.0224 L307.4333,431.1898 L317.3667,431.9999 L327.3,432.2751 L337.2333,430.791 L347.1667,431.6386 L357.1,431.1735 L367.0333,431.2309 L376.9667,431.6513 L386.9,430.8204 L396.8333,432.4804 L406.7667,430.9018 L416.7,431.4785 L426.6333,432.3181 L436.5667,431.6278 L446.5,431.7422 " fill="none" style="stroke:#A80036;stroke-width:1.0;"/><text fill="#000000" font-family="sans-serif" font-size="13" lengthAdjust="spacing" textLength="131" x="304.5" y="426.6763">addObserver(view2)</text><polygon fill="#A80036" points="605,456.875,605.026,456.94,606.9487,457.5468,609.0239,458.5348,611.0495,459.3987,612.9117,459.8542,615,460.875,614.9904,460.8509,612.9472,461.543,610.9525,462.3563,608.9916,463.2539,606.9144,463.861,605,464.875,605.1845,464.875,604.7899,463.275,604.9341,461.675,605.144,460.075,604.9714,458.475,605,456.875" style="stroke:#A80036;stroke-width:1.0;"/><path d="M452.5,460.875 L452.5,461.1552 L462.4063,460.3226 L472.3125,461.1327 L482.2188,461.4079 L492.125,459.9238 L502.0313,460.7714 L511.9375,460.3063 L521.8438,460.3637 L531.75,460.7841 L541.6563,459.9532 L551.5625,461.6132 L561.4688,460.0346 L571.375,460.6113 L581.2813,461.4509 L591.1875,460.7606 L601.0938,460.966 L611,460.875 " fill="none" style="stroke:#A80036;stroke-width:1.0;"/><text fill="#000000" font-family="sans-serif" font-size="13" lengthAdjust="spacing" textLength="72" x="459.5" y="455.8091">add(view2)</text><polygon fill="#A80036" points="997.5,486.0078,997.526,486.0729,999.4487,486.6796,1001.5239,487.6676,1003.5495,488.5315,1005.4117,488.987,1007.5,490.0078,1007.4904,489.9838,1005.4472,490.6758,1003.4525,491.4891,1001.4916,492.3867,999.4144,492.9938,997.5,494.0078,997.6845,494.0078,997.2899,492.4078,997.4341,490.8078,997.644,489.2078,997.4714,487.6078,997.5,486.0078" style="stroke:#A80036;stroke-width:1.0;"/><path d="M160.5,490.0078 L160.5,490.2881 L170.5357,489.4554 L180.5714,490.2655 L190.6071,490.5407 L200.6429,489.0566 L210.6786,489.9042 L220.7143,489.4392 L230.75,489.4965 L240.7857,489.9169 L250.8214,489.086 L260.8571,490.746 L270.8929,489.1674 L280.9286,489.7441 L290.9643,490.5837 L301,489.8934 L311.0357,490.0988 L321.0714,489.9652 L331.1071,490.2458 L341.1429,490.3267 L351.1786,490.7887 L361.2143,490.9026 L371.25,490.9135 L381.2857,490.3473 L391.3214,490.6259 L401.3571,490.9441 L411.3929,489.0462 L421.4286,490.9125 L431.4643,489.6125 L441.5,490.7196 L451.5357,489.3478 L461.5714,489.9165 L471.6071,490.9966 L481.6429,489.9428 L491.6786,490.1482 L501.7143,490.4593 L511.75,490.5628 L521.7857,490.0026 L531.8214,490.3908 L541.8571,489.2446 L551.8929,490.387 L561.9286,490.7387 L571.9643,490.6005 L582,490.8252 L592.0357,489.3637 L602.0714,489.1382 L612.1071,489.1793 L622.1429,489.9293 L632.1786,489.7458 L642.2143,490.9164 L652.25,489.7749 L662.2857,489.5504 L672.3214,490.3122 L682.3571,489.1187 L692.3929,489.3156 L702.4286,490.8731 L712.4643,490.5887 L722.5,490.9871 L732.5357,489.5788 L742.5714,490.4334 L752.6071,490.795 L762.6429,489.3779 L772.6786,489.88 L782.7143,490.1758 L792.75,490.8768 L802.7857,490.0022 L812.8214,490.6246 L822.8571,489.2694 L832.8929,489.1048 L842.9286,490.6793 L852.9643,489.0519 L863,490.6864 L873.0357,490.2833 L883.0714,489.6506 L893.1071,489.5361 L903.1429,490.6195 L913.1786,489.6087 L923.2143,490.797 L933.25,489.2708 L943.2857,490.831 L953.3214,490.6536 L963.3571,490.3344 L973.3929,490.0708 L983.4286,490.9766 L993.4643,490.8259 L1003.5,490.0078 " fill="none" style="stroke:#A80036;stroke-width:1.0;stroke-dasharray:2.0,2.0;"/><text fill="#000000" font-family="sans-serif" font-size="13" lengthAdjust="spacing" textLength="253" x="167.5" y="484.9419">create(model: TextModel:,name:string)</text><polygon fill="#FEFECE" points="1009.5,468.875,1009.5,469.0852,1019.2857,468.4607,1029.0714,469.0683,1038.8571,469.2747,1048.6429,468.1616,1058.4286,468.7973,1068.2143,468.4485,1078,468.4915,1087.7857,468.8068,1097.5714,468.1836,1107.3571,469.4286,1117.1429,468.2447,1126.9286,468.6772,1136.7143,469.3069,1146.5,468.875,1146.4714,468.875,1146.5227,474.9344,1146.4894,480.9938,1146.5595,487.0531,1146.5797,493.1125,1146.5,499.1719,1146.5,499.7576,1136.7143,499.8429,1126.9286,499.8511,1117.1429,499.4265,1107.3571,499.6355,1097.5714,499.8741,1087.7857,498.4507,1078,499.8504,1068.2143,498.8754,1058.4286,499.7057,1048.6429,498.6769,1038.8571,499.1034,1029.0714,499.9135,1019.2857,499.1231,1009.5,499.1719,1009.5351,499.1719,1009.6129,493.1125,1009.6387,487.0531,1009.4987,480.9938,1009.5957,474.9344,1009.5,468.875" style="stroke:#A80036;stroke-width:1.5;"/><text fill="#000000" font-family="sans-serif" font-size="14" lengthAdjust="spacing" textLength="123" x="1016.5" y="488.8701">view3:TextViewB</text><polygon fill="#A80036" points="308.5,527.3047,308.526,527.3697,306.4487,527.9765,304.5239,528.9645,302.5495,529.8284,300.4117,530.2839,298.5,531.3047,298.4904,531.2806,300.4472,531.9727,302.4525,532.786,304.4916,533.6836,306.4144,534.2907,308.5,535.3047,308.6845,535.3047,308.2899,533.7047,308.4341,532.1047,308.644,530.5047,308.4714,528.9047,308.5,527.3047" style="stroke:#A80036;stroke-width:1.0;"/><path d="M302.5,531.3047 L302.5,531.5849 L312.5584,530.7523 L322.6169,531.5624 L332.6753,531.8376 L342.7338,530.3535 L352.7922,531.2011 L362.8506,530.736 L372.9091,530.7934 L382.9675,531.2138 L393.026,530.3829 L403.0844,532.0429 L413.1429,530.4643 L423.2013,531.041 L433.2597,531.8806 L443.3182,531.1903 L453.3766,531.3957 L463.4351,531.2621 L473.4935,531.5427 L483.5519,531.6235 L493.6104,532.0856 L503.6688,532.1994 L513.7273,532.2104 L523.7857,531.6442 L533.8442,531.9228 L543.9026,532.241 L553.961,530.3431 L564.0195,532.2094 L574.0779,530.9093 L584.1364,532.0164 L594.1948,530.6447 L604.2532,531.2134 L614.3117,532.2935 L624.3701,531.2397 L634.4286,531.4451 L644.487,531.7562 L654.5455,531.8597 L664.6039,531.2995 L674.6623,531.6876 L684.7208,530.5415 L694.7792,531.6839 L704.8377,532.0356 L714.8961,531.8974 L724.9545,532.1221 L735.013,530.6606 L745.0714,530.4351 L755.1299,530.4762 L765.1883,531.2262 L775.2468,531.0426 L785.3052,532.2132 L795.3636,531.0718 L805.4221,530.8473 L815.4805,531.609 L825.539,530.4156 L835.5974,530.6125 L845.6558,532.17 L855.7143,531.8856 L865.7727,532.284 L875.8312,530.8756 L885.8896,531.7303 L895.9481,532.0919 L906.0065,530.6748 L916.0649,531.1769 L926.1234,531.4727 L936.1818,532.1737 L946.2403,531.2991 L956.2987,531.9214 L966.3571,530.5663 L976.4156,530.4017 L986.474,531.9762 L996.5325,530.3488 L1006.5909,531.9833 L1016.6494,531.5802 L1026.7078,530.9475 L1036.7662,530.833 L1046.8247,531.9164 L1056.8831,530.9056 L1066.9416,532.0938 L1077,531.3047 " fill="none" style="stroke:#A80036;stroke-width:1.0;"/><text fill="#000000" font-family="sans-serif" font-size="13" lengthAdjust="spacing" textLength="131" x="314.5" y="526.2388">addObserver(view3)</text><polygon fill="#A80036" points="440.5,556.4375,440.526,556.5025,442.4487,557.1093,444.5239,558.0973,446.5495,558.9612,448.4117,559.4167,450.5,560.4375,450.4904,560.4134,448.4472,561.1055,446.4525,561.9188,444.4916,562.8164,442.4144,563.4235,440.5,564.4375,440.6845,564.4375,440.2899,562.8375,440.4341,561.2375,440.644,559.6375,440.4714,558.0375,440.5,556.4375" style="stroke:#A80036;stroke-width:1.0;"/><path d="M297.5,560.4375 L297.5,560.7177 L307.4333,559.8851 L317.3667,560.6952 L327.3,560.9704 L337.2333,559.4863 L347.1667,560.3339 L357.1,559.8688 L367.0333,559.9262 L376.9667,560.3466 L386.9,559.5157 L396.8333,561.1757 L406.7667,559.5971 L416.7,560.1738 L426.6333,561.0134 L436.5667,560.3231 L446.5,560.4375 " fill="none" style="stroke:#A80036;stroke-width:1.0;"/><text fill="#000000" font-family="sans-serif" font-size="13" lengthAdjust="spacing" textLength="131" x="304.5" y="555.3716">addObserver(view3)</text><polygon fill="#A80036" points="605,585.5703,605.026,585.6354,606.9487,586.2421,609.0239,587.2301,611.0495,588.094,612.9117,588.5495,615,589.5703,614.9904,589.5463,612.9472,590.2383,610.9525,591.0516,608.9916,591.9492,606.9144,592.5563,605,593.5703,605.1845,593.5703,604.7899,591.9703,604.9341,590.3703,605.144,588.7703,604.9714,587.1703,605,585.5703" style="stroke:#A80036;stroke-width:1.0;"/><path d="M452.5,589.5703 L452.5,589.8506 L462.4063,589.0179 L472.3125,589.828 L482.2188,590.1032 L492.125,588.6191 L502.0313,589.4667 L511.9375,589.0017 L521.8438,589.059 L531.75,589.4794 L541.6563,588.6485 L551.5625,590.3085 L561.4688,588.7299 L571.375,589.3066 L581.2813,590.1462 L591.1875,589.4559 L601.0938,589.6613 L611,589.5703 " fill="none" style="stroke:#A80036;stroke-width:1.0;"/><text fill="#000000" font-family="sans-serif" font-size="13" lengthAdjust="spacing" textLength="72" x="459.5" y="584.5044">add(view3)</text><polygon fill="#A80036" points="308.5,614.7031,308.526,614.7682,306.4487,615.3749,304.5239,616.3629,302.5495,617.2268,300.4117,617.6823,298.5,618.7031,298.4904,618.6791,300.4472,619.3711,302.4525,620.1844,304.4916,621.082,306.4144,621.6892,308.5,622.7031,308.6845,622.7031,308.2899,621.1031,308.4341,619.5031,308.644,617.9031,308.4714,616.3031,308.5,614.7031" style="stroke:#A80036;stroke-width:1.0;"/><path d="M302.5,618.7031 L302.5,618.9834 L312.5584,618.1507 L322.6169,618.9608 L332.6753,619.236 L342.7338,617.7519 L352.7922,618.5995 L362.8506,618.1345 L372.9091,618.1918 L382.9675,618.6122 L393.026,617.7813 L403.0844,619.4413 L413.1429,617.8628 L423.2013,618.4394 L433.2597,619.2791 L443.3182,618.5888 L453.3766,618.7941 L463.4351,618.6605 L473.4935,618.9412 L483.5519,619.022 L493.6104,619.484 L503.6688,619.5979 L513.7273,619.6088 L523.7857,619.0426 L533.8442,619.3212 L543.9026,619.6394 L553.961,617.7415 L564.0195,619.6078 L574.0779,618.3078 L584.1364,619.4149 L594.1948,618.0431 L604.2532,618.6118 L614.3117,619.6919 L624.3701,618.6381 L634.4286,618.8435 L644.487,619.1546 L654.5455,619.2581 L664.6039,618.6979 L674.6623,619.0861 L684.7208,617.9399 L694.7792,619.0823 L704.8377,619.4341 L714.8961,619.2958 L724.9545,619.5205 L735.013,618.059 L745.0714,617.8335 L755.1299,617.8746 L765.1883,618.6246 L775.2468,618.4411 L785.3052,619.6117 L795.3636,618.4702 L805.4221,618.2457 L815.4805,619.0075 L825.539,617.814 L835.5974,618.011 L845.6558,619.5684 L855.7143,619.284 L865.7727,619.6824 L875.8312,618.2741 L885.8896,619.1287 L895.9481,619.4904 L906.0065,618.0733 L916.0649,618.5753 L926.1234,618.8711 L936.1818,619.5721 L946.2403,618.6975 L956.2987,619.3199 L966.3571,617.9647 L976.4156,617.8001 L986.474,619.3746 L996.5325,617.7472 L1006.5909,619.3817 L1016.6494,618.9786 L1026.7078,618.3459 L1036.7662,618.2314 L1046.8247,619.3148 L1056.8831,618.304 L1066.9416,619.4923 L1077,618.7031 " fill="none" style="stroke:#A80036;stroke-width:1.0;"/><text fill="#000000" font-family="sans-serif" font-size="13" lengthAdjust="spacing" textLength="163" x="314.5" y="613.6372">setState("allo mon coco")</text><polygon fill="#A80036" points="440.5,643.8359,440.526,643.901,442.4487,644.5077,444.5239,645.4958,446.5495,646.3596,448.4117,646.8151,450.5,647.8359,450.4904,647.8119,448.4472,648.5039,446.4525,649.3172,444.4916,650.2148,442.4144,650.822,440.5,651.8359,440.6845,651.8359,440.2899,650.2359,440.4341,648.6359,440.644,647.0359,440.4714,645.4359,440.5,643.8359" style="stroke:#A80036;stroke-width:1.0;"/><path d="M297.5,647.8359 L297.5,648.1162 L307.4333,647.2835 L317.3667,648.0937 L327.3,648.3688 L337.2333,646.8847 L347.1667,647.7323 L357.1,647.2673 L367.0333,647.3246 L376.9667,647.7451 L386.9,646.9141 L396.8333,648.5741 L406.7667,646.9956 L416.7,647.5722 L426.6333,648.4119 L436.5667,647.7216 L446.5,647.8359 " fill="none" style="stroke:#A80036;stroke-width:1.0;"/><text fill="#000000" font-family="sans-serif" font-size="13" lengthAdjust="spacing" textLength="79" x="304.5" y="642.77">setChange()</text><polygon fill="#A80036" points="440.5,672.9688,440.526,673.0338,442.4487,673.6405,444.5239,674.6286,446.5495,675.4924,448.4117,675.948,450.5,676.9688,450.4904,676.9447,448.4472,677.6368,446.4525,678.4501,444.4916,679.3477,442.4144,679.9548,440.5,680.9688,440.6845,680.9688,440.2899,679.3688,440.4341,677.7688,440.644,676.1688,440.4714,674.5688,440.5,672.9688" style="stroke:#A80036;stroke-width:1.0;"/><path d="M297.5,676.9688 L297.5,677.249 L307.4333,676.4163 L317.3667,677.2265 L327.3,677.5017 L337.2333,676.0176 L347.1667,676.8651 L357.1,676.4001 L367.0333,676.4574 L376.9667,676.8779 L386.9,676.0469 L396.8333,677.7069 L406.7667,676.1284 L416.7,676.7051 L426.6333,677.5447 L436.5667,676.8544 L446.5,676.9688 " fill="none" style="stroke:#A80036;stroke-width:1.0;"/><text fill="#000000" font-family="sans-serif" font-size="13" lengthAdjust="spacing" textLength="113" x="304.5" y="671.9028">notifyObservers()</text><path d="M392,691.9688 L392,692.5292 L401.75,690.8639 L411.5,692.4842 L421.25,693.0346 L431,690.0664 L440.75,691.7615 L450.5,690.8314 L460.25,690.9461 L470,691.9688 L469.9394,691.9688 L469.3854,693.3688 L470.4921,694.7688 L469.4398,696.1688 L469.8242,697.5688 L470,698.9688 L470.2715,699.2402 L467.9461,700.9148 L466.0429,703.0116 L463.9799,704.9487 L462.1122,707.081 L460,708.9688 L460,709.6064 L450.2857,710.5306 L440.5714,710.7582 L430.8571,710.7801 L421.1429,709.6478 L411.4286,710.205 L401.7143,710.8414 L392,708.9688 L391.3589,708.9688 L392.6031,705.5688 L391.7364,702.1688 L392.4745,698.7688 L391.56,695.3688 L392,691.9688 " fill="#EEEEEE" style="stroke:#000000;stroke-width:1.0;"/><polygon fill="none" points="392,691.9688,392,692.1789,402.1406,691.5544,412.2813,692.162,422.4219,692.3684,432.5625,691.2554,442.7031,691.891,452.8438,691.5423,462.9844,691.5853,473.125,691.9006,483.2656,691.2774,493.4063,692.5224,503.5469,691.3385,513.6875,691.771,523.8281,692.4007,533.9688,691.883,544.1094,692.037,554.25,691.9368,564.3906,692.1473,574.5313,692.2079,584.6719,692.5544,594.8125,692.6398,604.9531,692.648,615.0938,692.2234,625.2344,692.4323,635.375,692.671,645.5156,691.2476,655.6563,692.6473,665.7969,691.6722,675.9375,692.5026,686.0781,691.4737,696.2188,691.9003,706.3594,692.7104,716.5,691.9688,716.4513,691.9688,716.6053,701.2219,716.8386,710.475,716.9162,719.7281,716.4961,728.9813,716.5,738.2344,716.5,738.5216,706.3594,737.662,696.2188,738.5188,686.0781,738.7826,675.9375,738.6789,665.7969,738.8474,655.6563,737.7513,645.5156,737.5822,635.375,737.613,625.2344,738.1755,615.0938,738.0378,604.9531,738.9158,594.8125,738.0597,584.6719,737.8913,574.5313,738.4626,564.3906,737.5675,554.25,737.7152,544.1094,738.8833,533.9688,738.67,523.8281,738.9689,513.6875,737.9126,503.5469,738.5536,493.4063,738.8248,483.2656,737.762,473.125,738.1385,462.9844,738.3604,452.8438,738.8861,442.7031,738.2302,432.5625,738.6969,422.4219,737.6806,412.2813,737.5571,402.1406,738.738,392,738.2344,391.2831,738.2344,392.509,728.9813,392.2066,719.7281,391.7321,710.475,391.6462,701.2219,392,691.9688" style="stroke:#000000;stroke-width:2.0;"/><text fill="#000000" font-family="sans-serif" font-size="13" font-weight="bold" lengthAdjust="spacing" textLength="33" x="407" y="705.0356">loop</text><polygon fill="#A80036" points="605,726.2344,605.026,726.2994,606.9487,726.9061,609.0239,727.8942,611.0495,728.7581,612.9117,729.2136,615,730.2344,614.9904,730.2103,612.9472,730.9024,610.9525,731.7157,608.9916,732.6133,606.9144,733.2204,605,734.2344,605.1845,734.2344,604.7899,732.6344,604.9341,731.0344,605.144,729.4344,604.9714,727.8344,605,726.2344" style="stroke:#A80036;stroke-width:1.0;"/><path d="M452.5,730.2344 L452.5,730.5146 L462.4063,729.6819 L472.3125,730.4921 L482.2188,730.7673 L492.125,729.2832 L502.0313,730.1308 L511.9375,729.6657 L521.8438,729.723 L531.75,730.1435 L541.6563,729.3125 L551.5625,730.9726 L561.4688,729.394 L571.375,729.9707 L581.2813,730.8103 L591.1875,730.12 L601.0938,730.3254 L611,730.2344 " fill="none" style="stroke:#A80036;stroke-width:1.0;"/><text fill="#000000" font-family="sans-serif" font-size="13" lengthAdjust="spacing" textLength="115" x="459.5" y="725.1685">update(this,state)</text><!--MD5=[8a01f20216d1714b305b54aad733f154]
@startuml
skinparam style strictuml
skinparam Handwritten true
participant "Main" as M
participant ":TestExemple" as TE
participant "model:TextModel" as TM 
participant ":Observable" as O
participant "view[i]:List<Observer>" as LO
participant "view1:TextViewA" as V1
participant "view2:TextViewA" as V2
participant "view3:TextViewB" as V3

M - -> TE**: create()
TE - -> TM**: create
TM - -> O**: extends
O - -> LO**: create()

TE - -> V1**: create(model: TextModel:,name:string)
V1 -> TM: addObserver(view1)
TM -> O:  addObserver(view1)
O -> LO:  add(view1)

TE - -> V2**: create(model: TextModel:,name:string)
V2 -> TM: addObserver(view2)
TM -> O:  addObserver(view2)
O -> LO:  add(view2)

TE - -> V3**: create(model: TextModel:,name:string)
V3 -> TM: addObserver(view3)
TM -> O:  addObserver(view3)
O -> LO:  add(view3)

V3->TM: setState("allo mon coco")

TM -> O: setChange()
TM -> O: notifyObservers()

loop 
O -> LO: update(this,state)
end
@enduml

PlantUML version 1.2021.01beta3(Unknown compile time)
(GPL source distribution)
Java Runtime: Java(TM) SE Runtime Environment
JVM: Java HotSpot(TM) 64-Bit Server VM
Default Encoding: UTF-8
Language: en
Country: US
--></g></svg>