<?xml version="1.0" encoding="UTF-8" standalone="no"?><svg xmlns="http://www.w3.org/2000/svg" xmlns:xlink="http://www.w3.org/1999/xlink" contentScriptType="application/ecmascript" contentStyleType="text/css" height="849px" preserveAspectRatio="none" style="width:2040px;height:849px;" version="1.1" viewBox="0 0 2040 849" width="2040px" zoomAndPan="magnify"><defs><filter height="300%" id="f1unx8yzzkxec6" width="300%" x="-1" y="-1"><feGaussianBlur result="blurOut" stdDeviation="2.0"/><feColorMatrix in="blurOut" result="blurOut2" type="matrix" values="0 0 0 0 0 0 0 0 0 0 0 0 0 0 0 0 0 0 .4 0"/><feOffset dx="4.0" dy="4.0" in="blurOut2" result="blurOut3"/><feBlend in="SourceGraphic" in2="blurOut3" mode="normal"/></filter></defs><g><!--MD5=[bfba4efe2dccdded6bdc13931ad7d9c8]
cluster Graphed2--><polygon fill="#FFFFFF" filter="url(#f1unx8yzzkxec6)" points="16,138,100,138,107,160.2969,1937,160.2969,1937,842,16,842,16,138" style="stroke:#000000;stroke-width:1.5;"/><line style="stroke:#000000;stroke-width:1.5;" x1="16" x2="107" y1="160.2969" y2="160.2969"/><text fill="#000000" font-family="sans-serif" font-size="14" font-weight="bold" lengthAdjust="spacing" textLength="78" x="20" y="152.9951">Graphed2</text><!--MD5=[2093fb8763e0963ab2d583dd77011000]
cluster Nodes--><polygon fill="#FFFFFF" filter="url(#f1unx8yzzkxec6)" points="851,181,906,181,913,203.2969,1127,203.2969,1127,530,851,530,851,181" style="stroke:#000000;stroke-width:1.5;"/><line style="stroke:#000000;stroke-width:1.5;" x1="851" x2="913" y1="203.2969" y2="203.2969"/><text fill="#000000" font-family="sans-serif" font-size="14" font-weight="bold" lengthAdjust="spacing" textLength="49" x="855" y="195.9951">Nodes</text><!--MD5=[2ff7a2ce7ac5a5ee51cda32890b3eae9]
cluster edges--><polygon fill="#FFFFFF" filter="url(#f1unx8yzzkxec6)" points="1151,181,1204,181,1211,203.2969,1747,203.2969,1747,754,1151,754,1151,181" style="stroke:#000000;stroke-width:1.5;"/><line style="stroke:#000000;stroke-width:1.5;" x1="1151" x2="1211" y1="203.2969" y2="203.2969"/><text fill="#000000" font-family="sans-serif" font-size="14" font-weight="bold" lengthAdjust="spacing" textLength="47" x="1155" y="195.9951">edges</text><!--MD5=[8d99dec471d764bb022fe73cb7ae03d5]
cluster Graphes--><polygon fill="#FFFFFF" filter="url(#f1unx8yzzkxec6)" points="1771,226,1844,226,1851,248.2969,1913,248.2969,1913,530,1771,530,1771,226" style="stroke:#000000;stroke-width:1.5;"/><line style="stroke:#000000;stroke-width:1.5;" x1="1771" x2="1851" y1="248.2969" y2="248.2969"/><text fill="#000000" font-family="sans-serif" font-size="14" font-weight="bold" lengthAdjust="spacing" textLength="67" x="1775" y="240.9951">Graphes</text><!--MD5=[aa8f7b917213fcc1c2766e2d59b49067]
cluster java.lang--><polygon fill="#FFFFFF" filter="url(#f1unx8yzzkxec6)" points="1067,6,1147,6,1154,28.2969,1183,28.2969,1183,105,1067,105,1067,6" style="stroke:#000000;stroke-width:1.5;"/><line style="stroke:#000000;stroke-width:1.5;" x1="1067" x2="1154" y1="28.2969" y2="28.2969"/><text fill="#000000" font-family="sans-serif" font-size="14" font-weight="bold" lengthAdjust="spacing" textLength="74" x="1071" y="20.9951">java.lang</text><!--MD5=[0d852700fdad35b7061d461d6907a324]
cluster java.io--><polygon fill="#FFFFFF" filter="url(#f1unx8yzzkxec6)" points="1569,6,1629,6,1636,28.2969,1701,28.2969,1701,105,1569,105,1569,6" style="stroke:#000000;stroke-width:1.5;"/><line style="stroke:#000000;stroke-width:1.5;" x1="1569" x2="1636" y1="28.2969" y2="28.2969"/><text fill="#000000" font-family="sans-serif" font-size="14" font-weight="bold" lengthAdjust="spacing" textLength="54" x="1573" y="20.9951">java.io</text><!--MD5=[9b4dd6cb265c728e071a30999097ca7a]
class FormLayout--><rect codeLine="2" fill="#FEFECE" filter="url(#f1unx8yzzkxec6)" height="48" id="FormLayout" style="stroke:#A80036;stroke-width:1.5;" width="102" x="730" y="261"/><ellipse cx="745" cy="277" fill="#ADD1B2" rx="11" ry="11" style="stroke:#A80036;stroke-width:1.0;"/><path d="M747.3438,272.6719 C746.4063,272.2344 745.8125,272.0938 744.9375,272.0938 C742.3125,272.0938 740.3125,274.1719 740.3125,276.8906 L740.3125,278.0156 C740.3125,280.5938 742.4219,282.4844 745.3125,282.4844 C746.5313,282.4844 747.6875,282.1875 748.4375,281.6406 C749.0156,281.2344 749.3438,280.7813 749.3438,280.3906 C749.3438,279.9375 748.9531,279.5469 748.4844,279.5469 C748.2656,279.5469 748.0625,279.625 747.875,279.8125 C747.4219,280.2969 747.4219,280.2969 747.2344,280.3906 C746.8125,280.6563 746.125,280.7813 745.3594,280.7813 C743.3125,280.7813 742.0156,279.6875 742.0156,277.9844 L742.0156,276.8906 C742.0156,275.1094 743.2656,273.7969 745,273.7969 C745.5781,273.7969 746.1875,273.9531 746.6563,274.2031 C747.1406,274.4844 747.3125,274.7031 747.4063,275.1094 C747.4688,275.5156 747.5,275.6406 747.6406,275.7656 C747.7813,275.9063 748.0156,276.0156 748.2344,276.0156 C748.5,276.0156 748.7656,275.875 748.9375,275.6563 C749.0469,275.5 749.0781,275.3125 749.0781,274.8906 L749.0781,273.4688 C749.0781,273.0313 749.0625,272.9063 748.9688,272.75 C748.8125,272.4844 748.5313,272.3438 748.2344,272.3438 C747.9375,272.3438 747.7344,272.4375 747.5156,272.75 L747.3438,272.6719 Z " fill="#000000"/><text fill="#000000" font-family="sans-serif" font-size="12" lengthAdjust="spacing" textLength="70" x="759" y="281.1543">FormLayout</text><line style="stroke:#A80036;stroke-width:1.5;" x1="731" x2="831" y1="293" y2="293"/><line style="stroke:#A80036;stroke-width:1.5;" x1="731" x2="831" y1="301" y2="301"/><!--MD5=[1819e500f5b91c72cc8852d41502a142]
class GraphFrame--><rect codeLine="3" fill="#FEFECE" filter="url(#f1unx8yzzkxec6)" height="48" id="GraphFrame" style="stroke:#A80036;stroke-width:1.5;" width="106" x="589" y="261"/><ellipse cx="604" cy="277" fill="#ADD1B2" rx="11" ry="11" style="stroke:#A80036;stroke-width:1.0;"/><path d="M606.3438,272.6719 C605.4063,272.2344 604.8125,272.0938 603.9375,272.0938 C601.3125,272.0938 599.3125,274.1719 599.3125,276.8906 L599.3125,278.0156 C599.3125,280.5938 601.4219,282.4844 604.3125,282.4844 C605.5313,282.4844 606.6875,282.1875 607.4375,281.6406 C608.0156,281.2344 608.3438,280.7813 608.3438,280.3906 C608.3438,279.9375 607.9531,279.5469 607.4844,279.5469 C607.2656,279.5469 607.0625,279.625 606.875,279.8125 C606.4219,280.2969 606.4219,280.2969 606.2344,280.3906 C605.8125,280.6563 605.125,280.7813 604.3594,280.7813 C602.3125,280.7813 601.0156,279.6875 601.0156,277.9844 L601.0156,276.8906 C601.0156,275.1094 602.2656,273.7969 604,273.7969 C604.5781,273.7969 605.1875,273.9531 605.6563,274.2031 C606.1406,274.4844 606.3125,274.7031 606.4063,275.1094 C606.4688,275.5156 606.5,275.6406 606.6406,275.7656 C606.7813,275.9063 607.0156,276.0156 607.2344,276.0156 C607.5,276.0156 607.7656,275.875 607.9375,275.6563 C608.0469,275.5 608.0781,275.3125 608.0781,274.8906 L608.0781,273.4688 C608.0781,273.0313 608.0625,272.9063 607.9688,272.75 C607.8125,272.4844 607.5313,272.3438 607.2344,272.3438 C606.9375,272.3438 606.7344,272.4375 606.5156,272.75 L606.3438,272.6719 Z " fill="#000000"/><text fill="#000000" font-family="sans-serif" font-size="12" lengthAdjust="spacing" textLength="74" x="618" y="281.1543">GraphFrame</text><line style="stroke:#A80036;stroke-width:1.5;" x1="590" x2="694" y1="293" y2="293"/><line style="stroke:#A80036;stroke-width:1.5;" x1="590" x2="694" y1="301" y2="301"/><!--MD5=[07d896a179d8d7d8315986348541bb58]
class GraphPanel--><rect codeLine="4" fill="#FEFECE" filter="url(#f1unx8yzzkxec6)" height="48" id="GraphPanel" style="stroke:#A80036;stroke-width:1.5;" width="99" x="298.5" y="261"/><ellipse cx="313.5" cy="277" fill="#ADD1B2" rx="11" ry="11" style="stroke:#A80036;stroke-width:1.0;"/><path d="M315.8438,272.6719 C314.9063,272.2344 314.3125,272.0938 313.4375,272.0938 C310.8125,272.0938 308.8125,274.1719 308.8125,276.8906 L308.8125,278.0156 C308.8125,280.5938 310.9219,282.4844 313.8125,282.4844 C315.0313,282.4844 316.1875,282.1875 316.9375,281.6406 C317.5156,281.2344 317.8438,280.7813 317.8438,280.3906 C317.8438,279.9375 317.4531,279.5469 316.9844,279.5469 C316.7656,279.5469 316.5625,279.625 316.375,279.8125 C315.9219,280.2969 315.9219,280.2969 315.7344,280.3906 C315.3125,280.6563 314.625,280.7813 313.8594,280.7813 C311.8125,280.7813 310.5156,279.6875 310.5156,277.9844 L310.5156,276.8906 C310.5156,275.1094 311.7656,273.7969 313.5,273.7969 C314.0781,273.7969 314.6875,273.9531 315.1563,274.2031 C315.6406,274.4844 315.8125,274.7031 315.9063,275.1094 C315.9688,275.5156 316,275.6406 316.1406,275.7656 C316.2813,275.9063 316.5156,276.0156 316.7344,276.0156 C317,276.0156 317.2656,275.875 317.4375,275.6563 C317.5469,275.5 317.5781,275.3125 317.5781,274.8906 L317.5781,273.4688 C317.5781,273.0313 317.5625,272.9063 317.4688,272.75 C317.3125,272.4844 317.0313,272.3438 316.7344,272.3438 C316.4375,272.3438 316.2344,272.4375 316.0156,272.75 L315.8438,272.6719 Z " fill="#000000"/><text fill="#000000" font-family="sans-serif" font-size="12" lengthAdjust="spacing" textLength="67" x="327.5" y="281.1543">GraphPanel</text><line style="stroke:#A80036;stroke-width:1.5;" x1="299.5" x2="396.5" y1="293" y2="293"/><line style="stroke:#A80036;stroke-width:1.5;" x1="299.5" x2="396.5" y1="301" y2="301"/><!--MD5=[a520837ef4416b7ac44f8bb1541877a6]
class JFrame--><rect codeLine="5" fill="#FEFECE" filter="url(#f1unx8yzzkxec6)" height="48" id="JFrame" style="stroke:#A80036;stroke-width:1.5;" width="74" x="600" y="466"/><ellipse cx="615" cy="482" fill="#ADD1B2" rx="11" ry="11" style="stroke:#A80036;stroke-width:1.0;"/><path d="M617.3438,477.6719 C616.4063,477.2344 615.8125,477.0938 614.9375,477.0938 C612.3125,477.0938 610.3125,479.1719 610.3125,481.8906 L610.3125,483.0156 C610.3125,485.5938 612.4219,487.4844 615.3125,487.4844 C616.5313,487.4844 617.6875,487.1875 618.4375,486.6406 C619.0156,486.2344 619.3438,485.7813 619.3438,485.3906 C619.3438,484.9375 618.9531,484.5469 618.4844,484.5469 C618.2656,484.5469 618.0625,484.625 617.875,484.8125 C617.4219,485.2969 617.4219,485.2969 617.2344,485.3906 C616.8125,485.6563 616.125,485.7813 615.3594,485.7813 C613.3125,485.7813 612.0156,484.6875 612.0156,482.9844 L612.0156,481.8906 C612.0156,480.1094 613.2656,478.7969 615,478.7969 C615.5781,478.7969 616.1875,478.9531 616.6563,479.2031 C617.1406,479.4844 617.3125,479.7031 617.4063,480.1094 C617.4688,480.5156 617.5,480.6406 617.6406,480.7656 C617.7813,480.9063 618.0156,481.0156 618.2344,481.0156 C618.5,481.0156 618.7656,480.875 618.9375,480.6563 C619.0469,480.5 619.0781,480.3125 619.0781,479.8906 L619.0781,478.4688 C619.0781,478.0313 619.0625,477.9063 618.9688,477.75 C618.8125,477.4844 618.5313,477.3438 618.2344,477.3438 C617.9375,477.3438 617.7344,477.4375 617.5156,477.75 L617.3438,477.6719 Z " fill="#000000"/><text fill="#000000" font-family="sans-serif" font-size="12" lengthAdjust="spacing" textLength="42" x="629" y="486.1543">JFrame</text><line style="stroke:#A80036;stroke-width:1.5;" x1="601" x2="673" y1="498" y2="498"/><line style="stroke:#A80036;stroke-width:1.5;" x1="601" x2="673" y1="506" y2="506"/><!--MD5=[36afe292eb27441132c327893668631d]
class JPanel--><rect codeLine="6" fill="#FEFECE" filter="url(#f1unx8yzzkxec6)" height="48" id="JPanel" style="stroke:#A80036;stroke-width:1.5;" width="67" x="190.5" y="466"/><ellipse cx="205.5" cy="482" fill="#ADD1B2" rx="11" ry="11" style="stroke:#A80036;stroke-width:1.0;"/><path d="M207.8438,477.6719 C206.9063,477.2344 206.3125,477.0938 205.4375,477.0938 C202.8125,477.0938 200.8125,479.1719 200.8125,481.8906 L200.8125,483.0156 C200.8125,485.5938 202.9219,487.4844 205.8125,487.4844 C207.0313,487.4844 208.1875,487.1875 208.9375,486.6406 C209.5156,486.2344 209.8438,485.7813 209.8438,485.3906 C209.8438,484.9375 209.4531,484.5469 208.9844,484.5469 C208.7656,484.5469 208.5625,484.625 208.375,484.8125 C207.9219,485.2969 207.9219,485.2969 207.7344,485.3906 C207.3125,485.6563 206.625,485.7813 205.8594,485.7813 C203.8125,485.7813 202.5156,484.6875 202.5156,482.9844 L202.5156,481.8906 C202.5156,480.1094 203.7656,478.7969 205.5,478.7969 C206.0781,478.7969 206.6875,478.9531 207.1563,479.2031 C207.6406,479.4844 207.8125,479.7031 207.9063,480.1094 C207.9688,480.5156 208,480.6406 208.1406,480.7656 C208.2813,480.9063 208.5156,481.0156 208.7344,481.0156 C209,481.0156 209.2656,480.875 209.4375,480.6563 C209.5469,480.5 209.5781,480.3125 209.5781,479.8906 L209.5781,478.4688 C209.5781,478.0313 209.5625,477.9063 209.4688,477.75 C209.3125,477.4844 209.0313,477.3438 208.7344,477.3438 C208.4375,477.3438 208.2344,477.4375 208.0156,477.75 L207.8438,477.6719 Z " fill="#000000"/><text fill="#000000" font-family="sans-serif" font-size="12" lengthAdjust="spacing" textLength="35" x="219.5" y="486.1543">JPanel</text><line style="stroke:#A80036;stroke-width:1.5;" x1="191.5" x2="256.5" y1="498" y2="498"/><line style="stroke:#A80036;stroke-width:1.5;" x1="191.5" x2="256.5" y1="506" y2="506"/><!--MD5=[524ee07594b09a921467c0690038e962]
class LineStyleEditor--><rect codeLine="7" fill="#FEFECE" filter="url(#f1unx8yzzkxec6)" height="48" id="LineStyleEditor" style="stroke:#A80036;stroke-width:1.5;" width="121" x="432.5" y="261"/><ellipse cx="447.5" cy="277" fill="#ADD1B2" rx="11" ry="11" style="stroke:#A80036;stroke-width:1.0;"/><path d="M449.8438,272.6719 C448.9063,272.2344 448.3125,272.0938 447.4375,272.0938 C444.8125,272.0938 442.8125,274.1719 442.8125,276.8906 L442.8125,278.0156 C442.8125,280.5938 444.9219,282.4844 447.8125,282.4844 C449.0313,282.4844 450.1875,282.1875 450.9375,281.6406 C451.5156,281.2344 451.8438,280.7813 451.8438,280.3906 C451.8438,279.9375 451.4531,279.5469 450.9844,279.5469 C450.7656,279.5469 450.5625,279.625 450.375,279.8125 C449.9219,280.2969 449.9219,280.2969 449.7344,280.3906 C449.3125,280.6563 448.625,280.7813 447.8594,280.7813 C445.8125,280.7813 444.5156,279.6875 444.5156,277.9844 L444.5156,276.8906 C444.5156,275.1094 445.7656,273.7969 447.5,273.7969 C448.0781,273.7969 448.6875,273.9531 449.1563,274.2031 C449.6406,274.4844 449.8125,274.7031 449.9063,275.1094 C449.9688,275.5156 450,275.6406 450.1406,275.7656 C450.2813,275.9063 450.5156,276.0156 450.7344,276.0156 C451,276.0156 451.2656,275.875 451.4375,275.6563 C451.5469,275.5 451.5781,275.3125 451.5781,274.8906 L451.5781,273.4688 C451.5781,273.0313 451.5625,272.9063 451.4688,272.75 C451.3125,272.4844 451.0313,272.3438 450.7344,272.3438 C450.4375,272.3438 450.2344,272.4375 450.0156,272.75 L449.8438,272.6719 Z " fill="#000000"/><text fill="#000000" font-family="sans-serif" font-size="12" lengthAdjust="spacing" textLength="89" x="461.5" y="281.1543">LineStyleEditor</text><line style="stroke:#A80036;stroke-width:1.5;" x1="433.5" x2="552.5" y1="293" y2="293"/><line style="stroke:#A80036;stroke-width:1.5;" x1="433.5" x2="552.5" y1="301" y2="301"/><!--MD5=[10092048d4771ddbfa2e90d37e899474]
class PropertyEditorSupport--><rect codeLine="8" fill="#FEFECE" filter="url(#f1unx8yzzkxec6)" height="48" id="PropertyEditorSupport" style="stroke:#A80036;stroke-width:1.5;" width="166" x="399" y="466"/><ellipse cx="414" cy="482" fill="#ADD1B2" rx="11" ry="11" style="stroke:#A80036;stroke-width:1.0;"/><path d="M416.3438,477.6719 C415.4063,477.2344 414.8125,477.0938 413.9375,477.0938 C411.3125,477.0938 409.3125,479.1719 409.3125,481.8906 L409.3125,483.0156 C409.3125,485.5938 411.4219,487.4844 414.3125,487.4844 C415.5313,487.4844 416.6875,487.1875 417.4375,486.6406 C418.0156,486.2344 418.3438,485.7813 418.3438,485.3906 C418.3438,484.9375 417.9531,484.5469 417.4844,484.5469 C417.2656,484.5469 417.0625,484.625 416.875,484.8125 C416.4219,485.2969 416.4219,485.2969 416.2344,485.3906 C415.8125,485.6563 415.125,485.7813 414.3594,485.7813 C412.3125,485.7813 411.0156,484.6875 411.0156,482.9844 L411.0156,481.8906 C411.0156,480.1094 412.2656,478.7969 414,478.7969 C414.5781,478.7969 415.1875,478.9531 415.6563,479.2031 C416.1406,479.4844 416.3125,479.7031 416.4063,480.1094 C416.4688,480.5156 416.5,480.6406 416.6406,480.7656 C416.7813,480.9063 417.0156,481.0156 417.2344,481.0156 C417.5,481.0156 417.7656,480.875 417.9375,480.6563 C418.0469,480.5 418.0781,480.3125 418.0781,479.8906 L418.0781,478.4688 C418.0781,478.0313 418.0625,477.9063 417.9688,477.75 C417.8125,477.4844 417.5313,477.3438 417.2344,477.3438 C416.9375,477.3438 416.7344,477.4375 416.5156,477.75 L416.3438,477.6719 Z " fill="#000000"/><text fill="#000000" font-family="sans-serif" font-size="12" lengthAdjust="spacing" textLength="134" x="428" y="486.1543">PropertyEditorSupport</text><line style="stroke:#A80036;stroke-width:1.5;" x1="400" x2="564" y1="498" y2="498"/><line style="stroke:#A80036;stroke-width:1.5;" x1="400" x2="564" y1="506" y2="506"/><!--MD5=[595da3ee3ae444da9f8d36c09495f26e]
class PropertySheet--><rect codeLine="9" fill="#FEFECE" filter="url(#f1unx8yzzkxec6)" height="48" id="PropertySheet" style="stroke:#A80036;stroke-width:1.5;" width="118" x="32" y="261"/><ellipse cx="47" cy="277" fill="#ADD1B2" rx="11" ry="11" style="stroke:#A80036;stroke-width:1.0;"/><path d="M49.3438,272.6719 C48.4063,272.2344 47.8125,272.0938 46.9375,272.0938 C44.3125,272.0938 42.3125,274.1719 42.3125,276.8906 L42.3125,278.0156 C42.3125,280.5938 44.4219,282.4844 47.3125,282.4844 C48.5313,282.4844 49.6875,282.1875 50.4375,281.6406 C51.0156,281.2344 51.3438,280.7813 51.3438,280.3906 C51.3438,279.9375 50.9531,279.5469 50.4844,279.5469 C50.2656,279.5469 50.0625,279.625 49.875,279.8125 C49.4219,280.2969 49.4219,280.2969 49.2344,280.3906 C48.8125,280.6563 48.125,280.7813 47.3594,280.7813 C45.3125,280.7813 44.0156,279.6875 44.0156,277.9844 L44.0156,276.8906 C44.0156,275.1094 45.2656,273.7969 47,273.7969 C47.5781,273.7969 48.1875,273.9531 48.6563,274.2031 C49.1406,274.4844 49.3125,274.7031 49.4063,275.1094 C49.4688,275.5156 49.5,275.6406 49.6406,275.7656 C49.7813,275.9063 50.0156,276.0156 50.2344,276.0156 C50.5,276.0156 50.7656,275.875 50.9375,275.6563 C51.0469,275.5 51.0781,275.3125 51.0781,274.8906 L51.0781,273.4688 C51.0781,273.0313 51.0625,272.9063 50.9688,272.75 C50.8125,272.4844 50.5313,272.3438 50.2344,272.3438 C49.9375,272.3438 49.7344,272.4375 49.5156,272.75 L49.3438,272.6719 Z " fill="#000000"/><text fill="#000000" font-family="sans-serif" font-size="12" lengthAdjust="spacing" textLength="86" x="61" y="281.1543">PropertySheet</text><line style="stroke:#A80036;stroke-width:1.5;" x1="33" x2="149" y1="293" y2="293"/><line style="stroke:#A80036;stroke-width:1.5;" x1="33" x2="149" y1="301" y2="301"/><!--MD5=[3efab00fea46d9cdc106419bc157b1a1]
class SimpleGraphEditor--><rect codeLine="10" fill="#FEFECE" filter="url(#f1unx8yzzkxec6)" height="48" id="SimpleGraphEditor" style="stroke:#A80036;stroke-width:1.5;" width="144" x="1767" y="658"/><ellipse cx="1782" cy="674" fill="#ADD1B2" rx="11" ry="11" style="stroke:#A80036;stroke-width:1.0;"/><path d="M1784.3438,669.6719 C1783.4063,669.2344 1782.8125,669.0938 1781.9375,669.0938 C1779.3125,669.0938 1777.3125,671.1719 1777.3125,673.8906 L1777.3125,675.0156 C1777.3125,677.5938 1779.4219,679.4844 1782.3125,679.4844 C1783.5313,679.4844 1784.6875,679.1875 1785.4375,678.6406 C1786.0156,678.2344 1786.3438,677.7813 1786.3438,677.3906 C1786.3438,676.9375 1785.9531,676.5469 1785.4844,676.5469 C1785.2656,676.5469 1785.0625,676.625 1784.875,676.8125 C1784.4219,677.2969 1784.4219,677.2969 1784.2344,677.3906 C1783.8125,677.6563 1783.125,677.7813 1782.3594,677.7813 C1780.3125,677.7813 1779.0156,676.6875 1779.0156,674.9844 L1779.0156,673.8906 C1779.0156,672.1094 1780.2656,670.7969 1782,670.7969 C1782.5781,670.7969 1783.1875,670.9531 1783.6563,671.2031 C1784.1406,671.4844 1784.3125,671.7031 1784.4063,672.1094 C1784.4688,672.5156 1784.5,672.6406 1784.6406,672.7656 C1784.7813,672.9063 1785.0156,673.0156 1785.2344,673.0156 C1785.5,673.0156 1785.7656,672.875 1785.9375,672.6563 C1786.0469,672.5 1786.0781,672.3125 1786.0781,671.8906 L1786.0781,670.4688 C1786.0781,670.0313 1786.0625,669.9063 1785.9688,669.75 C1785.8125,669.4844 1785.5313,669.3438 1785.2344,669.3438 C1784.9375,669.3438 1784.7344,669.4375 1784.5156,669.75 L1784.3438,669.6719 Z " fill="#000000"/><text fill="#000000" font-family="sans-serif" font-size="12" lengthAdjust="spacing" textLength="112" x="1796" y="678.1543">SimpleGraphEditor</text><line style="stroke:#A80036;stroke-width:1.5;" x1="1768" x2="1910" y1="690" y2="690"/><line style="stroke:#A80036;stroke-width:1.5;" x1="1768" x2="1910" y1="698" y2="698"/><path d="M1749.5,801 L1749.5,826.1328 A0,0 0 0 0 1749.5,826.1328 L1920.5,826.1328 A0,0 0 0 0 1920.5,826.1328 L1920.5,811 L1910.5,801 L1839.36,801 L1838.28,706.152 L1831.36,801 L1749.5,801 A0,0 0 0 0 1749.5,801 " fill="#FBFB77" filter="url(#f1unx8yzzkxec6)" style="stroke:#A80036;stroke-width:1.0;"/><path d="M1910.5,801 L1910.5,811 L1920.5,811 L1910.5,801 " fill="#FBFB77" style="stroke:#A80036;stroke-width:1.0;"/><text fill="#000000" font-family="sans-serif" font-size="13" lengthAdjust="spacing" textLength="150" x="1755.5" y="818.0669">Contain main operation</text><!--MD5=[71c01276fd66b470e11e144c07927b4c]
class ToolBar--><rect codeLine="12" fill="#FEFECE" filter="url(#f1unx8yzzkxec6)" height="48" id="ToolBar" style="stroke:#A80036;stroke-width:1.5;" width="78" x="185" y="261"/><ellipse cx="200" cy="277" fill="#ADD1B2" rx="11" ry="11" style="stroke:#A80036;stroke-width:1.0;"/><path d="M202.3438,272.6719 C201.4063,272.2344 200.8125,272.0938 199.9375,272.0938 C197.3125,272.0938 195.3125,274.1719 195.3125,276.8906 L195.3125,278.0156 C195.3125,280.5938 197.4219,282.4844 200.3125,282.4844 C201.5313,282.4844 202.6875,282.1875 203.4375,281.6406 C204.0156,281.2344 204.3438,280.7813 204.3438,280.3906 C204.3438,279.9375 203.9531,279.5469 203.4844,279.5469 C203.2656,279.5469 203.0625,279.625 202.875,279.8125 C202.4219,280.2969 202.4219,280.2969 202.2344,280.3906 C201.8125,280.6563 201.125,280.7813 200.3594,280.7813 C198.3125,280.7813 197.0156,279.6875 197.0156,277.9844 L197.0156,276.8906 C197.0156,275.1094 198.2656,273.7969 200,273.7969 C200.5781,273.7969 201.1875,273.9531 201.6563,274.2031 C202.1406,274.4844 202.3125,274.7031 202.4063,275.1094 C202.4688,275.5156 202.5,275.6406 202.6406,275.7656 C202.7813,275.9063 203.0156,276.0156 203.2344,276.0156 C203.5,276.0156 203.7656,275.875 203.9375,275.6563 C204.0469,275.5 204.0781,275.3125 204.0781,274.8906 L204.0781,273.4688 C204.0781,273.0313 204.0625,272.9063 203.9688,272.75 C203.8125,272.4844 203.5313,272.3438 203.2344,272.3438 C202.9375,272.3438 202.7344,272.4375 202.5156,272.75 L202.3438,272.6719 Z " fill="#000000"/><text fill="#000000" font-family="sans-serif" font-size="12" lengthAdjust="spacing" textLength="46" x="214" y="281.1543">ToolBar</text><line style="stroke:#A80036;stroke-width:1.5;" x1="186" x2="262" y1="293" y2="293"/><line style="stroke:#A80036;stroke-width:1.5;" x1="186" x2="262" y1="301" y2="301"/><!--MD5=[25fa45672d410a2d97e89be6abe60419]
class LayoutManager--><rect codeLine="14" fill="#FEFECE" filter="url(#f1unx8yzzkxec6)" height="48" id="LayoutManager" style="stroke:#A80036;stroke-width:1.5;" width="125" x="709.5" y="466"/><ellipse cx="724.5" cy="482" fill="#B4A7E5" rx="11" ry="11" style="stroke:#A80036;stroke-width:1.0;"/><path d="M725.4531,478.7813 L727.1719,478.7813 C727.5625,478.7813 727.75,478.75 727.875,478.6719 C728.1406,478.5156 728.2813,478.2344 728.2813,477.9375 C728.2813,477.6719 728.1719,477.4063 727.9375,477.2344 C727.7656,477.125 727.625,477.0938 727.1719,477.0938 L722.0313,477.0938 C721.5938,477.0938 721.4688,477.1094 721.3125,477.2031 C721.0625,477.3594 720.9063,477.6563 720.9063,477.9375 C720.9063,478.2188 721.0469,478.4688 721.2656,478.6406 C721.4219,478.75 721.6094,478.7813 722.0313,478.7813 L723.75,478.7813 L723.75,485.2969 L722.0313,485.2969 C721.5938,485.2969 721.4688,485.3125 721.3125,485.4219 C721.0625,485.5781 720.9063,485.8594 720.9063,486.1563 C720.9063,486.4063 721.0469,486.6719 721.2656,486.8281 C721.4219,486.9531 721.625,487 722.0313,487 L727.1719,487 C727.9219,487 728.2813,486.7188 728.2813,486.1563 C728.2813,485.875 728.1719,485.625 727.9375,485.4531 C727.7656,485.3281 727.625,485.2969 727.1719,485.2969 L725.4531,485.2969 L725.4531,478.7813 Z " fill="#000000"/><text fill="#000000" font-family="sans-serif" font-size="12" font-style="italic" lengthAdjust="spacing" textLength="93" x="738.5" y="486.1543">LayoutManager</text><line style="stroke:#A80036;stroke-width:1.5;" x1="710.5" x2="833.5" y1="498" y2="498"/><line style="stroke:#A80036;stroke-width:1.5;" x1="710.5" x2="833.5" y1="506" y2="506"/><!--MD5=[3fee75583bb7a64f68d843a3c9534ab3]
class Node--><rect codeLine="18" fill="#FEFECE" filter="url(#f1unx8yzzkxec6)" height="137.6328" id="Node" style="stroke:#A80036;stroke-width:1.5;" width="244" x="867" y="216"/><ellipse cx="969.25" cy="232" fill="#B4A7E5" rx="11" ry="11" style="stroke:#A80036;stroke-width:1.0;"/><path d="M970.2031,228.7813 L971.9219,228.7813 C972.3125,228.7813 972.5,228.75 972.625,228.6719 C972.8906,228.5156 973.0313,228.2344 973.0313,227.9375 C973.0313,227.6719 972.9219,227.4063 972.6875,227.2344 C972.5156,227.125 972.375,227.0938 971.9219,227.0938 L966.7813,227.0938 C966.3438,227.0938 966.2188,227.1094 966.0625,227.2031 C965.8125,227.3594 965.6563,227.6563 965.6563,227.9375 C965.6563,228.2188 965.7969,228.4688 966.0156,228.6406 C966.1719,228.75 966.3594,228.7813 966.7813,228.7813 L968.5,228.7813 L968.5,235.2969 L966.7813,235.2969 C966.3438,235.2969 966.2188,235.3125 966.0625,235.4219 C965.8125,235.5781 965.6563,235.8594 965.6563,236.1563 C965.6563,236.4063 965.7969,236.6719 966.0156,236.8281 C966.1719,236.9531 966.375,237 966.7813,237 L971.9219,237 C972.6719,237 973.0313,236.7188 973.0313,236.1563 C973.0313,235.875 972.9219,235.625 972.6875,235.4531 C972.5156,235.3281 972.375,235.2969 971.9219,235.2969 L970.2031,235.2969 L970.2031,228.7813 Z " fill="#000000"/><text fill="#000000" font-family="sans-serif" font-size="12" font-style="italic" lengthAdjust="spacing" textLength="31" x="989.75" y="236.1543">Node</text><line style="stroke:#A80036;stroke-width:1.5;" x1="868" x2="1110" y1="248" y2="248"/><line style="stroke:#A80036;stroke-width:1.5;" x1="868" x2="1110" y1="256" y2="256"/><text fill="#000000" font-family="sans-serif" font-size="11" lengthAdjust="spacing" textLength="149" x="873" y="270.2104">void draw(Graphics2D g2);</text><text fill="#000000" font-family="sans-serif" font-size="11" lengthAdjust="spacing" textLength="189" x="873" y="283.0151">boolean contains(Point2D aPoint);</text><text fill="#000000" font-family="sans-serif" font-size="11" lengthAdjust="spacing" textLength="228" x="873" y="295.8198">void connect(Node aStart, Node anEnd);</text><text fill="#000000" font-family="sans-serif" font-size="11" lengthAdjust="spacing" textLength="91" x="873" y="308.6245">Node getStart();</text><text fill="#000000" font-family="sans-serif" font-size="11" lengthAdjust="spacing" textLength="85" x="873" y="321.4292">Node getEnd();</text><text fill="#000000" font-family="sans-serif" font-size="11" lengthAdjust="spacing" textLength="171" x="873" y="334.2339">Line2D getConnectionPoints();</text><text fill="#000000" font-family="sans-serif" font-size="11" lengthAdjust="spacing" textLength="232" x="873" y="347.0386">Rectangle2D getBounds(Graphics2D g2);</text><!--MD5=[c74010b6b59b4bd7570252fa9c1c838a]
class PointNode--><rect codeLine="28" fill="#FEFECE" filter="url(#f1unx8yzzkxec6)" height="48" id="PointNode" style="stroke:#A80036;stroke-width:1.5;" width="92" x="1011" y="466"/><ellipse cx="1026" cy="482" fill="#ADD1B2" rx="11" ry="11" style="stroke:#A80036;stroke-width:1.0;"/><path d="M1028.3438,477.6719 C1027.4063,477.2344 1026.8125,477.0938 1025.9375,477.0938 C1023.3125,477.0938 1021.3125,479.1719 1021.3125,481.8906 L1021.3125,483.0156 C1021.3125,485.5938 1023.4219,487.4844 1026.3125,487.4844 C1027.5313,487.4844 1028.6875,487.1875 1029.4375,486.6406 C1030.0156,486.2344 1030.3438,485.7813 1030.3438,485.3906 C1030.3438,484.9375 1029.9531,484.5469 1029.4844,484.5469 C1029.2656,484.5469 1029.0625,484.625 1028.875,484.8125 C1028.4219,485.2969 1028.4219,485.2969 1028.2344,485.3906 C1027.8125,485.6563 1027.125,485.7813 1026.3594,485.7813 C1024.3125,485.7813 1023.0156,484.6875 1023.0156,482.9844 L1023.0156,481.8906 C1023.0156,480.1094 1024.2656,478.7969 1026,478.7969 C1026.5781,478.7969 1027.1875,478.9531 1027.6563,479.2031 C1028.1406,479.4844 1028.3125,479.7031 1028.4063,480.1094 C1028.4688,480.5156 1028.5,480.6406 1028.6406,480.7656 C1028.7813,480.9063 1029.0156,481.0156 1029.2344,481.0156 C1029.5,481.0156 1029.7656,480.875 1029.9375,480.6563 C1030.0469,480.5 1030.0781,480.3125 1030.0781,479.8906 L1030.0781,478.4688 C1030.0781,478.0313 1030.0625,477.9063 1029.9688,477.75 C1029.8125,477.4844 1029.5313,477.3438 1029.2344,477.3438 C1028.9375,477.3438 1028.7344,477.4375 1028.5156,477.75 L1028.3438,477.6719 Z " fill="#000000"/><text fill="#000000" font-family="sans-serif" font-size="12" lengthAdjust="spacing" textLength="60" x="1040" y="486.1543">PointNode</text><line style="stroke:#A80036;stroke-width:1.5;" x1="1012" x2="1102" y1="498" y2="498"/><line style="stroke:#A80036;stroke-width:1.5;" x1="1012" x2="1102" y1="506" y2="506"/><!--MD5=[69b4682847daf4ec749624d4d592b83b]
class CircleNode--><rect codeLine="29" fill="#FEFECE" filter="url(#f1unx8yzzkxec6)" height="48" id="CircleNode" style="stroke:#A80036;stroke-width:1.5;" width="98" x="878" y="466"/><ellipse cx="893" cy="482" fill="#ADD1B2" rx="11" ry="11" style="stroke:#A80036;stroke-width:1.0;"/><path d="M895.3438,477.6719 C894.4063,477.2344 893.8125,477.0938 892.9375,477.0938 C890.3125,477.0938 888.3125,479.1719 888.3125,481.8906 L888.3125,483.0156 C888.3125,485.5938 890.4219,487.4844 893.3125,487.4844 C894.5313,487.4844 895.6875,487.1875 896.4375,486.6406 C897.0156,486.2344 897.3438,485.7813 897.3438,485.3906 C897.3438,484.9375 896.9531,484.5469 896.4844,484.5469 C896.2656,484.5469 896.0625,484.625 895.875,484.8125 C895.4219,485.2969 895.4219,485.2969 895.2344,485.3906 C894.8125,485.6563 894.125,485.7813 893.3594,485.7813 C891.3125,485.7813 890.0156,484.6875 890.0156,482.9844 L890.0156,481.8906 C890.0156,480.1094 891.2656,478.7969 893,478.7969 C893.5781,478.7969 894.1875,478.9531 894.6563,479.2031 C895.1406,479.4844 895.3125,479.7031 895.4063,480.1094 C895.4688,480.5156 895.5,480.6406 895.6406,480.7656 C895.7813,480.9063 896.0156,481.0156 896.2344,481.0156 C896.5,481.0156 896.7656,480.875 896.9375,480.6563 C897.0469,480.5 897.0781,480.3125 897.0781,479.8906 L897.0781,478.4688 C897.0781,478.0313 897.0625,477.9063 896.9688,477.75 C896.8125,477.4844 896.5313,477.3438 896.2344,477.3438 C895.9375,477.3438 895.7344,477.4375 895.5156,477.75 L895.3438,477.6719 Z " fill="#000000"/><text fill="#000000" font-family="sans-serif" font-size="12" lengthAdjust="spacing" textLength="66" x="907" y="486.1543">CircleNode</text><line style="stroke:#A80036;stroke-width:1.5;" x1="879" x2="975" y1="498" y2="498"/><line style="stroke:#A80036;stroke-width:1.5;" x1="879" x2="975" y1="506" y2="506"/><!--MD5=[290b6be765493a7cfb2ed8eef89314c5]
class AbstractEdge--><rect codeLine="33" fill="#FEFECE" filter="url(#f1unx8yzzkxec6)" height="150.4375" id="AbstractEdge" style="stroke:#A80036;stroke-width:1.5;" width="278" x="1167" y="415"/><ellipse cx="1260.75" cy="431" fill="#A9DCDF" rx="11" ry="11" style="stroke:#A80036;stroke-width:1.0;"/><path d="M1262.8281,432.8125 L1263.2188,433.7969 L1262.8281,433.7969 C1262.375,433.7969 1262.2656,433.8125 1262.1094,433.9219 C1261.8594,434.0781 1261.7031,434.3594 1261.7031,434.6563 C1261.7031,434.9219 1261.8438,435.1719 1262.0625,435.3281 C1262.2031,435.4531 1262.4063,435.5 1262.8281,435.5 L1265.1875,435.5 C1265.5469,435.5 1265.7656,435.4688 1265.9063,435.375 C1266.1563,435.2344 1266.3125,434.9375 1266.3125,434.6563 C1266.3125,434.375 1266.1719,434.125 1265.9531,433.9688 C1265.7813,433.8281 1265.625,433.7969 1265.1563,433.7969 L1261.7656,425.5938 L1258.0938,425.5938 C1257.6406,425.5938 1257.5156,425.6094 1257.3594,425.7031 C1257.1094,425.875 1256.9531,426.1563 1256.9531,426.4375 C1256.9531,426.7188 1257.0938,426.9688 1257.3125,427.1406 C1257.4844,427.25 1257.6563,427.2813 1258.0938,427.2813 L1259.1719,427.2813 L1256.5313,433.7969 C1256.1094,433.7969 1255.9531,433.8125 1255.7969,433.9219 C1255.5469,434.0781 1255.3906,434.3594 1255.3906,434.6563 C1255.3906,435.2188 1255.7656,435.5 1256.5156,435.5 L1258.7813,435.5 C1259.1406,435.5 1259.3594,435.4688 1259.4844,435.375 C1259.75,435.2344 1259.8906,434.9375 1259.8906,434.6563 C1259.8906,434.375 1259.7656,434.125 1259.5469,433.9531 C1259.375,433.8281 1259.2344,433.7969 1258.7813,433.7969 L1258.3906,433.7969 L1258.7813,432.8125 L1262.8281,432.8125 Z M1262.125,431.1094 L1259.4531,431.1094 L1260.7969,427.8438 L1262.125,431.1094 Z " fill="#000000"/><text fill="#000000" font-family="sans-serif" font-size="12" font-style="italic" lengthAdjust="spacing" textLength="82" x="1281.25" y="435.1543">AbstractEdge</text><line style="stroke:#A80036;stroke-width:1.5;" x1="1168" x2="1444" y1="447" y2="447"/><text fill="#000000" font-family="sans-serif" font-size="11" lengthAdjust="spacing" textLength="106" x="1173" y="461.2104">private Node start;</text><text fill="#000000" font-family="sans-serif" font-size="11" lengthAdjust="spacing" textLength="103" x="1173" y="474.0151">private Node end;</text><line style="stroke:#A80036;stroke-width:1.5;" x1="1168" x2="1444" y1="480.6094" y2="480.6094"/><text fill="#000000" font-family="sans-serif" font-size="11" lengthAdjust="spacing" textLength="117" x="1173" y="494.8198">public Object clone()</text><text fill="#000000" font-family="sans-serif" font-size="11" lengthAdjust="spacing" textLength="207" x="1173" y="507.6245">public void connect(Node s, Node e)</text><text fill="#000000" font-family="sans-serif" font-size="11" lengthAdjust="spacing" textLength="125" x="1173" y="520.4292">public Node getStart()</text><text fill="#000000" font-family="sans-serif" font-size="11" lengthAdjust="spacing" textLength="119" x="1173" y="533.2339">public Node getEnd()</text><text fill="#000000" font-family="sans-serif" font-size="11" lengthAdjust="spacing" textLength="266" x="1173" y="546.0386">public Rectangle2D getBounds(Graphics2D g2)</text><text fill="#000000" font-family="sans-serif" font-size="11" lengthAdjust="spacing" textLength="205" x="1173" y="558.8433">public Line2D getConnectionPoints()</text><!--MD5=[2e2f8c8f62c4eb3bc59a59727cfd81a5]
class Edge--><rect codeLine="43" fill="#FEFECE" filter="url(#f1unx8yzzkxec6)" height="137.6328" id="Edge" style="stroke:#A80036;stroke-width:1.5;" width="244" x="1184" y="216"/><ellipse cx="1286.25" cy="232" fill="#B4A7E5" rx="11" ry="11" style="stroke:#A80036;stroke-width:1.0;"/><path d="M1287.2031,228.7813 L1288.9219,228.7813 C1289.3125,228.7813 1289.5,228.75 1289.625,228.6719 C1289.8906,228.5156 1290.0313,228.2344 1290.0313,227.9375 C1290.0313,227.6719 1289.9219,227.4063 1289.6875,227.2344 C1289.5156,227.125 1289.375,227.0938 1288.9219,227.0938 L1283.7813,227.0938 C1283.3438,227.0938 1283.2188,227.1094 1283.0625,227.2031 C1282.8125,227.3594 1282.6563,227.6563 1282.6563,227.9375 C1282.6563,228.2188 1282.7969,228.4688 1283.0156,228.6406 C1283.1719,228.75 1283.3594,228.7813 1283.7813,228.7813 L1285.5,228.7813 L1285.5,235.2969 L1283.7813,235.2969 C1283.3438,235.2969 1283.2188,235.3125 1283.0625,235.4219 C1282.8125,235.5781 1282.6563,235.8594 1282.6563,236.1563 C1282.6563,236.4063 1282.7969,236.6719 1283.0156,236.8281 C1283.1719,236.9531 1283.375,237 1283.7813,237 L1288.9219,237 C1289.6719,237 1290.0313,236.7188 1290.0313,236.1563 C1290.0313,235.875 1289.9219,235.625 1289.6875,235.4531 C1289.5156,235.3281 1289.375,235.2969 1288.9219,235.2969 L1287.2031,235.2969 L1287.2031,228.7813 Z " fill="#000000"/><text fill="#000000" font-family="sans-serif" font-size="12" font-style="italic" lengthAdjust="spacing" textLength="31" x="1306.75" y="236.1543">Edge</text><line style="stroke:#A80036;stroke-width:1.5;" x1="1185" x2="1427" y1="248" y2="248"/><line style="stroke:#A80036;stroke-width:1.5;" x1="1185" x2="1427" y1="256" y2="256"/><text fill="#000000" font-family="sans-serif" font-size="11" lengthAdjust="spacing" textLength="149" x="1190" y="270.2104">void draw(Graphics2D g2);</text><text fill="#000000" font-family="sans-serif" font-size="11" lengthAdjust="spacing" textLength="189" x="1190" y="283.0151">boolean contains(Point2D aPoint);</text><text fill="#000000" font-family="sans-serif" font-size="11" lengthAdjust="spacing" textLength="228" x="1190" y="295.8198">void connect(Node aStart, Node anEnd);</text><text fill="#000000" font-family="sans-serif" font-size="11" lengthAdjust="spacing" textLength="91" x="1190" y="308.6245">Node getStart();</text><text fill="#000000" font-family="sans-serif" font-size="11" lengthAdjust="spacing" textLength="85" x="1190" y="321.4292">Node getEnd();</text><text fill="#000000" font-family="sans-serif" font-size="11" lengthAdjust="spacing" textLength="171" x="1190" y="334.2339">Line2D getConnectionPoints();</text><text fill="#000000" font-family="sans-serif" font-size="11" lengthAdjust="spacing" textLength="232" x="1190" y="347.0386">Rectangle2D getBounds(Graphics2D g2);</text><!--MD5=[76e24e7168f6ac053f6a6088c5704255]
class LineEdge--><rect codeLine="52" fill="#FEFECE" filter="url(#f1unx8yzzkxec6)" height="48" id="LineEdge" style="stroke:#A80036;stroke-width:1.5;" width="87" x="1167.5" y="658"/><ellipse cx="1182.5" cy="674" fill="#ADD1B2" rx="11" ry="11" style="stroke:#A80036;stroke-width:1.0;"/><path d="M1184.8438,669.6719 C1183.9063,669.2344 1183.3125,669.0938 1182.4375,669.0938 C1179.8125,669.0938 1177.8125,671.1719 1177.8125,673.8906 L1177.8125,675.0156 C1177.8125,677.5938 1179.9219,679.4844 1182.8125,679.4844 C1184.0313,679.4844 1185.1875,679.1875 1185.9375,678.6406 C1186.5156,678.2344 1186.8438,677.7813 1186.8438,677.3906 C1186.8438,676.9375 1186.4531,676.5469 1185.9844,676.5469 C1185.7656,676.5469 1185.5625,676.625 1185.375,676.8125 C1184.9219,677.2969 1184.9219,677.2969 1184.7344,677.3906 C1184.3125,677.6563 1183.625,677.7813 1182.8594,677.7813 C1180.8125,677.7813 1179.5156,676.6875 1179.5156,674.9844 L1179.5156,673.8906 C1179.5156,672.1094 1180.7656,670.7969 1182.5,670.7969 C1183.0781,670.7969 1183.6875,670.9531 1184.1563,671.2031 C1184.6406,671.4844 1184.8125,671.7031 1184.9063,672.1094 C1184.9688,672.5156 1185,672.6406 1185.1406,672.7656 C1185.2813,672.9063 1185.5156,673.0156 1185.7344,673.0156 C1186,673.0156 1186.2656,672.875 1186.4375,672.6563 C1186.5469,672.5 1186.5781,672.3125 1186.5781,671.8906 L1186.5781,670.4688 C1186.5781,670.0313 1186.5625,669.9063 1186.4688,669.75 C1186.3125,669.4844 1186.0313,669.3438 1185.7344,669.3438 C1185.4375,669.3438 1185.2344,669.4375 1185.0156,669.75 L1184.8438,669.6719 Z " fill="#000000"/><text fill="#000000" font-family="sans-serif" font-size="12" lengthAdjust="spacing" textLength="55" x="1196.5" y="678.1543">LineEdge</text><line style="stroke:#A80036;stroke-width:1.5;" x1="1168.5" x2="1253.5" y1="690" y2="690"/><line style="stroke:#A80036;stroke-width:1.5;" x1="1168.5" x2="1253.5" y1="698" y2="698"/><!--MD5=[6b8060114930dee4117f0f3292ee4462]
class LineStyle--><rect codeLine="53" fill="#FEFECE" filter="url(#f1unx8yzzkxec6)" height="112.0234" id="LineStyle" style="stroke:#A80036;stroke-width:1.5;" width="372" x="1359" y="626"/><ellipse cx="1513.75" cy="642" fill="#ADD1B2" rx="11" ry="11" style="stroke:#A80036;stroke-width:1.0;"/><path d="M1516.0938,637.6719 C1515.1563,637.2344 1514.5625,637.0938 1513.6875,637.0938 C1511.0625,637.0938 1509.0625,639.1719 1509.0625,641.8906 L1509.0625,643.0156 C1509.0625,645.5938 1511.1719,647.4844 1514.0625,647.4844 C1515.2813,647.4844 1516.4375,647.1875 1517.1875,646.6406 C1517.7656,646.2344 1518.0938,645.7813 1518.0938,645.3906 C1518.0938,644.9375 1517.7031,644.5469 1517.2344,644.5469 C1517.0156,644.5469 1516.8125,644.625 1516.625,644.8125 C1516.1719,645.2969 1516.1719,645.2969 1515.9844,645.3906 C1515.5625,645.6563 1514.875,645.7813 1514.1094,645.7813 C1512.0625,645.7813 1510.7656,644.6875 1510.7656,642.9844 L1510.7656,641.8906 C1510.7656,640.1094 1512.0156,638.7969 1513.75,638.7969 C1514.3281,638.7969 1514.9375,638.9531 1515.4063,639.2031 C1515.8906,639.4844 1516.0625,639.7031 1516.1563,640.1094 C1516.2188,640.5156 1516.25,640.6406 1516.3906,640.7656 C1516.5313,640.9063 1516.7656,641.0156 1516.9844,641.0156 C1517.25,641.0156 1517.5156,640.875 1517.6875,640.6563 C1517.7969,640.5 1517.8281,640.3125 1517.8281,639.8906 L1517.8281,638.4688 C1517.8281,638.0313 1517.8125,637.9063 1517.7188,637.75 C1517.5625,637.4844 1517.2813,637.3438 1516.9844,637.3438 C1516.6875,637.3438 1516.4844,637.4375 1516.2656,637.75 L1516.0938,637.6719 Z " fill="#000000"/><text fill="#000000" font-family="sans-serif" font-size="12" lengthAdjust="spacing" textLength="54" x="1534.25" y="646.1543">LineStyle</text><line style="stroke:#A80036;stroke-width:1.5;" x1="1360" x2="1730" y1="658" y2="658"/><text fill="#000000" font-family="sans-serif" font-size="11" lengthAdjust="spacing" textLength="192" x="1365" y="672.2104">public static final LineStyle SOLID</text><text fill="#000000" font-family="sans-serif" font-size="11" lengthAdjust="spacing" textLength="205" x="1365" y="685.0151">public static final LineStyle DOTTED</text><line style="stroke:#A80036;stroke-width:1.5;" x1="1360" x2="1730" y1="691.6094" y2="691.6094"/><text fill="#000000" font-family="sans-serif" font-size="11" lengthAdjust="spacing" textLength="176" x="1365" y="705.8198">private LineStyle(String name)</text><text fill="#000000" font-family="sans-serif" font-size="11" lengthAdjust="spacing" textLength="142" x="1365" y="718.6245">public Stroke getStroke()</text><text fill="#000000" font-family="sans-serif" font-size="11" lengthAdjust="spacing" textLength="360" x="1365" y="731.4292">protected Object readResolve() throws ObjectStreamException</text><!--MD5=[706e73df52f3df32f52be1ce9adb217e]
class Graph--><rect codeLine="63" fill="#FEFECE" filter="url(#f1unx8yzzkxec6)" height="48" id="Graph" style="stroke:#A80036;stroke-width:1.5;" width="69" x="1797.5" y="261"/><ellipse cx="1812.5" cy="277" fill="#A9DCDF" rx="11" ry="11" style="stroke:#A80036;stroke-width:1.0;"/><path d="M1814.5781,278.8125 L1814.9688,279.7969 L1814.5781,279.7969 C1814.125,279.7969 1814.0156,279.8125 1813.8594,279.9219 C1813.6094,280.0781 1813.4531,280.3594 1813.4531,280.6563 C1813.4531,280.9219 1813.5938,281.1719 1813.8125,281.3281 C1813.9531,281.4531 1814.1563,281.5 1814.5781,281.5 L1816.9375,281.5 C1817.2969,281.5 1817.5156,281.4688 1817.6563,281.375 C1817.9063,281.2344 1818.0625,280.9375 1818.0625,280.6563 C1818.0625,280.375 1817.9219,280.125 1817.7031,279.9688 C1817.5313,279.8281 1817.375,279.7969 1816.9063,279.7969 L1813.5156,271.5938 L1809.8438,271.5938 C1809.3906,271.5938 1809.2656,271.6094 1809.1094,271.7031 C1808.8594,271.875 1808.7031,272.1563 1808.7031,272.4375 C1808.7031,272.7188 1808.8438,272.9688 1809.0625,273.1406 C1809.2344,273.25 1809.4063,273.2813 1809.8438,273.2813 L1810.9219,273.2813 L1808.2813,279.7969 C1807.8594,279.7969 1807.7031,279.8125 1807.5469,279.9219 C1807.2969,280.0781 1807.1406,280.3594 1807.1406,280.6563 C1807.1406,281.2188 1807.5156,281.5 1808.2656,281.5 L1810.5313,281.5 C1810.8906,281.5 1811.1094,281.4688 1811.2344,281.375 C1811.5,281.2344 1811.6406,280.9375 1811.6406,280.6563 C1811.6406,280.375 1811.5156,280.125 1811.2969,279.9531 C1811.125,279.8281 1810.9844,279.7969 1810.5313,279.7969 L1810.1406,279.7969 L1810.5313,278.8125 L1814.5781,278.8125 Z M1813.875,277.1094 L1811.2031,277.1094 L1812.5469,273.8438 L1813.875,277.1094 Z " fill="#000000"/><text fill="#000000" font-family="sans-serif" font-size="12" font-style="italic" lengthAdjust="spacing" textLength="37" x="1826.5" y="281.1543">Graph</text><line style="stroke:#A80036;stroke-width:1.5;" x1="1798.5" x2="1865.5" y1="293" y2="293"/><line style="stroke:#A80036;stroke-width:1.5;" x1="1798.5" x2="1865.5" y1="301" y2="301"/><!--MD5=[79d78337f9972da8b6b540cb258bf4d1]
class SimpleGraph--><rect codeLine="65" fill="#FEFECE" filter="url(#f1unx8yzzkxec6)" height="48" id="SimpleGraph" style="stroke:#A80036;stroke-width:1.5;" width="109" x="1787.5" y="466"/><ellipse cx="1802.5" cy="482" fill="#ADD1B2" rx="11" ry="11" style="stroke:#A80036;stroke-width:1.0;"/><path d="M1804.8438,477.6719 C1803.9063,477.2344 1803.3125,477.0938 1802.4375,477.0938 C1799.8125,477.0938 1797.8125,479.1719 1797.8125,481.8906 L1797.8125,483.0156 C1797.8125,485.5938 1799.9219,487.4844 1802.8125,487.4844 C1804.0313,487.4844 1805.1875,487.1875 1805.9375,486.6406 C1806.5156,486.2344 1806.8438,485.7813 1806.8438,485.3906 C1806.8438,484.9375 1806.4531,484.5469 1805.9844,484.5469 C1805.7656,484.5469 1805.5625,484.625 1805.375,484.8125 C1804.9219,485.2969 1804.9219,485.2969 1804.7344,485.3906 C1804.3125,485.6563 1803.625,485.7813 1802.8594,485.7813 C1800.8125,485.7813 1799.5156,484.6875 1799.5156,482.9844 L1799.5156,481.8906 C1799.5156,480.1094 1800.7656,478.7969 1802.5,478.7969 C1803.0781,478.7969 1803.6875,478.9531 1804.1563,479.2031 C1804.6406,479.4844 1804.8125,479.7031 1804.9063,480.1094 C1804.9688,480.5156 1805,480.6406 1805.1406,480.7656 C1805.2813,480.9063 1805.5156,481.0156 1805.7344,481.0156 C1806,481.0156 1806.2656,480.875 1806.4375,480.6563 C1806.5469,480.5 1806.5781,480.3125 1806.5781,479.8906 L1806.5781,478.4688 C1806.5781,478.0313 1806.5625,477.9063 1806.4688,477.75 C1806.3125,477.4844 1806.0313,477.3438 1805.7344,477.3438 C1805.4375,477.3438 1805.2344,477.4375 1805.0156,477.75 L1804.8438,477.6719 Z " fill="#000000"/><text fill="#000000" font-family="sans-serif" font-size="12" lengthAdjust="spacing" textLength="77" x="1816.5" y="486.1543">SimpleGraph</text><line style="stroke:#A80036;stroke-width:1.5;" x1="1788.5" x2="1895.5" y1="498" y2="498"/><line style="stroke:#A80036;stroke-width:1.5;" x1="1788.5" x2="1895.5" y1="506" y2="506"/><!--MD5=[9a8016a355ac72c37cf68ad71a0fc682]
class java.lang.Clonable--><rect codeLine="13" fill="#FEFECE" filter="url(#f1unx8yzzkxec6)" height="48" id="java.lang.Clonable" style="stroke:#A80036;stroke-width:1.5;" width="83" x="1083.5" y="41"/><ellipse cx="1098.5" cy="57" fill="#B4A7E5" rx="11" ry="11" style="stroke:#A80036;stroke-width:1.0;"/><path d="M1099.4531,53.7813 L1101.1719,53.7813 C1101.5625,53.7813 1101.75,53.75 1101.875,53.6719 C1102.1406,53.5156 1102.2813,53.2344 1102.2813,52.9375 C1102.2813,52.6719 1102.1719,52.4063 1101.9375,52.2344 C1101.7656,52.125 1101.625,52.0938 1101.1719,52.0938 L1096.0313,52.0938 C1095.5938,52.0938 1095.4688,52.1094 1095.3125,52.2031 C1095.0625,52.3594 1094.9063,52.6563 1094.9063,52.9375 C1094.9063,53.2188 1095.0469,53.4688 1095.2656,53.6406 C1095.4219,53.75 1095.6094,53.7813 1096.0313,53.7813 L1097.75,53.7813 L1097.75,60.2969 L1096.0313,60.2969 C1095.5938,60.2969 1095.4688,60.3125 1095.3125,60.4219 C1095.0625,60.5781 1094.9063,60.8594 1094.9063,61.1563 C1094.9063,61.4063 1095.0469,61.6719 1095.2656,61.8281 C1095.4219,61.9531 1095.625,62 1096.0313,62 L1101.1719,62 C1101.9219,62 1102.2813,61.7188 1102.2813,61.1563 C1102.2813,60.875 1102.1719,60.625 1101.9375,60.4531 C1101.7656,60.3281 1101.625,60.2969 1101.1719,60.2969 L1099.4531,60.2969 L1099.4531,53.7813 Z " fill="#000000"/><text fill="#000000" font-family="sans-serif" font-size="12" font-style="italic" lengthAdjust="spacing" textLength="51" x="1112.5" y="61.1543">Clonable</text><line style="stroke:#A80036;stroke-width:1.5;" x1="1084.5" x2="1165.5" y1="73" y2="73"/><line style="stroke:#A80036;stroke-width:1.5;" x1="1084.5" x2="1165.5" y1="81" y2="81"/><!--MD5=[5a5af9b0547913863cbe0ddf55a9ab5e]
class java.io.Serializable--><rect codeLine="15" fill="#FEFECE" filter="url(#f1unx8yzzkxec6)" height="48" id="java.io.Serializable" style="stroke:#A80036;stroke-width:1.5;" width="99" x="1585.5" y="41"/><ellipse cx="1600.5" cy="57" fill="#B4A7E5" rx="11" ry="11" style="stroke:#A80036;stroke-width:1.0;"/><path d="M1601.4531,53.7813 L1603.1719,53.7813 C1603.5625,53.7813 1603.75,53.75 1603.875,53.6719 C1604.1406,53.5156 1604.2813,53.2344 1604.2813,52.9375 C1604.2813,52.6719 1604.1719,52.4063 1603.9375,52.2344 C1603.7656,52.125 1603.625,52.0938 1603.1719,52.0938 L1598.0313,52.0938 C1597.5938,52.0938 1597.4688,52.1094 1597.3125,52.2031 C1597.0625,52.3594 1596.9063,52.6563 1596.9063,52.9375 C1596.9063,53.2188 1597.0469,53.4688 1597.2656,53.6406 C1597.4219,53.75 1597.6094,53.7813 1598.0313,53.7813 L1599.75,53.7813 L1599.75,60.2969 L1598.0313,60.2969 C1597.5938,60.2969 1597.4688,60.3125 1597.3125,60.4219 C1597.0625,60.5781 1596.9063,60.8594 1596.9063,61.1563 C1596.9063,61.4063 1597.0469,61.6719 1597.2656,61.8281 C1597.4219,61.9531 1597.625,62 1598.0313,62 L1603.1719,62 C1603.9219,62 1604.2813,61.7188 1604.2813,61.1563 C1604.2813,60.875 1604.1719,60.625 1603.9375,60.4531 C1603.7656,60.3281 1603.625,60.2969 1603.1719,60.2969 L1601.4531,60.2969 L1601.4531,53.7813 Z " fill="#000000"/><text fill="#000000" font-family="sans-serif" font-size="12" font-style="italic" lengthAdjust="spacing" textLength="67" x="1614.5" y="61.1543">Serializable</text><line style="stroke:#A80036;stroke-width:1.5;" x1="1586.5" x2="1683.5" y1="73" y2="73"/><line style="stroke:#A80036;stroke-width:1.5;" x1="1586.5" x2="1683.5" y1="81" y2="81"/><!--MD5=[338e251574940c0f7e75b0b3ebafc8fa]
reverse link Edge to AbstractEdge--><path codeLine="67" d="M1306,374.275 C1306,387.773 1306,401.588 1306,414.744 " fill="none" id="Edge-backto-AbstractEdge" style="stroke:#A80036;stroke-width:1.0;"/><polygon fill="none" points="1299,374.161,1306,354.161,1313,374.161,1299,374.161" style="stroke:#A80036;stroke-width:1.0;"/><!--MD5=[7c98032e3d52f4b154f90e68a4aaa004]
reverse link java.io.Serializable to Graph--><path codeLine="68" d="M1702.39,96.59 C1718.23,105.823 1734.21,117.019 1747,130 C1785.26,168.829 1811.49,228.382 1823.87,260.88 " fill="none" id="java.io.Serializable-backto-Graph" style="stroke:#A80036;stroke-width:1.0;"/><polygon fill="none" points="1698.97,102.701,1684.74,87.009,1705.65,90.396,1698.97,102.701" style="stroke:#A80036;stroke-width:1.0;"/><!--MD5=[aeabface6815e07170ced2d0a91eb282]
reverse link Node to CircleNode--><path codeLine="69" d="M962.221,373.681 C951.91,407.438 940.966,443.274 934.063,465.874 " fill="none" id="Node-backto-CircleNode" style="stroke:#A80036;stroke-width:1.0;"/><polygon fill="none" points="955.646,371.244,968.182,354.161,969.035,375.333,955.646,371.244" style="stroke:#A80036;stroke-width:1.0;"/><!--MD5=[078a38bcc80ad814f5c73d3136a878ac]
link FormLayout to LayoutManager--><path codeLine="70" d="M779.968,309.287 C778.493,342.556 775.756,404.27 773.907,445.983 " fill="none" id="FormLayout-to-LayoutManager" style="stroke:#A80036;stroke-width:1.0;"/><polygon fill="none" points="780.899,446.315,773.02,465.985,766.913,445.694,780.899,446.315" style="stroke:#A80036;stroke-width:1.0;"/><!--MD5=[523be0b2aa3447c6beb595c1b7c4c71c]
link GraphFrame to JFrame--><path codeLine="71" d="M641.426,309.287 C640.607,342.556 639.087,404.27 638.06,445.983 " fill="none" id="GraphFrame-to-JFrame" style="stroke:#A80036;stroke-width:1.0;"/><polygon fill="none" points="645.057,446.163,637.567,465.985,631.062,445.819,645.057,446.163" style="stroke:#A80036;stroke-width:1.0;"/><!--MD5=[11c0d4067419bc91ca0975fe94e2a76f]
link GraphPanel to JPanel--><path codeLine="72" d="M333.776,309.287 C312.986,343.32 274.014,407.123 248.539,448.827 " fill="none" id="GraphPanel-to-JPanel" style="stroke:#A80036;stroke-width:1.0;"/><polygon fill="none" points="254.458,452.566,238.058,465.985,242.51,445.268,254.458,452.566" style="stroke:#A80036;stroke-width:1.0;"/><!--MD5=[c4a0e52f463cf0e879c8832cce8755f4]
reverse link AbstractEdge to LineEdge--><path codeLine="73" d="M1259.94,583.112 C1246.05,610.894 1232,639.005 1222.53,657.931 " fill="none" id="AbstractEdge-backto-LineEdge" style="stroke:#A80036;stroke-width:1.0;"/><polygon fill="none" points="1253.79,579.761,1269,565.003,1266.32,586.022,1253.79,579.761" style="stroke:#A80036;stroke-width:1.0;"/><!--MD5=[74df014a823439bd2b11c5b0b803041e]
reverse link java.io.Serializable to LineStyle--><path codeLine="74" d="M1704.73,72.276 C1778.4,80.522 1887.43,97.881 1913,130 C2033.4,281.267 2027.33,409.092 1913,565 C1909.84,569.309 1818.37,598.152 1727.42,625.996 " fill="none" id="java.io.Serializable-backto-LineStyle" style="stroke:#A80036;stroke-width:1.0;"/><polygon fill="none" points="1703.67,79.204,1684.52,70.142,1705.14,65.282,1703.67,79.204" style="stroke:#A80036;stroke-width:1.0;"/><!--MD5=[59fb55a69352b8c3a17f0ccce5b2cc71]
link LineStyleEditor to PropertyEditorSupport--><path codeLine="75" d="M491.738,309.287 C489.935,342.556 486.591,404.27 484.331,445.983 " fill="none" id="LineStyleEditor-to-PropertyEditorSupport" style="stroke:#A80036;stroke-width:1.0;"/><polygon fill="none" points="491.319,446.393,483.247,465.985,477.34,445.635,491.319,446.393" style="stroke:#A80036;stroke-width:1.0;"/><!--MD5=[0b9c0c3041cc08ad793ee66bd36dd977]
reverse link Node to PointNode--><path codeLine="76" d="M1018.21,373.208 C1029.57,407.103 1041.65,443.168 1049.25,465.874 " fill="none" id="Node-backto-PointNode" style="stroke:#A80036;stroke-width:1.0;"/><polygon fill="none" points="1011.55,375.349,1011.83,354.161,1024.82,370.902,1011.55,375.349" style="stroke:#A80036;stroke-width:1.0;"/><!--MD5=[c734521de70261cb91001258230b3f92]
link PropertySheet to JPanel--><path codeLine="77" d="M106.257,309.287 C128.605,343.397 170.544,407.41 197.864,449.108 " fill="none" id="PropertySheet-to-JPanel" style="stroke:#A80036;stroke-width:1.0;"/><polygon fill="none" points="203.816,445.419,208.921,465.985,192.105,453.092,203.816,445.419" style="stroke:#A80036;stroke-width:1.0;"/><!--MD5=[62b5f6ca1c1c6166c31660507144ed7b]
reverse link Graph to SimpleGraph--><path codeLine="78" d="M1834.14,329.359 C1836.2,371.18 1839.24,432.871 1840.87,465.985 " fill="none" id="Graph-backto-SimpleGraph" style="stroke:#A80036;stroke-width:1.0;"/><polygon fill="none" points="1827.14,329.607,1833.15,309.287,1841.12,328.918,1827.14,329.607" style="stroke:#A80036;stroke-width:1.0;"/><!--MD5=[5156a454d096506cd457fb81a17fa97a]
link ToolBar to JPanel--><path codeLine="79" d="M224,309.287 C224,342.556 224,404.27 224,445.983 " fill="none" id="ToolBar-to-JPanel" style="stroke:#A80036;stroke-width:1.0;"/><polygon fill="none" points="231,445.985,224,465.985,217,445.985,231,445.985" style="stroke:#A80036;stroke-width:1.0;"/><!--MD5=[5bd9571e7894e639f6cb102a845bbfe9]
reverse link java.io.Serializable to Edge--><path codeLine="80" d="M1583.16,100.35 C1536.58,131.216 1466.8,177.452 1408.91,215.809 " fill="none" id="java.io.Serializable-backto-Edge" style="stroke:#A80036;stroke-width:1.0;"/><polygon fill="none" points="1579.56,94.335,1600.1,89.123,1587.3,106.006,1579.56,94.335" style="stroke:#A80036;stroke-width:1.0;"/><!--MD5=[49f0df14af18bdd04df454ff88359f3f]
reverse link java.io.Serializable to Node--><path codeLine="81" d="M1565.12,69.927 C1449.19,77.318 1222.73,95.726 1151,130 C1109.33,149.91 1071.4,184.586 1042.73,215.999 " fill="none" id="java.io.Serializable-backto-Node" style="stroke:#A80036;stroke-width:1.0;"/><polygon fill="none" points="1565.03,62.919,1585.42,68.673,1565.89,76.893,1565.03,62.919" style="stroke:#A80036;stroke-width:1.0;"/><!--MD5=[e3ad4170ac098ded09b8be80700c0089]
reverse link LineStyle to LineEdge--><path codeLine="83" d="M1353.71,682 C1316.53,682 1280.98,682 1254.66,682 " fill="none" id="LineStyle-backto-LineEdge" style="stroke:#A80036;stroke-width:1.0;stroke-dasharray:7.0,7.0;"/><polygon fill="#A80036" points="1358.73,682,1349.73,678,1353.73,682,1349.73,686,1358.73,682" style="stroke:#A80036;stroke-width:1.0;"/><text fill="#000000" font-family="sans-serif" font-size="13" lengthAdjust="spacing" textLength="68" x="1272.75" y="675.0669">depend on</text><!--MD5=[3aa6fa49232c8d8d5aca340a50723597]
reverse link java.lang.Clonable to Edge--><path codeLine="84" d="M1157.36,104.97 C1182.91,135.743 1219.18,179.433 1249.5,215.948 " fill="none" id="java.lang.Clonable-backto-Edge" style="stroke:#A80036;stroke-width:1.0;"/><polygon fill="none" points="1151.76,109.189,1144.37,89.33,1162.53,100.246,1151.76,109.189" style="stroke:#A80036;stroke-width:1.0;"/><!--MD5=[3a3b915bb3ec8076fba79f52de36cd05]
reverse link java.lang.Clonable to Node--><path codeLine="85" d="M1099.61,106.693 C1080.48,137.359 1053.81,180.109 1031.45,215.948 " fill="none" id="java.lang.Clonable-backto-Node" style="stroke:#A80036;stroke-width:1.0;"/><polygon fill="none" points="1093.92,102.593,1110.45,89.33,1105.8,110.004,1093.92,102.593" style="stroke:#A80036;stroke-width:1.0;"/><!--MD5=[73cd627742c70c734ced41bc1951bfba]
reverse link SimpleGraph to SimpleGraphEditor--><path codeLine="86" d="M1841.55,519.656 C1840.95,557.393 1839.92,623.021 1839.37,657.809 " fill="none" id="SimpleGraph-backto-SimpleGraphEditor" style="stroke:#A80036;stroke-width:1.0;stroke-dasharray:7.0,7.0;"/><polygon fill="#A80036" points="1841.63,514.298,1837.4865,523.2329,1841.55,519.2974,1845.4855,523.3608,1841.63,514.298" style="stroke:#A80036;stroke-width:1.0;"/><!--MD5=[a895a6b5ac763ddb8e8eded36409e10e]
@startuml
package Graphed2{
class FormLayout
class GraphFrame
class GraphPanel
class JFrame
class JPanel
class LineStyleEditor
class PropertyEditorSupport
class PropertySheet
class SimpleGraphEditor
note bottom of SimpleGraphEditor: Contain main operation
class ToolBar
interface java.lang.Clonable
interface LayoutManager
interface java.io.Serializable

package Nodes {
interface Node {
   void draw(Graphics2D g2);
   boolean contains(Point2D aPoint);
   void connect(Node aStart, Node anEnd);
   Node getStart();
   Node getEnd();
   Line2D getConnectionPoints();
   Rectangle2D getBounds(Graphics2D g2);

}
class PointNode
class CircleNode
    }

package edges {
    abstract class AbstractEdge{
        public Object clone()
        public void connect(Node s, Node e)
        public Node getStart()
        public Node getEnd()
        public Rectangle2D getBounds(Graphics2D g2)
        public Line2D getConnectionPoints()
        private Node start;
        private Node end;
    }
    interface Edge {
        void draw(Graphics2D g2);
        boolean contains(Point2D aPoint);
        void connect(Node aStart, Node anEnd);
        Node getStart();
        Node getEnd();
        Line2D getConnectionPoints();
        Rectangle2D getBounds(Graphics2D g2);
    }
    class LineEdge
    class LineStyle {
        private LineStyle(String name) 
        public Stroke getStroke()
        protected Object readResolve() throws ObjectStreamException
        public static final LineStyle SOLID 
        public static final LineStyle DOTTED 
    }
}

 package Graphes {
    abstract class Graph

    class SimpleGraph
}
AbstractEdge -up-|> Edge
Graph -up-|> java.io.Serializable
CircleNode -up-|> Node
FormLayout - -|> LayoutManager
GraphFrame - -|> JFrame
GraphPanel - -|> JPanel
LineEdge -up-|> AbstractEdge
LineStyle -up-|> java.io.Serializable
LineStyleEditor - -|> PropertyEditorSupport
PointNode -up-|> Node
PropertySheet - -|> JPanel
SimpleGraph -up-|> Graph
ToolBar - -|> JPanel
Edge -up-|> java.io.Serializable
Node -up-|> java.io.Serializable

LineEdge .left-> LineStyle: depend on
Edge -up-|> java.lang.Clonable
Node -up-|> java.lang.Clonable
SimpleGraphEditor .up.> SimpleGraph
}
@enduml

PlantUML version 1.2021.01beta3(Unknown compile time)
(GPL source distribution)
Java Runtime: Java(TM) SE Runtime Environment
JVM: Java HotSpot(TM) 64-Bit Server VM
Default Encoding: UTF-8
Language: en
Country: US
--></g></svg>