<?xml version="1.0" encoding="UTF-8" standalone="no"?><svg xmlns="http://www.w3.org/2000/svg" xmlns:xlink="http://www.w3.org/1999/xlink" contentScriptType="application/ecmascript" contentStyleType="text/css" height="2022px" preserveAspectRatio="none" style="width:1759px;height:2022px;" version="1.1" viewBox="0 0 1759 2022" width="1759px" zoomAndPan="magnify"><defs><filter height="300%" id="f12m1mk6hf7tj9" width="300%" x="-1" y="-1"><feGaussianBlur result="blurOut" stdDeviation="2.0"/><feColorMatrix in="blurOut" result="blurOut2" type="matrix" values="0 0 0 0 0 0 0 0 0 0 0 0 0 0 0 0 0 0 .4 0"/><feOffset dx="4.0" dy="4.0" in="blurOut2" result="blurOut3"/><feBlend in="SourceGraphic" in2="blurOut3" mode="normal"/></filter></defs><g><!--MD5=[3d5c2bdf0ac6da75bdd3f20e4c3808c7]
cluster UmlEditor--><polygon fill="#FFFFFF" filter="url(#f12m1mk6hf7tj9)" points="16,49.69,102,49.69,109,71.9869,1596,71.9869,1596,1707.689,16,1707.689,16,49.69" style="stroke:#000000;stroke-width:1.5;"/><line style="stroke:#000000;stroke-width:1.5;" x1="16" x2="109" y1="71.9869" y2="71.9869"/><text fill="#000000" font-family="sans-serif" font-size="14" font-weight="bold" lengthAdjust="spacing" textLength="80" x="20" y="64.6851">UmlEditor</text><!--MD5=[2093fb8763e0963ab2d583dd77011000]
cluster Nodes--><polygon fill="#FFFFFF" filter="url(#f12m1mk6hf7tj9)" points="75.5,554.69,130.5,554.69,137.5,576.9869,806,576.9869,806,736.69,75.5,736.69,75.5,554.69" style="stroke:#000000;stroke-width:1.5;"/><line style="stroke:#000000;stroke-width:1.5;" x1="75.5" x2="137.5" y1="576.9869" y2="576.9869"/><text fill="#000000" font-family="sans-serif" font-size="14" font-weight="bold" lengthAdjust="spacing" textLength="49" x="79.5" y="569.6851">Nodes</text><!--MD5=[a69b11994f1325ca382ee696cdd1fd0b]
cluster Edges--><polygon fill="#FFFFFF" filter="url(#f12m1mk6hf7tj9)" points="40,92.69,93,92.69,100,114.9869,1572,114.9869,1572,530.69,40,530.69,40,92.69" style="stroke:#000000;stroke-width:1.5;"/><line style="stroke:#000000;stroke-width:1.5;" x1="40" x2="100" y1="114.9869" y2="114.9869"/><text fill="#000000" font-family="sans-serif" font-size="14" font-weight="bold" lengthAdjust="spacing" textLength="47" x="44" y="107.6851">Edges</text><!--MD5=[0d852700fdad35b7061d461d6907a324]
cluster java.io--><polygon fill="#FFFFFF" filter="url(#f12m1mk6hf7tj9)" points="1368.5,1731.689,1428.5,1731.689,1435.5,1753.9859,1499.5,1753.9859,1499.5,1830.689,1368.5,1830.689,1368.5,1731.689" style="stroke:#000000;stroke-width:1.5;"/><line style="stroke:#000000;stroke-width:1.5;" x1="1368.5" x2="1435.5" y1="1753.9859" y2="1753.9859"/><text fill="#000000" font-family="sans-serif" font-size="14" font-weight="bold" lengthAdjust="spacing" textLength="54" x="1372.5" y="1746.6841">java.io</text><!--MD5=[aa8f7b917213fcc1c2766e2d59b49067]
cluster java.lang--><polygon fill="#FFFFFF" filter="url(#f12m1mk6hf7tj9)" points="1620,308.69,1700,308.69,1707,330.9869,1742,330.9869,1742,407.69,1620,407.69,1620,308.69" style="stroke:#000000;stroke-width:1.5;"/><line style="stroke:#000000;stroke-width:1.5;" x1="1620" x2="1707" y1="330.9869" y2="330.9869"/><text fill="#000000" font-family="sans-serif" font-size="14" font-weight="bold" lengthAdjust="spacing" textLength="74" x="1624" y="323.6851">java.lang</text><!--MD5=[535aab4de90d4dfa371a9b40d5438fc3]
cluster javax.swing--><polygon fill="#FFFFFF" filter="url(#f12m1mk6hf7tj9)" points="604.5,1731.689,705.5,1731.689,712.5,1753.9859,715.5,1753.9859,715.5,1830.689,604.5,1830.689,604.5,1731.689" style="stroke:#000000;stroke-width:1.5;"/><line style="stroke:#000000;stroke-width:1.5;" x1="604.5" x2="712.5" y1="1753.9859" y2="1753.9859"/><text fill="#000000" font-family="sans-serif" font-size="14" font-weight="bold" lengthAdjust="spacing" textLength="95" x="608.5" y="1746.6841">javax.swing</text><!--MD5=[706e73df52f3df32f52be1ce9adb217e]
class Graph--><rect codeLine="3" fill="#FEFECE" filter="url(#f12m1mk6hf7tj9)" height="48" id="Graph" style="stroke:#A80036;stroke-width:1.5;" width="69" x="327.5" y="1001.689"/><ellipse cx="342.5" cy="1017.689" fill="#A9DCDF" rx="11" ry="11" style="stroke:#A80036;stroke-width:1.0;"/><path d="M344.5781,1019.5015 L344.9688,1020.4859 L344.5781,1020.4859 C344.125,1020.4859 344.0156,1020.5015 343.8594,1020.6109 C343.6094,1020.7671 343.4531,1021.0484 343.4531,1021.3453 C343.4531,1021.6109 343.5938,1021.8609 343.8125,1022.0171 C343.9531,1022.1421 344.1563,1022.189 344.5781,1022.189 L346.9375,1022.189 C347.2969,1022.189 347.5156,1022.1578 347.6563,1022.064 C347.9063,1021.9234 348.0625,1021.6265 348.0625,1021.3453 C348.0625,1021.064 347.9219,1020.814 347.7031,1020.6578 C347.5313,1020.5171 347.375,1020.4859 346.9063,1020.4859 L343.5156,1012.2828 L339.8438,1012.2828 C339.3906,1012.2828 339.2656,1012.2984 339.1094,1012.3921 C338.8594,1012.564 338.7031,1012.8453 338.7031,1013.1265 C338.7031,1013.4078 338.8438,1013.6578 339.0625,1013.8296 C339.2344,1013.939 339.4063,1013.9703 339.8438,1013.9703 L340.9219,1013.9703 L338.2813,1020.4859 C337.8594,1020.4859 337.7031,1020.5015 337.5469,1020.6109 C337.2969,1020.7671 337.1406,1021.0484 337.1406,1021.3453 C337.1406,1021.9078 337.5156,1022.189 338.2656,1022.189 L340.5313,1022.189 C340.8906,1022.189 341.1094,1022.1578 341.2344,1022.064 C341.5,1021.9234 341.6406,1021.6265 341.6406,1021.3453 C341.6406,1021.064 341.5156,1020.814 341.2969,1020.6421 C341.125,1020.5171 340.9844,1020.4859 340.5313,1020.4859 L340.1406,1020.4859 L340.5313,1019.5015 L344.5781,1019.5015 Z M343.875,1017.7984 L341.2031,1017.7984 L342.5469,1014.5328 L343.875,1017.7984 Z " fill="#000000"/><text fill="#000000" font-family="sans-serif" font-size="12" font-style="italic" lengthAdjust="spacing" textLength="37" x="356.5" y="1021.8433">Graph</text><line style="stroke:#A80036;stroke-width:1.5;" x1="328.5" x2="395.5" y1="1033.689" y2="1033.689"/><line style="stroke:#A80036;stroke-width:1.5;" x1="328.5" x2="395.5" y1="1041.689" y2="1041.689"/><!--MD5=[c7dfdced7a21fb3c32a966c4a6f9b6bf]
class ArrowHeadEditor--><rect codeLine="4" fill="#FEFECE" filter="url(#f12m1mk6hf7tj9)" height="48" id="ArrowHeadEditor" style="stroke:#A80036;stroke-width:1.5;" width="135" x="72" y="752.69"/><ellipse cx="87" cy="768.69" fill="#ADD1B2" rx="11" ry="11" style="stroke:#A80036;stroke-width:1.0;"/><path d="M89.3438,764.3619 C88.4063,763.9244 87.8125,763.7838 86.9375,763.7838 C84.3125,763.7838 82.3125,765.8619 82.3125,768.5806 L82.3125,769.7056 C82.3125,772.2838 84.4219,774.1744 87.3125,774.1744 C88.5313,774.1744 89.6875,773.8775 90.4375,773.3306 C91.0156,772.9244 91.3438,772.4713 91.3438,772.0806 C91.3438,771.6275 90.9531,771.2369 90.4844,771.2369 C90.2656,771.2369 90.0625,771.315 89.875,771.5025 C89.4219,771.9869 89.4219,771.9869 89.2344,772.0806 C88.8125,772.3463 88.125,772.4713 87.3594,772.4713 C85.3125,772.4713 84.0156,771.3775 84.0156,769.6744 L84.0156,768.5806 C84.0156,766.7994 85.2656,765.4869 87,765.4869 C87.5781,765.4869 88.1875,765.6431 88.6563,765.8931 C89.1406,766.1744 89.3125,766.3931 89.4063,766.7994 C89.4688,767.2056 89.5,767.3306 89.6406,767.4556 C89.7813,767.5963 90.0156,767.7056 90.2344,767.7056 C90.5,767.7056 90.7656,767.565 90.9375,767.3463 C91.0469,767.19 91.0781,767.0025 91.0781,766.5806 L91.0781,765.1588 C91.0781,764.7213 91.0625,764.5963 90.9688,764.44 C90.8125,764.1744 90.5313,764.0338 90.2344,764.0338 C89.9375,764.0338 89.7344,764.1275 89.5156,764.44 L89.3438,764.3619 Z " fill="#000000"/><text fill="#000000" font-family="sans-serif" font-size="12" lengthAdjust="spacing" textLength="103" x="101" y="772.8443">ArrowHeadEditor</text><line style="stroke:#A80036;stroke-width:1.5;" x1="73" x2="206" y1="784.69" y2="784.69"/><line style="stroke:#A80036;stroke-width:1.5;" x1="73" x2="206" y1="792.69" y2="792.69"/><!--MD5=[ad0fbdbfdf954ab04939015bd5bc35df]
class BentStyleEditor--><rect codeLine="5" fill="#FEFECE" filter="url(#f12m1mk6hf7tj9)" height="48" id="BentStyleEditor" style="stroke:#A80036;stroke-width:1.5;" width="124" x="77.5" y="835.69"/><ellipse cx="92.5" cy="851.69" fill="#ADD1B2" rx="11" ry="11" style="stroke:#A80036;stroke-width:1.0;"/><path d="M94.8438,847.3619 C93.9063,846.9244 93.3125,846.7838 92.4375,846.7838 C89.8125,846.7838 87.8125,848.8619 87.8125,851.5806 L87.8125,852.7056 C87.8125,855.2838 89.9219,857.1744 92.8125,857.1744 C94.0313,857.1744 95.1875,856.8775 95.9375,856.3306 C96.5156,855.9244 96.8438,855.4713 96.8438,855.0806 C96.8438,854.6275 96.4531,854.2369 95.9844,854.2369 C95.7656,854.2369 95.5625,854.315 95.375,854.5025 C94.9219,854.9869 94.9219,854.9869 94.7344,855.0806 C94.3125,855.3463 93.625,855.4713 92.8594,855.4713 C90.8125,855.4713 89.5156,854.3775 89.5156,852.6744 L89.5156,851.5806 C89.5156,849.7994 90.7656,848.4869 92.5,848.4869 C93.0781,848.4869 93.6875,848.6431 94.1563,848.8931 C94.6406,849.1744 94.8125,849.3931 94.9063,849.7994 C94.9688,850.2056 95,850.3306 95.1406,850.4556 C95.2813,850.5963 95.5156,850.7056 95.7344,850.7056 C96,850.7056 96.2656,850.565 96.4375,850.3463 C96.5469,850.19 96.5781,850.0025 96.5781,849.5806 L96.5781,848.1588 C96.5781,847.7213 96.5625,847.5963 96.4688,847.44 C96.3125,847.1744 96.0313,847.0338 95.7344,847.0338 C95.4375,847.0338 95.2344,847.1275 95.0156,847.44 L94.8438,847.3619 Z " fill="#000000"/><text fill="#000000" font-family="sans-serif" font-size="12" lengthAdjust="spacing" textLength="92" x="106.5" y="855.8443">BentStyleEditor</text><line style="stroke:#A80036;stroke-width:1.5;" x1="78.5" x2="200.5" y1="867.69" y2="867.69"/><line style="stroke:#A80036;stroke-width:1.5;" x1="78.5" x2="200.5" y1="875.69" y2="875.69"/><!--MD5=[51f79572e40961fb79dafd2b3cba3eb5]
class ClassDiagramGraph--><rect codeLine="6" fill="#FEFECE" filter="url(#f12m1mk6hf7tj9)" height="48" id="ClassDiagramGraph" style="stroke:#A80036;stroke-width:1.5;" width="150" x="64.5" y="1001.689"/><ellipse cx="79.5" cy="1017.689" fill="#ADD1B2" rx="11" ry="11" style="stroke:#A80036;stroke-width:1.0;"/><path d="M81.8438,1013.3609 C80.9063,1012.9234 80.3125,1012.7828 79.4375,1012.7828 C76.8125,1012.7828 74.8125,1014.8609 74.8125,1017.5796 L74.8125,1018.7046 C74.8125,1021.2828 76.9219,1023.1734 79.8125,1023.1734 C81.0313,1023.1734 82.1875,1022.8765 82.9375,1022.3296 C83.5156,1021.9234 83.8438,1021.4703 83.8438,1021.0796 C83.8438,1020.6265 83.4531,1020.2359 82.9844,1020.2359 C82.7656,1020.2359 82.5625,1020.314 82.375,1020.5015 C81.9219,1020.9859 81.9219,1020.9859 81.7344,1021.0796 C81.3125,1021.3453 80.625,1021.4703 79.8594,1021.4703 C77.8125,1021.4703 76.5156,1020.3765 76.5156,1018.6734 L76.5156,1017.5796 C76.5156,1015.7984 77.7656,1014.4859 79.5,1014.4859 C80.0781,1014.4859 80.6875,1014.6421 81.1563,1014.8921 C81.6406,1015.1734 81.8125,1015.3921 81.9063,1015.7984 C81.9688,1016.2046 82,1016.3296 82.1406,1016.4546 C82.2813,1016.5953 82.5156,1016.7046 82.7344,1016.7046 C83,1016.7046 83.2656,1016.564 83.4375,1016.3453 C83.5469,1016.189 83.5781,1016.0015 83.5781,1015.5796 L83.5781,1014.1578 C83.5781,1013.7203 83.5625,1013.5953 83.4688,1013.439 C83.3125,1013.1734 83.0313,1013.0328 82.7344,1013.0328 C82.4375,1013.0328 82.2344,1013.1265 82.0156,1013.439 L81.8438,1013.3609 Z " fill="#000000"/><text fill="#000000" font-family="sans-serif" font-size="12" lengthAdjust="spacing" textLength="118" x="93.5" y="1021.8433">ClassDiagramGraph</text><line style="stroke:#A80036;stroke-width:1.5;" x1="65.5" x2="213.5" y1="1033.689" y2="1033.689"/><line style="stroke:#A80036;stroke-width:1.5;" x1="65.5" x2="213.5" y1="1041.689" y2="1041.689"/><!--MD5=[9b4dd6cb265c728e071a30999097ca7a]
class FormLayout--><rect codeLine="7" fill="#FEFECE" filter="url(#f12m1mk6hf7tj9)" height="48" id="FormLayout" style="stroke:#A80036;stroke-width:1.5;" width="102" x="88.5" y="1084.689"/><ellipse cx="103.5" cy="1100.689" fill="#ADD1B2" rx="11" ry="11" style="stroke:#A80036;stroke-width:1.0;"/><path d="M105.8438,1096.3609 C104.9063,1095.9234 104.3125,1095.7828 103.4375,1095.7828 C100.8125,1095.7828 98.8125,1097.8609 98.8125,1100.5796 L98.8125,1101.7046 C98.8125,1104.2828 100.9219,1106.1734 103.8125,1106.1734 C105.0313,1106.1734 106.1875,1105.8765 106.9375,1105.3296 C107.5156,1104.9234 107.8438,1104.4703 107.8438,1104.0796 C107.8438,1103.6265 107.4531,1103.2359 106.9844,1103.2359 C106.7656,1103.2359 106.5625,1103.314 106.375,1103.5015 C105.9219,1103.9859 105.9219,1103.9859 105.7344,1104.0796 C105.3125,1104.3453 104.625,1104.4703 103.8594,1104.4703 C101.8125,1104.4703 100.5156,1103.3765 100.5156,1101.6734 L100.5156,1100.5796 C100.5156,1098.7984 101.7656,1097.4859 103.5,1097.4859 C104.0781,1097.4859 104.6875,1097.6421 105.1563,1097.8921 C105.6406,1098.1734 105.8125,1098.3921 105.9063,1098.7984 C105.9688,1099.2046 106,1099.3296 106.1406,1099.4546 C106.2813,1099.5953 106.5156,1099.7046 106.7344,1099.7046 C107,1099.7046 107.2656,1099.564 107.4375,1099.3453 C107.5469,1099.189 107.5781,1099.0015 107.5781,1098.5796 L107.5781,1097.1578 C107.5781,1096.7203 107.5625,1096.5953 107.4688,1096.439 C107.3125,1096.1734 107.0313,1096.0328 106.7344,1096.0328 C106.4375,1096.0328 106.2344,1096.1265 106.0156,1096.439 L105.8438,1096.3609 Z " fill="#000000"/><text fill="#000000" font-family="sans-serif" font-size="12" lengthAdjust="spacing" textLength="70" x="117.5" y="1104.8433">FormLayout</text><line style="stroke:#A80036;stroke-width:1.5;" x1="89.5" x2="189.5" y1="1116.689" y2="1116.689"/><line style="stroke:#A80036;stroke-width:1.5;" x1="89.5" x2="189.5" y1="1124.689" y2="1124.689"/><!--MD5=[1819e500f5b91c72cc8852d41502a142]
class GraphFrame--><rect codeLine="8" fill="#FEFECE" filter="url(#f12m1mk6hf7tj9)" height="48" id="GraphFrame" style="stroke:#A80036;stroke-width:1.5;" width="106" x="86.5" y="1167.689"/><ellipse cx="101.5" cy="1183.689" fill="#ADD1B2" rx="11" ry="11" style="stroke:#A80036;stroke-width:1.0;"/><path d="M103.8438,1179.3609 C102.9063,1178.9234 102.3125,1178.7828 101.4375,1178.7828 C98.8125,1178.7828 96.8125,1180.8609 96.8125,1183.5796 L96.8125,1184.7046 C96.8125,1187.2828 98.9219,1189.1734 101.8125,1189.1734 C103.0313,1189.1734 104.1875,1188.8765 104.9375,1188.3296 C105.5156,1187.9234 105.8438,1187.4703 105.8438,1187.0796 C105.8438,1186.6265 105.4531,1186.2359 104.9844,1186.2359 C104.7656,1186.2359 104.5625,1186.314 104.375,1186.5015 C103.9219,1186.9859 103.9219,1186.9859 103.7344,1187.0796 C103.3125,1187.3453 102.625,1187.4703 101.8594,1187.4703 C99.8125,1187.4703 98.5156,1186.3765 98.5156,1184.6734 L98.5156,1183.5796 C98.5156,1181.7984 99.7656,1180.4859 101.5,1180.4859 C102.0781,1180.4859 102.6875,1180.6421 103.1563,1180.8921 C103.6406,1181.1734 103.8125,1181.3921 103.9063,1181.7984 C103.9688,1182.2046 104,1182.3296 104.1406,1182.4546 C104.2813,1182.5953 104.5156,1182.7046 104.7344,1182.7046 C105,1182.7046 105.2656,1182.564 105.4375,1182.3453 C105.5469,1182.189 105.5781,1182.0015 105.5781,1181.5796 L105.5781,1180.1578 C105.5781,1179.7203 105.5625,1179.5953 105.4688,1179.439 C105.3125,1179.1734 105.0313,1179.0328 104.7344,1179.0328 C104.4375,1179.0328 104.2344,1179.1265 104.0156,1179.439 L103.8438,1179.3609 Z " fill="#000000"/><text fill="#000000" font-family="sans-serif" font-size="12" lengthAdjust="spacing" textLength="74" x="115.5" y="1187.8433">GraphFrame</text><line style="stroke:#A80036;stroke-width:1.5;" x1="87.5" x2="191.5" y1="1199.689" y2="1199.689"/><line style="stroke:#A80036;stroke-width:1.5;" x1="87.5" x2="191.5" y1="1207.689" y2="1207.689"/><!--MD5=[07d896a179d8d7d8315986348541bb58]
class GraphPanel--><rect codeLine="9" fill="#FEFECE" filter="url(#f12m1mk6hf7tj9)" height="48" id="GraphPanel" style="stroke:#A80036;stroke-width:1.5;" width="99" x="90" y="1250.689"/><ellipse cx="105" cy="1266.689" fill="#ADD1B2" rx="11" ry="11" style="stroke:#A80036;stroke-width:1.0;"/><path d="M107.3438,1262.3609 C106.4063,1261.9234 105.8125,1261.7828 104.9375,1261.7828 C102.3125,1261.7828 100.3125,1263.8609 100.3125,1266.5796 L100.3125,1267.7046 C100.3125,1270.2828 102.4219,1272.1734 105.3125,1272.1734 C106.5313,1272.1734 107.6875,1271.8765 108.4375,1271.3296 C109.0156,1270.9234 109.3438,1270.4703 109.3438,1270.0796 C109.3438,1269.6265 108.9531,1269.2359 108.4844,1269.2359 C108.2656,1269.2359 108.0625,1269.314 107.875,1269.5015 C107.4219,1269.9859 107.4219,1269.9859 107.2344,1270.0796 C106.8125,1270.3453 106.125,1270.4703 105.3594,1270.4703 C103.3125,1270.4703 102.0156,1269.3765 102.0156,1267.6734 L102.0156,1266.5796 C102.0156,1264.7984 103.2656,1263.4859 105,1263.4859 C105.5781,1263.4859 106.1875,1263.6421 106.6563,1263.8921 C107.1406,1264.1734 107.3125,1264.3921 107.4063,1264.7984 C107.4688,1265.2046 107.5,1265.3296 107.6406,1265.4546 C107.7813,1265.5953 108.0156,1265.7046 108.2344,1265.7046 C108.5,1265.7046 108.7656,1265.564 108.9375,1265.3453 C109.0469,1265.189 109.0781,1265.0015 109.0781,1264.5796 L109.0781,1263.1578 C109.0781,1262.7203 109.0625,1262.5953 108.9688,1262.439 C108.8125,1262.1734 108.5313,1262.0328 108.2344,1262.0328 C107.9375,1262.0328 107.7344,1262.1265 107.5156,1262.439 L107.3438,1262.3609 Z " fill="#000000"/><text fill="#000000" font-family="sans-serif" font-size="12" lengthAdjust="spacing" textLength="67" x="119" y="1270.8433">GraphPanel</text><line style="stroke:#A80036;stroke-width:1.5;" x1="91" x2="188" y1="1282.689" y2="1282.689"/><line style="stroke:#A80036;stroke-width:1.5;" x1="91" x2="188" y1="1290.689" y2="1290.689"/><!--MD5=[a520837ef4416b7ac44f8bb1541877a6]
class JFrame--><rect codeLine="10" fill="#FEFECE" filter="url(#f12m1mk6hf7tj9)" height="48" id="JFrame" style="stroke:#A80036;stroke-width:1.5;" width="74" x="325" y="1167.689"/><ellipse cx="340" cy="1183.689" fill="#ADD1B2" rx="11" ry="11" style="stroke:#A80036;stroke-width:1.0;"/><path d="M342.3438,1179.3609 C341.4063,1178.9234 340.8125,1178.7828 339.9375,1178.7828 C337.3125,1178.7828 335.3125,1180.8609 335.3125,1183.5796 L335.3125,1184.7046 C335.3125,1187.2828 337.4219,1189.1734 340.3125,1189.1734 C341.5313,1189.1734 342.6875,1188.8765 343.4375,1188.3296 C344.0156,1187.9234 344.3438,1187.4703 344.3438,1187.0796 C344.3438,1186.6265 343.9531,1186.2359 343.4844,1186.2359 C343.2656,1186.2359 343.0625,1186.314 342.875,1186.5015 C342.4219,1186.9859 342.4219,1186.9859 342.2344,1187.0796 C341.8125,1187.3453 341.125,1187.4703 340.3594,1187.4703 C338.3125,1187.4703 337.0156,1186.3765 337.0156,1184.6734 L337.0156,1183.5796 C337.0156,1181.7984 338.2656,1180.4859 340,1180.4859 C340.5781,1180.4859 341.1875,1180.6421 341.6563,1180.8921 C342.1406,1181.1734 342.3125,1181.3921 342.4063,1181.7984 C342.4688,1182.2046 342.5,1182.3296 342.6406,1182.4546 C342.7813,1182.5953 343.0156,1182.7046 343.2344,1182.7046 C343.5,1182.7046 343.7656,1182.564 343.9375,1182.3453 C344.0469,1182.189 344.0781,1182.0015 344.0781,1181.5796 L344.0781,1180.1578 C344.0781,1179.7203 344.0625,1179.5953 343.9688,1179.439 C343.8125,1179.1734 343.5313,1179.0328 343.2344,1179.0328 C342.9375,1179.0328 342.7344,1179.1265 342.5156,1179.439 L342.3438,1179.3609 Z " fill="#000000"/><text fill="#000000" font-family="sans-serif" font-size="12" lengthAdjust="spacing" textLength="42" x="354" y="1187.8433">JFrame</text><line style="stroke:#A80036;stroke-width:1.5;" x1="326" x2="398" y1="1199.689" y2="1199.689"/><line style="stroke:#A80036;stroke-width:1.5;" x1="326" x2="398" y1="1207.689" y2="1207.689"/><!--MD5=[36afe292eb27441132c327893668631d]
class JPanel--><rect codeLine="11" fill="#FEFECE" filter="url(#f12m1mk6hf7tj9)" height="48" id="JPanel" style="stroke:#A80036;stroke-width:1.5;" width="67" x="328.5" y="1333.689"/><ellipse cx="343.5" cy="1349.689" fill="#ADD1B2" rx="11" ry="11" style="stroke:#A80036;stroke-width:1.0;"/><path d="M345.8438,1345.3609 C344.9063,1344.9234 344.3125,1344.7828 343.4375,1344.7828 C340.8125,1344.7828 338.8125,1346.8609 338.8125,1349.5796 L338.8125,1350.7046 C338.8125,1353.2828 340.9219,1355.1734 343.8125,1355.1734 C345.0313,1355.1734 346.1875,1354.8765 346.9375,1354.3296 C347.5156,1353.9234 347.8438,1353.4703 347.8438,1353.0796 C347.8438,1352.6265 347.4531,1352.2359 346.9844,1352.2359 C346.7656,1352.2359 346.5625,1352.314 346.375,1352.5015 C345.9219,1352.9859 345.9219,1352.9859 345.7344,1353.0796 C345.3125,1353.3453 344.625,1353.4703 343.8594,1353.4703 C341.8125,1353.4703 340.5156,1352.3765 340.5156,1350.6734 L340.5156,1349.5796 C340.5156,1347.7984 341.7656,1346.4859 343.5,1346.4859 C344.0781,1346.4859 344.6875,1346.6421 345.1563,1346.8921 C345.6406,1347.1734 345.8125,1347.3921 345.9063,1347.7984 C345.9688,1348.2046 346,1348.3296 346.1406,1348.4546 C346.2813,1348.5953 346.5156,1348.7046 346.7344,1348.7046 C347,1348.7046 347.2656,1348.564 347.4375,1348.3453 C347.5469,1348.189 347.5781,1348.0015 347.5781,1347.5796 L347.5781,1346.1578 C347.5781,1345.7203 347.5625,1345.5953 347.4688,1345.439 C347.3125,1345.1734 347.0313,1345.0328 346.7344,1345.0328 C346.4375,1345.0328 346.2344,1345.1265 346.0156,1345.439 L345.8438,1345.3609 Z " fill="#000000"/><text fill="#000000" font-family="sans-serif" font-size="12" lengthAdjust="spacing" textLength="35" x="357.5" y="1353.8433">JPanel</text><line style="stroke:#A80036;stroke-width:1.5;" x1="329.5" x2="394.5" y1="1365.689" y2="1365.689"/><line style="stroke:#A80036;stroke-width:1.5;" x1="329.5" x2="394.5" y1="1373.689" y2="1373.689"/><!--MD5=[524ee07594b09a921467c0690038e962]
class LineStyleEditor--><rect codeLine="12" fill="#FEFECE" filter="url(#f12m1mk6hf7tj9)" height="48" id="LineStyleEditor" style="stroke:#A80036;stroke-width:1.5;" width="121" x="79" y="918.69"/><ellipse cx="94" cy="934.69" fill="#ADD1B2" rx="11" ry="11" style="stroke:#A80036;stroke-width:1.0;"/><path d="M96.3438,930.3619 C95.4063,929.9244 94.8125,929.7838 93.9375,929.7838 C91.3125,929.7838 89.3125,931.8619 89.3125,934.5806 L89.3125,935.7056 C89.3125,938.2838 91.4219,940.1744 94.3125,940.1744 C95.5313,940.1744 96.6875,939.8775 97.4375,939.3306 C98.0156,938.9244 98.3438,938.4713 98.3438,938.0806 C98.3438,937.6275 97.9531,937.2369 97.4844,937.2369 C97.2656,937.2369 97.0625,937.315 96.875,937.5025 C96.4219,937.9869 96.4219,937.9869 96.2344,938.0806 C95.8125,938.3463 95.125,938.4713 94.3594,938.4713 C92.3125,938.4713 91.0156,937.3775 91.0156,935.6744 L91.0156,934.5806 C91.0156,932.7994 92.2656,931.4869 94,931.4869 C94.5781,931.4869 95.1875,931.6431 95.6563,931.8931 C96.1406,932.1744 96.3125,932.3931 96.4063,932.7994 C96.4688,933.2056 96.5,933.3306 96.6406,933.4556 C96.7813,933.5963 97.0156,933.7056 97.2344,933.7056 C97.5,933.7056 97.7656,933.565 97.9375,933.3463 C98.0469,933.19 98.0781,933.0025 98.0781,932.5806 L98.0781,931.1588 C98.0781,930.7213 98.0625,930.5963 97.9688,930.44 C97.8125,930.1744 97.5313,930.0338 97.2344,930.0338 C96.9375,930.0338 96.7344,930.1275 96.5156,930.44 L96.3438,930.3619 Z " fill="#000000"/><text fill="#000000" font-family="sans-serif" font-size="12" lengthAdjust="spacing" textLength="89" x="108" y="938.8443">LineStyleEditor</text><line style="stroke:#A80036;stroke-width:1.5;" x1="80" x2="199" y1="950.69" y2="950.69"/><line style="stroke:#A80036;stroke-width:1.5;" x1="80" x2="199" y1="958.69" y2="958.69"/><!--MD5=[0b71716e243d5534cb8262929eda4eb6]
class MultiLineString--><rect codeLine="13" fill="#FEFECE" filter="url(#f12m1mk6hf7tj9)" height="48" id="MultiLineString" style="stroke:#A80036;stroke-width:1.5;" width="118" x="80.5" y="1643.689"/><ellipse cx="95.5" cy="1659.689" fill="#ADD1B2" rx="11" ry="11" style="stroke:#A80036;stroke-width:1.0;"/><path d="M97.8438,1655.3609 C96.9063,1654.9234 96.3125,1654.7828 95.4375,1654.7828 C92.8125,1654.7828 90.8125,1656.8609 90.8125,1659.5796 L90.8125,1660.7046 C90.8125,1663.2828 92.9219,1665.1734 95.8125,1665.1734 C97.0313,1665.1734 98.1875,1664.8765 98.9375,1664.3296 C99.5156,1663.9234 99.8438,1663.4703 99.8438,1663.0796 C99.8438,1662.6265 99.4531,1662.2359 98.9844,1662.2359 C98.7656,1662.2359 98.5625,1662.314 98.375,1662.5015 C97.9219,1662.9859 97.9219,1662.9859 97.7344,1663.0796 C97.3125,1663.3453 96.625,1663.4703 95.8594,1663.4703 C93.8125,1663.4703 92.5156,1662.3765 92.5156,1660.6734 L92.5156,1659.5796 C92.5156,1657.7984 93.7656,1656.4859 95.5,1656.4859 C96.0781,1656.4859 96.6875,1656.6421 97.1563,1656.8921 C97.6406,1657.1734 97.8125,1657.3921 97.9063,1657.7984 C97.9688,1658.2046 98,1658.3296 98.1406,1658.4546 C98.2813,1658.5953 98.5156,1658.7046 98.7344,1658.7046 C99,1658.7046 99.2656,1658.564 99.4375,1658.3453 C99.5469,1658.189 99.5781,1658.0015 99.5781,1657.5796 L99.5781,1656.1578 C99.5781,1655.7203 99.5625,1655.5953 99.4688,1655.439 C99.3125,1655.1734 99.0313,1655.0328 98.7344,1655.0328 C98.4375,1655.0328 98.2344,1655.1265 98.0156,1655.439 L97.8438,1655.3609 Z " fill="#000000"/><text fill="#000000" font-family="sans-serif" font-size="12" lengthAdjust="spacing" textLength="86" x="109.5" y="1663.8433">MultiLineString</text><line style="stroke:#A80036;stroke-width:1.5;" x1="81.5" x2="197.5" y1="1675.689" y2="1675.689"/><line style="stroke:#A80036;stroke-width:1.5;" x1="81.5" x2="197.5" y1="1683.689" y2="1683.689"/><!--MD5=[f34542bc9756133244bfdf25aa1f19e0]
class MultiLineStringEditor--><rect codeLine="14" fill="#FEFECE" filter="url(#f12m1mk6hf7tj9)" height="48" id="MultiLineStringEditor" style="stroke:#A80036;stroke-width:1.5;" width="153" x="63" y="1416.689"/><ellipse cx="78" cy="1432.689" fill="#ADD1B2" rx="11" ry="11" style="stroke:#A80036;stroke-width:1.0;"/><path d="M80.3438,1428.3609 C79.4063,1427.9234 78.8125,1427.7828 77.9375,1427.7828 C75.3125,1427.7828 73.3125,1429.8609 73.3125,1432.5796 L73.3125,1433.7046 C73.3125,1436.2828 75.4219,1438.1734 78.3125,1438.1734 C79.5313,1438.1734 80.6875,1437.8765 81.4375,1437.3296 C82.0156,1436.9234 82.3438,1436.4703 82.3438,1436.0796 C82.3438,1435.6265 81.9531,1435.2359 81.4844,1435.2359 C81.2656,1435.2359 81.0625,1435.314 80.875,1435.5015 C80.4219,1435.9859 80.4219,1435.9859 80.2344,1436.0796 C79.8125,1436.3453 79.125,1436.4703 78.3594,1436.4703 C76.3125,1436.4703 75.0156,1435.3765 75.0156,1433.6734 L75.0156,1432.5796 C75.0156,1430.7984 76.2656,1429.4859 78,1429.4859 C78.5781,1429.4859 79.1875,1429.6421 79.6563,1429.8921 C80.1406,1430.1734 80.3125,1430.3921 80.4063,1430.7984 C80.4688,1431.2046 80.5,1431.3296 80.6406,1431.4546 C80.7813,1431.5953 81.0156,1431.7046 81.2344,1431.7046 C81.5,1431.7046 81.7656,1431.564 81.9375,1431.3453 C82.0469,1431.189 82.0781,1431.0015 82.0781,1430.5796 L82.0781,1429.1578 C82.0781,1428.7203 82.0625,1428.5953 81.9688,1428.439 C81.8125,1428.1734 81.5313,1428.0328 81.2344,1428.0328 C80.9375,1428.0328 80.7344,1428.1265 80.5156,1428.439 L80.3438,1428.3609 Z " fill="#000000"/><text fill="#000000" font-family="sans-serif" font-size="12" lengthAdjust="spacing" textLength="121" x="92" y="1436.8433">MultiLineStringEditor</text><line style="stroke:#A80036;stroke-width:1.5;" x1="64" x2="215" y1="1448.689" y2="1448.689"/><line style="stroke:#A80036;stroke-width:1.5;" x1="64" x2="215" y1="1456.689" y2="1456.689"/><!--MD5=[9243a20cad4381f48f7571f7d700e553]
class PropertySelector--><rect codeLine="15" fill="#FEFECE" filter="url(#f12m1mk6hf7tj9)" height="48" id="PropertySelector" style="stroke:#A80036;stroke-width:1.5;" width="134" x="295" y="835.69"/><ellipse cx="310" cy="851.69" fill="#ADD1B2" rx="11" ry="11" style="stroke:#A80036;stroke-width:1.0;"/><path d="M312.3438,847.3619 C311.4063,846.9244 310.8125,846.7838 309.9375,846.7838 C307.3125,846.7838 305.3125,848.8619 305.3125,851.5806 L305.3125,852.7056 C305.3125,855.2838 307.4219,857.1744 310.3125,857.1744 C311.5313,857.1744 312.6875,856.8775 313.4375,856.3306 C314.0156,855.9244 314.3438,855.4713 314.3438,855.0806 C314.3438,854.6275 313.9531,854.2369 313.4844,854.2369 C313.2656,854.2369 313.0625,854.315 312.875,854.5025 C312.4219,854.9869 312.4219,854.9869 312.2344,855.0806 C311.8125,855.3463 311.125,855.4713 310.3594,855.4713 C308.3125,855.4713 307.0156,854.3775 307.0156,852.6744 L307.0156,851.5806 C307.0156,849.7994 308.2656,848.4869 310,848.4869 C310.5781,848.4869 311.1875,848.6431 311.6563,848.8931 C312.1406,849.1744 312.3125,849.3931 312.4063,849.7994 C312.4688,850.2056 312.5,850.3306 312.6406,850.4556 C312.7813,850.5963 313.0156,850.7056 313.2344,850.7056 C313.5,850.7056 313.7656,850.565 313.9375,850.3463 C314.0469,850.19 314.0781,850.0025 314.0781,849.5806 L314.0781,848.1588 C314.0781,847.7213 314.0625,847.5963 313.9688,847.44 C313.8125,847.1744 313.5313,847.0338 313.2344,847.0338 C312.9375,847.0338 312.7344,847.1275 312.5156,847.44 L312.3438,847.3619 Z " fill="#000000"/><text fill="#000000" font-family="sans-serif" font-size="12" lengthAdjust="spacing" textLength="102" x="324" y="855.8443">PropertySelector</text><line style="stroke:#A80036;stroke-width:1.5;" x1="296" x2="428" y1="867.69" y2="867.69"/><line style="stroke:#A80036;stroke-width:1.5;" x1="296" x2="428" y1="875.69" y2="875.69"/><!--MD5=[595da3ee3ae444da9f8d36c09495f26e]
class PropertySheet--><rect codeLine="16" fill="#FEFECE" filter="url(#f12m1mk6hf7tj9)" height="48" id="PropertySheet" style="stroke:#A80036;stroke-width:1.5;" width="118" x="80.5" y="1333.689"/><ellipse cx="95.5" cy="1349.689" fill="#ADD1B2" rx="11" ry="11" style="stroke:#A80036;stroke-width:1.0;"/><path d="M97.8438,1345.3609 C96.9063,1344.9234 96.3125,1344.7828 95.4375,1344.7828 C92.8125,1344.7828 90.8125,1346.8609 90.8125,1349.5796 L90.8125,1350.7046 C90.8125,1353.2828 92.9219,1355.1734 95.8125,1355.1734 C97.0313,1355.1734 98.1875,1354.8765 98.9375,1354.3296 C99.5156,1353.9234 99.8438,1353.4703 99.8438,1353.0796 C99.8438,1352.6265 99.4531,1352.2359 98.9844,1352.2359 C98.7656,1352.2359 98.5625,1352.314 98.375,1352.5015 C97.9219,1352.9859 97.9219,1352.9859 97.7344,1353.0796 C97.3125,1353.3453 96.625,1353.4703 95.8594,1353.4703 C93.8125,1353.4703 92.5156,1352.3765 92.5156,1350.6734 L92.5156,1349.5796 C92.5156,1347.7984 93.7656,1346.4859 95.5,1346.4859 C96.0781,1346.4859 96.6875,1346.6421 97.1563,1346.8921 C97.6406,1347.1734 97.8125,1347.3921 97.9063,1347.7984 C97.9688,1348.2046 98,1348.3296 98.1406,1348.4546 C98.2813,1348.5953 98.5156,1348.7046 98.7344,1348.7046 C99,1348.7046 99.2656,1348.564 99.4375,1348.3453 C99.5469,1348.189 99.5781,1348.0015 99.5781,1347.5796 L99.5781,1346.1578 C99.5781,1345.7203 99.5625,1345.5953 99.4688,1345.439 C99.3125,1345.1734 99.0313,1345.0328 98.7344,1345.0328 C98.4375,1345.0328 98.2344,1345.1265 98.0156,1345.439 L97.8438,1345.3609 Z " fill="#000000"/><text fill="#000000" font-family="sans-serif" font-size="12" lengthAdjust="spacing" textLength="86" x="109.5" y="1353.8433">PropertySheet</text><line style="stroke:#A80036;stroke-width:1.5;" x1="81.5" x2="197.5" y1="1365.689" y2="1365.689"/><line style="stroke:#A80036;stroke-width:1.5;" x1="81.5" x2="197.5" y1="1373.689" y2="1373.689"/><!--MD5=[e41ded574b77dcdae58dfaf21408953f]
class SerializableEnumeration--><rect codeLine="17" fill="#FEFECE" filter="url(#f12m1mk6hf7tj9)" height="86.4141" id="SerializableEnumeration" style="stroke:#A80036;stroke-width:1.5;" width="374" x="878" y="546.69"/><ellipse cx="988.75" cy="562.69" fill="#ADD1B2" rx="11" ry="11" style="stroke:#A80036;stroke-width:1.0;"/><path d="M991.0938,558.3619 C990.1563,557.9244 989.5625,557.7838 988.6875,557.7838 C986.0625,557.7838 984.0625,559.8619 984.0625,562.5806 L984.0625,563.7056 C984.0625,566.2838 986.1719,568.1744 989.0625,568.1744 C990.2813,568.1744 991.4375,567.8775 992.1875,567.3306 C992.7656,566.9244 993.0938,566.4713 993.0938,566.0806 C993.0938,565.6275 992.7031,565.2369 992.2344,565.2369 C992.0156,565.2369 991.8125,565.315 991.625,565.5025 C991.1719,565.9869 991.1719,565.9869 990.9844,566.0806 C990.5625,566.3463 989.875,566.4713 989.1094,566.4713 C987.0625,566.4713 985.7656,565.3775 985.7656,563.6744 L985.7656,562.5806 C985.7656,560.7994 987.0156,559.4869 988.75,559.4869 C989.3281,559.4869 989.9375,559.6431 990.4063,559.8931 C990.8906,560.1744 991.0625,560.3931 991.1563,560.7994 C991.2188,561.2056 991.25,561.3306 991.3906,561.4556 C991.5313,561.5963 991.7656,561.7056 991.9844,561.7056 C992.25,561.7056 992.5156,561.565 992.6875,561.3463 C992.7969,561.19 992.8281,561.0025 992.8281,560.5806 L992.8281,559.1588 C992.8281,558.7213 992.8125,558.5963 992.7188,558.44 C992.5625,558.1744 992.2813,558.0338 991.9844,558.0338 C991.6875,558.0338 991.4844,558.1275 991.2656,558.44 L991.0938,558.3619 Z " fill="#000000"/><text fill="#000000" font-family="sans-serif" font-size="12" lengthAdjust="spacing" textLength="144" x="1009.25" y="566.8443">SerializableEnumeration</text><line style="stroke:#A80036;stroke-width:1.5;" x1="879" x2="1251" y1="578.69" y2="578.69"/><line style="stroke:#A80036;stroke-width:1.5;" x1="879" x2="1251" y1="586.69" y2="586.69"/><text fill="#000000" font-family="sans-serif" font-size="11" lengthAdjust="spacing" textLength="126" x="884" y="600.9004">public String toString()</text><text fill="#000000" font-family="sans-serif" font-size="11" lengthAdjust="spacing" textLength="362" x="884" y="613.7051">protected Object writeReplace() throws ObjectStreamException</text><text fill="#000000" font-family="sans-serif" font-size="11" lengthAdjust="spacing" textLength="360" x="884" y="626.5098">protected Object readResolve() throws ObjectStreamException</text><!--MD5=[71c01276fd66b470e11e144c07927b4c]
class ToolBar--><rect codeLine="22" fill="#FEFECE" filter="url(#f12m1mk6hf7tj9)" height="48" id="ToolBar" style="stroke:#A80036;stroke-width:1.5;" width="78" x="100.5" y="1499.689"/><ellipse cx="115.5" cy="1515.689" fill="#ADD1B2" rx="11" ry="11" style="stroke:#A80036;stroke-width:1.0;"/><path d="M117.8438,1511.3609 C116.9063,1510.9234 116.3125,1510.7828 115.4375,1510.7828 C112.8125,1510.7828 110.8125,1512.8609 110.8125,1515.5796 L110.8125,1516.7046 C110.8125,1519.2828 112.9219,1521.1734 115.8125,1521.1734 C117.0313,1521.1734 118.1875,1520.8765 118.9375,1520.3296 C119.5156,1519.9234 119.8438,1519.4703 119.8438,1519.0796 C119.8438,1518.6265 119.4531,1518.2359 118.9844,1518.2359 C118.7656,1518.2359 118.5625,1518.314 118.375,1518.5015 C117.9219,1518.9859 117.9219,1518.9859 117.7344,1519.0796 C117.3125,1519.3453 116.625,1519.4703 115.8594,1519.4703 C113.8125,1519.4703 112.5156,1518.3765 112.5156,1516.6734 L112.5156,1515.5796 C112.5156,1513.7984 113.7656,1512.4859 115.5,1512.4859 C116.0781,1512.4859 116.6875,1512.6421 117.1563,1512.8921 C117.6406,1513.1734 117.8125,1513.3921 117.9063,1513.7984 C117.9688,1514.2046 118,1514.3296 118.1406,1514.4546 C118.2813,1514.5953 118.5156,1514.7046 118.7344,1514.7046 C119,1514.7046 119.2656,1514.564 119.4375,1514.3453 C119.5469,1514.189 119.5781,1514.0015 119.5781,1513.5796 L119.5781,1512.1578 C119.5781,1511.7203 119.5625,1511.5953 119.4688,1511.439 C119.3125,1511.1734 119.0313,1511.0328 118.7344,1511.0328 C118.4375,1511.0328 118.2344,1511.1265 118.0156,1511.439 L117.8438,1511.3609 Z " fill="#000000"/><text fill="#000000" font-family="sans-serif" font-size="12" lengthAdjust="spacing" textLength="46" x="129.5" y="1519.8433">ToolBar</text><line style="stroke:#A80036;stroke-width:1.5;" x1="101.5" x2="177.5" y1="1531.689" y2="1531.689"/><line style="stroke:#A80036;stroke-width:1.5;" x1="101.5" x2="177.5" y1="1539.689" y2="1539.689"/><!--MD5=[3298c9daca728ebede8d9317a0196844]
class UMLEditor--><rect codeLine="23" fill="#FEFECE" filter="url(#f12m1mk6hf7tj9)" height="48" id="UMLEditor" style="stroke:#A80036;stroke-width:1.5;" width="92" x="316" y="1607.689"/><ellipse cx="331" cy="1623.689" fill="#ADD1B2" rx="11" ry="11" style="stroke:#A80036;stroke-width:1.0;"/><path d="M333.3438,1619.3609 C332.4063,1618.9234 331.8125,1618.7828 330.9375,1618.7828 C328.3125,1618.7828 326.3125,1620.8609 326.3125,1623.5796 L326.3125,1624.7046 C326.3125,1627.2828 328.4219,1629.1734 331.3125,1629.1734 C332.5313,1629.1734 333.6875,1628.8765 334.4375,1628.3296 C335.0156,1627.9234 335.3438,1627.4703 335.3438,1627.0796 C335.3438,1626.6265 334.9531,1626.2359 334.4844,1626.2359 C334.2656,1626.2359 334.0625,1626.314 333.875,1626.5015 C333.4219,1626.9859 333.4219,1626.9859 333.2344,1627.0796 C332.8125,1627.3453 332.125,1627.4703 331.3594,1627.4703 C329.3125,1627.4703 328.0156,1626.3765 328.0156,1624.6734 L328.0156,1623.5796 C328.0156,1621.7984 329.2656,1620.4859 331,1620.4859 C331.5781,1620.4859 332.1875,1620.6421 332.6563,1620.8921 C333.1406,1621.1734 333.3125,1621.3921 333.4063,1621.7984 C333.4688,1622.2046 333.5,1622.3296 333.6406,1622.4546 C333.7813,1622.5953 334.0156,1622.7046 334.2344,1622.7046 C334.5,1622.7046 334.7656,1622.564 334.9375,1622.3453 C335.0469,1622.189 335.0781,1622.0015 335.0781,1621.5796 L335.0781,1620.1578 C335.0781,1619.7203 335.0625,1619.5953 334.9688,1619.439 C334.8125,1619.1734 334.5313,1619.0328 334.2344,1619.0328 C333.9375,1619.0328 333.7344,1619.1265 333.5156,1619.439 L333.3438,1619.3609 Z " fill="#000000"/><text fill="#000000" font-family="sans-serif" font-size="12" lengthAdjust="spacing" textLength="60" x="345" y="1627.8433">UMLEditor</text><line style="stroke:#A80036;stroke-width:1.5;" x1="317" x2="407" y1="1639.689" y2="1639.689"/><line style="stroke:#A80036;stroke-width:1.5;" x1="317" x2="407" y1="1647.689" y2="1647.689"/><path d="M108,1583.189 L108,1608.3218 A0,0 0 0 0 108,1608.3218 L171,1608.3218 A0,0 0 0 0 171,1608.3218 L171,1604.694 L315.688,1624.291 L171,1596.694 L171,1593.189 L161,1583.189 L108,1583.189 A0,0 0 0 0 108,1583.189 " fill="#FBFB77" filter="url(#f12m1mk6hf7tj9)" style="stroke:#A80036;stroke-width:1.0;"/><path d="M161,1583.189 L161,1593.189 L171,1593.189 L161,1583.189 " fill="#FBFB77" style="stroke:#A80036;stroke-width:1.0;"/><text fill="#000000" font-family="sans-serif" font-size="13" lengthAdjust="spacing" textLength="42" x="114" y="1600.2559">main()</text><!--MD5=[25fa45672d410a2d97e89be6abe60419]
class LayoutManager--><rect codeLine="25" fill="#FEFECE" filter="url(#f12m1mk6hf7tj9)" height="48" id="LayoutManager" style="stroke:#A80036;stroke-width:1.5;" width="125" x="299.5" y="1084.689"/><ellipse cx="314.5" cy="1100.689" fill="#B4A7E5" rx="11" ry="11" style="stroke:#A80036;stroke-width:1.0;"/><path d="M315.4531,1097.4703 L317.1719,1097.4703 C317.5625,1097.4703 317.75,1097.439 317.875,1097.3609 C318.1406,1097.2046 318.2813,1096.9234 318.2813,1096.6265 C318.2813,1096.3609 318.1719,1096.0953 317.9375,1095.9234 C317.7656,1095.814 317.625,1095.7828 317.1719,1095.7828 L312.0313,1095.7828 C311.5938,1095.7828 311.4688,1095.7984 311.3125,1095.8921 C311.0625,1096.0484 310.9063,1096.3453 310.9063,1096.6265 C310.9063,1096.9078 311.0469,1097.1578 311.2656,1097.3296 C311.4219,1097.439 311.6094,1097.4703 312.0313,1097.4703 L313.75,1097.4703 L313.75,1103.9859 L312.0313,1103.9859 C311.5938,1103.9859 311.4688,1104.0015 311.3125,1104.1109 C311.0625,1104.2671 310.9063,1104.5484 310.9063,1104.8453 C310.9063,1105.0953 311.0469,1105.3609 311.2656,1105.5171 C311.4219,1105.6421 311.625,1105.689 312.0313,1105.689 L317.1719,1105.689 C317.9219,1105.689 318.2813,1105.4078 318.2813,1104.8453 C318.2813,1104.564 318.1719,1104.314 317.9375,1104.1421 C317.7656,1104.0171 317.625,1103.9859 317.1719,1103.9859 L315.4531,1103.9859 L315.4531,1097.4703 Z " fill="#000000"/><text fill="#000000" font-family="sans-serif" font-size="12" font-style="italic" lengthAdjust="spacing" textLength="93" x="328.5" y="1104.8433">LayoutManager</text><line style="stroke:#A80036;stroke-width:1.5;" x1="300.5" x2="423.5" y1="1116.689" y2="1116.689"/><line style="stroke:#A80036;stroke-width:1.5;" x1="300.5" x2="423.5" y1="1124.689" y2="1124.689"/><!--MD5=[cc3de0a176daa3c4ec875deafdf5ddd1]
class Serializable--><rect codeLine="26" fill="#FEFECE" filter="url(#f12m1mk6hf7tj9)" height="48" id="Serializable" style="stroke:#A80036;stroke-width:1.5;" width="99" x="610" y="1001.689"/><ellipse cx="625" cy="1017.689" fill="#B4A7E5" rx="11" ry="11" style="stroke:#A80036;stroke-width:1.0;"/><path d="M625.9531,1014.4703 L627.6719,1014.4703 C628.0625,1014.4703 628.25,1014.439 628.375,1014.3609 C628.6406,1014.2046 628.7813,1013.9234 628.7813,1013.6265 C628.7813,1013.3609 628.6719,1013.0953 628.4375,1012.9234 C628.2656,1012.814 628.125,1012.7828 627.6719,1012.7828 L622.5313,1012.7828 C622.0938,1012.7828 621.9688,1012.7984 621.8125,1012.8921 C621.5625,1013.0484 621.4063,1013.3453 621.4063,1013.6265 C621.4063,1013.9078 621.5469,1014.1578 621.7656,1014.3296 C621.9219,1014.439 622.1094,1014.4703 622.5313,1014.4703 L624.25,1014.4703 L624.25,1020.9859 L622.5313,1020.9859 C622.0938,1020.9859 621.9688,1021.0015 621.8125,1021.1109 C621.5625,1021.2671 621.4063,1021.5484 621.4063,1021.8453 C621.4063,1022.0953 621.5469,1022.3609 621.7656,1022.5171 C621.9219,1022.6421 622.125,1022.689 622.5313,1022.689 L627.6719,1022.689 C628.4219,1022.689 628.7813,1022.4078 628.7813,1021.8453 C628.7813,1021.564 628.6719,1021.314 628.4375,1021.1421 C628.2656,1021.0171 628.125,1020.9859 627.6719,1020.9859 L625.9531,1020.9859 L625.9531,1014.4703 Z " fill="#000000"/><text fill="#000000" font-family="sans-serif" font-size="12" font-style="italic" lengthAdjust="spacing" textLength="67" x="639" y="1021.8433">Serializable</text><line style="stroke:#A80036;stroke-width:1.5;" x1="611" x2="708" y1="1033.689" y2="1033.689"/><line style="stroke:#A80036;stroke-width:1.5;" x1="611" x2="708" y1="1041.689" y2="1041.689"/><!--MD5=[3fee75583bb7a64f68d843a3c9534ab3]
class Node--><rect codeLine="31" fill="#FEFECE" filter="url(#f12m1mk6hf7tj9)" height="124.8281" id="Node" style="stroke:#A80036;stroke-width:1.5;" width="261" x="529" y="593.19"/><ellipse cx="639.75" cy="609.19" fill="#B4A7E5" rx="11" ry="11" style="stroke:#A80036;stroke-width:1.0;"/><path d="M640.7031,605.9713 L642.4219,605.9713 C642.8125,605.9713 643,605.94 643.125,605.8619 C643.3906,605.7056 643.5313,605.4244 643.5313,605.1275 C643.5313,604.8619 643.4219,604.5963 643.1875,604.4244 C643.0156,604.315 642.875,604.2838 642.4219,604.2838 L637.2813,604.2838 C636.8438,604.2838 636.7188,604.2994 636.5625,604.3931 C636.3125,604.5494 636.1563,604.8463 636.1563,605.1275 C636.1563,605.4088 636.2969,605.6588 636.5156,605.8306 C636.6719,605.94 636.8594,605.9713 637.2813,605.9713 L639,605.9713 L639,612.4869 L637.2813,612.4869 C636.8438,612.4869 636.7188,612.5025 636.5625,612.6119 C636.3125,612.7681 636.1563,613.0494 636.1563,613.3463 C636.1563,613.5963 636.2969,613.8619 636.5156,614.0181 C636.6719,614.1431 636.875,614.19 637.2813,614.19 L642.4219,614.19 C643.1719,614.19 643.5313,613.9088 643.5313,613.3463 C643.5313,613.065 643.4219,612.815 643.1875,612.6431 C643.0156,612.5181 642.875,612.4869 642.4219,612.4869 L640.7031,612.4869 L640.7031,605.9713 Z " fill="#000000"/><text fill="#000000" font-family="sans-serif" font-size="12" font-style="italic" lengthAdjust="spacing" textLength="31" x="660.25" y="613.3443">Node</text><line style="stroke:#A80036;stroke-width:1.5;" x1="530" x2="789" y1="625.19" y2="625.19"/><line style="stroke:#A80036;stroke-width:1.5;" x1="530" x2="789" y1="633.19" y2="633.19"/><text fill="#000000" font-family="sans-serif" font-size="11" lengthAdjust="spacing" textLength="149" x="535" y="647.4004">void draw(Graphics2D g2);</text><text fill="#000000" font-family="sans-serif" font-size="11" lengthAdjust="spacing" textLength="210" x="535" y="660.2051">void translate(double dx, double dy);</text><text fill="#000000" font-family="sans-serif" font-size="11" lengthAdjust="spacing" textLength="189" x="535" y="673.0098">boolean contains(Point2D aPoint);</text><text fill="#000000" font-family="sans-serif" font-size="11" lengthAdjust="spacing" textLength="249" x="535" y="685.8145">Point2D getConnectionPoint(Point2D aPoint);</text><text fill="#000000" font-family="sans-serif" font-size="11" lengthAdjust="spacing" textLength="149" x="535" y="698.6192">Rectangle2D getBounds();</text><text fill="#000000" font-family="sans-serif" font-size="11" lengthAdjust="spacing" textLength="83" x="535" y="711.4239">Object clone();</text><!--MD5=[c6f30cde5f15c02929403aafadb6d87b]
class RectangularNode--><rect codeLine="39" fill="#FEFECE" filter="url(#f12m1mk6hf7tj9)" height="48" id="RectangularNode" style="stroke:#A80036;stroke-width:1.5;" width="136" x="294" y="589.69"/><ellipse cx="309" cy="605.69" fill="#A9DCDF" rx="11" ry="11" style="stroke:#A80036;stroke-width:1.0;"/><path d="M311.0781,607.5025 L311.4688,608.4869 L311.0781,608.4869 C310.625,608.4869 310.5156,608.5025 310.3594,608.6119 C310.1094,608.7681 309.9531,609.0494 309.9531,609.3463 C309.9531,609.6119 310.0938,609.8619 310.3125,610.0181 C310.4531,610.1431 310.6563,610.19 311.0781,610.19 L313.4375,610.19 C313.7969,610.19 314.0156,610.1588 314.1563,610.065 C314.4063,609.9244 314.5625,609.6275 314.5625,609.3463 C314.5625,609.065 314.4219,608.815 314.2031,608.6588 C314.0313,608.5181 313.875,608.4869 313.4063,608.4869 L310.0156,600.2838 L306.3438,600.2838 C305.8906,600.2838 305.7656,600.2994 305.6094,600.3931 C305.3594,600.565 305.2031,600.8463 305.2031,601.1275 C305.2031,601.4088 305.3438,601.6588 305.5625,601.8306 C305.7344,601.94 305.9063,601.9713 306.3438,601.9713 L307.4219,601.9713 L304.7813,608.4869 C304.3594,608.4869 304.2031,608.5025 304.0469,608.6119 C303.7969,608.7681 303.6406,609.0494 303.6406,609.3463 C303.6406,609.9088 304.0156,610.19 304.7656,610.19 L307.0313,610.19 C307.3906,610.19 307.6094,610.1588 307.7344,610.065 C308,609.9244 308.1406,609.6275 308.1406,609.3463 C308.1406,609.065 308.0156,608.815 307.7969,608.6431 C307.625,608.5181 307.4844,608.4869 307.0313,608.4869 L306.6406,608.4869 L307.0313,607.5025 L311.0781,607.5025 Z M310.375,605.7994 L307.7031,605.7994 L309.0469,602.5338 L310.375,605.7994 Z " fill="#000000"/><text fill="#000000" font-family="sans-serif" font-size="12" font-style="italic" lengthAdjust="spacing" textLength="104" x="323" y="609.8443">RectangularNode</text><line style="stroke:#A80036;stroke-width:1.5;" x1="295" x2="429" y1="621.69" y2="621.69"/><line style="stroke:#A80036;stroke-width:1.5;" x1="295" x2="429" y1="629.69" y2="629.69"/><!--MD5=[d5df81d68c245f0943e1984758063646]
class ClassNode--><rect codeLine="40" fill="#FEFECE" filter="url(#f12m1mk6hf7tj9)" height="48" id="ClassNode" style="stroke:#A80036;stroke-width:1.5;" width="96" x="91.5" y="589.69"/><ellipse cx="106.5" cy="605.69" fill="#ADD1B2" rx="11" ry="11" style="stroke:#A80036;stroke-width:1.0;"/><path d="M108.8438,601.3619 C107.9063,600.9244 107.3125,600.7838 106.4375,600.7838 C103.8125,600.7838 101.8125,602.8619 101.8125,605.5806 L101.8125,606.7056 C101.8125,609.2838 103.9219,611.1744 106.8125,611.1744 C108.0313,611.1744 109.1875,610.8775 109.9375,610.3306 C110.5156,609.9244 110.8438,609.4713 110.8438,609.0806 C110.8438,608.6275 110.4531,608.2369 109.9844,608.2369 C109.7656,608.2369 109.5625,608.315 109.375,608.5025 C108.9219,608.9869 108.9219,608.9869 108.7344,609.0806 C108.3125,609.3463 107.625,609.4713 106.8594,609.4713 C104.8125,609.4713 103.5156,608.3775 103.5156,606.6744 L103.5156,605.5806 C103.5156,603.7994 104.7656,602.4869 106.5,602.4869 C107.0781,602.4869 107.6875,602.6431 108.1563,602.8931 C108.6406,603.1744 108.8125,603.3931 108.9063,603.7994 C108.9688,604.2056 109,604.3306 109.1406,604.4556 C109.2813,604.5963 109.5156,604.7056 109.7344,604.7056 C110,604.7056 110.2656,604.565 110.4375,604.3463 C110.5469,604.19 110.5781,604.0025 110.5781,603.5806 L110.5781,602.1588 C110.5781,601.7213 110.5625,601.5963 110.4688,601.44 C110.3125,601.1744 110.0313,601.0338 109.7344,601.0338 C109.4375,601.0338 109.2344,601.1275 109.0156,601.44 L108.8438,601.3619 Z " fill="#000000"/><text fill="#000000" font-family="sans-serif" font-size="12" lengthAdjust="spacing" textLength="64" x="120.5" y="609.8443">ClassNode</text><line style="stroke:#A80036;stroke-width:1.5;" x1="92.5" x2="186.5" y1="621.69" y2="621.69"/><line style="stroke:#A80036;stroke-width:1.5;" x1="92.5" x2="186.5" y1="629.69" y2="629.69"/><!--MD5=[c74010b6b59b4bd7570252fa9c1c838a]
class PointNode--><rect codeLine="41" fill="#FEFECE" filter="url(#f12m1mk6hf7tj9)" height="48" id="PointNode" style="stroke:#A80036;stroke-width:1.5;" width="92" x="316" y="672.69"/><ellipse cx="331" cy="688.69" fill="#ADD1B2" rx="11" ry="11" style="stroke:#A80036;stroke-width:1.0;"/><path d="M333.3438,684.3619 C332.4063,683.9244 331.8125,683.7838 330.9375,683.7838 C328.3125,683.7838 326.3125,685.8619 326.3125,688.5806 L326.3125,689.7056 C326.3125,692.2838 328.4219,694.1744 331.3125,694.1744 C332.5313,694.1744 333.6875,693.8775 334.4375,693.3306 C335.0156,692.9244 335.3438,692.4713 335.3438,692.0806 C335.3438,691.6275 334.9531,691.2369 334.4844,691.2369 C334.2656,691.2369 334.0625,691.315 333.875,691.5025 C333.4219,691.9869 333.4219,691.9869 333.2344,692.0806 C332.8125,692.3463 332.125,692.4713 331.3594,692.4713 C329.3125,692.4713 328.0156,691.3775 328.0156,689.6744 L328.0156,688.5806 C328.0156,686.7994 329.2656,685.4869 331,685.4869 C331.5781,685.4869 332.1875,685.6431 332.6563,685.8931 C333.1406,686.1744 333.3125,686.3931 333.4063,686.7994 C333.4688,687.2056 333.5,687.3306 333.6406,687.4556 C333.7813,687.5963 334.0156,687.7056 334.2344,687.7056 C334.5,687.7056 334.7656,687.565 334.9375,687.3463 C335.0469,687.19 335.0781,687.0025 335.0781,686.5806 L335.0781,685.1588 C335.0781,684.7213 335.0625,684.5963 334.9688,684.44 C334.8125,684.1744 334.5313,684.0338 334.2344,684.0338 C333.9375,684.0338 333.7344,684.1275 333.5156,684.44 L333.3438,684.3619 Z " fill="#000000"/><text fill="#000000" font-family="sans-serif" font-size="12" lengthAdjust="spacing" textLength="60" x="345" y="692.8443">PointNode</text><line style="stroke:#A80036;stroke-width:1.5;" x1="317" x2="407" y1="704.69" y2="704.69"/><line style="stroke:#A80036;stroke-width:1.5;" x1="317" x2="407" y1="712.69" y2="712.69"/><!--MD5=[2e2f8c8f62c4eb3bc59a59727cfd81a5]
class Edge--><rect codeLine="46" fill="#FEFECE" filter="url(#f12m1mk6hf7tj9)" height="150.4375" id="Edge" style="stroke:#A80036;stroke-width:1.5;" width="244" x="1312" y="292.69"/><ellipse cx="1414.25" cy="308.69" fill="#B4A7E5" rx="11" ry="11" style="stroke:#A80036;stroke-width:1.0;"/><path d="M1415.2031,305.4713 L1416.9219,305.4713 C1417.3125,305.4713 1417.5,305.44 1417.625,305.3619 C1417.8906,305.2056 1418.0313,304.9244 1418.0313,304.6275 C1418.0313,304.3619 1417.9219,304.0963 1417.6875,303.9244 C1417.5156,303.815 1417.375,303.7838 1416.9219,303.7838 L1411.7813,303.7838 C1411.3438,303.7838 1411.2188,303.7994 1411.0625,303.8931 C1410.8125,304.0494 1410.6563,304.3463 1410.6563,304.6275 C1410.6563,304.9088 1410.7969,305.1588 1411.0156,305.3306 C1411.1719,305.44 1411.3594,305.4713 1411.7813,305.4713 L1413.5,305.4713 L1413.5,311.9869 L1411.7813,311.9869 C1411.3438,311.9869 1411.2188,312.0025 1411.0625,312.1119 C1410.8125,312.2681 1410.6563,312.5494 1410.6563,312.8463 C1410.6563,313.0963 1410.7969,313.3619 1411.0156,313.5181 C1411.1719,313.6431 1411.375,313.69 1411.7813,313.69 L1416.9219,313.69 C1417.6719,313.69 1418.0313,313.4088 1418.0313,312.8463 C1418.0313,312.565 1417.9219,312.315 1417.6875,312.1431 C1417.5156,312.0181 1417.375,311.9869 1416.9219,311.9869 L1415.2031,311.9869 L1415.2031,305.4713 Z " fill="#000000"/><text fill="#000000" font-family="sans-serif" font-size="12" font-style="italic" lengthAdjust="spacing" textLength="31" x="1434.75" y="312.8443">Edge</text><line style="stroke:#A80036;stroke-width:1.5;" x1="1313" x2="1555" y1="324.69" y2="324.69"/><line style="stroke:#A80036;stroke-width:1.5;" x1="1313" x2="1555" y1="332.69" y2="332.69"/><text fill="#000000" font-family="sans-serif" font-size="11" lengthAdjust="spacing" textLength="149" x="1318" y="346.9004">void draw(Graphics2D g2);</text><text fill="#000000" font-family="sans-serif" font-size="11" lengthAdjust="spacing" textLength="189" x="1318" y="359.7051">boolean contains(Point2D aPoint);</text><text fill="#000000" font-family="sans-serif" font-size="11" lengthAdjust="spacing" textLength="228" x="1318" y="372.5098">void connect(Node aStart, Node anEnd);</text><text fill="#000000" font-family="sans-serif" font-size="11" lengthAdjust="spacing" textLength="91" x="1318" y="385.3145">Node getStart();</text><text fill="#000000" font-family="sans-serif" font-size="11" lengthAdjust="spacing" textLength="85" x="1318" y="398.1192">Node getEnd();</text><text fill="#000000" font-family="sans-serif" font-size="11" lengthAdjust="spacing" textLength="171" x="1318" y="410.9239">Line2D getConnectionPoints();</text><text fill="#000000" font-family="sans-serif" font-size="11" lengthAdjust="spacing" textLength="232" x="1318" y="423.7286">Rectangle2D getBounds(Graphics2D g2);</text><text fill="#000000" font-family="sans-serif" font-size="11" lengthAdjust="spacing" textLength="83" x="1318" y="436.5333">Object clone();</text><!--MD5=[6b8060114930dee4117f0f3292ee4462]
class LineStyle--><rect codeLine="56" fill="#FEFECE" filter="url(#f12m1mk6hf7tj9)" height="48" id="LineStyle" style="stroke:#A80036;stroke-width:1.5;" width="86" x="616.5" y="210.69"/><ellipse cx="631.5" cy="226.69" fill="#ADD1B2" rx="11" ry="11" style="stroke:#A80036;stroke-width:1.0;"/><path d="M633.8438,222.3619 C632.9063,221.9244 632.3125,221.7838 631.4375,221.7838 C628.8125,221.7838 626.8125,223.8619 626.8125,226.5806 L626.8125,227.7056 C626.8125,230.2838 628.9219,232.1744 631.8125,232.1744 C633.0313,232.1744 634.1875,231.8775 634.9375,231.3306 C635.5156,230.9244 635.8438,230.4713 635.8438,230.0806 C635.8438,229.6275 635.4531,229.2369 634.9844,229.2369 C634.7656,229.2369 634.5625,229.315 634.375,229.5025 C633.9219,229.9869 633.9219,229.9869 633.7344,230.0806 C633.3125,230.3463 632.625,230.4713 631.8594,230.4713 C629.8125,230.4713 628.5156,229.3775 628.5156,227.6744 L628.5156,226.5806 C628.5156,224.7994 629.7656,223.4869 631.5,223.4869 C632.0781,223.4869 632.6875,223.6431 633.1563,223.8931 C633.6406,224.1744 633.8125,224.3931 633.9063,224.7994 C633.9688,225.2056 634,225.3306 634.1406,225.4556 C634.2813,225.5963 634.5156,225.7056 634.7344,225.7056 C635,225.7056 635.2656,225.565 635.4375,225.3463 C635.5469,225.19 635.5781,225.0025 635.5781,224.5806 L635.5781,223.1588 C635.5781,222.7213 635.5625,222.5963 635.4688,222.44 C635.3125,222.1744 635.0313,222.0338 634.7344,222.0338 C634.4375,222.0338 634.2344,222.1275 634.0156,222.44 L633.8438,222.3619 Z " fill="#000000"/><text fill="#000000" font-family="sans-serif" font-size="12" lengthAdjust="spacing" textLength="54" x="645.5" y="230.8443">LineStyle</text><line style="stroke:#A80036;stroke-width:1.5;" x1="617.5" x2="701.5" y1="242.69" y2="242.69"/><line style="stroke:#A80036;stroke-width:1.5;" x1="617.5" x2="701.5" y1="250.69" y2="250.69"/><!--MD5=[9bada74aea1dbedc115c5839cd90975c]
class BentStyle--><rect codeLine="57" fill="#FEFECE" filter="url(#f12m1mk6hf7tj9)" height="48" id="BentStyle" style="stroke:#A80036;stroke-width:1.5;" width="89" x="615" y="466.69"/><ellipse cx="630" cy="482.69" fill="#ADD1B2" rx="11" ry="11" style="stroke:#A80036;stroke-width:1.0;"/><path d="M632.3438,478.3619 C631.4063,477.9244 630.8125,477.7838 629.9375,477.7838 C627.3125,477.7838 625.3125,479.8619 625.3125,482.5806 L625.3125,483.7056 C625.3125,486.2838 627.4219,488.1744 630.3125,488.1744 C631.5313,488.1744 632.6875,487.8775 633.4375,487.3306 C634.0156,486.9244 634.3438,486.4713 634.3438,486.0806 C634.3438,485.6275 633.9531,485.2369 633.4844,485.2369 C633.2656,485.2369 633.0625,485.315 632.875,485.5025 C632.4219,485.9869 632.4219,485.9869 632.2344,486.0806 C631.8125,486.3463 631.125,486.4713 630.3594,486.4713 C628.3125,486.4713 627.0156,485.3775 627.0156,483.6744 L627.0156,482.5806 C627.0156,480.7994 628.2656,479.4869 630,479.4869 C630.5781,479.4869 631.1875,479.6431 631.6563,479.8931 C632.1406,480.1744 632.3125,480.3931 632.4063,480.7994 C632.4688,481.2056 632.5,481.3306 632.6406,481.4556 C632.7813,481.5963 633.0156,481.7056 633.2344,481.7056 C633.5,481.7056 633.7656,481.565 633.9375,481.3463 C634.0469,481.19 634.0781,481.0025 634.0781,480.5806 L634.0781,479.1588 C634.0781,478.7213 634.0625,478.5963 633.9688,478.44 C633.8125,478.1744 633.5313,478.0338 633.2344,478.0338 C632.9375,478.0338 632.7344,478.1275 632.5156,478.44 L632.3438,478.3619 Z " fill="#000000"/><text fill="#000000" font-family="sans-serif" font-size="12" lengthAdjust="spacing" textLength="57" x="644" y="486.8443">BentStyle</text><line style="stroke:#A80036;stroke-width:1.5;" x1="616" x2="703" y1="498.69" y2="498.69"/><line style="stroke:#A80036;stroke-width:1.5;" x1="616" x2="703" y1="506.69" y2="506.69"/><!--MD5=[03caf190534dbf6a862bd0ae91201252]
class ArrowHead--><rect codeLine="58" fill="#FEFECE" filter="url(#f12m1mk6hf7tj9)" height="137.6328" id="ArrowHead" style="stroke:#A80036;stroke-width:1.5;" width="317" x="501" y="293.69"/><ellipse cx="621.25" cy="309.69" fill="#ADD1B2" rx="11" ry="11" style="stroke:#A80036;stroke-width:1.0;"/><path d="M623.5938,305.3619 C622.6563,304.9244 622.0625,304.7838 621.1875,304.7838 C618.5625,304.7838 616.5625,306.8619 616.5625,309.5806 L616.5625,310.7056 C616.5625,313.2838 618.6719,315.1744 621.5625,315.1744 C622.7813,315.1744 623.9375,314.8775 624.6875,314.3306 C625.2656,313.9244 625.5938,313.4713 625.5938,313.0806 C625.5938,312.6275 625.2031,312.2369 624.7344,312.2369 C624.5156,312.2369 624.3125,312.315 624.125,312.5025 C623.6719,312.9869 623.6719,312.9869 623.4844,313.0806 C623.0625,313.3463 622.375,313.4713 621.6094,313.4713 C619.5625,313.4713 618.2656,312.3775 618.2656,310.6744 L618.2656,309.5806 C618.2656,307.7994 619.5156,306.4869 621.25,306.4869 C621.8281,306.4869 622.4375,306.6431 622.9063,306.8931 C623.3906,307.1744 623.5625,307.3931 623.6563,307.7994 C623.7188,308.2056 623.75,308.3306 623.8906,308.4556 C624.0313,308.5963 624.2656,308.7056 624.4844,308.7056 C624.75,308.7056 625.0156,308.565 625.1875,308.3463 C625.2969,308.19 625.3281,308.0025 625.3281,307.5806 L625.3281,306.1588 C625.3281,305.7213 625.3125,305.5963 625.2188,305.44 C625.0625,305.1744 624.7813,305.0338 624.4844,305.0338 C624.1875,305.0338 623.9844,305.1275 623.7656,305.44 L623.5938,305.3619 Z " fill="#000000"/><text fill="#000000" font-family="sans-serif" font-size="12" lengthAdjust="spacing" textLength="68" x="641.75" y="313.8443">ArrowHead</text><line style="stroke:#A80036;stroke-width:1.5;" x1="502" x2="817" y1="325.69" y2="325.69"/><text fill="#000000" font-family="sans-serif" font-size="11" lengthAdjust="spacing" textLength="197" x="507" y="339.9004">public static final ArrowHead NONE</text><text fill="#000000" font-family="sans-serif" font-size="11" lengthAdjust="spacing" textLength="220" x="507" y="352.7051">public static final ArrowHead TRIANGLE</text><text fill="#000000" font-family="sans-serif" font-size="11" lengthAdjust="spacing" textLength="173" x="507" y="365.5098">public static final ArrowHead V</text><text fill="#000000" font-family="sans-serif" font-size="11" lengthAdjust="spacing" textLength="220" x="507" y="378.3145">public static final ArrowHead DIAMOND</text><text fill="#000000" font-family="sans-serif" font-size="11" lengthAdjust="spacing" textLength="263" x="507" y="391.1192">public static final ArrowHead BLACK_DIAMOND</text><line style="stroke:#A80036;stroke-width:1.5;" x1="502" x2="817" y1="397.7134" y2="397.7134"/><text fill="#000000" font-family="sans-serif" font-size="11" lengthAdjust="spacing" textLength="114" x="507" y="411.9239">private ArrowHead()</text><text fill="#000000" font-family="sans-serif" font-size="11" lengthAdjust="spacing" textLength="305" x="507" y="424.7286">public void draw(Graphics2D g2, Point2D p, Point2D q)</text><!--MD5=[290b6be765493a7cfb2ed8eef89314c5]
class AbstractEdge--><rect codeLine="68" fill="#FEFECE" filter="url(#f12m1mk6hf7tj9)" height="48" id="AbstractEdge" style="stroke:#A80036;stroke-width:1.5;" width="114" x="1008" y="199.69"/><ellipse cx="1023" cy="215.69" fill="#A9DCDF" rx="11" ry="11" style="stroke:#A80036;stroke-width:1.0;"/><path d="M1025.0781,217.5025 L1025.4688,218.4869 L1025.0781,218.4869 C1024.625,218.4869 1024.5156,218.5025 1024.3594,218.6119 C1024.1094,218.7681 1023.9531,219.0494 1023.9531,219.3463 C1023.9531,219.6119 1024.0938,219.8619 1024.3125,220.0181 C1024.4531,220.1431 1024.6563,220.19 1025.0781,220.19 L1027.4375,220.19 C1027.7969,220.19 1028.0156,220.1588 1028.1563,220.065 C1028.4063,219.9244 1028.5625,219.6275 1028.5625,219.3463 C1028.5625,219.065 1028.4219,218.815 1028.2031,218.6588 C1028.0313,218.5181 1027.875,218.4869 1027.4063,218.4869 L1024.0156,210.2838 L1020.3438,210.2838 C1019.8906,210.2838 1019.7656,210.2994 1019.6094,210.3931 C1019.3594,210.565 1019.2031,210.8463 1019.2031,211.1275 C1019.2031,211.4088 1019.3438,211.6588 1019.5625,211.8306 C1019.7344,211.94 1019.9063,211.9713 1020.3438,211.9713 L1021.4219,211.9713 L1018.7813,218.4869 C1018.3594,218.4869 1018.2031,218.5025 1018.0469,218.6119 C1017.7969,218.7681 1017.6406,219.0494 1017.6406,219.3463 C1017.6406,219.9088 1018.0156,220.19 1018.7656,220.19 L1021.0313,220.19 C1021.3906,220.19 1021.6094,220.1588 1021.7344,220.065 C1022,219.9244 1022.1406,219.6275 1022.1406,219.3463 C1022.1406,219.065 1022.0156,218.815 1021.7969,218.6431 C1021.625,218.5181 1021.4844,218.4869 1021.0313,218.4869 L1020.6406,218.4869 L1021.0313,217.5025 L1025.0781,217.5025 Z M1024.375,215.7994 L1021.7031,215.7994 L1023.0469,212.5338 L1024.375,215.7994 Z " fill="#000000"/><text fill="#000000" font-family="sans-serif" font-size="12" font-style="italic" lengthAdjust="spacing" textLength="82" x="1037" y="219.8443">AbstractEdge</text><line style="stroke:#A80036;stroke-width:1.5;" x1="1009" x2="1121" y1="231.69" y2="231.69"/><line style="stroke:#A80036;stroke-width:1.5;" x1="1009" x2="1121" y1="239.69" y2="239.69"/><!--MD5=[46da77c14e3b80e8e407bac7efd001dd]
class GeneralPathEdge--><rect codeLine="69" fill="#FEFECE" filter="url(#f12m1mk6hf7tj9)" height="48" id="GeneralPathEdge" style="stroke:#A80036;stroke-width:1.5;" width="136" x="591.5" y="127.69"/><ellipse cx="606.5" cy="143.69" fill="#A9DCDF" rx="11" ry="11" style="stroke:#A80036;stroke-width:1.0;"/><path d="M608.5781,145.5025 L608.9688,146.4869 L608.5781,146.4869 C608.125,146.4869 608.0156,146.5025 607.8594,146.6119 C607.6094,146.7681 607.4531,147.0494 607.4531,147.3463 C607.4531,147.6119 607.5938,147.8619 607.8125,148.0181 C607.9531,148.1431 608.1563,148.19 608.5781,148.19 L610.9375,148.19 C611.2969,148.19 611.5156,148.1588 611.6563,148.065 C611.9063,147.9244 612.0625,147.6275 612.0625,147.3463 C612.0625,147.065 611.9219,146.815 611.7031,146.6588 C611.5313,146.5181 611.375,146.4869 610.9063,146.4869 L607.5156,138.2838 L603.8438,138.2838 C603.3906,138.2838 603.2656,138.2994 603.1094,138.3931 C602.8594,138.565 602.7031,138.8463 602.7031,139.1275 C602.7031,139.4088 602.8438,139.6588 603.0625,139.8306 C603.2344,139.94 603.4063,139.9713 603.8438,139.9713 L604.9219,139.9713 L602.2813,146.4869 C601.8594,146.4869 601.7031,146.5025 601.5469,146.6119 C601.2969,146.7681 601.1406,147.0494 601.1406,147.3463 C601.1406,147.9088 601.5156,148.19 602.2656,148.19 L604.5313,148.19 C604.8906,148.19 605.1094,148.1588 605.2344,148.065 C605.5,147.9244 605.6406,147.6275 605.6406,147.3463 C605.6406,147.065 605.5156,146.815 605.2969,146.6431 C605.125,146.5181 604.9844,146.4869 604.5313,146.4869 L604.1406,146.4869 L604.5313,145.5025 L608.5781,145.5025 Z M607.875,143.7994 L605.2031,143.7994 L606.5469,140.5338 L607.875,143.7994 Z " fill="#000000"/><text fill="#000000" font-family="sans-serif" font-size="12" font-style="italic" lengthAdjust="spacing" textLength="104" x="620.5" y="147.8443">GeneralPathEdge</text><line style="stroke:#A80036;stroke-width:1.5;" x1="592.5" x2="726.5" y1="159.69" y2="159.69"/><line style="stroke:#A80036;stroke-width:1.5;" x1="592.5" x2="726.5" y1="167.69" y2="167.69"/><!--MD5=[d791440191c86ee8c90ebee603d6aa37]
class SegmentedLineEdge--><rect codeLine="70" fill="#FEFECE" filter="url(#f12m1mk6hf7tj9)" height="48" id="SegmentedLineEdge" style="stroke:#A80036;stroke-width:1.5;" width="158" x="283" y="274.69"/><ellipse cx="298" cy="290.69" fill="#A9DCDF" rx="11" ry="11" style="stroke:#A80036;stroke-width:1.0;"/><path d="M300.0781,292.5025 L300.4688,293.4869 L300.0781,293.4869 C299.625,293.4869 299.5156,293.5025 299.3594,293.6119 C299.1094,293.7681 298.9531,294.0494 298.9531,294.3463 C298.9531,294.6119 299.0938,294.8619 299.3125,295.0181 C299.4531,295.1431 299.6563,295.19 300.0781,295.19 L302.4375,295.19 C302.7969,295.19 303.0156,295.1588 303.1563,295.065 C303.4063,294.9244 303.5625,294.6275 303.5625,294.3463 C303.5625,294.065 303.4219,293.815 303.2031,293.6588 C303.0313,293.5181 302.875,293.4869 302.4063,293.4869 L299.0156,285.2838 L295.3438,285.2838 C294.8906,285.2838 294.7656,285.2994 294.6094,285.3931 C294.3594,285.565 294.2031,285.8463 294.2031,286.1275 C294.2031,286.4088 294.3438,286.6588 294.5625,286.8306 C294.7344,286.94 294.9063,286.9713 295.3438,286.9713 L296.4219,286.9713 L293.7813,293.4869 C293.3594,293.4869 293.2031,293.5025 293.0469,293.6119 C292.7969,293.7681 292.6406,294.0494 292.6406,294.3463 C292.6406,294.9088 293.0156,295.19 293.7656,295.19 L296.0313,295.19 C296.3906,295.19 296.6094,295.1588 296.7344,295.065 C297,294.9244 297.1406,294.6275 297.1406,294.3463 C297.1406,294.065 297.0156,293.815 296.7969,293.6431 C296.625,293.5181 296.4844,293.4869 296.0313,293.4869 L295.6406,293.4869 L296.0313,292.5025 L300.0781,292.5025 Z M299.375,290.7994 L296.7031,290.7994 L298.0469,287.5338 L299.375,290.7994 Z " fill="#000000"/><text fill="#000000" font-family="sans-serif" font-size="12" font-style="italic" lengthAdjust="spacing" textLength="126" x="312" y="294.8443">SegmentedLineEdge</text><line style="stroke:#A80036;stroke-width:1.5;" x1="284" x2="440" y1="306.69" y2="306.69"/><line style="stroke:#A80036;stroke-width:1.5;" x1="284" x2="440" y1="314.69" y2="314.69"/><!--MD5=[9695c6878aca91d165bcc7c3ad76bf3b]
class ClassRelationshipEdge--><rect codeLine="71" fill="#FEFECE" filter="url(#f12m1mk6hf7tj9)" height="48" id="ClassRelationshipEdge" style="stroke:#A80036;stroke-width:1.5;" width="167" x="56" y="274.69"/><ellipse cx="71" cy="290.69" fill="#ADD1B2" rx="11" ry="11" style="stroke:#A80036;stroke-width:1.0;"/><path d="M73.3438,286.3619 C72.4063,285.9244 71.8125,285.7838 70.9375,285.7838 C68.3125,285.7838 66.3125,287.8619 66.3125,290.5806 L66.3125,291.7056 C66.3125,294.2838 68.4219,296.1744 71.3125,296.1744 C72.5313,296.1744 73.6875,295.8775 74.4375,295.3306 C75.0156,294.9244 75.3438,294.4713 75.3438,294.0806 C75.3438,293.6275 74.9531,293.2369 74.4844,293.2369 C74.2656,293.2369 74.0625,293.315 73.875,293.5025 C73.4219,293.9869 73.4219,293.9869 73.2344,294.0806 C72.8125,294.3463 72.125,294.4713 71.3594,294.4713 C69.3125,294.4713 68.0156,293.3775 68.0156,291.6744 L68.0156,290.5806 C68.0156,288.7994 69.2656,287.4869 71,287.4869 C71.5781,287.4869 72.1875,287.6431 72.6563,287.8931 C73.1406,288.1744 73.3125,288.3931 73.4063,288.7994 C73.4688,289.2056 73.5,289.3306 73.6406,289.4556 C73.7813,289.5963 74.0156,289.7056 74.2344,289.7056 C74.5,289.7056 74.7656,289.565 74.9375,289.3463 C75.0469,289.19 75.0781,289.0025 75.0781,288.5806 L75.0781,287.1588 C75.0781,286.7213 75.0625,286.5963 74.9688,286.44 C74.8125,286.1744 74.5313,286.0338 74.2344,286.0338 C73.9375,286.0338 73.7344,286.1275 73.5156,286.44 L73.3438,286.3619 Z " fill="#000000"/><text fill="#000000" font-family="sans-serif" font-size="12" lengthAdjust="spacing" textLength="135" x="85" y="294.8443">ClassRelationshipEdge</text><line style="stroke:#A80036;stroke-width:1.5;" x1="57" x2="222" y1="306.69" y2="306.69"/><line style="stroke:#A80036;stroke-width:1.5;" x1="57" x2="222" y1="314.69" y2="314.69"/><!--MD5=[5a5af9b0547913863cbe0ddf55a9ab5e]
class java.io.Serializable--><rect codeLine="27" fill="#FEFECE" filter="url(#f12m1mk6hf7tj9)" height="48" id="java.io.Serializable" style="stroke:#A80036;stroke-width:1.5;" width="99" x="1384.5" y="1766.689"/><ellipse cx="1399.5" cy="1782.689" fill="#B4A7E5" rx="11" ry="11" style="stroke:#A80036;stroke-width:1.0;"/><path d="M1400.4531,1779.4703 L1402.1719,1779.4703 C1402.5625,1779.4703 1402.75,1779.439 1402.875,1779.3609 C1403.1406,1779.2046 1403.2813,1778.9234 1403.2813,1778.6265 C1403.2813,1778.3609 1403.1719,1778.0953 1402.9375,1777.9234 C1402.7656,1777.814 1402.625,1777.7828 1402.1719,1777.7828 L1397.0313,1777.7828 C1396.5938,1777.7828 1396.4688,1777.7984 1396.3125,1777.8921 C1396.0625,1778.0484 1395.9063,1778.3453 1395.9063,1778.6265 C1395.9063,1778.9078 1396.0469,1779.1578 1396.2656,1779.3296 C1396.4219,1779.439 1396.6094,1779.4703 1397.0313,1779.4703 L1398.75,1779.4703 L1398.75,1785.9859 L1397.0313,1785.9859 C1396.5938,1785.9859 1396.4688,1786.0015 1396.3125,1786.1109 C1396.0625,1786.2671 1395.9063,1786.5484 1395.9063,1786.8453 C1395.9063,1787.0953 1396.0469,1787.3609 1396.2656,1787.5171 C1396.4219,1787.6421 1396.625,1787.689 1397.0313,1787.689 L1402.1719,1787.689 C1402.9219,1787.689 1403.2813,1787.4078 1403.2813,1786.8453 C1403.2813,1786.564 1403.1719,1786.314 1402.9375,1786.1421 C1402.7656,1786.0171 1402.625,1785.9859 1402.1719,1785.9859 L1400.4531,1785.9859 L1400.4531,1779.4703 Z " fill="#000000"/><text fill="#000000" font-family="sans-serif" font-size="12" font-style="italic" lengthAdjust="spacing" textLength="67" x="1413.5" y="1786.8433">Serializable</text><line style="stroke:#A80036;stroke-width:1.5;" x1="1385.5" x2="1482.5" y1="1798.689" y2="1798.689"/><line style="stroke:#A80036;stroke-width:1.5;" x1="1385.5" x2="1482.5" y1="1806.689" y2="1806.689"/><!--MD5=[e928e726d300d3bec07862808e5ce117]
class java.lang.Cloneable--><rect codeLine="28" fill="#FEFECE" filter="url(#f12m1mk6hf7tj9)" height="48" id="java.lang.Cloneable" style="stroke:#A80036;stroke-width:1.5;" width="90" x="1636" y="343.69"/><ellipse cx="1651" cy="359.69" fill="#B4A7E5" rx="11" ry="11" style="stroke:#A80036;stroke-width:1.0;"/><path d="M1651.9531,356.4713 L1653.6719,356.4713 C1654.0625,356.4713 1654.25,356.44 1654.375,356.3619 C1654.6406,356.2056 1654.7813,355.9244 1654.7813,355.6275 C1654.7813,355.3619 1654.6719,355.0963 1654.4375,354.9244 C1654.2656,354.815 1654.125,354.7838 1653.6719,354.7838 L1648.5313,354.7838 C1648.0938,354.7838 1647.9688,354.7994 1647.8125,354.8931 C1647.5625,355.0494 1647.4063,355.3463 1647.4063,355.6275 C1647.4063,355.9088 1647.5469,356.1588 1647.7656,356.3306 C1647.9219,356.44 1648.1094,356.4713 1648.5313,356.4713 L1650.25,356.4713 L1650.25,362.9869 L1648.5313,362.9869 C1648.0938,362.9869 1647.9688,363.0025 1647.8125,363.1119 C1647.5625,363.2681 1647.4063,363.5494 1647.4063,363.8463 C1647.4063,364.0963 1647.5469,364.3619 1647.7656,364.5181 C1647.9219,364.6431 1648.125,364.69 1648.5313,364.69 L1653.6719,364.69 C1654.4219,364.69 1654.7813,364.4088 1654.7813,363.8463 C1654.7813,363.565 1654.6719,363.315 1654.4375,363.1431 C1654.2656,363.0181 1654.125,362.9869 1653.6719,362.9869 L1651.9531,362.9869 L1651.9531,356.4713 Z " fill="#000000"/><text fill="#000000" font-family="sans-serif" font-size="12" font-style="italic" lengthAdjust="spacing" textLength="58" x="1665" y="363.8443">Cloneable</text><line style="stroke:#A80036;stroke-width:1.5;" x1="1637" x2="1725" y1="375.69" y2="375.69"/><line style="stroke:#A80036;stroke-width:1.5;" x1="1637" x2="1725" y1="383.69" y2="383.69"/><!--MD5=[18a7562403221f513ca44e0f82c4c17a]
class javax.swing.JFrame--><rect fill="#FEFECE" filter="url(#f12m1mk6hf7tj9)" height="48" id="javax.swing.JFrame" style="stroke:#A80036;stroke-width:1.5;" width="74" x="622.5" y="1766.689"/><ellipse cx="637.5" cy="1782.689" fill="#ADD1B2" rx="11" ry="11" style="stroke:#A80036;stroke-width:1.0;"/><path d="M639.8438,1778.3609 C638.9063,1777.9234 638.3125,1777.7828 637.4375,1777.7828 C634.8125,1777.7828 632.8125,1779.8609 632.8125,1782.5796 L632.8125,1783.7046 C632.8125,1786.2828 634.9219,1788.1734 637.8125,1788.1734 C639.0313,1788.1734 640.1875,1787.8765 640.9375,1787.3296 C641.5156,1786.9234 641.8438,1786.4703 641.8438,1786.0796 C641.8438,1785.6265 641.4531,1785.2359 640.9844,1785.2359 C640.7656,1785.2359 640.5625,1785.314 640.375,1785.5015 C639.9219,1785.9859 639.9219,1785.9859 639.7344,1786.0796 C639.3125,1786.3453 638.625,1786.4703 637.8594,1786.4703 C635.8125,1786.4703 634.5156,1785.3765 634.5156,1783.6734 L634.5156,1782.5796 C634.5156,1780.7984 635.7656,1779.4859 637.5,1779.4859 C638.0781,1779.4859 638.6875,1779.6421 639.1563,1779.8921 C639.6406,1780.1734 639.8125,1780.3921 639.9063,1780.7984 C639.9688,1781.2046 640,1781.3296 640.1406,1781.4546 C640.2813,1781.5953 640.5156,1781.7046 640.7344,1781.7046 C641,1781.7046 641.2656,1781.564 641.4375,1781.3453 C641.5469,1781.189 641.5781,1781.0015 641.5781,1780.5796 L641.5781,1779.1578 C641.5781,1778.7203 641.5625,1778.5953 641.4688,1778.439 C641.3125,1778.1734 641.0313,1778.0328 640.7344,1778.0328 C640.4375,1778.0328 640.2344,1778.1265 640.0156,1778.439 L639.8438,1778.3609 Z " fill="#000000"/><text fill="#000000" font-family="sans-serif" font-size="12" lengthAdjust="spacing" textLength="42" x="651.5" y="1786.8433">JFrame</text><line style="stroke:#A80036;stroke-width:1.5;" x1="623.5" x2="695.5" y1="1798.689" y2="1798.689"/><line style="stroke:#A80036;stroke-width:1.5;" x1="623.5" x2="695.5" y1="1806.689" y2="1806.689"/><!--MD5=[a850e20ab2520c089b1c33555cab531b]
link SegmentedLineEdge to LineStyle--><path codeLine="76" d="M441.026,281.79 C495.139,270.07 565.444,254.84 611.25,244.92 " fill="none" id="SegmentedLineEdge-to-LineStyle" style="stroke:#A80036;stroke-width:1.0;stroke-dasharray:7.0,7.0;"/><polygon fill="#A80036" points="616.157,243.86,606.5141,241.8565,611.2704,244.9188,608.2081,249.6751,616.157,243.86" style="stroke:#A80036;stroke-width:1.0;"/><!--MD5=[73112be1b6c7d8a689c2f5b458351de4]
link SegmentedLineEdge to ArrowHead--><path codeLine="77" d="M441.026,315.59 C457.984,319.26 476.532,323.28 495.418,327.37 " fill="none" id="SegmentedLineEdge-to-ArrowHead" style="stroke:#A80036;stroke-width:1.0;stroke-dasharray:7.0,7.0;"/><polygon fill="#A80036" points="500.753,328.52,492.8006,322.7097,495.8657,327.4642,491.1113,330.5293,500.753,328.52" style="stroke:#A80036;stroke-width:1.0;"/><!--MD5=[e4b9b4ce8f20af13b84010b641506e50]
link SegmentedLineEdge to BentStyle--><path codeLine="78" d="M378.358,322.83 C401.036,356.46 446.71,416.96 501,449.69 C534.191,469.7 577.028,480.04 609.648,485.32 " fill="none" id="SegmentedLineEdge-to-BentStyle" style="stroke:#A80036;stroke-width:1.0;stroke-dasharray:7.0,7.0;"/><polygon fill="#A80036" points="614.792,486.13,606.518,480.7877,609.852,485.3576,605.2821,488.6917,614.792,486.13" style="stroke:#A80036;stroke-width:1.0;"/><!--MD5=[0bb615aa47d560fcc088566222bd4918]
link AbstractEdge to Edge--><path codeLine="80" d="M1122.06,226.01 C1159.8,229.03 1210.12,235.94 1252,251.69 C1273.21,259.66 1294.54,270.38 1314.74,282.09 " fill="none" id="AbstractEdge-to-Edge" style="stroke:#A80036;stroke-width:1.0;"/><polygon fill="none" points="1318.65,276.28,1332.17,292.59,1311.43,288.27,1318.65,276.28" style="stroke:#A80036;stroke-width:1.0;"/><!--MD5=[3968826f6f977bd04643dd65c430fa4b]
link GeneralPathEdge to AbstractEdge--><path codeLine="81" d="M727.583,163.66 C799.276,176.45 912.723,196.7 987.753,210.08 " fill="none" id="GeneralPathEdge-to-AbstractEdge" style="stroke:#A80036;stroke-width:1.0;"/><polygon fill="none" points="989.371,203.26,1007.83,213.67,986.912,217.04,989.371,203.26" style="stroke:#A80036;stroke-width:1.0;"/><!--MD5=[aeca007df98d48e1adced0e5f73bf7ef]
link Graph to Serializable--><path codeLine="82" d="M396.61,1025.689 C443.294,1025.689 528.849,1025.689 589.455,1025.689 " fill="none" id="Graph-to-Serializable" style="stroke:#A80036;stroke-width:1.0;"/><polygon fill="none" points="589.746,1018.689,609.746,1025.689,589.746,1032.689,589.746,1018.689" style="stroke:#A80036;stroke-width:1.0;"/><!--MD5=[ae01df443bb21c3ac2ce12420572b71b]
link RectangularNode to Node--><path codeLine="83" d="M430.054,623.22 C453.622,626.57 481.142,630.48 508.755,634.41 " fill="none" id="RectangularNode-to-Node" style="stroke:#A80036;stroke-width:1.0;"/><polygon fill="none" points="510.006,627.51,528.822,637.26,508.036,641.37,510.006,627.51" style="stroke:#A80036;stroke-width:1.0;"/><!--MD5=[3f4cd674b9b9aad3db3259b611b8b098]
link SegmentedLineEdge to GeneralPathEdge--><path codeLine="84" d="M388.415,274.41 C414.651,250.6 457.744,214.88 501,193.69 C523.039,182.89 548.219,174.59 571.884,168.33 " fill="none" id="SegmentedLineEdge-to-GeneralPathEdge" style="stroke:#A80036;stroke-width:1.0;"/><polygon fill="none" points="570.21,161.54,591.304,163.55,573.56,175.13,570.21,161.54" style="stroke:#A80036;stroke-width:1.0;"/><!--MD5=[7dec3e917919aef17503979ef49ecc72]
link ArrowHead to SerializableEnumeration--><path codeLine="85" d="M795.53,431.95 C803.386,437.6 810.948,443.52 818,449.69 C851.712,479.19 841.543,504.65 878,530.69 C880.796,532.69 883.662,534.62 886.588,536.48 " fill="none" id="ArrowHead-to-SerializableEnumeration" style="stroke:#A80036;stroke-width:1.0;"/><polygon fill="none" points="890.117,530.44,903.939,546.5,883.118,542.56,890.117,530.44" style="stroke:#A80036;stroke-width:1.0;"/><!--MD5=[d9320169131816a98aa6c9e66a157286]
link ArrowHeadEditor to PropertySelector--><path codeLine="86" d="M204.278,800.7 C227.261,809.35 253.541,819.24 277.93,828.42 " fill="none" id="ArrowHeadEditor-to-PropertySelector" style="stroke:#A80036;stroke-width:1.0;"/><polygon fill="none" points="280.732,822,296.984,835.59,275.8,835.1,280.732,822" style="stroke:#A80036;stroke-width:1.0;"/><!--MD5=[aab4c431ac8610d1e0e8dcdc4fe9ac62]
link BentStyle to SerializableEnumeration--><path codeLine="87" d="M704.065,501.38 C744.33,511.26 807.123,526.66 869.059,541.86 " fill="none" id="BentStyle-to-SerializableEnumeration" style="stroke:#A80036;stroke-width:1.0;"/><polygon fill="none" points="870.911,535.11,888.667,546.67,867.575,548.7,870.911,535.11" style="stroke:#A80036;stroke-width:1.0;"/><!--MD5=[9fc82aae8d39791eec43218f0f97d951]
link BentStyleEditor to PropertySelector--><path codeLine="88" d="M201.629,859.69 C224.232,859.69 250.297,859.69 274.715,859.69 " fill="none" id="BentStyleEditor-to-PropertySelector" style="stroke:#A80036;stroke-width:1.0;"/><polygon fill="none" points="274.725,852.69,294.725,859.69,274.725,866.69,274.725,852.69" style="stroke:#A80036;stroke-width:1.0;"/><!--MD5=[29a36faf07b131c8d638646b8b516894]
link ClassDiagramGraph to Graph--><path codeLine="89" d="M214.537,1025.689 C244.796,1025.689 279.149,1025.689 306.977,1025.689 " fill="none" id="ClassDiagramGraph-to-Graph" style="stroke:#A80036;stroke-width:1.0;"/><polygon fill="none" points="307.249,1018.689,327.249,1025.689,307.249,1032.689,307.249,1018.689" style="stroke:#A80036;stroke-width:1.0;"/><!--MD5=[8403dfd2069446e65c784d8a2c2abf35]
link ClassNode to RectangularNode--><path codeLine="90" d="M187.532,613.69 C212.589,613.69 244.226,613.69 273.599,613.69 " fill="none" id="ClassNode-to-RectangularNode" style="stroke:#A80036;stroke-width:1.0;"/><polygon fill="none" points="273.96,606.69,293.96,613.69,273.96,620.69,273.96,606.69" style="stroke:#A80036;stroke-width:1.0;"/><!--MD5=[14d9028f93b23e7b14691816bd3bb988]
link ClassRelationshipEdge to SegmentedLineEdge--><path codeLine="91" d="M223.233,298.69 C236.065,298.69 249.427,298.69 262.563,298.69 " fill="none" id="ClassRelationshipEdge-to-SegmentedLineEdge" style="stroke:#A80036;stroke-width:1.0;"/><polygon fill="none" points="262.911,291.69,282.911,298.69,262.911,305.69,262.911,291.69" style="stroke:#A80036;stroke-width:1.0;"/><!--MD5=[078a38bcc80ad814f5c73d3136a878ac]
link FormLayout to LayoutManager--><path codeLine="92" d="M190.535,1108.689 C216.758,1108.689 249.536,1108.689 279.326,1108.689 " fill="none" id="FormLayout-to-LayoutManager" style="stroke:#A80036;stroke-width:1.0;"/><polygon fill="none" points="279.354,1101.689,299.354,1108.689,279.354,1115.689,279.354,1101.689" style="stroke:#A80036;stroke-width:1.0;"/><!--MD5=[523be0b2aa3447c6beb595c1b7c4c71c]
link GraphFrame to JFrame--><path codeLine="93" d="M192.755,1191.689 C226.504,1191.689 270.388,1191.689 304.875,1191.689 " fill="none" id="GraphFrame-to-JFrame" style="stroke:#A80036;stroke-width:1.0;"/><polygon fill="none" points="304.959,1184.689,324.959,1191.689,304.959,1198.689,304.959,1184.689" style="stroke:#A80036;stroke-width:1.0;"/><!--MD5=[11c0d4067419bc91ca0975fe94e2a76f]
link GraphPanel to JPanel--><path codeLine="94" d="M189.163,1293.006 C224.904,1306.46 273.359,1324.699 309.705,1338.38 " fill="none" id="GraphPanel-to-JPanel" style="stroke:#A80036;stroke-width:1.0;"/><polygon fill="none" points="312.241,1331.856,328.493,1345.453,307.309,1344.958,312.241,1331.856" style="stroke:#A80036;stroke-width:1.0;"/><!--MD5=[8d4b2a4bd871d72ee7439f560d46819e]
link LineStyle to SerializableEnumeration--><path codeLine="95" d="M702.519,234.58 C738.118,236.82 788.022,245.84 818,276.69 C898.839,359.88 799.12,445.64 878,530.69 C878.846,531.6 879.706,532.5 880.579,533.38 " fill="none" id="LineStyle-to-SerializableEnumeration" style="stroke:#A80036;stroke-width:1.0;"/><polygon fill="none" points="885.246,528.16,895.811,546.53,876.098,538.76,885.246,528.16" style="stroke:#A80036;stroke-width:1.0;"/><!--MD5=[35dde831c2b6d73c187cdb9cf86c1e19]
link LineStyleEditor to PropertySelector--><path codeLine="96" d="M200.17,920.23 C224.172,911.19 252.257,900.62 278.181,890.86 " fill="none" id="LineStyleEditor-to-PropertySelector" style="stroke:#A80036;stroke-width:1.0;"/><polygon fill="none" points="275.848,884.26,297.031,883.77,280.78,897.36,275.848,884.26" style="stroke:#A80036;stroke-width:1.0;"/><!--MD5=[943be5a3ebb8ba3a2548eea6ddb6d8ed]
reverse link java.io.Serializable to MultiLineString--><path codeLine="97" d="M1379.23,1802.375 C1235.02,1831.716 828.398,1901.2657 501,1830.689 C376.279,1803.803 242.755,1730.118 178.866,1691.702 " fill="none" id="java.io.Serializable-backto-MultiLineString" style="stroke:#A80036;stroke-width:1.0;stroke-dasharray:7.0,7.0;"/><polygon fill="#A80036" points="1384.25,1801.348,1374.6318,1799.229,1379.351,1802.3481,1376.2319,1807.0673,1384.25,1801.348" style="stroke:#A80036;stroke-width:1.0;"/><!--MD5=[1822499874c3741dad40905b6e6b02c6]
link MultiLineString to java.lang.Cloneable--><path codeLine="98" d="M156.704,1691.762 C180.537,1725.375 228.196,1786.123 283,1820.689 C430.964,1914.0113 483.565,1938.6888 658.5,1938.6888 C658.5,1938.6888 658.5,1938.6888 1066,1938.6888 C1309.88,1938.6888 1444.61,2015.2741 1604,1830.689 C1651.53,1775.647 1674.8,650.89 1679.22,412.03 " fill="none" id="MultiLineString-to-java.lang.Cloneable" style="stroke:#A80036;stroke-width:1.0;stroke-dasharray:7.0,7.0;"/><polygon fill="none" points="1672.22,411.62,1679.58,391.75,1686.22,411.87,1672.22,411.62" style="stroke:#A80036;stroke-width:1.0;"/><!--MD5=[83f19399ee57a047ad8fcd77217aa842]
link PointNode to Node--><path codeLine="99" d="M408.202,690.42 C435.611,686.61 472.311,681.52 509.144,676.41 " fill="none" id="PointNode-to-Node" style="stroke:#A80036;stroke-width:1.0;"/><polygon fill="none" points="508.191,669.48,528.963,673.66,510.115,683.34,508.191,669.48" style="stroke:#A80036;stroke-width:1.0;"/><!--MD5=[c734521de70261cb91001258230b3f92]
link PropertySheet to JPanel--><path codeLine="100" d="M198.722,1357.689 C232.739,1357.689 275.329,1357.689 308.342,1357.689 " fill="none" id="PropertySheet-to-JPanel" style="stroke:#A80036;stroke-width:1.0;"/><polygon fill="none" points="308.466,1350.689,328.466,1357.689,308.466,1364.689,308.466,1350.689" style="stroke:#A80036;stroke-width:1.0;"/><!--MD5=[205a23b9ed5ea128f4112cc3bde21dfc]
link SerializableEnumeration to java.io.Serializable--><path codeLine="101" d="M1079.17,632.79 C1136.28,819.67 1362.2,1559.007 1419.66,1747.018 " fill="none" id="SerializableEnumeration-to-java.io.Serializable" style="stroke:#A80036;stroke-width:1.0;"/><polygon fill="none" points="1426.38,1745.063,1425.53,1766.236,1412.99,1749.155,1426.38,1745.063" style="stroke:#A80036;stroke-width:1.0;"/><!--MD5=[5156a454d096506cd457fb81a17fa97a]
link ToolBar to JPanel--><path codeLine="102" d="M178.682,1507.404 C193.066,1500.586 209.258,1492.062 223,1482.689 C260.057,1457.412 297.488,1422.81 323.999,1396.42 " fill="none" id="ToolBar-to-JPanel" style="stroke:#A80036;stroke-width:1.0;"/><polygon fill="none" points="319.232,1391.284,338.261,1381.963,329.198,1401.117,319.232,1391.284" style="stroke:#A80036;stroke-width:1.0;"/><!--MD5=[f5b8dd0855a3ae28e3fa49c1d7194daa]
link UMLEditor to javax.swing.JFrame--><path codeLine="103" d="M406.395,1655.855 C433.519,1670.893 469.216,1690.564 501,1707.689 C540.55,1728.998 585.963,1752.867 617.83,1769.518 " fill="none" id="UMLEditor-to-javax.swing.JFrame" style="stroke:#A80036;stroke-width:1.0;stroke-dasharray:7.0,7.0;"/><polygon fill="#A80036" points="622.432,1771.922,616.3061,1764.2101,618,1769.6074,612.6027,1771.3013,622.432,1771.922" style="stroke:#A80036;stroke-width:1.0;"/><!--MD5=[5bd9571e7894e639f6cb102a845bbfe9]
reverse link java.io.Serializable to Edge--><path codeLine="104" d="M1434,1761.2 C1434,1321.738 1434,882.28 1434,442.81 " fill="none" id="java.io.Serializable-backto-Edge" style="stroke:#A80036;stroke-width:1.0;stroke-dasharray:7.0,7.0;"/><polygon fill="#A80036" points="1434,1766.37,1438,1757.37,1434,1761.37,1430,1757.37,1434,1766.37" style="stroke:#A80036;stroke-width:1.0;"/><!--MD5=[ff41eed41211c00830ab9d6eda5bfa8f]
link Edge to java.lang.Cloneable--><path codeLine="105" d="M1556.06,367.69 C1576.71,367.69 1597.41,367.69 1615.82,367.69 " fill="none" id="Edge-to-java.lang.Cloneable" style="stroke:#A80036;stroke-width:1.0;stroke-dasharray:7.0,7.0;"/><polygon fill="none" points="1615.87,360.69,1635.87,367.69,1615.87,374.69,1615.87,360.69" style="stroke:#A80036;stroke-width:1.0;"/><!--MD5=[afdfb26effd1fd5f33ce13cd9095417e]
link Node to java.io.Serializable--><path codeLine="106" d="M790.214,696.44 C800.778,703.8 810.321,712.48 818,722.69 C950.918,899.46 782.852,1017.032 878,1216.689 C1001.08,1474.953 1286.44,1689.871 1392.42,1763.471 " fill="none" id="Node-to-java.io.Serializable" style="stroke:#A80036;stroke-width:1.0;stroke-dasharray:7.0,7.0;"/><polygon fill="#A80036" points="1396.72,1766.45,1391.5922,1758.0413,1392.6074,1763.6063,1387.0424,1764.6215,1396.72,1766.45" style="stroke:#A80036;stroke-width:1.0;"/><!--MD5=[04f0f75b30e7a3b51ca394180f8e5872]
link Node to java.lang.Cloneable--><path codeLine="107" d="M762.979,593.02 C784.273,575.4 804.358,554.46 818,530.69 C911.651,367.53 735.862,234.92 878,111.69 C999.898,6 1474.7,15.2 1604,111.69 C1638.04,137.09 1662.29,257.28 1673.32,323.55 " fill="none" id="Node-to-java.lang.Cloneable" style="stroke:#A80036;stroke-width:1.0;stroke-dasharray:7.0,7.0;"/><polygon fill="none" points="1680.24,322.51,1676.49,343.36,1666.42,324.72,1680.24,322.51" style="stroke:#A80036;stroke-width:1.0;"/><!--MD5=[abfa219eb052ac478c2bcfb6736a6927]
@startuml
left to right direction
package UmlEditor {
    abstract class Graph
    class ArrowHeadEditor
    class BentStyleEditor
    class ClassDiagramGraph
    class FormLayout
    class GraphFrame
    class GraphPanel
    class JFrame
    class JPanel
    class LineStyleEditor
    class MultiLineString
    class MultiLineStringEditor
    class PropertySelector
    class PropertySheet
    class SerializableEnumeration {
       public String toString()
       protected Object writeReplace() throws ObjectStreamException
       protected Object readResolve() throws ObjectStreamException
    }
    class ToolBar
    class UMLEditor
    note left of UMLEditor: main()
    interface LayoutManager
    interface Serializable
    interface java.io.Serializable
    interface java.lang.Cloneable

    package Nodes {
        interface Node {
           void draw(Graphics2D g2);
           void translate(double dx, double dy);
           boolean contains(Point2D aPoint);
           Point2D getConnectionPoint(Point2D aPoint);
           Rectangle2D getBounds();
           Object clone();
        }
        abstract class RectangularNode
        class ClassNode
        class PointNode

    }

    package Edges{
        interface Edge{
           void draw(Graphics2D g2);
           boolean contains(Point2D aPoint);
           void connect(Node aStart, Node anEnd);
           Node getStart();
           Node getEnd();
           Line2D getConnectionPoints();
           Rectangle2D getBounds(Graphics2D g2);
           Object clone();
        }
        class LineStyle
        class BentStyle
        class ArrowHead {
            private ArrowHead()
            public void draw(Graphics2D g2, Point2D p, Point2D q)
            public static final ArrowHead NONE
            public static final ArrowHead TRIANGLE
            public static final ArrowHead V
            public static final ArrowHead DIAMOND
            public static final ArrowHead BLACK_DIAMOND
        }

        abstract class AbstractEdge
        abstract class GeneralPathEdge
        abstract class SegmentedLineEdge
        class ClassRelationshipEdge

    }
}

LineStyle <.u. SegmentedLineEdge
ArrowHead <.u. SegmentedLineEdge
BentStyle <.u. SegmentedLineEdge

AbstractEdge - -|> Edge
GeneralPathEdge - -|> AbstractEdge
Graph - -|> Serializable
RectangularNode - -|> Node
SegmentedLineEdge - -|> GeneralPathEdge
ArrowHead - -|> SerializableEnumeration
ArrowHeadEditor - -|> PropertySelector
BentStyle - -|> SerializableEnumeration
BentStyleEditor - -|> PropertySelector
ClassDiagramGraph - -|> Graph
ClassNode - -|> RectangularNode
ClassRelationshipEdge - -|> SegmentedLineEdge
FormLayout - -|> LayoutManager
GraphFrame - -|> JFrame
GraphPanel - -|> JPanel
LineStyle - -|> SerializableEnumeration
LineStyleEditor - -|> PropertySelector
MultiLineString .l.> java.io.Serializable
MultiLineString .d.|> java.lang.Cloneable
PointNode - -|> Node
PropertySheet - -|> JPanel
SerializableEnumeration - -|> java.io.Serializable
ToolBar - -|> JPanel
UMLEditor ..> javax.swing.JFrame
Edge .l.> java.io.Serializable
Edge .d.|> java.lang.Cloneable
Node .r.> java.io.Serializable
Node .d.|> java.lang.Cloneable
@enduml

PlantUML version 1.2021.01beta3(Unknown compile time)
(GPL source distribution)
Java Runtime: Java(TM) SE Runtime Environment
JVM: Java HotSpot(TM) 64-Bit Server VM
Default Encoding: UTF-8
Language: en
Country: US
--></g></svg>