<?xml version="1.0" encoding="UTF-8" standalone="no"?><svg xmlns="http://www.w3.org/2000/svg" xmlns:xlink="http://www.w3.org/1999/xlink" contentScriptType="application/ecmascript" contentStyleType="text/css" height="222px" preserveAspectRatio="none" style="width:1141px;height:222px;" version="1.1" viewBox="0 0 1141 222" width="1141px" zoomAndPan="magnify"><defs><filter height="300%" id="fiyokvwhgycbg" width="300%" x="-1" y="-1"><feGaussianBlur result="blurOut" stdDeviation="2.0"/><feColorMatrix in="blurOut" result="blurOut2" type="matrix" values="0 0 0 0 0 0 0 0 0 0 0 0 0 0 0 0 0 0 .4 0"/><feOffset dx="4.0" dy="4.0" in="blurOut2" result="blurOut3"/><feBlend in="SourceGraphic" in2="blurOut3" mode="normal"/></filter></defs><g><!--MD5=[586018cf8847da0f3fdb295fc9bde2e0]
class AgeComparator--><rect codeLine="1" fill="#FEFECE" filter="url(#fiyokvwhgycbg)" height="60.8047" id="AgeComparator" style="stroke:#A80036;stroke-width:1.5;" width="224" x="644" y="148"/><ellipse cx="704.25" cy="164" fill="#ADD1B2" rx="11" ry="11" style="stroke:#A80036;stroke-width:1.0;"/><path d="M706.5938,159.6719 C705.6563,159.2344 705.0625,159.0938 704.1875,159.0938 C701.5625,159.0938 699.5625,161.1719 699.5625,163.8906 L699.5625,165.0156 C699.5625,167.5938 701.6719,169.4844 704.5625,169.4844 C705.7813,169.4844 706.9375,169.1875 707.6875,168.6406 C708.2656,168.2344 708.5938,167.7813 708.5938,167.3906 C708.5938,166.9375 708.2031,166.5469 707.7344,166.5469 C707.5156,166.5469 707.3125,166.625 707.125,166.8125 C706.6719,167.2969 706.6719,167.2969 706.4844,167.3906 C706.0625,167.6563 705.375,167.7813 704.6094,167.7813 C702.5625,167.7813 701.2656,166.6875 701.2656,164.9844 L701.2656,163.8906 C701.2656,162.1094 702.5156,160.7969 704.25,160.7969 C704.8281,160.7969 705.4375,160.9531 705.9063,161.2031 C706.3906,161.4844 706.5625,161.7031 706.6563,162.1094 C706.7188,162.5156 706.75,162.6406 706.8906,162.7656 C707.0313,162.9063 707.2656,163.0156 707.4844,163.0156 C707.75,163.0156 708.0156,162.875 708.1875,162.6563 C708.2969,162.5 708.3281,162.3125 708.3281,161.8906 L708.3281,160.4688 C708.3281,160.0313 708.3125,159.9063 708.2188,159.75 C708.0625,159.4844 707.7813,159.3438 707.4844,159.3438 C707.1875,159.3438 706.9844,159.4375 706.7656,159.75 L706.5938,159.6719 Z " fill="#000000"/><text fill="#000000" font-family="sans-serif" font-size="12" lengthAdjust="spacing" textLength="95" x="724.75" y="168.1543">AgeComparator</text><line style="stroke:#A80036;stroke-width:1.5;" x1="645" x2="867" y1="180" y2="180"/><line style="stroke:#A80036;stroke-width:1.5;" x1="645" x2="867" y1="188" y2="188"/><text fill="#000000" font-family="sans-serif" font-size="11" lengthAdjust="spacing" textLength="212" x="650" y="202.2104">compare(o1:Employ, o2:Employe): int</text><!--MD5=[c31b6eabf905303169463c769cac2ebd]
class Compagnie--><rect codeLine="4" fill="#FEFECE" filter="url(#fiyokvwhgycbg)" height="48" id="Compagnie" style="stroke:#A80036;stroke-width:1.5;" width="100" x="16" y="16.5"/><ellipse cx="31" cy="32.5" fill="#ADD1B2" rx="11" ry="11" style="stroke:#A80036;stroke-width:1.0;"/><path d="M33.3438,28.1719 C32.4063,27.7344 31.8125,27.5938 30.9375,27.5938 C28.3125,27.5938 26.3125,29.6719 26.3125,32.3906 L26.3125,33.5156 C26.3125,36.0938 28.4219,37.9844 31.3125,37.9844 C32.5313,37.9844 33.6875,37.6875 34.4375,37.1406 C35.0156,36.7344 35.3438,36.2813 35.3438,35.8906 C35.3438,35.4375 34.9531,35.0469 34.4844,35.0469 C34.2656,35.0469 34.0625,35.125 33.875,35.3125 C33.4219,35.7969 33.4219,35.7969 33.2344,35.8906 C32.8125,36.1563 32.125,36.2813 31.3594,36.2813 C29.3125,36.2813 28.0156,35.1875 28.0156,33.4844 L28.0156,32.3906 C28.0156,30.6094 29.2656,29.2969 31,29.2969 C31.5781,29.2969 32.1875,29.4531 32.6563,29.7031 C33.1406,29.9844 33.3125,30.2031 33.4063,30.6094 C33.4688,31.0156 33.5,31.1406 33.6406,31.2656 C33.7813,31.4063 34.0156,31.5156 34.2344,31.5156 C34.5,31.5156 34.7656,31.375 34.9375,31.1563 C35.0469,31 35.0781,30.8125 35.0781,30.3906 L35.0781,28.9688 C35.0781,28.5313 35.0625,28.4063 34.9688,28.25 C34.8125,27.9844 34.5313,27.8438 34.2344,27.8438 C33.9375,27.8438 33.7344,27.9375 33.5156,28.25 L33.3438,28.1719 Z " fill="#000000"/><text fill="#000000" font-family="sans-serif" font-size="12" lengthAdjust="spacing" textLength="68" x="45" y="36.6543">Compagnie</text><line style="stroke:#A80036;stroke-width:1.5;" x1="17" x2="115" y1="48.5" y2="48.5"/><line style="stroke:#A80036;stroke-width:1.5;" x1="17" x2="115" y1="56.5" y2="56.5"/><!--MD5=[d838a1303b3c149ddf898d17c26b835b]
class EmbaucheComparator--><rect codeLine="5" fill="#FEFECE" filter="url(#fiyokvwhgycbg)" height="60.8047" id="EmbaucheComparator" style="stroke:#A80036;stroke-width:1.5;" width="224" x="903" y="148"/><ellipse cx="944.55" cy="164" fill="#ADD1B2" rx="11" ry="11" style="stroke:#A80036;stroke-width:1.0;"/><path d="M946.8938,159.6719 C945.9563,159.2344 945.3625,159.0938 944.4875,159.0938 C941.8625,159.0938 939.8625,161.1719 939.8625,163.8906 L939.8625,165.0156 C939.8625,167.5938 941.9719,169.4844 944.8625,169.4844 C946.0813,169.4844 947.2375,169.1875 947.9875,168.6406 C948.5656,168.2344 948.8938,167.7813 948.8938,167.3906 C948.8938,166.9375 948.5031,166.5469 948.0344,166.5469 C947.8156,166.5469 947.6125,166.625 947.425,166.8125 C946.9719,167.2969 946.9719,167.2969 946.7844,167.3906 C946.3625,167.6563 945.675,167.7813 944.9094,167.7813 C942.8625,167.7813 941.5656,166.6875 941.5656,164.9844 L941.5656,163.8906 C941.5656,162.1094 942.8156,160.7969 944.55,160.7969 C945.1281,160.7969 945.7375,160.9531 946.2063,161.2031 C946.6906,161.4844 946.8625,161.7031 946.9563,162.1094 C947.0188,162.5156 947.05,162.6406 947.1906,162.7656 C947.3313,162.9063 947.5656,163.0156 947.7844,163.0156 C948.05,163.0156 948.3156,162.875 948.4875,162.6563 C948.5969,162.5 948.6281,162.3125 948.6281,161.8906 L948.6281,160.4688 C948.6281,160.0313 948.6125,159.9063 948.5188,159.75 C948.3625,159.4844 948.0813,159.3438 947.7844,159.3438 C947.4875,159.3438 947.2844,159.4375 947.0656,159.75 L946.8938,159.6719 Z " fill="#000000"/><text fill="#000000" font-family="sans-serif" font-size="12" lengthAdjust="spacing" textLength="133" x="964.45" y="168.1543">EmbaucheComparator</text><line style="stroke:#A80036;stroke-width:1.5;" x1="904" x2="1126" y1="180" y2="180"/><line style="stroke:#A80036;stroke-width:1.5;" x1="904" x2="1126" y1="188" y2="188"/><text fill="#000000" font-family="sans-serif" font-size="11" lengthAdjust="spacing" textLength="212" x="909" y="202.2104">compare(o1:Employ, o2:Employe): int</text><!--MD5=[9a2897d96cfcc917fe91044b2ccff0ad]
class Employe--><rect codeLine="8" fill="#FEFECE" filter="url(#fiyokvwhgycbg)" height="48" id="Employe" style="stroke:#A80036;stroke-width:1.5;" width="84" x="7" y="154.5"/><ellipse cx="22" cy="170.5" fill="#ADD1B2" rx="11" ry="11" style="stroke:#A80036;stroke-width:1.0;"/><path d="M24.3438,166.1719 C23.4063,165.7344 22.8125,165.5938 21.9375,165.5938 C19.3125,165.5938 17.3125,167.6719 17.3125,170.3906 L17.3125,171.5156 C17.3125,174.0938 19.4219,175.9844 22.3125,175.9844 C23.5313,175.9844 24.6875,175.6875 25.4375,175.1406 C26.0156,174.7344 26.3438,174.2813 26.3438,173.8906 C26.3438,173.4375 25.9531,173.0469 25.4844,173.0469 C25.2656,173.0469 25.0625,173.125 24.875,173.3125 C24.4219,173.7969 24.4219,173.7969 24.2344,173.8906 C23.8125,174.1563 23.125,174.2813 22.3594,174.2813 C20.3125,174.2813 19.0156,173.1875 19.0156,171.4844 L19.0156,170.3906 C19.0156,168.6094 20.2656,167.2969 22,167.2969 C22.5781,167.2969 23.1875,167.4531 23.6563,167.7031 C24.1406,167.9844 24.3125,168.2031 24.4063,168.6094 C24.4688,169.0156 24.5,169.1406 24.6406,169.2656 C24.7813,169.4063 25.0156,169.5156 25.2344,169.5156 C25.5,169.5156 25.7656,169.375 25.9375,169.1563 C26.0469,169 26.0781,168.8125 26.0781,168.3906 L26.0781,166.9688 C26.0781,166.5313 26.0625,166.4063 25.9688,166.25 C25.8125,165.9844 25.5313,165.8438 25.2344,165.8438 C24.9375,165.8438 24.7344,165.9375 24.5156,166.25 L24.3438,166.1719 Z " fill="#000000"/><text fill="#000000" font-family="sans-serif" font-size="12" lengthAdjust="spacing" textLength="52" x="36" y="174.6543">Employe</text><line style="stroke:#A80036;stroke-width:1.5;" x1="8" x2="90" y1="186.5" y2="186.5"/><line style="stroke:#A80036;stroke-width:1.5;" x1="8" x2="90" y1="194.5" y2="194.5"/><!--MD5=[da6caf2d28ddbdecd95f85345894b09e]
class PrenomComparateur--><rect codeLine="9" fill="#FEFECE" filter="url(#fiyokvwhgycbg)" height="60.8047" id="PrenomComparateur" style="stroke:#A80036;stroke-width:1.5;" width="224" x="126" y="148"/><ellipse cx="172.25" cy="164" fill="#ADD1B2" rx="11" ry="11" style="stroke:#A80036;stroke-width:1.0;"/><path d="M174.5938,159.6719 C173.6563,159.2344 173.0625,159.0938 172.1875,159.0938 C169.5625,159.0938 167.5625,161.1719 167.5625,163.8906 L167.5625,165.0156 C167.5625,167.5938 169.6719,169.4844 172.5625,169.4844 C173.7813,169.4844 174.9375,169.1875 175.6875,168.6406 C176.2656,168.2344 176.5938,167.7813 176.5938,167.3906 C176.5938,166.9375 176.2031,166.5469 175.7344,166.5469 C175.5156,166.5469 175.3125,166.625 175.125,166.8125 C174.6719,167.2969 174.6719,167.2969 174.4844,167.3906 C174.0625,167.6563 173.375,167.7813 172.6094,167.7813 C170.5625,167.7813 169.2656,166.6875 169.2656,164.9844 L169.2656,163.8906 C169.2656,162.1094 170.5156,160.7969 172.25,160.7969 C172.8281,160.7969 173.4375,160.9531 173.9063,161.2031 C174.3906,161.4844 174.5625,161.7031 174.6563,162.1094 C174.7188,162.5156 174.75,162.6406 174.8906,162.7656 C175.0313,162.9063 175.2656,163.0156 175.4844,163.0156 C175.75,163.0156 176.0156,162.875 176.1875,162.6563 C176.2969,162.5 176.3281,162.3125 176.3281,161.8906 L176.3281,160.4688 C176.3281,160.0313 176.3125,159.9063 176.2188,159.75 C176.0625,159.4844 175.7813,159.3438 175.4844,159.3438 C175.1875,159.3438 174.9844,159.4375 174.7656,159.75 L174.5938,159.6719 Z " fill="#000000"/><text fill="#000000" font-family="sans-serif" font-size="12" lengthAdjust="spacing" textLength="123" x="192.75" y="168.1543">PrenomComparateur</text><line style="stroke:#A80036;stroke-width:1.5;" x1="127" x2="349" y1="180" y2="180"/><line style="stroke:#A80036;stroke-width:1.5;" x1="127" x2="349" y1="188" y2="188"/><text fill="#000000" font-family="sans-serif" font-size="11" lengthAdjust="spacing" textLength="212" x="132" y="202.2104">compare(o1:Employ, o2:Employe): int</text><!--MD5=[a852400127e32f501958dafa52677e11]
class SalaireComparateur--><rect codeLine="12" fill="#FEFECE" filter="url(#fiyokvwhgycbg)" height="60.8047" id="SalaireComparateur" style="stroke:#A80036;stroke-width:1.5;" width="224" x="385" y="148"/><ellipse cx="433.25" cy="164" fill="#ADD1B2" rx="11" ry="11" style="stroke:#A80036;stroke-width:1.0;"/><path d="M435.5938,159.6719 C434.6563,159.2344 434.0625,159.0938 433.1875,159.0938 C430.5625,159.0938 428.5625,161.1719 428.5625,163.8906 L428.5625,165.0156 C428.5625,167.5938 430.6719,169.4844 433.5625,169.4844 C434.7813,169.4844 435.9375,169.1875 436.6875,168.6406 C437.2656,168.2344 437.5938,167.7813 437.5938,167.3906 C437.5938,166.9375 437.2031,166.5469 436.7344,166.5469 C436.5156,166.5469 436.3125,166.625 436.125,166.8125 C435.6719,167.2969 435.6719,167.2969 435.4844,167.3906 C435.0625,167.6563 434.375,167.7813 433.6094,167.7813 C431.5625,167.7813 430.2656,166.6875 430.2656,164.9844 L430.2656,163.8906 C430.2656,162.1094 431.5156,160.7969 433.25,160.7969 C433.8281,160.7969 434.4375,160.9531 434.9063,161.2031 C435.3906,161.4844 435.5625,161.7031 435.6563,162.1094 C435.7188,162.5156 435.75,162.6406 435.8906,162.7656 C436.0313,162.9063 436.2656,163.0156 436.4844,163.0156 C436.75,163.0156 437.0156,162.875 437.1875,162.6563 C437.2969,162.5 437.3281,162.3125 437.3281,161.8906 L437.3281,160.4688 C437.3281,160.0313 437.3125,159.9063 437.2188,159.75 C437.0625,159.4844 436.7813,159.3438 436.4844,159.3438 C436.1875,159.3438 435.9844,159.4375 435.7656,159.75 L435.5938,159.6719 Z " fill="#000000"/><text fill="#000000" font-family="sans-serif" font-size="12" lengthAdjust="spacing" textLength="119" x="453.75" y="168.1543">SalaireComparateur</text><line style="stroke:#A80036;stroke-width:1.5;" x1="386" x2="608" y1="180" y2="180"/><line style="stroke:#A80036;stroke-width:1.5;" x1="386" x2="608" y1="188" y2="188"/><text fill="#000000" font-family="sans-serif" font-size="11" lengthAdjust="spacing" textLength="212" x="391" y="202.2104">compare(o1:Employ, o2:Employe): int</text><!--MD5=[bfbc09f118ac649fa938666fcb82962a]
class Comparator--><rect codeLine="16" fill="#FEFECE" filter="url(#fiyokvwhgycbg)" height="60.8047" id="Comparator" style="stroke:#A80036;stroke-width:1.5;" width="224" x="368" y="10"/><ellipse cx="412.25" cy="26" fill="#B4A7E5" rx="11" ry="11" style="stroke:#A80036;stroke-width:1.0;"/><path d="M413.2031,22.7813 L414.9219,22.7813 C415.3125,22.7813 415.5,22.75 415.625,22.6719 C415.8906,22.5156 416.0313,22.2344 416.0313,21.9375 C416.0313,21.6719 415.9219,21.4063 415.6875,21.2344 C415.5156,21.125 415.375,21.0938 414.9219,21.0938 L409.7813,21.0938 C409.3438,21.0938 409.2188,21.1094 409.0625,21.2031 C408.8125,21.3594 408.6563,21.6563 408.6563,21.9375 C408.6563,22.2188 408.7969,22.4688 409.0156,22.6406 C409.1719,22.75 409.3594,22.7813 409.7813,22.7813 L411.5,22.7813 L411.5,29.2969 L409.7813,29.2969 C409.3438,29.2969 409.2188,29.3125 409.0625,29.4219 C408.8125,29.5781 408.6563,29.8594 408.6563,30.1563 C408.6563,30.4063 408.7969,30.6719 409.0156,30.8281 C409.1719,30.9531 409.375,31 409.7813,31 L414.9219,31 C415.6719,31 416.0313,30.7188 416.0313,30.1563 C416.0313,29.875 415.9219,29.625 415.6875,29.4531 C415.5156,29.3281 415.375,29.2969 414.9219,29.2969 L413.2031,29.2969 L413.2031,22.7813 Z " fill="#000000"/><text fill="#000000" font-family="sans-serif" font-size="12" font-style="italic" lengthAdjust="spacing" textLength="71" x="432.75" y="30.1543">Comparator</text><rect fill="#FFFFFF" height="15.9688" style="stroke:#000000;stroke-width:1.0;stroke-dasharray:2.0,2.0;" width="54" x="541" y="7"/><text fill="#000000" font-family="sans-serif" font-size="12" font-style="italic" lengthAdjust="spacing" textLength="52" x="542" y="19.1387">Employe</text><line style="stroke:#A80036;stroke-width:1.5;" x1="369" x2="591" y1="42" y2="42"/><line style="stroke:#A80036;stroke-width:1.5;" x1="369" x2="591" y1="50" y2="50"/><text fill="#000000" font-family="sans-serif" font-size="11" lengthAdjust="spacing" textLength="212" x="374" y="64.2104">compare(o1:Employ, o2:Employe): int</text><!--MD5=[4cfdfbac69bf341847e8216dc9f80f0e]
reverse link Comparator to AgeComparator--><path codeLine="20" d="M557.935,79.903 C601.63,101.433 655.306,127.8825 695.753,147.8131 " fill="none" id="Comparator-backto-AgeComparator" style="stroke:#A80036;stroke-width:1.0;stroke-dasharray:7.0,7.0;"/><polygon fill="none" points="554.734,86.129,539.888,71.01,560.922,73.571,554.734,86.129" style="stroke:#A80036;stroke-width:1.0;"/><!--MD5=[39236fb042c08ca75a56df25feb44a20]
reverse link Comparator to EmbaucheComparator--><path codeLine="21" d="M611.655,74.967 C701.071,97.697 818.054,127.4351 902.994,149.0275 " fill="none" id="Comparator-backto-EmbaucheComparator" style="stroke:#A80036;stroke-width:1.0;stroke-dasharray:7.0,7.0;"/><polygon fill="none" points="609.812,81.722,592.154,70.01,613.262,68.153,609.812,81.722" style="stroke:#A80036;stroke-width:1.0;"/><!--MD5=[5ee5c04ed6a437c575eeb89367dd9f82]
reverse link Comparator to PrenomComparateur--><path codeLine="22" d="M409.863,80.916 C371.886,102.258 325.736,128.1939 290.825,147.8131 " fill="none" id="Comparator-backto-PrenomComparateur" style="stroke:#A80036;stroke-width:1.0;stroke-dasharray:7.0,7.0;"/><polygon fill="none" points="406.625,74.706,427.49,71.01,413.484,86.911,406.625,74.706" style="stroke:#A80036;stroke-width:1.0;"/><!--MD5=[0f030d32b225475c83556d9b38ae6ada]
reverse link Comparator to SalaireComparateur--><path codeLine="23" d="M486.207,91.156 C488.572,110.0754 491.193,131.0431 493.26,147.578 " fill="none" id="Comparator-backto-SalaireComparateur" style="stroke:#A80036;stroke-width:1.0;stroke-dasharray:7.0,7.0;"/><polygon fill="none" points="479.224,91.724,483.689,71.01,493.115,89.987,479.224,91.724" style="stroke:#A80036;stroke-width:1.0;"/><!--MD5=[b760a66a574d240778beeb67d770afaa]
link Compagnie to Employe--><path codeLine="24" d="M56.3229,64.511 C52.2645,75.369 48.0231,88.632 46,101 C43.4203,116.7713 43.9255,134.6029 45.187,149.0807 " fill="none" id="Compagnie-to-Employe" style="stroke:#A80036;stroke-width:1.0;"/><polygon fill="#A80036" points="45.6816,154.2528,48.8064,144.9128,45.2055,149.2755,40.8427,145.6746,45.6816,154.2528" style="stroke:#A80036;stroke-width:1.0;"/><text fill="#000000" font-family="sans-serif" font-size="13" lengthAdjust="spacing" textLength="51" x="47" y="114.0669">emploie</text><text fill="#000000" font-family="sans-serif" font-size="13" lengthAdjust="spacing" textLength="8" x="44.8181" y="84.6696">1</text><text fill="#000000" font-family="sans-serif" font-size="13" lengthAdjust="spacing" textLength="7" x="37.0196" y="143.5975">*</text><!--MD5=[e3303254cc5b51a59876f0ea2f8cbe49]
link Compagnie to Comparator--><path codeLine="25" d="M116.351,40.5 C177.079,40.5 281.126,40.5 362.407,40.5 " fill="none" id="Compagnie-to-Comparator" style="stroke:#A80036;stroke-width:1.0;"/><polygon fill="#A80036" points="367.727,40.5,358.727,36.5,362.727,40.5,358.727,44.5,367.727,40.5" style="stroke:#A80036;stroke-width:1.0;"/><text fill="#000000" font-family="sans-serif" font-size="13" lengthAdjust="spacing" textLength="181" x="151.5" y="33.5669">compare les employés avec</text><text fill="#000000" font-family="sans-serif" font-size="13" lengthAdjust="spacing" textLength="8" x="351.9149" y="37.074">1</text><!--MD5=[5808c2d7640c5728af6da308b8158837]
link Comparator to Employe--><path codeLine="26" d="M367.805,66.334 C292.747,84.703 192.603,112.6333 108,148 C104.0509,149.6508 99.9974,151.4484 95.9541,153.3147 " fill="none" id="Comparator-to-Employe" style="stroke:#A80036;stroke-width:1.0;stroke-dasharray:7.0,7.0;"/><polygon fill="#A80036" points="91.2191,155.5325,101.066,155.3372,95.747,153.4116,97.6726,148.0926,91.2191,155.5325" style="stroke:#A80036;stroke-width:1.0;"/><text fill="#000000" font-family="sans-serif" font-size="13" lengthAdjust="spacing" textLength="89" x="240" y="114.0669">dépendant de</text><!--MD5=[23248566ab1f1f1e3d909c1ab576c4b4]
@startuml
class AgeComparator{
     compare(o1:Employ, o2:Employe): int
}
class Compagnie{}
Class EmbaucheComparator{
     compare(o1:Employ, o2:Employe): int
}
Class Employe{}
Class PrenomComparateur{
     compare(o1:Employ, o2:Employe): int
}
Class SalaireComparateur{
     compare(o1:Employ, o2:Employe): int
}

Interface Comparator<Employe>{
    compare(o1:Employ, o2:Employe): int
}

AgeComparator .up-|> Comparator
EmbaucheComparator .up-|> Comparator
PrenomComparateur .up-|> Comparator
SalaireComparateur .up-|> Comparator
Compagnie "1" - -> "*" Employe : emploie
Compagnie  -right-> "1" Comparator: compare les employés avec
Comparator ..> Employe: dépendant de
@enduml

PlantUML version 1.2021.01beta3(Unknown compile time)
(GPL source distribution)
Java Runtime: Java(TM) SE Runtime Environment
JVM: Java HotSpot(TM) 64-Bit Server VM
Default Encoding: UTF-8
Language: en
Country: US
--></g></svg>