<?xml version="1.0" encoding="UTF-8" standalone="no"?><svg xmlns="http://www.w3.org/2000/svg" xmlns:xlink="http://www.w3.org/1999/xlink" contentScriptType="application/ecmascript" contentStyleType="text/css" height="743px" preserveAspectRatio="none" style="width:1580px;height:743px;" version="1.1" viewBox="0 0 1580 743" width="1580px" zoomAndPan="magnify"><defs/><g><text fill="#000000" font-family="sans-serif" font-size="18" lengthAdjust="spacing" textLength="498" x="540.5" y="28.708">Diagramme de séquence PatronStragégieComparator</text><rect fill="#FFFFFF" height="104.5313" style="stroke:#000000;stroke-width:2.0;" width="673.5" x="460.5" y="487.2656"/><line style="stroke:#A80036;stroke-width:1.0;" x1="25" x2="25" y1="119.25" y2="294.4375"/><line style="stroke:#A80036;stroke-width:1.0;stroke-dasharray:1.0,4.0;" x1="25" x2="25" y1="294.4375" y2="322.4375"/><line style="stroke:#A80036;stroke-width:1.0;" x1="25" x2="25" y1="322.4375" y2="698.3594"/><line style="stroke:#A80036;stroke-width:1.0;stroke-dasharray:1.0,4.0;" x1="25" x2="25" y1="698.3594" y2="726.3594"/><line style="stroke:#A80036;stroke-width:1.0;" x1="25" x2="25" y1="726.3594" y2="736.3594"/><line style="stroke:#A80036;stroke-width:1.0;" x1="332.5" x2="332.5" y1="159.8984" y2="294.4375"/><line style="stroke:#A80036;stroke-width:1.0;stroke-dasharray:1.0,4.0;" x1="332.5" x2="332.5" y1="294.4375" y2="322.4375"/><line style="stroke:#A80036;stroke-width:1.0;" x1="332.5" x2="332.5" y1="322.4375" y2="698.3594"/><line style="stroke:#A80036;stroke-width:1.0;stroke-dasharray:1.0,4.0;" x1="332.5" x2="332.5" y1="698.3594" y2="726.3594"/><line style="stroke:#A80036;stroke-width:1.0;" x1="332.5" x2="332.5" y1="726.3594" y2="736.3594"/><line style="stroke:#A80036;stroke-width:1.0;" x1="520.5" x2="520.5" y1="201.1953" y2="294.4375"/><line style="stroke:#A80036;stroke-width:1.0;stroke-dasharray:1.0,4.0;" x1="520.5" x2="520.5" y1="294.4375" y2="322.4375"/><line style="stroke:#A80036;stroke-width:1.0;" x1="520.5" x2="520.5" y1="322.4375" y2="698.3594"/><line style="stroke:#A80036;stroke-width:1.0;stroke-dasharray:1.0,4.0;" x1="520.5" x2="520.5" y1="698.3594" y2="726.3594"/><line style="stroke:#A80036;stroke-width:1.0;" x1="520.5" x2="520.5" y1="726.3594" y2="736.3594"/><line style="stroke:#A80036;stroke-width:1.0;" x1="710" x2="710" y1="242.4922" y2="294.4375"/><line style="stroke:#A80036;stroke-width:1.0;stroke-dasharray:1.0,4.0;" x1="710" x2="710" y1="294.4375" y2="322.4375"/><line style="stroke:#A80036;stroke-width:1.0;" x1="710" x2="710" y1="322.4375" y2="698.3594"/><line style="stroke:#A80036;stroke-width:1.0;stroke-dasharray:1.0,4.0;" x1="710" x2="710" y1="698.3594" y2="726.3594"/><line style="stroke:#A80036;stroke-width:1.0;" x1="710" x2="710" y1="726.3594" y2="736.3594"/><line style="stroke:#A80036;stroke-width:1.0;" x1="897" x2="897" y1="382.2188" y2="698.3594"/><line style="stroke:#A80036;stroke-width:1.0;stroke-dasharray:1.0,4.0;" x1="897" x2="897" y1="698.3594" y2="726.3594"/><line style="stroke:#A80036;stroke-width:1.0;" x1="897" x2="897" y1="726.3594" y2="736.3594"/><line style="stroke:#A80036;stroke-width:1.0;" x1="1047" x2="1047" y1="283.7891" y2="294.4375"/><line style="stroke:#A80036;stroke-width:1.0;stroke-dasharray:1.0,4.0;" x1="1047" x2="1047" y1="294.4375" y2="322.4375"/><line style="stroke:#A80036;stroke-width:1.0;" x1="1047" x2="1047" y1="322.4375" y2="698.3594"/><line style="stroke:#A80036;stroke-width:1.0;stroke-dasharray:1.0,4.0;" x1="1047" x2="1047" y1="698.3594" y2="726.3594"/><line style="stroke:#A80036;stroke-width:1.0;" x1="1047" x2="1047" y1="726.3594" y2="736.3594"/><line style="stroke:#A80036;stroke-width:1.0;" x1="1172" x2="1172" y1="119.25" y2="294.4375"/><line style="stroke:#A80036;stroke-width:1.0;stroke-dasharray:1.0,4.0;" x1="1172" x2="1172" y1="294.4375" y2="322.4375"/><line style="stroke:#A80036;stroke-width:1.0;" x1="1172" x2="1172" y1="322.4375" y2="698.3594"/><line style="stroke:#A80036;stroke-width:1.0;stroke-dasharray:1.0,4.0;" x1="1172" x2="1172" y1="698.3594" y2="726.3594"/><line style="stroke:#A80036;stroke-width:1.0;" x1="1172" x2="1172" y1="726.3594" y2="736.3594"/><line style="stroke:#A80036;stroke-width:1.0;" x1="1264" x2="1264" y1="119.25" y2="294.4375"/><line style="stroke:#A80036;stroke-width:1.0;stroke-dasharray:1.0,4.0;" x1="1264" x2="1264" y1="294.4375" y2="322.4375"/><line style="stroke:#A80036;stroke-width:1.0;" x1="1264" x2="1264" y1="322.4375" y2="698.3594"/><line style="stroke:#A80036;stroke-width:1.0;stroke-dasharray:1.0,4.0;" x1="1264" x2="1264" y1="698.3594" y2="726.3594"/><line style="stroke:#A80036;stroke-width:1.0;" x1="1264" x2="1264" y1="726.3594" y2="736.3594"/><line style="stroke:#A80036;stroke-width:1.0;" x1="1366" x2="1366" y1="119.25" y2="294.4375"/><line style="stroke:#A80036;stroke-width:1.0;stroke-dasharray:1.0,4.0;" x1="1366" x2="1366" y1="294.4375" y2="322.4375"/><line style="stroke:#A80036;stroke-width:1.0;" x1="1366" x2="1366" y1="322.4375" y2="698.3594"/><line style="stroke:#A80036;stroke-width:1.0;stroke-dasharray:1.0,4.0;" x1="1366" x2="1366" y1="698.3594" y2="726.3594"/><line style="stroke:#A80036;stroke-width:1.0;" x1="1366" x2="1366" y1="726.3594" y2="736.3594"/><line style="stroke:#A80036;stroke-width:1.0;" x1="1499" x2="1499" y1="658.5781" y2="698.3594"/><line style="stroke:#A80036;stroke-width:1.0;stroke-dasharray:1.0,4.0;" x1="1499" x2="1499" y1="698.3594" y2="726.3594"/><line style="stroke:#A80036;stroke-width:1.0;" x1="1499" x2="1499" y1="726.3594" y2="736.3594"/><text fill="#000000" font-family="sans-serif" font-size="14" lengthAdjust="spacing" textLength="35" x="5" y="115.9482">main</text><ellipse cx="25.5" cy="49.9531" fill="#FEFECE" rx="8" ry="8" style="stroke:#A80036;stroke-width:2.0;"/><path d="M25.5,57.9531 L25.5,84.9531 M12.5,65.9531 L38.5,65.9531 M25.5,84.9531 L12.5,99.9531 M25.5,84.9531 L38.5,99.9531 " fill="none" style="stroke:#A80036;stroke-width:2.0;"/><rect fill="#FEFECE" height="30.2969" style="stroke:#A80036;stroke-width:1.5;" width="77" x="1134" y="87.9531"/><text fill="#000000" font-family="sans-serif" font-size="14" lengthAdjust="spacing" textLength="63" x="1141" y="107.9482">Employe</text><rect fill="#FEFECE" height="30.2969" style="stroke:#A80036;stroke-width:1.5;" width="87" x="1221" y="87.9531"/><text fill="#000000" font-family="sans-serif" font-size="14" lengthAdjust="spacing" textLength="73" x="1228" y="107.9482">Collection</text><rect fill="#FEFECE" height="30.2969" style="stroke:#A80036;stroke-width:1.5;" width="97" x="1318" y="87.9531"/><text fill="#000000" font-family="sans-serif" font-size="14" lengthAdjust="spacing" textLength="83" x="1325" y="107.9482">System.out</text><polygon fill="#A80036" points="193.5,146.3828,203.5,150.3828,193.5,154.3828" style="stroke:#A80036;stroke-width:1.0;"/><line style="stroke:#A80036;stroke-width:1.0;" x1="25.5" x2="199.5" y1="150.3828" y2="150.3828"/><text fill="#000000" font-family="sans-serif" font-size="13" lengthAdjust="spacing" textLength="156" x="32.5" y="145.3169">ageComparator = new()</text><rect fill="#FEFECE" height="30.2969" style="stroke:#A80036;stroke-width:1.5;" width="255" x="205.5" y="129.25"/><text fill="#000000" font-family="sans-serif" font-size="14" lengthAdjust="spacing" textLength="241" x="212.5" y="149.2451">ageComparateur:AgeComparator</text><polygon fill="#A80036" points="458.5,187.6797,468.5,191.6797,458.5,195.6797" style="stroke:#A80036;stroke-width:1.0;"/><line style="stroke:#A80036;stroke-width:1.0;" x1="25.5" x2="464.5" y1="191.6797" y2="191.6797"/><text fill="#000000" font-family="sans-serif" font-size="13" lengthAdjust="spacing" textLength="227" x="32.5" y="186.6138">compagnie = new(ageComparator)</text><rect fill="#FEFECE" height="30.2969" style="stroke:#A80036;stroke-width:1.5;" width="101" x="470.5" y="170.5469"/><text fill="#000000" font-family="sans-serif" font-size="14" lengthAdjust="spacing" textLength="87" x="477.5" y="190.542">:Compagnie</text><polygon fill="#A80036" points="584,228.9766,594,232.9766,584,236.9766" style="stroke:#A80036;stroke-width:1.0;"/><line style="stroke:#A80036;stroke-width:1.0;stroke-dasharray:2.0,2.0;" x1="521" x2="590" y1="232.9766" y2="232.9766"/><text fill="#000000" font-family="sans-serif" font-size="13" lengthAdjust="spacing" textLength="51" x="528" y="227.9106">create()</text><rect fill="#FEFECE" height="30.2969" style="stroke:#A80036;stroke-width:1.5;" width="229" x="596" y="211.8438"/><text fill="#000000" font-family="sans-serif" font-size="14" lengthAdjust="spacing" textLength="215" x="603" y="231.8389">listEmploye[i]:List&lt;Employe&gt;</text><polygon fill="#A80036" points="958,270.2734,968,274.2734,958,278.2734" style="stroke:#A80036;stroke-width:1.0;"/><line style="stroke:#A80036;stroke-width:1.0;stroke-dasharray:2.0,2.0;" x1="25.5" x2="964" y1="274.2734" y2="274.2734"/><text fill="#000000" font-family="sans-serif" font-size="13" lengthAdjust="spacing" textLength="565" x="32.5" y="269.2075">crate("gendron","Yves",LocalDate.of(1990, 10, 18), LocalDate.of(2015,  2, 28),  40000.0)</text><rect fill="#FEFECE" height="30.2969" style="stroke:#A80036;stroke-width:1.5;" width="154" x="970" y="253.1406"/><text fill="#000000" font-family="sans-serif" font-size="14" lengthAdjust="spacing" textLength="140" x="977" y="273.1357">employe1:Employe</text><polygon fill="#A80036" points="509,339.5703,519,343.5703,509,347.5703" style="stroke:#A80036;stroke-width:1.0;"/><line style="stroke:#A80036;stroke-width:1.0;" x1="25.5" x2="515" y1="343.5703" y2="343.5703"/><text fill="#000000" font-family="sans-serif" font-size="13" lengthAdjust="spacing" textLength="112" x="32.5" y="338.5044">temp = toString()</text><polygon fill="#A80036" points="823,368.7031,833,372.7031,823,376.7031" style="stroke:#A80036;stroke-width:1.0;"/><line style="stroke:#A80036;stroke-width:1.0;stroke-dasharray:2.0,2.0;" x1="521" x2="829" y1="372.7031" y2="372.7031"/><text fill="#000000" font-family="sans-serif" font-size="13" lengthAdjust="spacing" textLength="51" x="528" y="367.6372">create()</text><rect fill="#FEFECE" height="30.2969" style="stroke:#A80036;stroke-width:1.5;" width="125" x="835" y="351.5703"/><text fill="#000000" font-family="sans-serif" font-size="14" lengthAdjust="spacing" textLength="111" x="842" y="371.5654">sb:StringBuffer</text><polygon fill="#A80036" points="1160.5,410,1170.5,414,1160.5,418" style="stroke:#A80036;stroke-width:1.0;"/><line style="stroke:#A80036;stroke-width:1.0;" x1="521" x2="1166.5" y1="414" y2="414"/><text fill="#000000" font-family="sans-serif" font-size="13" lengthAdjust="spacing" textLength="174" x="528" y="408.9341">String entete = getEntete()</text><polygon fill="#A80036" points="885.5,439.1328,895.5,443.1328,885.5,447.1328" style="stroke:#A80036;stroke-width:1.0;"/><line style="stroke:#A80036;stroke-width:1.0;" x1="521" x2="891.5" y1="443.1328" y2="443.1328"/><text fill="#000000" font-family="sans-serif" font-size="13" lengthAdjust="spacing" textLength="100" x="528" y="438.0669">append(entete)</text><polygon fill="#A80036" points="1252.5,468.2656,1262.5,472.2656,1252.5,476.2656" style="stroke:#A80036;stroke-width:1.0;"/><line style="stroke:#A80036;stroke-width:1.0;" x1="521" x2="1258.5" y1="472.2656" y2="472.2656"/><text fill="#000000" font-family="sans-serif" font-size="13" lengthAdjust="spacing" textLength="214" x="528" y="467.1997">sort(listEmploye,ageComparator)</text><path d="M460.5,487.2656 L538.5,487.2656 L538.5,494.2656 L528.5,504.2656 L460.5,504.2656 L460.5,487.2656 " fill="#EEEEEE" style="stroke:#000000;stroke-width:1.0;"/><rect fill="none" height="104.5313" style="stroke:#000000;stroke-width:2.0;" width="673.5" x="460.5" y="487.2656"/><text fill="#000000" font-family="sans-serif" font-size="13" font-weight="bold" lengthAdjust="spacing" textLength="33" x="475.5" y="500.3325">loop</text><text fill="#000000" font-family="sans-serif" font-size="11" font-weight="bold" lengthAdjust="spacing" textLength="93" x="553.5" y="499.4761">[i&lt;liste.size()]</text><polygon fill="#A80036" points="698.5,521.5313,708.5,525.5313,698.5,529.5313" style="stroke:#A80036;stroke-width:1.0;"/><line style="stroke:#A80036;stroke-width:1.0;" x1="521" x2="704.5" y1="525.5313" y2="525.5313"/><text fill="#000000" font-family="sans-serif" font-size="13" lengthAdjust="spacing" textLength="120" x="528" y="520.4653">Employe e = get(i)</text><polygon fill="#A80036" points="1035,550.6641,1045,554.6641,1035,558.6641" style="stroke:#A80036;stroke-width:1.0;"/><line style="stroke:#A80036;stroke-width:1.0;" x1="521" x2="1041" y1="554.6641" y2="554.6641"/><text fill="#000000" font-family="sans-serif" font-size="13" lengthAdjust="spacing" textLength="143" x="528" y="549.5981">String info = toString()</text><polygon fill="#A80036" points="885.5,579.7969,895.5,583.7969,885.5,587.7969" style="stroke:#A80036;stroke-width:1.0;"/><line style="stroke:#A80036;stroke-width:1.0;" x1="521" x2="891.5" y1="583.7969" y2="583.7969"/><text fill="#000000" font-family="sans-serif" font-size="13" lengthAdjust="spacing" textLength="82" x="528" y="578.731">append(info)</text><polygon fill="#A80036" points="1354.5,615.9297,1364.5,619.9297,1354.5,623.9297" style="stroke:#A80036;stroke-width:1.0;"/><line style="stroke:#A80036;stroke-width:1.0;" x1="25.5" x2="1360.5" y1="619.9297" y2="619.9297"/><text fill="#000000" font-family="sans-serif" font-size="13" lengthAdjust="spacing" textLength="84" x="32.5" y="614.8638">println(temp)</text><polygon fill="#A80036" points="1413,645.0625,1423,649.0625,1413,653.0625" style="stroke:#A80036;stroke-width:1.0;"/><line style="stroke:#A80036;stroke-width:1.0;stroke-dasharray:2.0,2.0;" x1="25.5" x2="1419" y1="649.0625" y2="649.0625"/><text fill="#000000" font-family="sans-serif" font-size="13" lengthAdjust="spacing" textLength="174" x="32.5" y="643.9966">salaireComparator = new()</text><rect fill="#FEFECE" height="30.2969" style="stroke:#A80036;stroke-width:1.5;" width="149" x="1425" y="627.9297"/><text fill="#000000" font-family="sans-serif" font-size="14" lengthAdjust="spacing" textLength="135" x="1432" y="647.9248">SalaireComparator</text><polygon fill="#A80036" points="509,686.3594,519,690.3594,509,694.3594" style="stroke:#A80036;stroke-width:1.0;"/><line style="stroke:#A80036;stroke-width:1.0;" x1="25.5" x2="515" y1="690.3594" y2="690.3594"/><text fill="#000000" font-family="sans-serif" font-size="13" lengthAdjust="spacing" textLength="281" x="32.5" y="685.2935">setComparatorStrategy(salaireComparator)</text><!--MD5=[1e91ae9f5327d9bd6e8196ba16ea77a9]
@startuml
skinparam Style strictuml
title Diagramme de séquence PatronStragégieComparator

actor main
participant "ageComparateur:AgeComparator" as AC
participant ":Compagnie" as C
participant "listEmploye[i]:List<Employe>" as LE
participant "sb:StringBuffer" as SB
participant "employe1:Employe" as E

main -> AC ** : ageComparator = new()
main -> C ** : compagnie = new(ageComparator)
C - -> LE **: create()
main - -> E **: crate("gendron","Yves",LocalDate.of(1990, 10, 18), LocalDate.of(2015,  2, 28),  40000.0)
...
main -> C : temp = toString()
C - -> SB**: create()
C -> "Employe": String entete = getEntete()
C -> SB: append(entete)
C -> "Collection": sort(listEmploye,ageComparator)
loop i<liste.size()
C -> LE: Employe e = get(i)
C -> E: String info = toString()
C -> SB: append(info)
end
main -> System.out : println(temp)

main - -> SalaireComparator ** : salaireComparator = new()
main -> C : setComparatorStrategy(salaireComparator)
...
@enduml

PlantUML version 1.2021.01beta3(Unknown compile time)
(GPL source distribution)
Java Runtime: Java(TM) SE Runtime Environment
JVM: Java HotSpot(TM) 64-Bit Server VM
Default Encoding: UTF-8
Language: en
Country: US
--></g></svg>