<?xml version="1.0" encoding="UTF-8" standalone="no"?><svg xmlns="http://www.w3.org/2000/svg" xmlns:xlink="http://www.w3.org/1999/xlink" contentScriptType="application/ecmascript" contentStyleType="text/css" height="388px" preserveAspectRatio="none" style="width:392px;height:388px;" version="1.1" viewBox="0 0 392 388" width="392px" zoomAndPan="magnify"><defs><filter height="300%" id="f19ros39h9nfon" width="300%" x="-1" y="-1"><feGaussianBlur result="blurOut" stdDeviation="2.0"/><feColorMatrix in="blurOut" result="blurOut2" type="matrix" values="0 0 0 0 0 0 0 0 0 0 0 0 0 0 0 0 0 0 .4 0"/><feOffset dx="4.0" dy="4.0" in="blurOut2" result="blurOut3"/><feBlend in="SourceGraphic" in2="blurOut3" mode="normal"/></filter></defs><g><!--MD5=[5a825045de92963057a762c497735495]
class IBrakeBehavior--><rect codeLine="1" fill="#FEFECE" filter="url(#f19ros39h9nfon)" height="66.7422" id="IBrakeBehavior" style="stroke:#A80036;stroke-width:1.5;" width="122" x="42.5" y="170"/><ellipse cx="57.5" cy="188.9688" fill="#B4A7E5" rx="11" ry="11" style="stroke:#A80036;stroke-width:1.0;"/><path d="M58.4531,185.75 L60.1719,185.75 C60.5625,185.75 60.75,185.7188 60.875,185.6406 C61.1406,185.4844 61.2813,185.2031 61.2813,184.9063 C61.2813,184.6406 61.1719,184.375 60.9375,184.2031 C60.7656,184.0938 60.625,184.0625 60.1719,184.0625 L55.0313,184.0625 C54.5938,184.0625 54.4688,184.0781 54.3125,184.1719 C54.0625,184.3281 53.9063,184.625 53.9063,184.9063 C53.9063,185.1875 54.0469,185.4375 54.2656,185.6094 C54.4219,185.7188 54.6094,185.75 55.0313,185.75 L56.75,185.75 L56.75,192.2656 L55.0313,192.2656 C54.5938,192.2656 54.4688,192.2813 54.3125,192.3906 C54.0625,192.5469 53.9063,192.8281 53.9063,193.125 C53.9063,193.375 54.0469,193.6406 54.2656,193.7969 C54.4219,193.9219 54.625,193.9688 55.0313,193.9688 L60.1719,193.9688 C60.9219,193.9688 61.2813,193.6875 61.2813,193.125 C61.2813,192.8438 61.1719,192.5938 60.9375,192.4219 C60.7656,192.2969 60.625,192.2656 60.1719,192.2656 L58.4531,192.2656 L58.4531,185.75 Z " fill="#000000"/><text fill="#000000" font-family="sans-serif" font-size="12" font-style="italic" lengthAdjust="spacing" textLength="68" x="82.5" y="186.1387">«Interface»</text><text fill="#000000" font-family="sans-serif" font-size="12" font-style="italic" lengthAdjust="spacing" textLength="90" x="71.5" y="200.1074">IBrakeBehavior</text><line style="stroke:#A80036;stroke-width:1.5;" x1="43.5" x2="163.5" y1="207.9375" y2="207.9375"/><line style="stroke:#A80036;stroke-width:1.5;" x1="43.5" x2="163.5" y1="215.9375" y2="215.9375"/><ellipse cx="53.5" cy="226.9375" fill="#84BE84" rx="3" ry="3" style="stroke:#038048;stroke-width:1.0;"/><text fill="#000000" font-family="sans-serif" font-size="11" lengthAdjust="spacing" textLength="40" x="62.5" y="230.1479">brake()</text><!--MD5=[58a65ff122c1d05e15d55f9233bbc566]
class Brake--><rect codeLine="5" fill="#FEFECE" filter="url(#f19ros39h9nfon)" height="60.8047" id="Brake" style="stroke:#A80036;stroke-width:1.5;" width="67" x="7" y="314"/><ellipse cx="22" cy="330" fill="#ADD1B2" rx="11" ry="11" style="stroke:#A80036;stroke-width:1.0;"/><path d="M24.3438,325.6719 C23.4063,325.2344 22.8125,325.0938 21.9375,325.0938 C19.3125,325.0938 17.3125,327.1719 17.3125,329.8906 L17.3125,331.0156 C17.3125,333.5938 19.4219,335.4844 22.3125,335.4844 C23.5313,335.4844 24.6875,335.1875 25.4375,334.6406 C26.0156,334.2344 26.3438,333.7813 26.3438,333.3906 C26.3438,332.9375 25.9531,332.5469 25.4844,332.5469 C25.2656,332.5469 25.0625,332.625 24.875,332.8125 C24.4219,333.2969 24.4219,333.2969 24.2344,333.3906 C23.8125,333.6563 23.125,333.7813 22.3594,333.7813 C20.3125,333.7813 19.0156,332.6875 19.0156,330.9844 L19.0156,329.8906 C19.0156,328.1094 20.2656,326.7969 22,326.7969 C22.5781,326.7969 23.1875,326.9531 23.6563,327.2031 C24.1406,327.4844 24.3125,327.7031 24.4063,328.1094 C24.4688,328.5156 24.5,328.6406 24.6406,328.7656 C24.7813,328.9063 25.0156,329.0156 25.2344,329.0156 C25.5,329.0156 25.7656,328.875 25.9375,328.6563 C26.0469,328.5 26.0781,328.3125 26.0781,327.8906 L26.0781,326.4688 C26.0781,326.0313 26.0625,325.9063 25.9688,325.75 C25.8125,325.4844 25.5313,325.3438 25.2344,325.3438 C24.9375,325.3438 24.7344,325.4375 24.5156,325.75 L24.3438,325.6719 Z " fill="#000000"/><text fill="#000000" font-family="sans-serif" font-size="12" lengthAdjust="spacing" textLength="35" x="36" y="334.1543">Brake</text><line style="stroke:#A80036;stroke-width:1.5;" x1="8" x2="73" y1="346" y2="346"/><line style="stroke:#A80036;stroke-width:1.5;" x1="8" x2="73" y1="354" y2="354"/><ellipse cx="18" cy="365" fill="#84BE84" rx="3" ry="3" style="stroke:#038048;stroke-width:1.0;"/><text fill="#000000" font-family="sans-serif" font-size="11" lengthAdjust="spacing" textLength="40" x="27" y="368.2104">brake()</text><!--MD5=[571edefb205a91dd00a7f42c4f3fff44]
class BrakeWithABS--><rect codeLine="9" fill="#FEFECE" filter="url(#f19ros39h9nfon)" height="60.8047" id="BrakeWithABS" style="stroke:#A80036;stroke-width:1.5;" width="117" x="109" y="314"/><ellipse cx="124" cy="330" fill="#ADD1B2" rx="11" ry="11" style="stroke:#A80036;stroke-width:1.0;"/><path d="M126.3438,325.6719 C125.4063,325.2344 124.8125,325.0938 123.9375,325.0938 C121.3125,325.0938 119.3125,327.1719 119.3125,329.8906 L119.3125,331.0156 C119.3125,333.5938 121.4219,335.4844 124.3125,335.4844 C125.5313,335.4844 126.6875,335.1875 127.4375,334.6406 C128.0156,334.2344 128.3438,333.7813 128.3438,333.3906 C128.3438,332.9375 127.9531,332.5469 127.4844,332.5469 C127.2656,332.5469 127.0625,332.625 126.875,332.8125 C126.4219,333.2969 126.4219,333.2969 126.2344,333.3906 C125.8125,333.6563 125.125,333.7813 124.3594,333.7813 C122.3125,333.7813 121.0156,332.6875 121.0156,330.9844 L121.0156,329.8906 C121.0156,328.1094 122.2656,326.7969 124,326.7969 C124.5781,326.7969 125.1875,326.9531 125.6563,327.2031 C126.1406,327.4844 126.3125,327.7031 126.4063,328.1094 C126.4688,328.5156 126.5,328.6406 126.6406,328.7656 C126.7813,328.9063 127.0156,329.0156 127.2344,329.0156 C127.5,329.0156 127.7656,328.875 127.9375,328.6563 C128.0469,328.5 128.0781,328.3125 128.0781,327.8906 L128.0781,326.4688 C128.0781,326.0313 128.0625,325.9063 127.9688,325.75 C127.8125,325.4844 127.5313,325.3438 127.2344,325.3438 C126.9375,325.3438 126.7344,325.4375 126.5156,325.75 L126.3438,325.6719 Z " fill="#000000"/><text fill="#000000" font-family="sans-serif" font-size="12" lengthAdjust="spacing" textLength="85" x="138" y="334.1543">BrakeWithABS</text><line style="stroke:#A80036;stroke-width:1.5;" x1="110" x2="225" y1="346" y2="346"/><line style="stroke:#A80036;stroke-width:1.5;" x1="110" x2="225" y1="354" y2="354"/><ellipse cx="120" cy="365" fill="#84BE84" rx="3" ry="3" style="stroke:#038048;stroke-width:1.0;"/><text fill="#000000" font-family="sans-serif" font-size="11" lengthAdjust="spacing" textLength="40" x="129" y="368.2104">brake()</text><!--MD5=[3f0ef310aaa84a542276992c5216544d]
class Car--><rect codeLine="13" fill="#FEFECE" filter="url(#f19ros39h9nfon)" height="86.4141" id="Car" style="stroke:#A80036;stroke-width:1.5;" width="288" x="90.5" y="7"/><ellipse cx="220.25" cy="23" fill="#A9DCDF" rx="11" ry="11" style="stroke:#A80036;stroke-width:1.0;"/><path d="M222.3281,24.8125 L222.7188,25.7969 L222.3281,25.7969 C221.875,25.7969 221.7656,25.8125 221.6094,25.9219 C221.3594,26.0781 221.2031,26.3594 221.2031,26.6563 C221.2031,26.9219 221.3438,27.1719 221.5625,27.3281 C221.7031,27.4531 221.9063,27.5 222.3281,27.5 L224.6875,27.5 C225.0469,27.5 225.2656,27.4688 225.4063,27.375 C225.6563,27.2344 225.8125,26.9375 225.8125,26.6563 C225.8125,26.375 225.6719,26.125 225.4531,25.9688 C225.2813,25.8281 225.125,25.7969 224.6563,25.7969 L221.2656,17.5938 L217.5938,17.5938 C217.1406,17.5938 217.0156,17.6094 216.8594,17.7031 C216.6094,17.875 216.4531,18.1563 216.4531,18.4375 C216.4531,18.7188 216.5938,18.9688 216.8125,19.1406 C216.9844,19.25 217.1563,19.2813 217.5938,19.2813 L218.6719,19.2813 L216.0313,25.7969 C215.6094,25.7969 215.4531,25.8125 215.2969,25.9219 C215.0469,26.0781 214.8906,26.3594 214.8906,26.6563 C214.8906,27.2188 215.2656,27.5 216.0156,27.5 L218.2813,27.5 C218.6406,27.5 218.8594,27.4688 218.9844,27.375 C219.25,27.2344 219.3906,26.9375 219.3906,26.6563 C219.3906,26.375 219.2656,26.125 219.0469,25.9531 C218.875,25.8281 218.7344,25.7969 218.2813,25.7969 L217.8906,25.7969 L218.2813,24.8125 L222.3281,24.8125 Z M221.625,23.1094 L218.9531,23.1094 L220.2969,19.8438 L221.625,23.1094 Z " fill="#000000"/><text fill="#000000" font-family="sans-serif" font-size="12" font-style="italic" lengthAdjust="spacing" textLength="20" x="240.75" y="27.1543">Car</text><line style="stroke:#A80036;stroke-width:1.5;" x1="91.5" x2="377.5" y1="39" y2="39"/><rect fill="none" height="6" style="stroke:#C82930;stroke-width:1.0;" width="6" x="98.5" y="47"/><text fill="#000000" font-family="sans-serif" font-size="11" lengthAdjust="spacing" textLength="181" x="110.5" y="53.2104">brakeBehavior : IBrakeBehavior</text><line style="stroke:#A80036;stroke-width:1.5;" x1="91.5" x2="377.5" y1="59.8047" y2="59.8047"/><ellipse cx="101.5" cy="70.8047" fill="#84BE84" rx="3" ry="3" style="stroke:#038048;stroke-width:1.0;"/><text fill="#000000" font-family="sans-serif" font-size="11" lengthAdjust="spacing" textLength="72" x="110.5" y="74.0151">applyBrake()</text><ellipse cx="101.5" cy="83.6094" fill="#84BE84" rx="3" ry="3" style="stroke:#038048;stroke-width:1.0;"/><text fill="#000000" font-family="sans-serif" font-size="11" lengthAdjust="spacing" textLength="262" x="110.5" y="86.8198">setBrakeBehavior(IBrakeBehavior brakeType)</text><!--MD5=[2cebb1ad3ba26d3f5298024e3fd0acd0]
class Sedan--><rect codeLine="19" fill="#FEFECE" filter="url(#f19ros39h9nfon)" height="48" id="Sedan" style="stroke:#A80036;stroke-width:1.5;" width="70" x="199.5" y="179.5"/><ellipse cx="214.5" cy="195.5" fill="#ADD1B2" rx="11" ry="11" style="stroke:#A80036;stroke-width:1.0;"/><path d="M216.8438,191.1719 C215.9063,190.7344 215.3125,190.5938 214.4375,190.5938 C211.8125,190.5938 209.8125,192.6719 209.8125,195.3906 L209.8125,196.5156 C209.8125,199.0938 211.9219,200.9844 214.8125,200.9844 C216.0313,200.9844 217.1875,200.6875 217.9375,200.1406 C218.5156,199.7344 218.8438,199.2813 218.8438,198.8906 C218.8438,198.4375 218.4531,198.0469 217.9844,198.0469 C217.7656,198.0469 217.5625,198.125 217.375,198.3125 C216.9219,198.7969 216.9219,198.7969 216.7344,198.8906 C216.3125,199.1563 215.625,199.2813 214.8594,199.2813 C212.8125,199.2813 211.5156,198.1875 211.5156,196.4844 L211.5156,195.3906 C211.5156,193.6094 212.7656,192.2969 214.5,192.2969 C215.0781,192.2969 215.6875,192.4531 216.1563,192.7031 C216.6406,192.9844 216.8125,193.2031 216.9063,193.6094 C216.9688,194.0156 217,194.1406 217.1406,194.2656 C217.2813,194.4063 217.5156,194.5156 217.7344,194.5156 C218,194.5156 218.2656,194.375 218.4375,194.1563 C218.5469,194 218.5781,193.8125 218.5781,193.3906 L218.5781,191.9688 C218.5781,191.5313 218.5625,191.4063 218.4688,191.25 C218.3125,190.9844 218.0313,190.8438 217.7344,190.8438 C217.4375,190.8438 217.2344,190.9375 217.0156,191.25 L216.8438,191.1719 Z " fill="#000000"/><text fill="#000000" font-family="sans-serif" font-size="12" lengthAdjust="spacing" textLength="38" x="228.5" y="199.6543">Sedan</text><line style="stroke:#A80036;stroke-width:1.5;" x1="200.5" x2="268.5" y1="211.5" y2="211.5"/><line style="stroke:#A80036;stroke-width:1.5;" x1="200.5" x2="268.5" y1="219.5" y2="219.5"/><!--MD5=[2a092ef5c0f814ce7777359220baacc1]
class SUV--><rect codeLine="20" fill="#FEFECE" filter="url(#f19ros39h9nfon)" height="48" id="SUV" style="stroke:#A80036;stroke-width:1.5;" width="57" x="305" y="179.5"/><ellipse cx="320" cy="195.5" fill="#ADD1B2" rx="11" ry="11" style="stroke:#A80036;stroke-width:1.0;"/><path d="M322.3438,191.1719 C321.4063,190.7344 320.8125,190.5938 319.9375,190.5938 C317.3125,190.5938 315.3125,192.6719 315.3125,195.3906 L315.3125,196.5156 C315.3125,199.0938 317.4219,200.9844 320.3125,200.9844 C321.5313,200.9844 322.6875,200.6875 323.4375,200.1406 C324.0156,199.7344 324.3438,199.2813 324.3438,198.8906 C324.3438,198.4375 323.9531,198.0469 323.4844,198.0469 C323.2656,198.0469 323.0625,198.125 322.875,198.3125 C322.4219,198.7969 322.4219,198.7969 322.2344,198.8906 C321.8125,199.1563 321.125,199.2813 320.3594,199.2813 C318.3125,199.2813 317.0156,198.1875 317.0156,196.4844 L317.0156,195.3906 C317.0156,193.6094 318.2656,192.2969 320,192.2969 C320.5781,192.2969 321.1875,192.4531 321.6563,192.7031 C322.1406,192.9844 322.3125,193.2031 322.4063,193.6094 C322.4688,194.0156 322.5,194.1406 322.6406,194.2656 C322.7813,194.4063 323.0156,194.5156 323.2344,194.5156 C323.5,194.5156 323.7656,194.375 323.9375,194.1563 C324.0469,194 324.0781,193.8125 324.0781,193.3906 L324.0781,191.9688 C324.0781,191.5313 324.0625,191.4063 323.9688,191.25 C323.8125,190.9844 323.5313,190.8438 323.2344,190.8438 C322.9375,190.8438 322.7344,190.9375 322.5156,191.25 L322.3438,191.1719 Z " fill="#000000"/><text fill="#000000" font-family="sans-serif" font-size="12" lengthAdjust="spacing" textLength="25" x="334" y="199.6543">SUV</text><line style="stroke:#A80036;stroke-width:1.5;" x1="306" x2="361" y1="211.5" y2="211.5"/><line style="stroke:#A80036;stroke-width:1.5;" x1="306" x2="361" y1="219.5" y2="219.5"/><!--MD5=[b0f2eb746db4100043ddefb8deb30bf9]
reverse link IBrakeBehavior to Brake--><path codeLine="23" d="M80.4122,255.44 C71.4895,275.1263 61.5952,296.9566 53.8902,313.9566 " fill="none" id="IBrakeBehavior-backto-Brake" style="stroke:#A80036;stroke-width:1.0;stroke-dasharray:7.0,7.0;"/><polygon fill="none" points="74.0972,252.416,88.7293,237.089,86.8486,258.195,74.0972,252.416" style="stroke:#A80036;stroke-width:1.0;"/><text fill="#000000" font-family="sans-serif" font-size="13" lengthAdjust="spacing" textLength="20" x="75.5" y="280.0669">est</text><!--MD5=[b9a0a5e53b98d27dd0ffbc12ba92287b]
reverse link IBrakeBehavior to BrakeWithABS--><path codeLine="24" d="M126.954,255.44 C136.019,275.1263 146.07,296.9566 153.897,313.9566 " fill="none" id="IBrakeBehavior-backto-BrakeWithABS" style="stroke:#A80036;stroke-width:1.0;stroke-dasharray:7.0,7.0;"/><polygon fill="none" points="120.511,258.184,118.505,237.089,133.228,252.329,120.511,258.184" style="stroke:#A80036;stroke-width:1.0;"/><text fill="#000000" font-family="sans-serif" font-size="13" lengthAdjust="spacing" textLength="20" x="140.5" y="280.0669">est</text><!--MD5=[1c7d892e44324a444661a882bd97c18b]
reverse link Car to SUV--><path codeLine="25" d="M273.206,110.232 C288.999,134.399 306.332,160.925 318.344,179.307 " fill="none" id="Car-backto-SUV" style="stroke:#A80036;stroke-width:1.0;"/><polygon fill="none" points="267.158,113.773,262.077,93.201,278.877,106.114,267.158,113.773" style="stroke:#A80036;stroke-width:1.0;"/><text fill="#000000" font-family="sans-serif" font-size="13" lengthAdjust="spacing" textLength="20" x="291.5" y="136.0669">est</text><!--MD5=[c16a9c39342443a9e3020775bf236396]
reverse link Car to Sedan--><path codeLine="26" d="M234.5,113.412 C234.5,136.702 234.5,161.728 234.5,179.307 " fill="none" id="Car-backto-Sedan" style="stroke:#A80036;stroke-width:1.0;"/><polygon fill="none" points="227.5,113.201,234.5,93.201,241.5,113.201,227.5,113.201" style="stroke:#A80036;stroke-width:1.0;"/><text fill="#000000" font-family="sans-serif" font-size="13" lengthAdjust="spacing" textLength="20" x="235.5" y="136.0669">est</text><!--MD5=[6480c57bade9926f33459326396f95a2]
link Car to IBrakeBehavior--><path codeLine="27" d="M198.009,93.201 C178.338,115.95 154.293,143.758 135.38,165.632 " fill="none" id="Car-to-IBrakeBehavior" style="stroke:#A80036;stroke-width:1.0;"/><polygon fill="#A80036" points="131.91,169.644,140.8235,165.4547,135.1813,165.8627,134.7733,160.2206,131.91,169.644" style="stroke:#A80036;stroke-width:1.0;"/><text fill="#000000" font-family="sans-serif" font-size="13" lengthAdjust="spacing" textLength="37" x="170.5" y="136.0669">utilise</text><text fill="#000000" font-family="sans-serif" font-size="13" lengthAdjust="spacing" textLength="8" x="128.5632" y="158.8646">1</text><!--MD5=[c02ce7d6d19388d2f94aa896d66910dd]
@startuml
Interface IBrakeBehavior <<Interface>>{
    +brake()
}

Class Brake {
    +brake()
}

Class BrakeWithABS {
    +brake()
}

Abstract Class Car {
    -brakeBehavior : IBrakeBehavior
    +applyBrake()
    +setBrakeBehavior(IBrakeBehavior brakeType)
}

Class Sedan{}
Class SUV{}


IBrakeBehavior <|.. Brake : est
IBrakeBehavior <|.. BrakeWithABS : est
Car <|- - SUV : est
Car <|- - Sedan : est
Car - -> "1" IBrakeBehavior : utilise
@enduml

PlantUML version 1.2021.01beta3(Unknown compile time)
(GPL source distribution)
Java Runtime: Java(TM) SE Runtime Environment
JVM: Java HotSpot(TM) 64-Bit Server VM
Default Encoding: UTF-8
Language: en
Country: US
--></g></svg>