<?xml version="1.0" encoding="UTF-8" standalone="no"?><svg xmlns="http://www.w3.org/2000/svg" xmlns:xlink="http://www.w3.org/1999/xlink" contentScriptType="application/ecmascript" contentStyleType="text/css" height="508px" preserveAspectRatio="none" style="width:711px;height:508px;" version="1.1" viewBox="0 0 711 508" width="711px" zoomAndPan="magnify"><defs/><g><text fill="#000000" font-family="sans-serif" font-size="18" lengthAdjust="spacing" textLength="356" x="177.25" y="28.708">Diagramme de séquence CartExample</text><path d="M32,71.25 L32.2802,71.25 L31.4476,81.2596 L32.2577,91.2693 L32.5329,101.2789 L31.0488,111.2885 L31.8964,121.2981 L31.4313,131.3078 L31.4887,141.3174 L31.9091,151.327 L31.0782,161.3367 L32.7382,171.3463 L31.1596,181.3559 L31.7363,191.3656 L32.5759,201.3752 L31.8856,211.3848 L32.091,221.3944 L31.9574,231.4041 L32.238,241.4137 L32.3188,251.4233 L32.7809,261.433 L32.8947,271.4426 L32.9057,281.4522 L32.3395,291.4618 L32.6181,301.4715 L32.9363,311.4811 L31.0384,321.4907 L32.9047,331.5004 L31.6047,341.51 L32.7117,351.5196 L31.34,361.5293 L31.9087,371.5389 L32.9888,381.5485 L31.935,391.5581 L32.1404,401.5678 L32.4515,411.5774 L32.555,421.587 L31.9948,431.5967 L32.383,441.6063 L31.2368,451.6159 L32.3792,461.6255 L32.7309,471.6352 L32.5927,481.6448 L32.8174,491.6544 L32,501.6641 " fill="none" style="stroke:#A80036;stroke-width:1.0;stroke-dasharray:5.0,5.0;"/><path d="M171,111.8984 L171.2802,111.8984 L170.4476,121.8924 L171.2577,131.8864 L171.5329,141.8804 L170.0488,151.8744 L170.8964,161.8684 L170.4313,171.8624 L170.4887,181.8564 L170.9091,191.8504 L170.0782,201.8444 L171.7382,211.8383 L170.1596,221.8323 L170.7363,231.8263 L171.5759,241.8203 L170.8856,251.8143 L171.091,261.8083 L170.9574,271.8023 L171.238,281.7963 L171.3188,291.7903 L171.7809,301.7843 L171.8947,311.7782 L171.9057,321.7722 L171.3395,331.7662 L171.6181,341.7602 L171.9363,351.7542 L170.0384,361.7482 L171.9047,371.7422 L170.6047,381.7362 L171.7117,391.7302 L170.34,401.7242 L170.9087,411.7181 L171.9888,421.7121 L170.935,431.7061 L171.1404,441.7001 L171.4515,451.6941 L171.555,461.6881 L170.9948,471.6821 L171.383,481.6761 L170.2368,491.6701 L171,501.6641 " fill="none" style="stroke:#A80036;stroke-width:1.0;stroke-dasharray:5.0,5.0;"/><path d="M276.5,153.1953 L276.7802,153.1953 L275.9476,163.1516 L276.7577,173.1078 L277.0329,183.0641 L275.5488,193.0203 L276.3964,202.9766 L275.9313,212.9328 L275.9887,222.8891 L276.4091,232.8453 L275.5782,242.8016 L277.2382,252.7578 L275.6596,262.7141 L276.2363,272.6703 L277.0759,282.6266 L276.3856,292.5828 L276.591,302.5391 L276.4574,312.4953 L276.738,322.4516 L276.8188,332.4078 L277.2809,342.3641 L277.3947,352.3203 L277.4057,362.2766 L276.8395,372.2328 L277.1181,382.1891 L277.4363,392.1453 L275.5384,402.1016 L277.4047,412.0578 L276.1047,422.0141 L277.2117,431.9703 L275.84,441.9266 L276.4087,451.8828 L277.4888,461.8391 L276.435,471.7953 L276.6404,481.7516 L276.9515,491.7078 L276.5,501.6641 " fill="none" style="stroke:#A80036;stroke-width:1.0;stroke-dasharray:5.0,5.0;"/><path d="M364.5,252.7578 L364.7802,252.7578 L363.9476,262.7141 L364.7577,272.6703 L365.0329,282.6266 L363.5488,292.5828 L364.3964,302.5391 L363.9313,312.4953 L363.9887,322.4516 L364.4091,332.4078 L363.5782,342.3641 L365.2382,352.3203 L363.6596,362.2766 L364.2363,372.2328 L365.0759,382.1891 L364.3856,392.1453 L364.591,402.1016 L364.4574,412.0578 L364.738,422.0141 L364.8188,431.9703 L365.2809,441.9266 L365.3947,451.8828 L365.4057,461.8391 L364.8395,471.7953 L365.1181,481.7516 L365.4363,491.7078 L364.5,501.6641 " fill="none" style="stroke:#A80036;stroke-width:1.0;stroke-dasharray:5.0,5.0;"/><path d="M501.5,294.0547 L501.7802,294.0547 L500.9476,303.9408 L501.7577,313.827 L502.0329,323.7132 L500.5488,333.5993 L501.3964,343.4855 L500.9313,353.3717 L500.9887,363.2578 L501.4091,373.144 L500.5782,383.0301 L502.2382,392.9163 L500.6596,402.8025 L501.2363,412.6886 L502.0759,422.5748 L501.3856,432.4609 L501.591,442.3471 L501.4574,452.2333 L501.738,462.1194 L501.8188,472.0056 L502.2809,481.8917 L502.3947,491.7779 L501.5,501.6641 " fill="none" style="stroke:#A80036;stroke-width:1.0;stroke-dasharray:5.0,5.0;"/><path d="M639.5,393.6172 L639.7802,393.6172 L638.9476,403.4396 L639.7577,413.2621 L640.0329,423.0845 L638.5488,432.907 L639.3964,442.7294 L638.9313,452.5518 L638.9887,462.3743 L639.4091,472.1967 L638.5782,482.0192 L640.2382,491.8416 L639.5,501.6641 " fill="none" style="stroke:#A80036;stroke-width:1.0;stroke-dasharray:5.0,5.0;"/><polygon fill="#FEFECE" points="5,39.9531,5,40.1633,15.8,39.5388,26.6,40.1464,37.4,40.3528,48.2,39.2397,59,39.9531,58.9741,39.9531,58.8578,46.0125,58.8722,52.0719,58.9773,58.1313,58.7695,64.1906,59,70.25,59,70.8036,48.2,69.6197,37.4,70.0522,26.6,70.6819,15.8,70.1642,5,70.25,5.0227,70.25,4.9894,64.1906,5.0595,58.1313,5.0797,52.0719,5.1952,46.0125,5,39.9531" style="stroke:#A80036;stroke-width:1.5;"/><text fill="#000000" font-family="sans-serif" font-size="14" lengthAdjust="spacing" textLength="40" x="12" y="59.9482">:main</text><polygon fill="#A80036" points="95,98.3828,95.026,98.4479,96.9487,99.0546,99.0239,100.0426,101.0495,100.9065,102.9117,101.362,105,102.3828,104.9904,102.3588,102.9472,103.0508,100.9525,103.8641,98.9916,104.7617,96.9144,105.3688,95,106.3828,95.1845,106.3828,94.7899,104.7828,94.9341,103.1828,95.144,101.5828,94.9714,99.9828,95,98.3828" style="stroke:#A80036;stroke-width:1.0;"/><path d="M32,102.3828 L32,102.6631 L41.8571,101.8304 L51.7143,102.6405 L61.5714,102.9157 L71.4286,101.4316 L81.2857,102.2792 L91.1429,101.8142 L101,102.3828 " fill="none" style="stroke:#A80036;stroke-width:1.0;stroke-dasharray:2.0,2.0;"/><text fill="#000000" font-family="sans-serif" font-size="13" lengthAdjust="spacing" textLength="51" x="39" y="97.3169">create()</text><polygon fill="#FEFECE" points="107,81.25,107,81.4602,116.9231,80.8357,126.8462,81.4433,136.7692,81.6497,146.6923,80.5366,156.6154,81.1723,166.5385,80.8235,176.4615,80.8665,186.3846,81.1818,196.3077,80.5586,206.2308,81.8036,216.1538,80.6197,226.0769,81.0522,236,81.25,236.144,81.25,235.9714,87.3094,236.0227,93.3688,235.9894,99.4281,236.0595,105.4875,236,111.5469,236,111.786,226.0769,112.1326,216.1538,112.2179,206.2308,112.2261,196.3077,111.8015,186.3846,112.0105,176.4615,112.2491,166.5385,110.8257,156.6154,112.2254,146.6923,111.2504,136.7692,112.0807,126.8462,111.0519,116.9231,111.4784,107,111.5469,107.2472,111.5469,106.9838,105.4875,107.0351,99.4281,107.1129,93.3688,107.1387,87.3094,107,81.25" style="stroke:#A80036;stroke-width:1.5;"/><text fill="#000000" font-family="sans-serif" font-size="14" lengthAdjust="spacing" textLength="115" x="114" y="101.2451">sedanCar:Sedan</text><polygon fill="#A80036" points="234.5,139.6797,234.526,139.7447,236.4487,140.3515,238.5239,141.3395,240.5495,142.2034,242.4117,142.6589,244.5,143.6797,244.4904,143.6556,242.4472,144.3477,240.4525,145.161,238.4916,146.0586,236.4144,146.6657,234.5,147.6797,234.6845,147.6797,234.2899,146.0797,234.4341,144.4797,234.644,142.8797,234.4714,141.2797,234.5,139.6797" style="stroke:#A80036;stroke-width:1.0;"/><path d="M171.5,143.6797 L171.5,143.9599 L181.3571,143.1273 L191.2143,143.9374 L201.0714,144.2126 L210.9286,142.7285 L220.7857,143.5761 L230.6429,143.111 L240.5,143.6797 " fill="none" style="stroke:#A80036;stroke-width:1.0;stroke-dasharray:2.0,2.0;"/><text fill="#000000" font-family="sans-serif" font-size="13" lengthAdjust="spacing" textLength="51" x="178.5" y="138.6138">create()</text><polygon fill="#FEFECE" points="246.5,122.5469,246.5,122.7571,256.6667,122.1326,266.8333,122.7402,277,122.9466,287.1667,121.8335,297.3333,122.4692,307.5,122.5469,307.3578,122.5469,307.3722,128.6063,307.4773,134.6656,307.2695,140.725,307.6845,146.7844,307.5,152.8438,307.5,152.2135,297.3333,152.646,287.1667,153.2757,277,152.758,266.8333,152.912,256.6667,152.8118,246.5,152.8438,246.5595,152.8438,246.5797,146.7844,246.6952,140.725,246.7237,134.6656,246.7264,128.6063,246.5,122.5469" style="stroke:#A80036;stroke-width:1.5;"/><text fill="#000000" font-family="sans-serif" font-size="14" lengthAdjust="spacing" textLength="47" x="253.5" y="142.542">:Brake</text><polygon fill="#A80036" points="159.5,180.9766,159.526,181.0416,161.4487,181.6483,163.5239,182.6364,165.5495,183.5003,167.4117,183.9558,169.5,184.9766,169.4904,184.9525,167.4472,185.6446,165.4525,186.4579,163.4916,187.3555,161.4144,187.9626,159.5,188.9766,159.6845,188.9766,159.2899,187.3766,159.4341,185.7766,159.644,184.1766,159.4714,182.5766,159.5,180.9766" style="stroke:#A80036;stroke-width:1.0;"/><path d="M32,184.9766 L32,185.2568 L42.2692,184.4241 L52.5385,185.2343 L62.8077,185.5095 L73.0769,184.0254 L83.3462,184.8729 L93.6154,184.4079 L103.8846,184.4652 L114.1538,184.8857 L124.4231,184.0547 L134.6923,185.7148 L144.9615,184.1362 L155.2308,184.7129 L165.5,184.9766 " fill="none" style="stroke:#A80036;stroke-width:1.0;"/><text fill="#000000" font-family="sans-serif" font-size="13" lengthAdjust="spacing" textLength="81" x="39" y="179.9106">applyBrake()</text><polygon fill="#A80036" points="265,210.1094,265.026,210.1744,266.9487,210.7811,269.0239,211.7692,271.0495,212.6331,272.9117,213.0886,275,214.1094,274.9904,214.0853,272.9472,214.7774,270.9525,215.5907,268.9916,216.4883,266.9144,217.0954,265,218.1094,265.1845,218.1094,264.7899,216.5094,264.9341,214.9094,265.144,213.3094,264.9714,211.7094,265,210.1094" style="stroke:#A80036;stroke-width:1.0;"/><path d="M171.5,214.1094 L171.5,214.3896 L181.45,213.5569 L191.4,214.3671 L201.35,214.6423 L211.3,213.1582 L221.25,214.0058 L231.2,213.5407 L241.15,213.598 L251.1,214.0185 L261.05,213.1875 L271,214.1094 " fill="none" style="stroke:#A80036;stroke-width:1.0;"/><text fill="#000000" font-family="sans-serif" font-size="13" lengthAdjust="spacing" textLength="46" x="178.5" y="209.0435">brake()</text><polygon fill="#A80036" points="305.5,239.2422,305.526,239.3072,307.4487,239.914,309.5239,240.902,311.5495,241.7659,313.4117,242.2214,315.5,243.2422,315.4904,243.2181,313.4472,243.9102,311.4525,244.7235,309.4916,245.6211,307.4144,246.2282,305.5,247.2422,305.6845,247.2422,305.2899,245.6422,305.4341,244.0422,305.644,242.4422,305.4714,240.8422,305.5,239.2422" style="stroke:#A80036;stroke-width:1.0;"/><path d="M32,243.2422 L32,243.5224 L41.9821,242.6898 L51.9643,243.4999 L61.9464,243.7751 L71.9286,242.291 L81.9107,243.1386 L91.8929,242.6735 L101.875,242.7309 L111.8571,243.1513 L121.8393,242.3204 L131.8214,243.9804 L141.8036,242.4018 L151.7857,242.9785 L161.7679,243.8181 L171.75,243.1278 L181.7321,243.3332 L191.7143,243.1996 L201.6964,243.4802 L211.6786,243.561 L221.6607,244.0231 L231.6429,244.1369 L241.625,244.1479 L251.6071,243.5817 L261.5893,243.8603 L271.5714,244.1785 L281.5536,242.2806 L291.5357,244.1469 L301.5179,242.8468 L311.5,243.2422 " fill="none" style="stroke:#A80036;stroke-width:1.0;stroke-dasharray:2.0,2.0;"/><text fill="#000000" font-family="sans-serif" font-size="13" lengthAdjust="spacing" textLength="51" x="39" y="238.1763">create()</text><polygon fill="#FEFECE" points="317.5,222.1094,317.5,222.3196,327.9444,221.6951,338.3889,222.3027,348.8333,222.5091,359.2778,221.396,369.7222,222.0317,380.1667,221.6829,390.6111,221.7259,401.0556,222.0412,411.5,222.1094,411.2695,222.1094,411.6845,228.1688,411.2899,234.2281,411.4341,240.2875,411.644,246.3469,411.5,252.4063,411.5,252.3205,401.0556,252.4745,390.6111,252.3743,380.1667,252.5848,369.7222,252.6454,359.2778,252.9919,348.8333,253.0773,338.3889,253.0855,327.9444,252.6609,317.5,252.4063,317.6545,252.4063,317.7341,246.3469,317.2596,240.2875,317.7262,234.2281,317.4012,228.1688,317.5,222.1094" style="stroke:#A80036;stroke-width:1.5;"/><text fill="#000000" font-family="sans-serif" font-size="14" lengthAdjust="spacing" textLength="80" x="324.5" y="242.1045">suvCar:SUV</text><path d="M437.5,284.5391 L437.5347,284.6258 L435.4316,283.5681 L433.5319,283.0188 L431.566,282.304 L429.3822,281.0447 L427.5,280.5391 " fill="none" style="stroke:#A80036;stroke-width:1.0;"/><path d="M437.5,284.5391 L437.5347,284.6258 L435.4316,285.1681 L433.5319,286.2188 L431.566,287.104 L429.3822,287.4447 L427.5,288.5391 " fill="none" style="stroke:#A80036;stroke-width:1.0;"/><path d="M364.5,284.5391 L364.5,284.8193 L375.0714,283.9866 L385.6429,284.7968 L396.2143,285.072 L406.7857,283.5879 L417.3571,284.4354 L427.9286,283.9704 L438.5,284.5391 " fill="none" style="stroke:#A80036;stroke-width:1.0;stroke-dasharray:2.0,2.0;"/><text fill="#000000" font-family="sans-serif" font-size="13" lengthAdjust="spacing" textLength="51" x="371.5" y="279.4731">create()</text><polygon fill="#FEFECE" points="439.5,263.4063,439.5,263.6164,449.8333,262.9919,460.1667,263.5995,470.5,263.8059,480.8333,262.6929,491.1667,263.3285,501.5,262.9798,511.8333,263.0228,522.1667,263.3381,532.5,262.7149,542.8333,263.9599,553.1667,262.776,563.5,263.4063,563.4341,263.4063,563.644,269.4656,563.4714,275.525,563.5227,281.5844,563.4894,287.6438,563.5,293.7031,563.5,293.8817,553.1667,293.9423,542.8333,294.2888,532.5,294.3742,522.1667,294.3824,511.8333,293.9578,501.5,294.1667,491.1667,294.4054,480.8333,292.9819,470.5,294.3816,460.1667,293.4066,449.8333,294.2369,439.5,293.7031,439.335,293.7031,439.4772,287.6438,439.7472,281.5844,439.4838,275.525,439.5351,269.4656,439.5,263.4063" style="stroke:#A80036;stroke-width:1.5;"/><text fill="#000000" font-family="sans-serif" font-size="14" lengthAdjust="spacing" textLength="110" x="446.5" y="283.4014">:BrakeWithABS</text><polygon fill="#A80036" points="352.5,321.8359,352.526,321.901,354.4487,322.5077,356.5239,323.4958,358.5495,324.3596,360.4117,324.8151,362.5,325.8359,362.4904,325.8119,360.4472,326.5039,358.4525,327.3172,356.4916,328.2148,354.4144,328.822,352.5,329.8359,352.6845,329.8359,352.2899,328.2359,352.4341,326.6359,352.644,325.0359,352.4714,323.4359,352.5,321.8359" style="stroke:#A80036;stroke-width:1.0;"/><path d="M32,325.8359 L32,326.1162 L41.8939,325.2835 L51.7879,326.0937 L61.6818,326.3688 L71.5758,324.8847 L81.4697,325.7323 L91.3636,325.2673 L101.2576,325.3246 L111.1515,325.7451 L121.0455,324.9141 L130.9394,326.5741 L140.8333,324.9956 L150.7273,325.5722 L160.6212,326.4119 L170.5152,325.7216 L180.4091,325.9269 L190.303,325.7933 L200.197,326.074 L210.0909,326.1548 L219.9848,326.6169 L229.8788,326.7307 L239.7727,326.7416 L249.6667,326.1754 L259.5606,326.4541 L269.4545,326.7722 L279.3485,324.8744 L289.2424,326.7406 L299.1364,325.4406 L309.0303,326.5477 L318.9242,325.1759 L328.8182,325.7446 L338.7121,326.8247 L348.6061,325.771 L358.5,325.8359 " fill="none" style="stroke:#A80036;stroke-width:1.0;"/><text fill="#000000" font-family="sans-serif" font-size="13" lengthAdjust="spacing" textLength="81" x="39" y="320.77">applyBrake()</text><polygon fill="#A80036" points="489.5,350.9688,489.526,351.0338,491.4487,351.6405,493.5239,352.6286,495.5495,353.4924,497.4117,353.948,499.5,354.9688,499.4904,354.9447,497.4472,355.6368,495.4525,356.4501,493.4916,357.3477,491.4144,357.9548,489.5,358.9688,489.6845,358.9688,489.2899,357.3688,489.4341,355.7688,489.644,354.1688,489.4714,352.5688,489.5,350.9688" style="stroke:#A80036;stroke-width:1.0;"/><path d="M364.5,354.9688 L364.5,355.249 L374.5769,354.4163 L384.6538,355.2265 L394.7308,355.5017 L404.8077,354.0176 L414.8846,354.8651 L424.9615,354.4001 L435.0385,354.4574 L445.1154,354.8779 L455.1923,354.0469 L465.2692,355.7069 L475.3462,354.1284 L485.4231,354.7051 L495.5,354.9688 " fill="none" style="stroke:#A80036;stroke-width:1.0;"/><text fill="#000000" font-family="sans-serif" font-size="13" lengthAdjust="spacing" textLength="46" x="371.5" y="349.9028">brake()</text><polygon fill="#A80036" points="561.5,380.1016,561.526,380.1666,563.4487,380.7733,565.5239,381.7614,567.5495,382.6253,569.4117,383.0808,571.5,384.1016,571.4904,384.0775,569.4472,384.7696,567.4525,385.5829,565.4916,386.4805,563.4144,387.0876,561.5,388.1016,561.6845,388.1016,561.2899,386.5016,561.4341,384.9016,561.644,383.3016,561.4714,381.7016,561.5,380.1016" style="stroke:#A80036;stroke-width:1.0;"/><path d="M32,384.1016 L32,384.3818 L41.9167,383.5491 L51.8333,384.3593 L61.75,384.6345 L71.6667,383.1504 L81.5833,383.9979 L91.5,383.5329 L101.4167,383.5902 L111.3333,384.0107 L121.25,383.1797 L131.1667,384.8398 L141.0833,383.2612 L151,383.8379 L160.9167,384.6775 L170.8333,383.9872 L180.75,384.1925 L190.6667,384.059 L200.5833,384.3396 L210.5,384.4204 L220.4167,384.8825 L230.3333,384.9963 L240.25,385.0072 L250.1667,384.4411 L260.0833,384.7197 L270,385.0379 L279.9167,383.14 L289.8333,385.0062 L299.75,383.7062 L309.6667,384.8133 L319.5833,383.4415 L329.5,384.0102 L339.4167,385.0904 L349.3333,384.0366 L359.25,384.242 L369.1667,384.5531 L379.0833,384.6565 L389,384.0964 L398.9167,384.4845 L408.8333,383.3383 L418.75,384.4807 L428.6667,384.8325 L438.5833,384.6943 L448.5,384.9189 L458.4167,383.4575 L468.3333,383.232 L478.25,383.273 L488.1667,384.0231 L498.0833,383.8395 L508,385.0101 L517.9167,383.8687 L527.8333,383.6442 L537.75,384.4059 L547.6667,383.2124 L557.5833,383.4094 L567.5,384.1016 " fill="none" style="stroke:#A80036;stroke-width:1.0;"/><text fill="#000000" font-family="sans-serif" font-size="13" lengthAdjust="spacing" textLength="51" x="39" y="379.0356">create()</text><polygon fill="#FEFECE" points="573.5,362.9688,573.5,363.1789,583.6538,362.5544,593.8077,363.162,603.9615,363.3684,614.1154,362.2554,624.2692,362.891,634.4231,362.5423,644.5769,362.5853,654.7308,362.9006,664.8846,362.2774,675.0385,363.5224,685.1923,362.3385,695.3462,362.771,705.5,362.9688,705.644,362.9688,705.4714,369.0281,705.5227,375.0875,705.4894,381.1469,705.5595,387.2063,705.5,393.2656,705.5,393.5048,695.3462,393.8513,685.1923,393.9367,675.0385,393.9449,664.8846,393.5203,654.7308,393.7292,644.5769,393.9679,634.4231,392.5444,624.2692,393.9441,614.1154,392.9691,603.9615,393.7994,593.8077,392.7706,583.6538,393.1971,573.5,393.2656,573.7472,393.2656,573.4838,387.2063,573.5351,381.1469,573.6129,375.0875,573.6387,369.0281,573.5,362.9688" style="stroke:#A80036;stroke-width:1.5;"/><text fill="#000000" font-family="sans-serif" font-size="14" lengthAdjust="spacing" textLength="118" x="580.5" y="382.9639">newBrake:Brake</text><polygon fill="#A80036" points="352.5,421.3984,352.526,421.4635,354.4487,422.0702,356.5239,423.0583,358.5495,423.9221,360.4117,424.3776,362.5,425.3984,362.4904,425.3744,360.4472,426.0664,358.4525,426.8797,356.4916,427.7773,354.4144,428.3845,352.5,429.3984,352.6845,429.3984,352.2899,427.7984,352.4341,426.1984,352.644,424.5984,352.4714,422.9984,352.5,421.3984" style="stroke:#A80036;stroke-width:1.0;"/><path d="M32,425.3984 L32,425.6787 L41.8939,424.846 L51.7879,425.6562 L61.6818,425.9313 L71.5758,424.4472 L81.4697,425.2948 L91.3636,424.8298 L101.2576,424.8871 L111.1515,425.3076 L121.0455,424.4766 L130.9394,426.1366 L140.8333,424.5581 L150.7273,425.1347 L160.6212,425.9744 L170.5152,425.2841 L180.4091,425.4894 L190.303,425.3558 L200.197,425.6365 L210.0909,425.7173 L219.9848,426.1794 L229.8788,426.2932 L239.7727,426.3041 L249.6667,425.7379 L259.5606,426.0166 L269.4545,426.3347 L279.3485,424.4369 L289.2424,426.3031 L299.1364,425.0031 L309.0303,426.1102 L318.9242,424.7384 L328.8182,425.3071 L338.7121,426.3872 L348.6061,425.3335 L358.5,425.3984 " fill="none" style="stroke:#A80036;stroke-width:1.0;"/><text fill="#000000" font-family="sans-serif" font-size="13" lengthAdjust="spacing" textLength="185" x="39" y="420.3325">setBrakeBehavior(newBrake)</text><polygon fill="#A80036" points="352.5,450.5313,352.526,450.5963,354.4487,451.203,356.5239,452.1911,358.5495,453.0549,360.4117,453.5105,362.5,454.5313,362.4904,454.5072,360.4472,455.1993,358.4525,456.0126,356.4916,456.9102,354.4144,457.5173,352.5,458.5313,352.6845,458.5313,352.2899,456.9313,352.4341,455.3313,352.644,453.7313,352.4714,452.1313,352.5,450.5313" style="stroke:#A80036;stroke-width:1.0;"/><path d="M32,454.5313 L32,454.8115 L41.8939,453.9788 L51.7879,454.789 L61.6818,455.0642 L71.5758,453.5801 L81.4697,454.4276 L91.3636,453.9626 L101.2576,454.0199 L111.1515,454.4404 L121.0455,453.6094 L130.9394,455.2694 L140.8333,453.6909 L150.7273,454.2676 L160.6212,455.1072 L170.5152,454.4169 L180.4091,454.6222 L190.303,454.4887 L200.197,454.7693 L210.0909,454.8501 L219.9848,455.3122 L229.8788,455.426 L239.7727,455.4369 L249.6667,454.8708 L259.5606,455.1494 L269.4545,455.4676 L279.3485,453.5697 L289.2424,455.4359 L299.1364,454.1359 L309.0303,455.243 L318.9242,453.8712 L328.8182,454.4399 L338.7121,455.5201 L348.6061,454.4663 L358.5,454.5313 " fill="none" style="stroke:#A80036;stroke-width:1.0;"/><text fill="#000000" font-family="sans-serif" font-size="13" lengthAdjust="spacing" textLength="81" x="39" y="449.4653">applyBrake()</text><polygon fill="#A80036" points="627.5,479.6641,627.526,479.7291,629.4487,480.3358,631.5239,481.3239,633.5495,482.1878,635.4117,482.6433,637.5,483.6641,637.4904,483.64,635.4472,484.3321,633.4525,485.1454,631.4916,486.043,629.4144,486.6501,627.5,487.6641,627.6845,487.6641,627.2899,486.0641,627.4341,484.4641,627.644,482.8641,627.4714,481.2641,627.5,479.6641" style="stroke:#A80036;stroke-width:1.0;"/><path d="M364.5,483.6641 L364.5,483.9443 L374.463,483.1116 L384.4259,483.9218 L394.3889,484.197 L404.3519,482.7129 L414.3148,483.5604 L424.2778,483.0954 L434.2407,483.1527 L444.2037,483.5732 L454.1667,482.7422 L464.1296,484.4023 L474.0926,482.8237 L484.0556,483.4004 L494.0185,484.24 L503.9815,483.5497 L513.9444,483.755 L523.9074,483.6215 L533.8704,483.9021 L543.8333,483.9829 L553.7963,484.445 L563.7593,484.5588 L573.7222,484.5697 L583.6852,484.0036 L593.6481,484.2822 L603.6111,484.6004 L613.5741,482.7025 L623.537,484.5687 L633.5,483.6641 " fill="none" style="stroke:#A80036;stroke-width:1.0;"/><text fill="#000000" font-family="sans-serif" font-size="13" lengthAdjust="spacing" textLength="46" x="371.5" y="478.5981">brake()</text><!--MD5=[3ef71d39f8fdf4198694a63d64a97e88]
@startuml
title Diagramme de séquence CartExample
skinparam style strictuml
skinparam Handwritten true
skinparam BackgroundColor white
participant ":main" as m
participant "sedanCar:Sedan" as sedan
participant ":Brake" as brake
participant "suvCar:SUV" as suv
participant ":BrakeWithABS" as abs
participant "newBrake:Brake" as nbrake
m - -> sedan**: create()
sedan - -> brake**: create()
m -> sedan: applyBrake()
sedan -> brake: brake()

m - -> suv**:create()
suv - ->> abs**: create()
m->suv: applyBrake()
suv -> abs: brake()

m->nbrake**: create()
m->suv: setBrakeBehavior(newBrake)
m->suv: applyBrake()
suv -> nbrake: brake()
@enduml

PlantUML version 1.2021.01beta3(Unknown compile time)
(GPL source distribution)
Java Runtime: Java(TM) SE Runtime Environment
JVM: Java HotSpot(TM) 64-Bit Server VM
Default Encoding: UTF-8
Language: en
Country: US
--></g></svg>