<?xml version="1.0" encoding="UTF-8" standalone="no"?><svg xmlns="http://www.w3.org/2000/svg" xmlns:xlink="http://www.w3.org/1999/xlink" contentScriptType="application/ecmascript" contentStyleType="text/css" height="387px" preserveAspectRatio="none" style="width:1227px;height:387px;" version="1.1" viewBox="0 0 1227 387" width="1227px" zoomAndPan="magnify"><defs><filter height="300%" id="f3w9fcxr2payg" width="300%" x="-1" y="-1"><feGaussianBlur result="blurOut" stdDeviation="2.0"/><feColorMatrix in="blurOut" result="blurOut2" type="matrix" values="0 0 0 0 0 0 0 0 0 0 0 0 0 0 0 0 0 0 .4 0"/><feOffset dx="4.0" dy="4.0" in="blurOut2" result="blurOut3"/><feBlend in="SourceGraphic" in2="blurOut3" mode="normal"/></filter></defs><g><!--MD5=[767db294c046c23b08caefe53595f3f4]
class IStrategyRabais--><rect codeLine="1" fill="#FEFECE" filter="url(#f3w9fcxr2payg)" height="60.8047" id="IStrategyRabais" style="stroke:#A80036;stroke-width:1.5;" width="222" x="493.5" y="160"/><ellipse cx="552.75" cy="176" fill="#B4A7E5" rx="11" ry="11" style="stroke:#A80036;stroke-width:1.0;"/><path d="M553.7031,172.7813 L555.4219,172.7813 C555.8125,172.7813 556,172.75 556.125,172.6719 C556.3906,172.5156 556.5313,172.2344 556.5313,171.9375 C556.5313,171.6719 556.4219,171.4063 556.1875,171.2344 C556.0156,171.125 555.875,171.0938 555.4219,171.0938 L550.2813,171.0938 C549.8438,171.0938 549.7188,171.1094 549.5625,171.2031 C549.3125,171.3594 549.1563,171.6563 549.1563,171.9375 C549.1563,172.2188 549.2969,172.4688 549.5156,172.6406 C549.6719,172.75 549.8594,172.7813 550.2813,172.7813 L552,172.7813 L552,179.2969 L550.2813,179.2969 C549.8438,179.2969 549.7188,179.3125 549.5625,179.4219 C549.3125,179.5781 549.1563,179.8594 549.1563,180.1563 C549.1563,180.4063 549.2969,180.6719 549.5156,180.8281 C549.6719,180.9531 549.875,181 550.2813,181 L555.4219,181 C556.1719,181 556.5313,180.7188 556.5313,180.1563 C556.5313,179.875 556.4219,179.625 556.1875,179.4531 C556.0156,179.3281 555.875,179.2969 555.4219,179.2969 L553.7031,179.2969 L553.7031,172.7813 Z " fill="#000000"/><text fill="#000000" font-family="sans-serif" font-size="12" font-style="italic" lengthAdjust="spacing" textLength="95" x="573.25" y="180.1543">IStrategyRabais</text><line style="stroke:#A80036;stroke-width:1.5;" x1="494.5" x2="714.5" y1="192" y2="192"/><line style="stroke:#A80036;stroke-width:1.5;" x1="494.5" x2="714.5" y1="200" y2="200"/><text fill="#000000" font-family="sans-serif" font-size="11" lengthAdjust="spacing" textLength="210" x="499.5" y="214.2104">public Double getCost(Vente vente);</text><!--MD5=[af358a925ab72893600c8103e45e46a7]
class Vente--><rect codeLine="5" fill="#FEFECE" filter="url(#f3w9fcxr2payg)" height="73.6094" id="Vente" style="stroke:#A80036;stroke-width:1.5;" width="183" x="513" y="7"/><ellipse cx="582.75" cy="23" fill="#ADD1B2" rx="11" ry="11" style="stroke:#A80036;stroke-width:1.0;"/><path d="M585.0938,18.6719 C584.1563,18.2344 583.5625,18.0938 582.6875,18.0938 C580.0625,18.0938 578.0625,20.1719 578.0625,22.8906 L578.0625,24.0156 C578.0625,26.5938 580.1719,28.4844 583.0625,28.4844 C584.2813,28.4844 585.4375,28.1875 586.1875,27.6406 C586.7656,27.2344 587.0938,26.7813 587.0938,26.3906 C587.0938,25.9375 586.7031,25.5469 586.2344,25.5469 C586.0156,25.5469 585.8125,25.625 585.625,25.8125 C585.1719,26.2969 585.1719,26.2969 584.9844,26.3906 C584.5625,26.6563 583.875,26.7813 583.1094,26.7813 C581.0625,26.7813 579.7656,25.6875 579.7656,23.9844 L579.7656,22.8906 C579.7656,21.1094 581.0156,19.7969 582.75,19.7969 C583.3281,19.7969 583.9375,19.9531 584.4063,20.2031 C584.8906,20.4844 585.0625,20.7031 585.1563,21.1094 C585.2188,21.5156 585.25,21.6406 585.3906,21.7656 C585.5313,21.9063 585.7656,22.0156 585.9844,22.0156 C586.25,22.0156 586.5156,21.875 586.6875,21.6563 C586.7969,21.5 586.8281,21.3125 586.8281,20.8906 L586.8281,19.4688 C586.8281,19.0313 586.8125,18.9063 586.7188,18.75 C586.5625,18.4844 586.2813,18.3438 585.9844,18.3438 C585.6875,18.3438 585.4844,18.4375 585.2656,18.75 L585.0938,18.6719 Z " fill="#000000"/><text fill="#000000" font-family="sans-serif" font-size="12" lengthAdjust="spacing" textLength="35" x="603.25" y="27.1543">Vente</text><line style="stroke:#A80036;stroke-width:1.5;" x1="514" x2="695" y1="39" y2="39"/><line style="stroke:#A80036;stroke-width:1.5;" x1="514" x2="695" y1="47" y2="47"/><text fill="#000000" font-family="sans-serif" font-size="11" lengthAdjust="spacing" textLength="171" x="519" y="61.2104">getCost(Vente vente): double</text><text fill="#000000" font-family="sans-serif" font-size="11" lengthAdjust="spacing" textLength="159" x="519" y="74.0151">gePrixAvantRabais(): double</text><!--MD5=[840a8a0679d40dfa6c27f6d5b7f78e76]
class StrategiePourcentageRemise--><rect codeLine="10" fill="#FEFECE" filter="url(#f3w9fcxr2payg)" height="86.4141" id="StrategiePourcentageRemise" style="stroke:#A80036;stroke-width:1.5;" width="451" x="7" y="147.5"/><ellipse cx="141.25" cy="163.5" fill="#ADD1B2" rx="11" ry="11" style="stroke:#A80036;stroke-width:1.0;"/><path d="M143.5938,159.1719 C142.6563,158.7344 142.0625,158.5938 141.1875,158.5938 C138.5625,158.5938 136.5625,160.6719 136.5625,163.3906 L136.5625,164.5156 C136.5625,167.0938 138.6719,168.9844 141.5625,168.9844 C142.7813,168.9844 143.9375,168.6875 144.6875,168.1406 C145.2656,167.7344 145.5938,167.2813 145.5938,166.8906 C145.5938,166.4375 145.2031,166.0469 144.7344,166.0469 C144.5156,166.0469 144.3125,166.125 144.125,166.3125 C143.6719,166.7969 143.6719,166.7969 143.4844,166.8906 C143.0625,167.1563 142.375,167.2813 141.6094,167.2813 C139.5625,167.2813 138.2656,166.1875 138.2656,164.4844 L138.2656,163.3906 C138.2656,161.6094 139.5156,160.2969 141.25,160.2969 C141.8281,160.2969 142.4375,160.4531 142.9063,160.7031 C143.3906,160.9844 143.5625,161.2031 143.6563,161.6094 C143.7188,162.0156 143.75,162.1406 143.8906,162.2656 C144.0313,162.4063 144.2656,162.5156 144.4844,162.5156 C144.75,162.5156 145.0156,162.375 145.1875,162.1563 C145.2969,162 145.3281,161.8125 145.3281,161.3906 L145.3281,159.9688 C145.3281,159.5313 145.3125,159.4063 145.2188,159.25 C145.0625,158.9844 144.7813,158.8438 144.4844,158.8438 C144.1875,158.8438 143.9844,158.9375 143.7656,159.25 L143.5938,159.1719 Z " fill="#000000"/><text fill="#000000" font-family="sans-serif" font-size="12" lengthAdjust="spacing" textLength="174" x="161.75" y="167.6543">StrategiePourcentageRemise</text><line style="stroke:#A80036;stroke-width:1.5;" x1="8" x2="457" y1="179.5" y2="179.5"/><text fill="#000000" font-family="sans-serif" font-size="11" lengthAdjust="spacing" textLength="167" x="13" y="193.7104">pourcentageRemise : Double</text><line style="stroke:#A80036;stroke-width:1.5;" x1="8" x2="457" y1="200.3047" y2="200.3047"/><text fill="#000000" font-family="sans-serif" font-size="11" lengthAdjust="spacing" textLength="177" x="13" y="214.5151">getCost(Vente vente) : Double</text><text fill="#000000" font-family="sans-serif" font-size="11" lengthAdjust="spacing" textLength="439" x="13" y="227.3198">StrategiePourcentageRemise(Vente contexte, Double pourcentageRemise){</text><!--MD5=[652cb5c76a9de5a0dfd5ea707d21e3c3]
class StrategieRemiseAPartirDe--><rect codeLine="16" fill="#FEFECE" filter="url(#f3w9fcxr2payg)" height="99.2188" id="StrategieRemiseAPartirDe" style="stroke:#A80036;stroke-width:1.5;" width="456" x="750.5" y="141"/><ellipse cx="897.25" cy="157" fill="#ADD1B2" rx="11" ry="11" style="stroke:#A80036;stroke-width:1.0;"/><path d="M899.5938,152.6719 C898.6563,152.2344 898.0625,152.0938 897.1875,152.0938 C894.5625,152.0938 892.5625,154.1719 892.5625,156.8906 L892.5625,158.0156 C892.5625,160.5938 894.6719,162.4844 897.5625,162.4844 C898.7813,162.4844 899.9375,162.1875 900.6875,161.6406 C901.2656,161.2344 901.5938,160.7813 901.5938,160.3906 C901.5938,159.9375 901.2031,159.5469 900.7344,159.5469 C900.5156,159.5469 900.3125,159.625 900.125,159.8125 C899.6719,160.2969 899.6719,160.2969 899.4844,160.3906 C899.0625,160.6563 898.375,160.7813 897.6094,160.7813 C895.5625,160.7813 894.2656,159.6875 894.2656,157.9844 L894.2656,156.8906 C894.2656,155.1094 895.5156,153.7969 897.25,153.7969 C897.8281,153.7969 898.4375,153.9531 898.9063,154.2031 C899.3906,154.4844 899.5625,154.7031 899.6563,155.1094 C899.7188,155.5156 899.75,155.6406 899.8906,155.7656 C900.0313,155.9063 900.2656,156.0156 900.4844,156.0156 C900.75,156.0156 901.0156,155.875 901.1875,155.6563 C901.2969,155.5 901.3281,155.3125 901.3281,154.8906 L901.3281,153.4688 C901.3281,153.0313 901.3125,152.9063 901.2188,152.75 C901.0625,152.4844 900.7813,152.3438 900.4844,152.3438 C900.1875,152.3438 899.9844,152.4375 899.7656,152.75 L899.5938,152.6719 Z " fill="#000000"/><text fill="#000000" font-family="sans-serif" font-size="12" lengthAdjust="spacing" textLength="154" x="917.75" y="161.1543">StrategieRemiseAPartirDe</text><line style="stroke:#A80036;stroke-width:1.5;" x1="751.5" x2="1205.5" y1="173" y2="173"/><text fill="#000000" font-family="sans-serif" font-size="11" lengthAdjust="spacing" textLength="86" x="756.5" y="187.2104">rabais : Double</text><text fill="#000000" font-family="sans-serif" font-size="11" lengthAdjust="spacing" textLength="104" x="756.5" y="200.0151">aPartirDe : Double</text><line style="stroke:#A80036;stroke-width:1.5;" x1="751.5" x2="1205.5" y1="206.6094" y2="206.6094"/><text fill="#000000" font-family="sans-serif" font-size="11" lengthAdjust="spacing" textLength="104" x="756.5" y="220.8198">getCost() : Double</text><text fill="#000000" font-family="sans-serif" font-size="11" lengthAdjust="spacing" textLength="444" x="756.5" y="233.6245">StrategieRemiseAPartirDe(Vente contexte, Double rabais, Double aPartirDe){</text><!--MD5=[1e4badf20b762f67a2820febf7486902]
class CompositeBestForCustomer--><rect codeLine="25" fill="#FEFECE" filter="url(#f3w9fcxr2payg)" height="73.6094" id="CompositeBestForCustomer" style="stroke:#A80036;stroke-width:1.5;" width="207" x="264" y="300"/><ellipse cx="281.25" cy="316" fill="#ADD1B2" rx="11" ry="11" style="stroke:#A80036;stroke-width:1.0;"/><path d="M283.5938,311.6719 C282.6563,311.2344 282.0625,311.0938 281.1875,311.0938 C278.5625,311.0938 276.5625,313.1719 276.5625,315.8906 L276.5625,317.0156 C276.5625,319.5938 278.6719,321.4844 281.5625,321.4844 C282.7813,321.4844 283.9375,321.1875 284.6875,320.6406 C285.2656,320.2344 285.5938,319.7813 285.5938,319.3906 C285.5938,318.9375 285.2031,318.5469 284.7344,318.5469 C284.5156,318.5469 284.3125,318.625 284.125,318.8125 C283.6719,319.2969 283.6719,319.2969 283.4844,319.3906 C283.0625,319.6563 282.375,319.7813 281.6094,319.7813 C279.5625,319.7813 278.2656,318.6875 278.2656,316.9844 L278.2656,315.8906 C278.2656,314.1094 279.5156,312.7969 281.25,312.7969 C281.8281,312.7969 282.4375,312.9531 282.9063,313.2031 C283.3906,313.4844 283.5625,313.7031 283.6563,314.1094 C283.7188,314.5156 283.75,314.6406 283.8906,314.7656 C284.0313,314.9063 284.2656,315.0156 284.4844,315.0156 C284.75,315.0156 285.0156,314.875 285.1875,314.6563 C285.2969,314.5 285.3281,314.3125 285.3281,313.8906 L285.3281,312.4688 C285.3281,312.0313 285.3125,311.9063 285.2188,311.75 C285.0625,311.4844 284.7813,311.3438 284.4844,311.3438 C284.1875,311.3438 283.9844,311.4375 283.7656,311.75 L283.5938,311.6719 Z " fill="#000000"/><text fill="#000000" font-family="sans-serif" font-size="12" lengthAdjust="spacing" textLength="170" x="295.75" y="320.1543">CompositeBestForCustomer</text><line style="stroke:#A80036;stroke-width:1.5;" x1="265" x2="470" y1="332" y2="332"/><line style="stroke:#A80036;stroke-width:1.5;" x1="265" x2="470" y1="340" y2="340"/><text fill="#000000" font-family="sans-serif" font-size="11" lengthAdjust="spacing" textLength="195" x="270" y="354.2104">void CompositeBestForCustomer()</text><text fill="#000000" font-family="sans-serif" font-size="11" lengthAdjust="spacing" textLength="184" x="270" y="367.0151">void add(IStrategyRabais rabais)</text><!--MD5=[60a59d28a36e3a46d028ca7f5baacc86]
class CompositeBestForStore--><rect codeLine="29" fill="#FEFECE" filter="url(#f3w9fcxr2payg)" height="73.6094" id="CompositeBestForStore" style="stroke:#A80036;stroke-width:1.5;" width="196" x="506.5" y="300"/><ellipse cx="530.05" cy="316" fill="#ADD1B2" rx="11" ry="11" style="stroke:#A80036;stroke-width:1.0;"/><path d="M532.3938,311.6719 C531.4563,311.2344 530.8625,311.0938 529.9875,311.0938 C527.3625,311.0938 525.3625,313.1719 525.3625,315.8906 L525.3625,317.0156 C525.3625,319.5938 527.4719,321.4844 530.3625,321.4844 C531.5813,321.4844 532.7375,321.1875 533.4875,320.6406 C534.0656,320.2344 534.3938,319.7813 534.3938,319.3906 C534.3938,318.9375 534.0031,318.5469 533.5344,318.5469 C533.3156,318.5469 533.1125,318.625 532.925,318.8125 C532.4719,319.2969 532.4719,319.2969 532.2844,319.3906 C531.8625,319.6563 531.175,319.7813 530.4094,319.7813 C528.3625,319.7813 527.0656,318.6875 527.0656,316.9844 L527.0656,315.8906 C527.0656,314.1094 528.3156,312.7969 530.05,312.7969 C530.6281,312.7969 531.2375,312.9531 531.7063,313.2031 C532.1906,313.4844 532.3625,313.7031 532.4563,314.1094 C532.5188,314.5156 532.55,314.6406 532.6906,314.7656 C532.8313,314.9063 533.0656,315.0156 533.2844,315.0156 C533.55,315.0156 533.8156,314.875 533.9875,314.6563 C534.0969,314.5 534.1281,314.3125 534.1281,313.8906 L534.1281,312.4688 C534.1281,312.0313 534.1125,311.9063 534.0188,311.75 C533.8625,311.4844 533.5813,311.3438 533.2844,311.3438 C532.9875,311.3438 532.7844,311.4375 532.5656,311.75 L532.3938,311.6719 Z " fill="#000000"/><text fill="#000000" font-family="sans-serif" font-size="12" lengthAdjust="spacing" textLength="145" x="545.95" y="320.1543">CompositeBestForStore</text><line style="stroke:#A80036;stroke-width:1.5;" x1="507.5" x2="701.5" y1="332" y2="332"/><line style="stroke:#A80036;stroke-width:1.5;" x1="507.5" x2="701.5" y1="340" y2="340"/><text fill="#000000" font-family="sans-serif" font-size="11" lengthAdjust="spacing" textLength="171" x="512.5" y="354.2104">void CompositeBestForStore()</text><text fill="#000000" font-family="sans-serif" font-size="11" lengthAdjust="spacing" textLength="184" x="512.5" y="367.0151">void add(IStrategyRabais rabais)</text><!--MD5=[436a2da40108021f4968feed324bd726]
class CompositeMinimumCost--><rect codeLine="33" fill="#FEFECE" filter="url(#f3w9fcxr2payg)" height="60.8047" id="CompositeMinimumCost" style="stroke:#A80036;stroke-width:1.5;" width="476" x="737.5" y="306.5"/><ellipse cx="899.25" cy="322.5" fill="#ADD1B2" rx="11" ry="11" style="stroke:#A80036;stroke-width:1.0;"/><path d="M901.5938,318.1719 C900.6563,317.7344 900.0625,317.5938 899.1875,317.5938 C896.5625,317.5938 894.5625,319.6719 894.5625,322.3906 L894.5625,323.5156 C894.5625,326.0938 896.6719,327.9844 899.5625,327.9844 C900.7813,327.9844 901.9375,327.6875 902.6875,327.1406 C903.2656,326.7344 903.5938,326.2813 903.5938,325.8906 C903.5938,325.4375 903.2031,325.0469 902.7344,325.0469 C902.5156,325.0469 902.3125,325.125 902.125,325.3125 C901.6719,325.7969 901.6719,325.7969 901.4844,325.8906 C901.0625,326.1563 900.375,326.2813 899.6094,326.2813 C897.5625,326.2813 896.2656,325.1875 896.2656,323.4844 L896.2656,322.3906 C896.2656,320.6094 897.5156,319.2969 899.25,319.2969 C899.8281,319.2969 900.4375,319.4531 900.9063,319.7031 C901.3906,319.9844 901.5625,320.2031 901.6563,320.6094 C901.7188,321.0156 901.75,321.1406 901.8906,321.2656 C902.0313,321.4063 902.2656,321.5156 902.4844,321.5156 C902.75,321.5156 903.0156,321.375 903.1875,321.1563 C903.2969,321 903.3281,320.8125 903.3281,320.3906 L903.3281,318.9688 C903.3281,318.5313 903.3125,318.4063 903.2188,318.25 C903.0625,317.9844 902.7813,317.8438 902.4844,317.8438 C902.1875,317.8438 901.9844,317.9375 901.7656,318.25 L901.5938,318.1719 Z " fill="#000000"/><text fill="#000000" font-family="sans-serif" font-size="12" lengthAdjust="spacing" textLength="144" x="919.75" y="326.6543">CompositeMinimumCost</text><line style="stroke:#A80036;stroke-width:1.5;" x1="738.5" x2="1212.5" y1="338.5" y2="338.5"/><line style="stroke:#A80036;stroke-width:1.5;" x1="738.5" x2="1212.5" y1="346.5" y2="346.5"/><text fill="#000000" font-family="sans-serif" font-size="11" lengthAdjust="spacing" textLength="464" x="743.5" y="360.7104">public CompositeMinimumCost(IStrategyRabais rabais1, IStrategyRabais rabais2){</text><!--MD5=[a65f34b99bfd19d5299d9c730b884567]
reverse link IStrategyRabais to CompositeBestForCustomer--><path d="M527.893,231.183 C490.991,252.625 447.985,278.9076 415.669,299.79 " fill="none" id="IStrategyRabais-backto-CompositeBestForCustomer" style="stroke:#A80036;stroke-width:1.0;stroke-dasharray:7.0,7.0;"/><polygon fill="none" points="524.618,224.992,545.445,221.09,531.596,237.128,524.618,224.992" style="stroke:#A80036;stroke-width:1.0;"/><!--MD5=[b78e6c064ccfb3b4587042d6125083d8]
link CompositeBestForCustomer to IStrategyRabais--><path codeLine="40" d="M438.769,299.79 C479.192,276.5346 528.19,246.583 562.569,224.076 " fill="none" id="CompositeBestForCustomer-to-IStrategyRabais" style="stroke:#A80036;stroke-width:1.0;"/><polygon fill="#A80036" points="567.109,221.09,557.3913,222.6918,562.931,223.8367,561.7861,229.3765,567.109,221.09" style="stroke:#A80036;stroke-width:1.0;"/><text fill="#000000" font-family="sans-serif" font-size="13" lengthAdjust="spacing" textLength="7" x="551.6752" y="241.0468">*</text><!--MD5=[0668ad627e1902806c13f05e05956efd]
reverse link IStrategyRabais to CompositeBestForStore--><path d="M592.323,241.124 C591.317,260.389 591.636,282.04 593.28,299.79 " fill="none" id="IStrategyRabais-backto-CompositeBestForStore" style="stroke:#A80036;stroke-width:1.0;stroke-dasharray:7.0,7.0;"/><polygon fill="none" points="585.355,240.446,593.977,221.09,599.307,241.599,585.355,240.446" style="stroke:#A80036;stroke-width:1.0;"/><!--MD5=[7d8610934ee5af560ac50cf19e49cbbb]
link CompositeBestForStore to IStrategyRabais--><path codeLine="41" d="M616.38,299.79 C618.586,277.294 618.539,248.531 616.238,226.304 " fill="none" id="CompositeBestForStore-to-IStrategyRabais" style="stroke:#A80036;stroke-width:1.0;"/><polygon fill="#A80036" points="615.642,221.09,612.6915,230.4865,616.2106,226.0576,620.6396,229.5767,615.642,221.09" style="stroke:#A80036;stroke-width:1.0;"/><text fill="#000000" font-family="sans-serif" font-size="13" lengthAdjust="spacing" textLength="7" x="610.2182" y="241.0468">*</text><!--MD5=[4bdd6a69b9d9dc5bfbe5a21e0bbfcd27]
reverse link IStrategyRabais to CompositeMinimumCost--><path d="M688.646,228.678 C748.571,252.859 828.683,283.9585 889.111,306.4491 " fill="none" id="IStrategyRabais-backto-CompositeMinimumCost" style="stroke:#A80036;stroke-width:1.0;stroke-dasharray:7.0,7.0;"/><polygon fill="none" points="685.85,235.098,669.95,221.09,691.114,222.126,685.85,235.098" style="stroke:#A80036;stroke-width:1.0;"/><!--MD5=[813ba90964b8a5301d70cd882e6782a5]
link CompositeMinimumCost to IStrategyRabais--><path codeLine="42" d="M910.766,306.4491 C851.348,282.1086 763.038,247.684 696.376,222.861 " fill="none" id="CompositeMinimumCost-to-IStrategyRabais" style="stroke:#A80036;stroke-width:1.0;"/><polygon fill="#A80036" points="691.614,221.09,698.6549,227.9766,696.3003,222.8331,701.4439,220.4785,691.614,221.09" style="stroke:#A80036;stroke-width:1.0;"/><text fill="#000000" font-family="sans-serif" font-size="13" lengthAdjust="spacing" textLength="7" x="701.8594" y="241.0468">*</text><!--MD5=[be97feae1981d605de6eeed874a7fbab]
link Vente to IStrategyRabais--><path codeLine="38" d="M593.291,81.091 C591.203,103.534 591.237,132.248 593.393,154.486 " fill="none" id="Vente-to-IStrategyRabais" style="stroke:#A80036;stroke-width:1.0;"/><polygon fill="#A80036" points="593.953,159.703,596.9711,150.328,593.4201,154.7315,589.0166,151.1806,593.953,159.703" style="stroke:#A80036;stroke-width:1.0;"/><!--MD5=[d80394812bde2649a67f058aa1618ed8]
reverse link Vente to IStrategyRabais--><path codeLine="39" d="M616.833,86.307 C618.711,109.728 618.322,138.496 615.668,159.703 " fill="none" id="Vente-backto-IStrategyRabais" style="stroke:#A80036;stroke-width:1.0;stroke-dasharray:7.0,7.0;"/><polygon fill="#A80036" points="616.368,81.091,613.1809,90.4099,616.8109,86.0713,621.1495,89.7013,616.368,81.091" style="stroke:#A80036;stroke-width:1.0;"/><!--MD5=[1cd6c677e22d33276997695085fe00e0]
link StrategiePourcentageRemise to IStrategyRabais--><path codeLine="45" d="M458.098,190.5 C463.135,190.5 468.173,190.5 473.21,190.5 " fill="none" id="StrategiePourcentageRemise-to-IStrategyRabais" style="stroke:#A80036;stroke-width:1.0;stroke-dasharray:7.0,7.0;"/><polygon fill="none" points="473.269,183.5,493.269,190.5,473.268,197.5,473.269,183.5" style="stroke:#A80036;stroke-width:1.0;"/><!--MD5=[0a43a8f1370671853a14ac2488364cdd]
reverse link IStrategyRabais to StrategieRemiseAPartirDe--><path codeLine="46" d="M735.723,190.5 C740.634,190.5 745.545,190.5 750.457,190.5 " fill="none" id="IStrategyRabais-backto-StrategieRemiseAPartirDe" style="stroke:#A80036;stroke-width:1.0;stroke-dasharray:7.0,7.0;"/><polygon fill="none" points="735.531,197.5,715.531,190.5,735.531,183.5,735.531,197.5" style="stroke:#A80036;stroke-width:1.0;"/><!--MD5=[efae6a2769d36800f56b9beea1bef464]
@startuml
interface IStrategyRabais {
  public Double getCost(Vente vente);
}

class Vente {
  getCost(Vente vente): double
  gePrixAvantRabais(): double
}

class StrategiePourcentageRemise{
   pourcentageRemise : Double
   getCost(Vente vente) : Double
    StrategiePourcentageRemise(Vente contexte, Double pourcentageRemise){

}
class StrategieRemiseAPartirDe{
    rabais : Double
    aPartirDe : Double
    getCost() : Double
    StrategieRemiseAPartirDe(Vente contexte, Double rabais, Double aPartirDe){

}


class CompositeBestForCustomer implements IStrategyRabais {
  void CompositeBestForCustomer()
  void add(IStrategyRabais rabais)
}
class CompositeBestForStore implements IStrategyRabais {
  void CompositeBestForStore()
  void add(IStrategyRabais rabais)
}
class CompositeMinimumCost implements IStrategyRabais {
    public CompositeMinimumCost(IStrategyRabais rabais1, IStrategyRabais rabais2){

}

Vente -d-> IStrategyRabais
Vente <.d. IStrategyRabais
CompositeBestForCustomer - -> "*" IStrategyRabais 
CompositeBestForStore - -> "*" IStrategyRabais 
CompositeMinimumCost - -> "*" IStrategyRabais 


IStrategyRabais <|.l. StrategiePourcentageRemise
IStrategyRabais <|.r. StrategieRemiseAPartirDe
@enduml

PlantUML version 1.2021.01beta7(Unknown compile time)
(GPL source distribution)
Java Runtime: Java(TM) SE Runtime Environment
JVM: Java HotSpot(TM) 64-Bit Server VM
Default Encoding: UTF-8
Language: en
Country: US
--></g></svg>