<?xml version="1.0" encoding="UTF-8" standalone="no"?><svg xmlns="http://www.w3.org/2000/svg" xmlns:xlink="http://www.w3.org/1999/xlink" contentScriptType="application/ecmascript" contentStyleType="text/css" height="190px" preserveAspectRatio="none" style="width:1211px;height:190px;" version="1.1" viewBox="0 0 1211 190" width="1211px" zoomAndPan="magnify"><defs><filter height="300%" id="fsqksee8fjhjy" width="300%" x="-1" y="-1"><feGaussianBlur result="blurOut" stdDeviation="2.0"/><feColorMatrix in="blurOut" result="blurOut2" type="matrix" values="0 0 0 0 0 0 0 0 0 0 0 0 0 0 0 0 0 0 .4 0"/><feOffset dx="4.0" dy="4.0" in="blurOut2" result="blurOut3"/><feBlend in="SourceGraphic" in2="blurOut3" mode="normal"/></filter></defs><g><!--MD5=[767db294c046c23b08caefe53595f3f4]
class IStrategyRabais--><rect codeLine="1" fill="#FEFECE" filter="url(#fsqksee8fjhjy)" height="60.8047" id="IStrategyRabais" style="stroke:#A80036;stroke-width:1.5;" width="149" x="361" y="7"/><ellipse cx="385.9" cy="23" fill="#B4A7E5" rx="11" ry="11" style="stroke:#A80036;stroke-width:1.0;"/><path d="M386.8531,19.7813 L388.5719,19.7813 C388.9625,19.7813 389.15,19.75 389.275,19.6719 C389.5406,19.5156 389.6813,19.2344 389.6813,18.9375 C389.6813,18.6719 389.5719,18.4063 389.3375,18.2344 C389.1656,18.125 389.025,18.0938 388.5719,18.0938 L383.4313,18.0938 C382.9938,18.0938 382.8688,18.1094 382.7125,18.2031 C382.4625,18.3594 382.3063,18.6563 382.3063,18.9375 C382.3063,19.2188 382.4469,19.4688 382.6656,19.6406 C382.8219,19.75 383.0094,19.7813 383.4313,19.7813 L385.15,19.7813 L385.15,26.2969 L383.4313,26.2969 C382.9938,26.2969 382.8688,26.3125 382.7125,26.4219 C382.4625,26.5781 382.3063,26.8594 382.3063,27.1563 C382.3063,27.4063 382.4469,27.6719 382.6656,27.8281 C382.8219,27.9531 383.025,28 383.4313,28 L388.5719,28 C389.3219,28 389.6813,27.7188 389.6813,27.1563 C389.6813,26.875 389.5719,26.625 389.3375,26.4531 C389.1656,26.3281 389.025,26.2969 388.5719,26.2969 L386.8531,26.2969 L386.8531,19.7813 Z " fill="#000000"/><text fill="#000000" font-family="sans-serif" font-size="12" font-style="italic" lengthAdjust="spacing" textLength="95" x="402.1" y="27.1543">IStrategyRabais</text><line style="stroke:#A80036;stroke-width:1.5;" x1="362" x2="509" y1="39" y2="39"/><line style="stroke:#A80036;stroke-width:1.5;" x1="362" x2="509" y1="47" y2="47"/><text fill="#000000" font-family="sans-serif" font-size="11" lengthAdjust="spacing" textLength="137" x="367" y="61.2104">public Double getCost();</text><!--MD5=[6a3f0c8e890c339ff6831dd357a0cefb]
class repas--><rect codeLine="5" fill="#FEFECE" filter="url(#fsqksee8fjhjy)" height="48" id="repas" style="stroke:#A80036;stroke-width:1.5;" width="67" x="7" y="128"/><ellipse cx="22" cy="144" fill="#ADD1B2" rx="11" ry="11" style="stroke:#A80036;stroke-width:1.0;"/><path d="M24.3438,139.6719 C23.4063,139.2344 22.8125,139.0938 21.9375,139.0938 C19.3125,139.0938 17.3125,141.1719 17.3125,143.8906 L17.3125,145.0156 C17.3125,147.5938 19.4219,149.4844 22.3125,149.4844 C23.5313,149.4844 24.6875,149.1875 25.4375,148.6406 C26.0156,148.2344 26.3438,147.7813 26.3438,147.3906 C26.3438,146.9375 25.9531,146.5469 25.4844,146.5469 C25.2656,146.5469 25.0625,146.625 24.875,146.8125 C24.4219,147.2969 24.4219,147.2969 24.2344,147.3906 C23.8125,147.6563 23.125,147.7813 22.3594,147.7813 C20.3125,147.7813 19.0156,146.6875 19.0156,144.9844 L19.0156,143.8906 C19.0156,142.1094 20.2656,140.7969 22,140.7969 C22.5781,140.7969 23.1875,140.9531 23.6563,141.2031 C24.1406,141.4844 24.3125,141.7031 24.4063,142.1094 C24.4688,142.5156 24.5,142.6406 24.6406,142.7656 C24.7813,142.9063 25.0156,143.0156 25.2344,143.0156 C25.5,143.0156 25.7656,142.875 25.9375,142.6563 C26.0469,142.5 26.0781,142.3125 26.0781,141.8906 L26.0781,140.4688 C26.0781,140.0313 26.0625,139.9063 25.9688,139.75 C25.8125,139.4844 25.5313,139.3438 25.2344,139.3438 C24.9375,139.3438 24.7344,139.4375 24.5156,139.75 L24.3438,139.6719 Z " fill="#000000"/><text fill="#000000" font-family="sans-serif" font-size="12" lengthAdjust="spacing" textLength="35" x="36" y="148.1543">repas</text><line style="stroke:#A80036;stroke-width:1.5;" x1="8" x2="73" y1="160" y2="160"/><line style="stroke:#A80036;stroke-width:1.5;" x1="8" x2="73" y1="168" y2="168"/><!--MD5=[1e4badf20b762f67a2820febf7486902]
class CompositeBestForCustomer--><rect codeLine="6" fill="#FEFECE" filter="url(#fsqksee8fjhjy)" height="48" id="CompositeBestForCustomer" style="stroke:#A80036;stroke-width:1.5;" width="202" x="109.5" y="128"/><ellipse cx="124.5" cy="144" fill="#ADD1B2" rx="11" ry="11" style="stroke:#A80036;stroke-width:1.0;"/><path d="M126.8438,139.6719 C125.9063,139.2344 125.3125,139.0938 124.4375,139.0938 C121.8125,139.0938 119.8125,141.1719 119.8125,143.8906 L119.8125,145.0156 C119.8125,147.5938 121.9219,149.4844 124.8125,149.4844 C126.0313,149.4844 127.1875,149.1875 127.9375,148.6406 C128.5156,148.2344 128.8438,147.7813 128.8438,147.3906 C128.8438,146.9375 128.4531,146.5469 127.9844,146.5469 C127.7656,146.5469 127.5625,146.625 127.375,146.8125 C126.9219,147.2969 126.9219,147.2969 126.7344,147.3906 C126.3125,147.6563 125.625,147.7813 124.8594,147.7813 C122.8125,147.7813 121.5156,146.6875 121.5156,144.9844 L121.5156,143.8906 C121.5156,142.1094 122.7656,140.7969 124.5,140.7969 C125.0781,140.7969 125.6875,140.9531 126.1563,141.2031 C126.6406,141.4844 126.8125,141.7031 126.9063,142.1094 C126.9688,142.5156 127,142.6406 127.1406,142.7656 C127.2813,142.9063 127.5156,143.0156 127.7344,143.0156 C128,143.0156 128.2656,142.875 128.4375,142.6563 C128.5469,142.5 128.5781,142.3125 128.5781,141.8906 L128.5781,140.4688 C128.5781,140.0313 128.5625,139.9063 128.4688,139.75 C128.3125,139.4844 128.0313,139.3438 127.7344,139.3438 C127.4375,139.3438 127.2344,139.4375 127.0156,139.75 L126.8438,139.6719 Z " fill="#000000"/><text fill="#000000" font-family="sans-serif" font-size="12" lengthAdjust="spacing" textLength="170" x="138.5" y="148.1543">CompositeBestForCustomer</text><line style="stroke:#A80036;stroke-width:1.5;" x1="110.5" x2="310.5" y1="160" y2="160"/><line style="stroke:#A80036;stroke-width:1.5;" x1="110.5" x2="310.5" y1="168" y2="168"/><!--MD5=[60a59d28a36e3a46d028ca7f5baacc86]
class CompositeBestForStore--><rect codeLine="7" fill="#FEFECE" filter="url(#fsqksee8fjhjy)" height="48" id="CompositeBestForStore" style="stroke:#A80036;stroke-width:1.5;" width="177" x="347" y="128"/><ellipse cx="362" cy="144" fill="#ADD1B2" rx="11" ry="11" style="stroke:#A80036;stroke-width:1.0;"/><path d="M364.3438,139.6719 C363.4063,139.2344 362.8125,139.0938 361.9375,139.0938 C359.3125,139.0938 357.3125,141.1719 357.3125,143.8906 L357.3125,145.0156 C357.3125,147.5938 359.4219,149.4844 362.3125,149.4844 C363.5313,149.4844 364.6875,149.1875 365.4375,148.6406 C366.0156,148.2344 366.3438,147.7813 366.3438,147.3906 C366.3438,146.9375 365.9531,146.5469 365.4844,146.5469 C365.2656,146.5469 365.0625,146.625 364.875,146.8125 C364.4219,147.2969 364.4219,147.2969 364.2344,147.3906 C363.8125,147.6563 363.125,147.7813 362.3594,147.7813 C360.3125,147.7813 359.0156,146.6875 359.0156,144.9844 L359.0156,143.8906 C359.0156,142.1094 360.2656,140.7969 362,140.7969 C362.5781,140.7969 363.1875,140.9531 363.6563,141.2031 C364.1406,141.4844 364.3125,141.7031 364.4063,142.1094 C364.4688,142.5156 364.5,142.6406 364.6406,142.7656 C364.7813,142.9063 365.0156,143.0156 365.2344,143.0156 C365.5,143.0156 365.7656,142.875 365.9375,142.6563 C366.0469,142.5 366.0781,142.3125 366.0781,141.8906 L366.0781,140.4688 C366.0781,140.0313 366.0625,139.9063 365.9688,139.75 C365.8125,139.4844 365.5313,139.3438 365.2344,139.3438 C364.9375,139.3438 364.7344,139.4375 364.5156,139.75 L364.3438,139.6719 Z " fill="#000000"/><text fill="#000000" font-family="sans-serif" font-size="12" lengthAdjust="spacing" textLength="145" x="376" y="148.1543">CompositeBestForStore</text><line style="stroke:#A80036;stroke-width:1.5;" x1="348" x2="523" y1="160" y2="160"/><line style="stroke:#A80036;stroke-width:1.5;" x1="348" x2="523" y1="168" y2="168"/><!--MD5=[436a2da40108021f4968feed324bd726]
class CompositeMinimumCost--><rect codeLine="8" fill="#FEFECE" filter="url(#fsqksee8fjhjy)" height="48" id="CompositeMinimumCost" style="stroke:#A80036;stroke-width:1.5;" width="176" x="559.5" y="128"/><ellipse cx="574.5" cy="144" fill="#ADD1B2" rx="11" ry="11" style="stroke:#A80036;stroke-width:1.0;"/><path d="M576.8438,139.6719 C575.9063,139.2344 575.3125,139.0938 574.4375,139.0938 C571.8125,139.0938 569.8125,141.1719 569.8125,143.8906 L569.8125,145.0156 C569.8125,147.5938 571.9219,149.4844 574.8125,149.4844 C576.0313,149.4844 577.1875,149.1875 577.9375,148.6406 C578.5156,148.2344 578.8438,147.7813 578.8438,147.3906 C578.8438,146.9375 578.4531,146.5469 577.9844,146.5469 C577.7656,146.5469 577.5625,146.625 577.375,146.8125 C576.9219,147.2969 576.9219,147.2969 576.7344,147.3906 C576.3125,147.6563 575.625,147.7813 574.8594,147.7813 C572.8125,147.7813 571.5156,146.6875 571.5156,144.9844 L571.5156,143.8906 C571.5156,142.1094 572.7656,140.7969 574.5,140.7969 C575.0781,140.7969 575.6875,140.9531 576.1563,141.2031 C576.6406,141.4844 576.8125,141.7031 576.9063,142.1094 C576.9688,142.5156 577,142.6406 577.1406,142.7656 C577.2813,142.9063 577.5156,143.0156 577.7344,143.0156 C578,143.0156 578.2656,142.875 578.4375,142.6563 C578.5469,142.5 578.5781,142.3125 578.5781,141.8906 L578.5781,140.4688 C578.5781,140.0313 578.5625,139.9063 578.4688,139.75 C578.3125,139.4844 578.0313,139.3438 577.7344,139.3438 C577.4375,139.3438 577.2344,139.4375 577.0156,139.75 L576.8438,139.6719 Z " fill="#000000"/><text fill="#000000" font-family="sans-serif" font-size="12" lengthAdjust="spacing" textLength="144" x="588.5" y="148.1543">CompositeMinimumCost</text><line style="stroke:#A80036;stroke-width:1.5;" x1="560.5" x2="734.5" y1="160" y2="160"/><line style="stroke:#A80036;stroke-width:1.5;" x1="560.5" x2="734.5" y1="168" y2="168"/><!--MD5=[840a8a0679d40dfa6c27f6d5b7f78e76]
class StrategiePourcentageRemise--><rect fill="#FEFECE" filter="url(#fsqksee8fjhjy)" height="48" id="StrategiePourcentageRemise" style="stroke:#A80036;stroke-width:1.5;" width="206" x="770.5" y="128"/><ellipse cx="785.5" cy="144" fill="#ADD1B2" rx="11" ry="11" style="stroke:#A80036;stroke-width:1.0;"/><path d="M787.8438,139.6719 C786.9063,139.2344 786.3125,139.0938 785.4375,139.0938 C782.8125,139.0938 780.8125,141.1719 780.8125,143.8906 L780.8125,145.0156 C780.8125,147.5938 782.9219,149.4844 785.8125,149.4844 C787.0313,149.4844 788.1875,149.1875 788.9375,148.6406 C789.5156,148.2344 789.8438,147.7813 789.8438,147.3906 C789.8438,146.9375 789.4531,146.5469 788.9844,146.5469 C788.7656,146.5469 788.5625,146.625 788.375,146.8125 C787.9219,147.2969 787.9219,147.2969 787.7344,147.3906 C787.3125,147.6563 786.625,147.7813 785.8594,147.7813 C783.8125,147.7813 782.5156,146.6875 782.5156,144.9844 L782.5156,143.8906 C782.5156,142.1094 783.7656,140.7969 785.5,140.7969 C786.0781,140.7969 786.6875,140.9531 787.1563,141.2031 C787.6406,141.4844 787.8125,141.7031 787.9063,142.1094 C787.9688,142.5156 788,142.6406 788.1406,142.7656 C788.2813,142.9063 788.5156,143.0156 788.7344,143.0156 C789,143.0156 789.2656,142.875 789.4375,142.6563 C789.5469,142.5 789.5781,142.3125 789.5781,141.8906 L789.5781,140.4688 C789.5781,140.0313 789.5625,139.9063 789.4688,139.75 C789.3125,139.4844 789.0313,139.3438 788.7344,139.3438 C788.4375,139.3438 788.2344,139.4375 788.0156,139.75 L787.8438,139.6719 Z " fill="#000000"/><text fill="#000000" font-family="sans-serif" font-size="12" lengthAdjust="spacing" textLength="174" x="799.5" y="148.1543">StrategiePourcentageRemise</text><line style="stroke:#A80036;stroke-width:1.5;" x1="771.5" x2="975.5" y1="160" y2="160"/><line style="stroke:#A80036;stroke-width:1.5;" x1="771.5" x2="975.5" y1="168" y2="168"/><!--MD5=[652cb5c76a9de5a0dfd5ea707d21e3c3]
class StrategieRemiseAPartirDe--><rect fill="#FEFECE" filter="url(#fsqksee8fjhjy)" height="48" id="StrategieRemiseAPartirDe" style="stroke:#A80036;stroke-width:1.5;" width="186" x="1011.5" y="128"/><ellipse cx="1026.5" cy="144" fill="#ADD1B2" rx="11" ry="11" style="stroke:#A80036;stroke-width:1.0;"/><path d="M1028.8438,139.6719 C1027.9063,139.2344 1027.3125,139.0938 1026.4375,139.0938 C1023.8125,139.0938 1021.8125,141.1719 1021.8125,143.8906 L1021.8125,145.0156 C1021.8125,147.5938 1023.9219,149.4844 1026.8125,149.4844 C1028.0313,149.4844 1029.1875,149.1875 1029.9375,148.6406 C1030.5156,148.2344 1030.8438,147.7813 1030.8438,147.3906 C1030.8438,146.9375 1030.4531,146.5469 1029.9844,146.5469 C1029.7656,146.5469 1029.5625,146.625 1029.375,146.8125 C1028.9219,147.2969 1028.9219,147.2969 1028.7344,147.3906 C1028.3125,147.6563 1027.625,147.7813 1026.8594,147.7813 C1024.8125,147.7813 1023.5156,146.6875 1023.5156,144.9844 L1023.5156,143.8906 C1023.5156,142.1094 1024.7656,140.7969 1026.5,140.7969 C1027.0781,140.7969 1027.6875,140.9531 1028.1563,141.2031 C1028.6406,141.4844 1028.8125,141.7031 1028.9063,142.1094 C1028.9688,142.5156 1029,142.6406 1029.1406,142.7656 C1029.2813,142.9063 1029.5156,143.0156 1029.7344,143.0156 C1030,143.0156 1030.2656,142.875 1030.4375,142.6563 C1030.5469,142.5 1030.5781,142.3125 1030.5781,141.8906 L1030.5781,140.4688 C1030.5781,140.0313 1030.5625,139.9063 1030.4688,139.75 C1030.3125,139.4844 1030.0313,139.3438 1029.7344,139.3438 C1029.4375,139.3438 1029.2344,139.4375 1029.0156,139.75 L1028.8438,139.6719 Z " fill="#000000"/><text fill="#000000" font-family="sans-serif" font-size="12" lengthAdjust="spacing" textLength="154" x="1040.5" y="148.1543">StrategieRemiseAPartirDe</text><line style="stroke:#A80036;stroke-width:1.5;" x1="1012.5" x2="1196.5" y1="160" y2="160"/><line style="stroke:#A80036;stroke-width:1.5;" x1="1012.5" x2="1196.5" y1="168" y2="168"/><!--MD5=[58664291d88a02b48b334915a31a0f29]
reverse link IStrategyRabais to repas--><path d="M341.081,58.525 C271.23,74.43 174.262,98.8078 91.5,128 C85.8209,130.0032 79.9012,132.3851 74.1906,134.8448 " fill="none" id="IStrategyRabais-backto-repas" style="stroke:#A80036;stroke-width:1.0;stroke-dasharray:7.0,7.0;"/><polygon fill="none" points="339.886,51.62,360.934,54.067,342.954,65.279,339.886,51.62" style="stroke:#A80036;stroke-width:1.0;"/><!--MD5=[a65f34b99bfd19d5299d9c730b884567]
reverse link IStrategyRabais to CompositeBestForCustomer--><path d="M346.513,76.9123 C311.501,93.8427 273.371,113.1779 246.261,127.8498 " fill="none" id="IStrategyRabais-backto-CompositeBestForCustomer" style="stroke:#A80036;stroke-width:1.0;stroke-dasharray:7.0,7.0;"/><polygon fill="none" points="343.945,70.381,365.007,68.058,349.99,83.0085,343.945,70.381" style="stroke:#A80036;stroke-width:1.0;"/><!--MD5=[b78e6c064ccfb3b4587042d6125083d8]
link CompositeBestForCustomer to IStrategyRabais--><path codeLine="10" d="M267.96,127.8498 C303.76,111.2847 349.164,88.7753 383.828,70.494 " fill="none" id="CompositeBestForCustomer-to-IStrategyRabais" style="stroke:#A80036;stroke-width:1.0;"/><polygon fill="#A80036" points="388.43,68.058,378.6042,68.7314,384.0105,70.3963,382.3455,75.8026,388.43,68.058" style="stroke:#A80036;stroke-width:1.0;"/><text fill="#000000" font-family="sans-serif" font-size="13" lengthAdjust="spacing" textLength="7" x="370.9999" y="88.0082">*</text><!--MD5=[0668ad627e1902806c13f05e05956efd]
reverse link IStrategyRabais to CompositeBestForStore--><path d="M422.829,88.1067 C422.499,101.8764 423.2,116.1847 424.933,127.6686 " fill="none" id="IStrategyRabais-backto-CompositeBestForStore" style="stroke:#A80036;stroke-width:1.0;stroke-dasharray:7.0,7.0;"/><polygon fill="none" points="415.85,87.5659,424.123,68.058,429.821,88.4672,415.85,87.5659" style="stroke:#A80036;stroke-width:1.0;"/><!--MD5=[7d8610934ee5af560ac50cf19e49cbbb]
link CompositeBestForStore to IStrategyRabais--><path codeLine="11" d="M446.689,127.6686 C449.193,111.9965 449.662,91.0641 448.097,73.419 " fill="none" id="CompositeBestForStore-to-IStrategyRabais" style="stroke:#A80036;stroke-width:1.0;"/><polygon fill="#A80036" points="447.547,68.058,444.4885,77.4199,448.0584,73.0318,452.4465,76.6017,447.547,68.058" style="stroke:#A80036;stroke-width:1.0;"/><text fill="#000000" font-family="sans-serif" font-size="13" lengthAdjust="spacing" textLength="7" x="442.3098" y="88.0082">*</text><!--MD5=[4bdd6a69b9d9dc5bfbe5a21e0bbfcd27]
reverse link IStrategyRabais to CompositeMinimumCost--><path d="M497.431,77.851 C527.837,94.5539 564.004,113.4483 593.335,127.8498 " fill="none" id="IStrategyRabais-backto-CompositeMinimumCost" style="stroke:#A80036;stroke-width:1.0;stroke-dasharray:7.0,7.0;"/><polygon fill="none" points="493.899,83.8968,479.823,68.058,500.704,71.662,493.899,83.8968" style="stroke:#A80036;stroke-width:1.0;"/><!--MD5=[813ba90964b8a5301d70cd882e6782a5]
link CompositeMinimumCost to IStrategyRabais--><path codeLine="12" d="M615.034,127.8498 C586.488,111.2847 544.456,88.7753 508.107,70.494 " fill="none" id="CompositeMinimumCost-to-IStrategyRabais" style="stroke:#A80036;stroke-width:1.0;"/><polygon fill="#A80036" points="503.247,68.058,509.5012,75.6662,507.7171,70.2981,513.0853,68.514,503.247,68.058" style="stroke:#A80036;stroke-width:1.0;"/><text fill="#000000" font-family="sans-serif" font-size="13" lengthAdjust="spacing" textLength="7" x="509.4979" y="88.0082">*</text><!--MD5=[abb082f83036c9ca11d4941425f9a80f]
reverse link IStrategyRabais to StrategiePourcentageRemise--><path codeLine="15" d="M529.73,62.703 C605.018,82.0405 709.828,108.9608 783.875,127.98 " fill="none" id="IStrategyRabais-backto-StrategiePourcentageRemise" style="stroke:#A80036;stroke-width:1.0;stroke-dasharray:7.0,7.0;"/><polygon fill="none" points="527.927,69.467,510.297,57.712,531.41,55.907,527.927,69.467" style="stroke:#A80036;stroke-width:1.0;"/><!--MD5=[0a43a8f1370671853a14ac2488364cdd]
reverse link IStrategyRabais to StrategieRemiseAPartirDe--><path codeLine="16" d="M530.138,52.255 C641.499,68.764 831.855,97.9933 994.5,128 C999.968,129.0088 1005.582,130.0781 1011.24,131.1818 " fill="none" id="IStrategyRabais-backto-StrategieRemiseAPartirDe" style="stroke:#A80036;stroke-width:1.0;stroke-dasharray:7.0,7.0;"/><polygon fill="none" points="529.051,59.171,510.289,49.323,531.097,45.321,529.051,59.171" style="stroke:#A80036;stroke-width:1.0;"/><!--MD5=[d9910d8fe424b52b4f9db18f5a89117e]
@startuml
interface IStrategyRabais {
  public Double getCost();
}

class repas implements IStrategyRabais
class CompositeBestForCustomer implements IStrategyRabais 
class CompositeBestForStore implements IStrategyRabais 
class CompositeMinimumCost implements IStrategyRabais 

CompositeBestForCustomer - -> "*" IStrategyRabais 
CompositeBestForStore - -> "*" IStrategyRabais 
CompositeMinimumCost - -> "*" IStrategyRabais 


IStrategyRabais <|.. StrategiePourcentageRemise
IStrategyRabais <|.. StrategieRemiseAPartirDe
@enduml

PlantUML version 1.2021.01beta7(Unknown compile time)
(GPL source distribution)
Java Runtime: Java(TM) SE Runtime Environment
JVM: Java HotSpot(TM) 64-Bit Server VM
Default Encoding: UTF-8
Language: en
Country: US
--></g></svg>