<?xml version="1.0" encoding="UTF-8" standalone="no"?><svg xmlns="http://www.w3.org/2000/svg" xmlns:xlink="http://www.w3.org/1999/xlink" contentScriptType="application/ecmascript" contentStyleType="text/css" height="190px" preserveAspectRatio="none" style="width:444px;height:190px;" version="1.1" viewBox="0 0 444 190" width="444px" zoomAndPan="magnify"><defs><filter height="300%" id="f1oa9fh6fn1hc0" width="300%" x="-1" y="-1"><feGaussianBlur result="blurOut" stdDeviation="2.0"/><feColorMatrix in="blurOut" result="blurOut2" type="matrix" values="0 0 0 0 0 0 0 0 0 0 0 0 0 0 0 0 0 0 .4 0"/><feOffset dx="4.0" dy="4.0" in="blurOut2" result="blurOut3"/><feBlend in="SourceGraphic" in2="blurOut3" mode="normal"/></filter></defs><g><!--MD5=[767db294c046c23b08caefe53595f3f4]
class IStrategyRabais--><rect codeLine="1" fill="#FEFECE" filter="url(#f1oa9fh6fn1hc0)" height="60.8047" id="IStrategyRabais" style="stroke:#A80036;stroke-width:1.5;" width="127" x="160.5" y="7"/><ellipse cx="175.5" cy="23" fill="#B4A7E5" rx="11" ry="11" style="stroke:#A80036;stroke-width:1.0;"/><path d="M176.4531,19.7813 L178.1719,19.7813 C178.5625,19.7813 178.75,19.75 178.875,19.6719 C179.1406,19.5156 179.2813,19.2344 179.2813,18.9375 C179.2813,18.6719 179.1719,18.4063 178.9375,18.2344 C178.7656,18.125 178.625,18.0938 178.1719,18.0938 L173.0313,18.0938 C172.5938,18.0938 172.4688,18.1094 172.3125,18.2031 C172.0625,18.3594 171.9063,18.6563 171.9063,18.9375 C171.9063,19.2188 172.0469,19.4688 172.2656,19.6406 C172.4219,19.75 172.6094,19.7813 173.0313,19.7813 L174.75,19.7813 L174.75,26.2969 L173.0313,26.2969 C172.5938,26.2969 172.4688,26.3125 172.3125,26.4219 C172.0625,26.5781 171.9063,26.8594 171.9063,27.1563 C171.9063,27.4063 172.0469,27.6719 172.2656,27.8281 C172.4219,27.9531 172.625,28 173.0313,28 L178.1719,28 C178.9219,28 179.2813,27.7188 179.2813,27.1563 C179.2813,26.875 179.1719,26.625 178.9375,26.4531 C178.7656,26.3281 178.625,26.2969 178.1719,26.2969 L176.4531,26.2969 L176.4531,19.7813 Z " fill="#000000"/><text fill="#000000" font-family="sans-serif" font-size="12" font-style="italic" lengthAdjust="spacing" textLength="95" x="189.5" y="27.1543">IStrategyRabais</text><line style="stroke:#A80036;stroke-width:1.5;" x1="161.5" x2="286.5" y1="39" y2="39"/><line style="stroke:#A80036;stroke-width:1.5;" x1="161.5" x2="286.5" y1="47" y2="47"/><text fill="#000000" font-family="sans-serif" font-size="11" lengthAdjust="spacing" textLength="100" x="166.5" y="61.2104">getCost(): Double</text><!--MD5=[840a8a0679d40dfa6c27f6d5b7f78e76]
class StrategiePourcentageRemise--><rect fill="#FEFECE" filter="url(#f1oa9fh6fn1hc0)" height="48" id="StrategiePourcentageRemise" style="stroke:#A80036;stroke-width:1.5;" width="206" x="7" y="128"/><ellipse cx="22" cy="144" fill="#ADD1B2" rx="11" ry="11" style="stroke:#A80036;stroke-width:1.0;"/><path d="M24.3438,139.6719 C23.4063,139.2344 22.8125,139.0938 21.9375,139.0938 C19.3125,139.0938 17.3125,141.1719 17.3125,143.8906 L17.3125,145.0156 C17.3125,147.5938 19.4219,149.4844 22.3125,149.4844 C23.5313,149.4844 24.6875,149.1875 25.4375,148.6406 C26.0156,148.2344 26.3438,147.7813 26.3438,147.3906 C26.3438,146.9375 25.9531,146.5469 25.4844,146.5469 C25.2656,146.5469 25.0625,146.625 24.875,146.8125 C24.4219,147.2969 24.4219,147.2969 24.2344,147.3906 C23.8125,147.6563 23.125,147.7813 22.3594,147.7813 C20.3125,147.7813 19.0156,146.6875 19.0156,144.9844 L19.0156,143.8906 C19.0156,142.1094 20.2656,140.7969 22,140.7969 C22.5781,140.7969 23.1875,140.9531 23.6563,141.2031 C24.1406,141.4844 24.3125,141.7031 24.4063,142.1094 C24.4688,142.5156 24.5,142.6406 24.6406,142.7656 C24.7813,142.9063 25.0156,143.0156 25.2344,143.0156 C25.5,143.0156 25.7656,142.875 25.9375,142.6563 C26.0469,142.5 26.0781,142.3125 26.0781,141.8906 L26.0781,140.4688 C26.0781,140.0313 26.0625,139.9063 25.9688,139.75 C25.8125,139.4844 25.5313,139.3438 25.2344,139.3438 C24.9375,139.3438 24.7344,139.4375 24.5156,139.75 L24.3438,139.6719 Z " fill="#000000"/><text fill="#000000" font-family="sans-serif" font-size="12" lengthAdjust="spacing" textLength="174" x="36" y="148.1543">StrategiePourcentageRemise</text><line style="stroke:#A80036;stroke-width:1.5;" x1="8" x2="212" y1="160" y2="160"/><line style="stroke:#A80036;stroke-width:1.5;" x1="8" x2="212" y1="168" y2="168"/><!--MD5=[fd1656319bf40bb4860173a27daa036c]
class StrategyRemiseAPartirDe--><rect fill="#FEFECE" filter="url(#f1oa9fh6fn1hc0)" height="48" id="StrategyRemiseAPartirDe" style="stroke:#A80036;stroke-width:1.5;" width="182" x="248" y="128"/><ellipse cx="263" cy="144" fill="#ADD1B2" rx="11" ry="11" style="stroke:#A80036;stroke-width:1.0;"/><path d="M265.3438,139.6719 C264.4063,139.2344 263.8125,139.0938 262.9375,139.0938 C260.3125,139.0938 258.3125,141.1719 258.3125,143.8906 L258.3125,145.0156 C258.3125,147.5938 260.4219,149.4844 263.3125,149.4844 C264.5313,149.4844 265.6875,149.1875 266.4375,148.6406 C267.0156,148.2344 267.3438,147.7813 267.3438,147.3906 C267.3438,146.9375 266.9531,146.5469 266.4844,146.5469 C266.2656,146.5469 266.0625,146.625 265.875,146.8125 C265.4219,147.2969 265.4219,147.2969 265.2344,147.3906 C264.8125,147.6563 264.125,147.7813 263.3594,147.7813 C261.3125,147.7813 260.0156,146.6875 260.0156,144.9844 L260.0156,143.8906 C260.0156,142.1094 261.2656,140.7969 263,140.7969 C263.5781,140.7969 264.1875,140.9531 264.6563,141.2031 C265.1406,141.4844 265.3125,141.7031 265.4063,142.1094 C265.4688,142.5156 265.5,142.6406 265.6406,142.7656 C265.7813,142.9063 266.0156,143.0156 266.2344,143.0156 C266.5,143.0156 266.7656,142.875 266.9375,142.6563 C267.0469,142.5 267.0781,142.3125 267.0781,141.8906 L267.0781,140.4688 C267.0781,140.0313 267.0625,139.9063 266.9688,139.75 C266.8125,139.4844 266.5313,139.3438 266.2344,139.3438 C265.9375,139.3438 265.7344,139.4375 265.5156,139.75 L265.3438,139.6719 Z " fill="#000000"/><text fill="#000000" font-family="sans-serif" font-size="12" lengthAdjust="spacing" textLength="150" x="277" y="148.1543">StrategyRemiseAPartirDe</text><line style="stroke:#A80036;stroke-width:1.5;" x1="249" x2="429" y1="160" y2="160"/><line style="stroke:#A80036;stroke-width:1.5;" x1="249" x2="429" y1="168" y2="168"/><!--MD5=[abb082f83036c9ca11d4941425f9a80f]
reverse link IStrategyRabais to StrategiePourcentageRemise--><path codeLine="5" d="M179.599,82.3165 C163.929,97.7801 146.922,114.5635 133.642,127.6686 " fill="none" id="IStrategyRabais-backto-StrategiePourcentageRemise" style="stroke:#A80036;stroke-width:1.0;stroke-dasharray:7.0,7.0;"/><polygon fill="none" points="174.895,77.1238,194.048,68.058,184.729,87.0887,174.895,77.1238" style="stroke:#A80036;stroke-width:1.0;"/><!--MD5=[b8d32cc4306c341292605425b33e66bb]
reverse link IStrategyRabais to StrategyRemiseAPartirDe--><path codeLine="6" d="M268.79,82.3165 C284.597,97.7801 301.754,114.5635 315.15,127.6686 " fill="none" id="IStrategyRabais-backto-StrategyRemiseAPartirDe" style="stroke:#A80036;stroke-width:1.0;stroke-dasharray:7.0,7.0;"/><polygon fill="none" points="263.617,87.0478,254.215,68.058,273.407,77.0401,263.617,87.0478" style="stroke:#A80036;stroke-width:1.0;"/><!--MD5=[ede9c1452f03a3074e40fde7f033ae01]
@startuml
interface IStrategyRabais{
    getCost(): Double
}

StrategiePourcentageRemise .up-|> IStrategyRabais
StrategyRemiseAPartirDe .up-|> IStrategyRabais
@enduml

PlantUML version 1.2021.01beta3(Unknown compile time)
(GPL source distribution)
Java Runtime: Java(TM) SE Runtime Environment
JVM: Java HotSpot(TM) 64-Bit Server VM
Default Encoding: UTF-8
Language: en
Country: US
--></g></svg>